<svg width="497" height="116" viewBox="0 0 497 116" fill="none" xmlns="http://www.w3.org/2000/svg">
<line x1="91" y1="25.5" x2="495" y2="25.5" stroke="white" stroke-dasharray="2 2"/>
<line x1="91" y1="94.5" x2="495" y2="94.5" stroke="white" stroke-dasharray="2 2"/>
<path d="M157 9H97V39H157V9Z" fill="#F0F0F0" stroke="#808080" stroke-width="1.5"/>
<path d="M128.183 20.2727V29H127.126V21.3807H127.075L124.944 22.7955V21.7216L127.126 20.2727H128.183Z" fill="black"/>
<path d="M153.091 30.6364V35H152.563V31.1903H152.537L151.472 31.8977V31.3608L152.563 30.6364H153.091Z" fill="black"/>
<path d="M62 49H18V71H62V49Z" fill="#F0F0F0" stroke="#808080"/>
<path d="M26.9444 55.3952V55.8214H25.2484V55.3952H26.9444ZM25.7427 54.6112H26.2455V57.7305C26.2455 57.8725 26.2661 57.979 26.3073 58.0501C26.3499 58.1197 26.4039 58.1665 26.4693 58.1907C26.536 58.2134 26.6063 58.2248 26.6802 58.2248C26.7356 58.2248 26.781 58.2219 26.8166 58.2163C26.8521 58.2092 26.8805 58.2035 26.9018 58.1992L27.0041 58.6509C26.97 58.6637 26.9224 58.6765 26.8613 58.6893C26.8002 58.7035 26.7228 58.7106 26.6291 58.7106C26.487 58.7106 26.3478 58.68 26.2114 58.619C26.0765 58.5579 25.9643 58.4648 25.8748 58.3398C25.7867 58.2148 25.7427 58.0572 25.7427 57.8668V54.6112ZM27.7008 58.668V55.3952H28.2036V58.668H27.7008ZM27.9565 54.8498C27.8585 54.8498 27.7739 54.8164 27.7029 54.7496C27.6333 54.6829 27.5985 54.6026 27.5985 54.5089C27.5985 54.4151 27.6333 54.3349 27.7029 54.2681C27.7739 54.2013 27.8585 54.168 27.9565 54.168C28.0545 54.168 28.1383 54.2013 28.2079 54.2681C28.2789 54.3349 28.3144 54.4151 28.3144 54.5089C28.3144 54.6026 28.2789 54.6829 28.2079 54.7496C28.1383 54.8164 28.0545 54.8498 27.9565 54.8498ZM29.1246 58.668V55.3952H29.6104V55.9066H29.653C29.7212 55.7319 29.8313 55.5962 29.9833 55.4996C30.1353 55.4016 30.3178 55.3526 30.5309 55.3526C30.7468 55.3526 30.9265 55.4016 31.0699 55.4996C31.2148 55.5962 31.3277 55.7319 31.4087 55.9066H31.4428C31.5266 55.7376 31.6523 55.6033 31.8199 55.5039C31.9875 55.4031 32.1885 55.3526 32.4229 55.3526C32.7155 55.3526 32.9549 55.4442 33.141 55.6275C33.327 55.8093 33.4201 56.0927 33.4201 56.4776V58.668H32.9172V56.4776C32.9172 56.2362 32.8512 56.0636 32.7191 55.9599C32.587 55.8562 32.4314 55.8043 32.2525 55.8043C32.0223 55.8043 31.8441 55.8739 31.7177 56.0131C31.5912 56.1509 31.528 56.3256 31.528 56.5373V58.668H31.0167V56.4265C31.0167 56.2404 30.9563 56.0906 30.8356 55.9769C30.7148 55.8619 30.5593 55.8043 30.3689 55.8043C30.2383 55.8043 30.1161 55.8391 30.0025 55.9087C29.8902 55.9783 29.7993 56.0749 29.7297 56.1985C29.6615 56.3207 29.6275 56.462 29.6275 56.6225V58.668H29.1246ZM35.7116 58.7362C35.3963 58.7362 35.1243 58.6665 34.8956 58.5273C34.6683 58.3867 34.4929 58.1907 34.3693 57.9393C34.2471 57.6864 34.1861 57.3924 34.1861 57.0572C34.1861 56.7219 34.2471 56.4265 34.3693 56.1708C34.4929 55.9137 34.6647 55.7134 34.8849 55.57C35.1065 55.4251 35.365 55.3526 35.6605 55.3526C35.8309 55.3526 35.9993 55.381 36.1655 55.4379C36.3316 55.4947 36.4829 55.587 36.6193 55.7148C36.7557 55.8413 36.8643 56.0089 36.9453 56.2177C37.0262 56.4265 37.0667 56.6836 37.0667 56.989V57.2021H34.544V56.7674H36.5554C36.5554 56.5827 36.5184 56.418 36.4446 56.2731C36.3721 56.1282 36.2684 56.0138 36.1335 55.93C36 55.8462 35.8423 55.8043 35.6605 55.8043C35.4602 55.8043 35.2869 55.854 35.1406 55.9535C34.9957 56.0515 34.8842 56.1793 34.8061 56.337C34.728 56.4947 34.6889 56.6637 34.6889 56.8441V57.1339C34.6889 57.381 34.7315 57.5906 34.8167 57.7624C34.9034 57.9329 35.0234 58.0629 35.1768 58.1523C35.3302 58.2404 35.5085 58.2844 35.7116 58.2844C35.8437 58.2844 35.963 58.266 36.0696 58.229C36.1775 58.1907 36.2706 58.1339 36.3487 58.0586C36.4268 57.9819 36.4872 57.8867 36.5298 57.7731L37.0156 57.9094C36.9645 58.0742 36.8785 58.2191 36.7578 58.3441C36.637 58.4677 36.4879 58.5643 36.3103 58.6339C36.1328 58.7021 35.9332 58.7362 35.7116 58.7362ZM40.1498 56.1282L39.6981 56.256C39.6697 56.1808 39.6278 56.1076 39.5724 56.0366C39.5184 55.9641 39.4446 55.9045 39.3508 55.8576C39.2571 55.8107 39.137 55.7873 38.9907 55.7873C38.7905 55.7873 38.6236 55.8335 38.49 55.9258C38.3579 56.0167 38.2919 56.1325 38.2919 56.2731C38.2919 56.3981 38.3373 56.4968 38.4282 56.5692C38.5191 56.6417 38.6612 56.7021 38.8544 56.7504L39.3402 56.8697C39.6328 56.9407 39.8508 57.0494 39.9943 57.1957C40.1378 57.3406 40.2095 57.5273 40.2095 57.756C40.2095 57.9435 40.1555 58.1112 40.0476 58.2589C39.941 58.4066 39.7919 58.5231 39.6001 58.6083C39.4084 58.6935 39.1853 58.7362 38.9311 58.7362C38.5973 58.7362 38.321 58.6637 38.1022 58.5188C37.8835 58.3739 37.745 58.1623 37.6868 57.8839L38.164 57.7646C38.2095 57.9407 38.2954 58.0728 38.4218 58.1609C38.5497 58.2489 38.7166 58.293 38.9226 58.293C39.1569 58.293 39.343 58.2433 39.4808 58.1438C39.62 58.043 39.6896 57.9222 39.6896 57.7816C39.6896 57.668 39.6498 57.5728 39.5703 57.4961C39.4907 57.418 39.3686 57.3597 39.2038 57.3214L38.6584 57.1935C38.3586 57.1225 38.1385 57.0124 37.9978 56.8633C37.8586 56.7127 37.789 56.5245 37.789 56.2987C37.789 56.114 37.8409 55.9506 37.9446 55.8086C38.0497 55.6665 38.1924 55.555 38.3728 55.4741C38.5547 55.3931 38.7606 55.3526 38.9907 55.3526C39.3146 55.3526 39.5689 55.4237 39.7535 55.5657C39.9396 55.7077 40.0717 55.8952 40.1498 56.1282ZM42.3897 55.3952V55.8214H40.6937V55.3952H42.3897ZM41.188 54.6112H41.6908V57.7305C41.6908 57.8725 41.7114 57.979 41.7526 58.0501C41.7952 58.1197 41.8492 58.1665 41.9146 58.1907C41.9813 58.2134 42.0516 58.2248 42.1255 58.2248C42.1809 58.2248 42.2264 58.2219 42.2619 58.2163C42.2974 58.2092 42.3258 58.2035 42.3471 58.1992L42.4494 58.6509C42.4153 58.6637 42.3677 58.6765 42.3066 58.6893C42.2455 58.7035 42.1681 58.7106 42.0744 58.7106C41.9323 58.7106 41.7931 58.68 41.6568 58.619C41.5218 58.5579 41.4096 58.4648 41.3201 58.3398C41.232 58.2148 41.188 58.0572 41.188 57.8668V54.6112ZM44.1092 58.7447C43.9018 58.7447 43.7136 58.7056 43.5445 58.6275C43.3755 58.5479 43.2413 58.4336 43.1418 58.2844C43.0424 58.1339 42.9927 57.9521 42.9927 57.739C42.9927 57.5515 43.0296 57.3995 43.1035 57.283C43.1774 57.1651 43.2761 57.0728 43.3997 57.006C43.5232 56.9393 43.6596 56.8896 43.8087 56.8569C43.9593 56.8228 44.1106 56.7958 44.2626 56.7759C44.4614 56.7504 44.6227 56.7312 44.7462 56.7184C44.8712 56.7042 44.9622 56.6808 45.019 56.6481C45.0772 56.6154 45.1063 56.5586 45.1063 56.4776V56.4606C45.1063 56.2504 45.0488 56.087 44.9337 55.9705C44.8201 55.854 44.6475 55.7958 44.416 55.7958C44.1759 55.7958 43.9877 55.8484 43.8514 55.9535C43.715 56.0586 43.6191 56.1708 43.5637 56.2901L43.0864 56.1197C43.1717 55.9208 43.2853 55.766 43.4274 55.6552C43.5708 55.543 43.7271 55.4648 43.8961 55.4208C44.0666 55.3754 44.2342 55.3526 44.3989 55.3526C44.5041 55.3526 44.6248 55.3654 44.7612 55.391C44.8989 55.4151 45.0318 55.4656 45.1596 55.5423C45.2889 55.619 45.3961 55.7347 45.4813 55.8896C45.5666 56.0444 45.6092 56.2518 45.6092 56.5117V58.668H45.1063V58.2248H45.0808C45.0467 58.2958 44.9899 58.3718 44.9103 58.4528C44.8308 58.5337 44.7249 58.6026 44.5928 58.6594C44.4607 58.7163 44.2995 58.7447 44.1092 58.7447ZM44.1859 58.293C44.3847 58.293 44.5524 58.2539 44.6887 58.1758C44.8265 58.0977 44.9302 57.9968 44.9998 57.8732C45.0708 57.7496 45.1063 57.6197 45.1063 57.4833V57.0231C45.085 57.0487 45.0381 57.0721 44.9657 57.0934C44.8947 57.1133 44.8123 57.131 44.7185 57.1467C44.6262 57.1609 44.536 57.1737 44.4479 57.185C44.3613 57.195 44.291 57.2035 44.237 57.2106C44.1063 57.2276 43.9842 57.2553 43.8705 57.2937C43.7583 57.3306 43.6674 57.3867 43.5978 57.462C43.5296 57.5359 43.4955 57.6367 43.4955 57.7646C43.4955 57.9393 43.5602 58.0714 43.6894 58.1609C43.8201 58.2489 43.9856 58.293 44.1859 58.293ZM46.527 58.668V55.3952H47.0128V55.9066H47.0554C47.1236 55.7319 47.2336 55.5962 47.3856 55.4996C47.5376 55.4016 47.7201 55.3526 47.9332 55.3526C48.1491 55.3526 48.3288 55.4016 48.4723 55.4996C48.6172 55.5962 48.7301 55.7319 48.8111 55.9066H48.8451C48.9289 55.7376 49.0547 55.6033 49.2223 55.5039C49.3899 55.4031 49.5909 55.3526 49.8253 55.3526C50.1179 55.3526 50.3572 55.4442 50.5433 55.6275C50.7294 55.8093 50.8224 56.0927 50.8224 56.4776V58.668H50.3196V56.4776C50.3196 56.2362 50.2535 56.0636 50.1214 55.9599C49.9893 55.8562 49.8338 55.8043 49.6548 55.8043C49.4247 55.8043 49.2464 55.8739 49.12 56.0131C48.9936 56.1509 48.9304 56.3256 48.9304 56.5373V58.668H48.419V56.4265C48.419 56.2404 48.3586 56.0906 48.2379 55.9769C48.1172 55.8619 47.9616 55.8043 47.7713 55.8043C47.6406 55.8043 47.5184 55.8391 47.4048 55.9087C47.2926 55.9783 47.2017 56.0749 47.1321 56.1985C47.0639 56.3207 47.0298 56.462 47.0298 56.6225V58.668H46.527ZM51.7418 59.8952V55.3952H52.2276V55.9151H52.2873C52.3242 55.8583 52.3753 55.7859 52.4407 55.6978C52.5074 55.6083 52.6026 55.5288 52.7262 55.4592C52.8512 55.3881 53.0202 55.3526 53.2333 55.3526C53.5088 55.3526 53.7517 55.4215 53.962 55.5593C54.1722 55.6971 54.3363 55.8924 54.4542 56.1452C54.5721 56.3981 54.631 56.6964 54.631 57.0401C54.631 57.3867 54.5721 57.6871 54.4542 57.9414C54.3363 58.1942 54.1729 58.3903 53.9641 58.5295C53.7553 58.6673 53.5145 58.7362 53.2418 58.7362C53.0316 58.7362 52.8633 58.7013 52.7368 58.6317C52.6104 58.5607 52.5131 58.4805 52.4449 58.391C52.3767 58.3001 52.3242 58.2248 52.2873 58.1651H52.2446V59.8952H51.7418ZM52.2361 57.0316C52.2361 57.2788 52.2723 57.4968 52.3448 57.6857C52.4172 57.8732 52.5231 58.0202 52.6623 58.1268C52.8015 58.2319 52.9719 58.2844 53.1736 58.2844C53.3838 58.2844 53.5593 58.229 53.6999 58.1183C53.8419 58.006 53.9485 57.8555 54.0195 57.6665C54.0919 57.4762 54.1282 57.2646 54.1282 57.0316C54.1282 56.8015 54.0927 56.5941 54.0216 56.4094C53.952 56.2234 53.8462 56.0763 53.7042 55.9684C53.5635 55.859 53.3867 55.8043 53.1736 55.8043C52.9691 55.8043 52.7972 55.8562 52.658 55.9599C52.5188 56.0621 52.4137 56.2056 52.3427 56.3903C52.2716 56.5735 52.2361 56.7873 52.2361 57.0316Z" fill="black"/>
<path d="M35.089 67.668V64.7589H35.4242V65.8327H35.4526C35.4772 65.7949 35.5113 65.7466 35.5549 65.6879C35.5994 65.6282 35.6629 65.5752 35.7452 65.5288C35.8286 65.4814 35.9413 65.4577 36.0833 65.4577C36.267 65.4577 36.429 65.5037 36.5691 65.5955C36.7093 65.6874 36.8186 65.8176 36.8972 65.9862C36.9758 66.1547 37.0151 66.3536 37.0151 66.5827C37.0151 66.8138 36.9758 67.0141 36.8972 67.1836C36.8186 67.3522 36.7097 67.4828 36.5705 67.5756C36.4313 67.6675 36.2708 67.7134 36.089 67.7134C35.9488 67.7134 35.8366 67.6902 35.7523 67.6438C35.6681 67.5965 35.6032 67.543 35.5577 67.4833C35.5123 67.4227 35.4772 67.3725 35.4526 67.3327H35.4129V67.668H35.089ZM35.4185 66.5771C35.4185 66.7418 35.4427 66.8872 35.491 67.0131C35.5393 67.1381 35.6098 67.2362 35.7026 67.3072C35.7954 67.3772 35.9091 67.4123 36.0435 67.4123C36.1837 67.4123 36.3006 67.3754 36.3944 67.3015C36.4891 67.2267 36.5601 67.1263 36.6075 67.0004C36.6558 66.8735 36.6799 66.7324 36.6799 66.5771C36.6799 66.4237 36.6562 66.2854 36.6089 66.1623C36.5625 66.0382 36.4919 65.9402 36.3972 65.8683C36.3035 65.7953 36.1856 65.7589 36.0435 65.7589C35.9072 65.7589 35.7926 65.7934 35.6998 65.8626C35.607 65.9308 35.5369 66.0264 35.4896 66.1495C35.4422 66.2717 35.4185 66.4142 35.4185 66.5771ZM37.8631 64.7589V67.668H37.5279V64.7589H37.8631ZM39.3635 67.7134C39.1665 67.7134 38.9937 67.6665 38.845 67.5728C38.6973 67.479 38.5818 67.3479 38.4984 67.1793C38.4161 67.0108 38.3749 66.8138 38.3749 66.5884C38.3749 66.3612 38.4161 66.1628 38.4984 65.9933C38.5818 65.8237 38.6973 65.6921 38.845 65.5984C38.9937 65.5046 39.1665 65.4577 39.3635 65.4577C39.5605 65.4577 39.7328 65.5046 39.8805 65.5984C40.0292 65.6921 40.1447 65.8237 40.2271 65.9933C40.3105 66.1628 40.3521 66.3612 40.3521 66.5884C40.3521 66.8138 40.3105 67.0108 40.2271 67.1793C40.1447 67.3479 40.0292 67.479 39.8805 67.5728C39.7328 67.6665 39.5605 67.7134 39.3635 67.7134ZM39.3635 67.4123C39.5131 67.4123 39.6362 67.3739 39.7328 67.2972C39.8294 67.2205 39.9009 67.1197 39.9473 66.9947C39.9937 66.8697 40.0169 66.7343 40.0169 66.5884C40.0169 66.4426 39.9937 66.3067 39.9473 66.1808C39.9009 66.0548 39.8294 65.953 39.7328 65.8754C39.6362 65.7977 39.5131 65.7589 39.3635 65.7589C39.2139 65.7589 39.0908 65.7977 38.9942 65.8754C38.8976 65.953 38.8261 66.0548 38.7797 66.1808C38.7333 66.3067 38.7101 66.4426 38.7101 66.5884C38.7101 66.7343 38.7333 66.8697 38.7797 66.9947C38.8261 67.1197 38.8976 67.2205 38.9942 67.2972C39.0908 67.3739 39.2139 67.4123 39.3635 67.4123ZM41.7502 67.7134C41.5457 67.7134 41.3695 67.6651 41.2218 67.5685C41.0741 67.4719 40.9604 67.3389 40.8809 67.1694C40.8013 66.9999 40.7616 66.8062 40.7616 66.5884C40.7616 66.3668 40.8023 66.1713 40.8837 66.0018C40.9661 65.8313 41.0807 65.6983 41.2275 65.6026C41.3752 65.506 41.5476 65.4577 41.7445 65.4577C41.8979 65.4577 42.0362 65.4862 42.1593 65.543C42.2824 65.5998 42.3833 65.6793 42.4619 65.7816C42.5405 65.8839 42.5892 66.0032 42.6082 66.1396H42.2729C42.2474 66.0401 42.1906 65.9521 42.1025 65.8754C42.0154 65.7977 41.8979 65.7589 41.7502 65.7589C41.6195 65.7589 41.5049 65.793 41.4065 65.8612C41.3089 65.9284 41.2327 66.0236 41.1778 66.1467C41.1238 66.2688 41.0968 66.4123 41.0968 66.5771C41.0968 66.7456 41.1233 66.8924 41.1763 67.0174C41.2303 67.1424 41.3061 67.2395 41.4036 67.3086C41.5021 67.3777 41.6176 67.4123 41.7502 67.4123C41.8373 67.4123 41.9164 67.3971 41.9874 67.3668C42.0585 67.3365 42.1186 67.293 42.1678 67.2362C42.2171 67.1793 42.2521 67.1112 42.2729 67.0316H42.6082C42.5892 67.1604 42.5424 67.2764 42.4675 67.3796C42.3937 67.4819 42.2957 67.5633 42.1735 67.6239C42.0523 67.6836 41.9112 67.7134 41.7502 67.7134ZM43.4107 66.8725L43.405 66.4577H43.4732L44.4278 65.4862H44.8425L43.8255 66.5146H43.7971L43.4107 66.8725ZM43.0982 67.668V64.7589H43.4335V67.668H43.0982ZM44.4846 67.668L43.6323 66.5884L43.871 66.3555L44.9107 67.668H44.4846ZM46.7342 66.3555V67.668H46.399V65.4862H46.7229V65.8271H46.7513C46.8024 65.7163 46.8801 65.6272 46.9842 65.56C47.0884 65.4918 47.2229 65.4577 47.3876 65.4577C47.5354 65.4577 47.6646 65.488 47.7754 65.5487C47.8862 65.6083 47.9724 65.6992 48.0339 65.8214C48.0955 65.9426 48.1263 66.096 48.1263 66.2816V67.668H47.7911V66.3043C47.7911 66.1329 47.7465 65.9994 47.6575 65.9038C47.5685 65.8072 47.4464 65.7589 47.2911 65.7589C47.184 65.7589 47.0884 65.7821 47.0041 65.8285C46.9208 65.8749 46.855 65.9426 46.8067 66.0316C46.7584 66.1206 46.7342 66.2286 46.7342 66.3555ZM50.1138 66.7759V65.4862H50.4491V67.668H50.1138V67.2987H50.0911C50.04 67.4094 49.9604 67.5037 49.8525 67.5813C49.7445 67.658 49.6082 67.6964 49.4434 67.6964C49.307 67.6964 49.1858 67.6665 49.0798 67.6069C48.9737 67.5463 48.8904 67.4554 48.8298 67.3342C48.7692 67.212 48.7388 67.0581 48.7388 66.8725V65.4862H49.0741V66.8498C49.0741 67.0089 49.1186 67.1358 49.2076 67.2305C49.2976 67.3252 49.4121 67.3725 49.5513 67.3725C49.6347 67.3725 49.7194 67.3512 49.8056 67.3086C49.8927 67.266 49.9656 67.2006 50.0244 67.1126C50.084 67.0245 50.1138 66.9123 50.1138 66.7759ZM51.0631 67.668V65.4862H51.3869V65.8271H51.4153C51.4608 65.7106 51.5342 65.6201 51.6355 65.5558C51.7368 65.4904 51.8585 65.4577 52.0006 65.4577C52.1445 65.4577 52.2643 65.4904 52.3599 65.5558C52.4565 65.6201 52.5318 65.7106 52.5858 65.8271H52.6085C52.6644 65.7144 52.7482 65.6249 52.8599 65.5586C52.9717 65.4914 53.1057 65.4577 53.2619 65.4577C53.457 65.4577 53.6166 65.5188 53.7406 65.641C53.8647 65.7622 53.9267 65.9511 53.9267 66.2077V67.668H53.5915V66.2077C53.5915 66.0468 53.5474 65.9317 53.4594 65.8626C53.3713 65.7934 53.2676 65.7589 53.1483 65.7589C52.9949 65.7589 52.876 65.8053 52.7918 65.8981C52.7075 65.9899 52.6653 66.1064 52.6653 66.2475V67.668H52.3244V66.1737C52.3244 66.0496 52.2842 65.9497 52.2037 65.8739C52.1232 65.7972 52.0195 65.7589 51.8926 65.7589C51.8055 65.7589 51.7241 65.7821 51.6483 65.8285C51.5735 65.8749 51.5129 65.9393 51.4665 66.0217C51.421 66.1031 51.3983 66.1973 51.3983 66.3043V67.668H51.0631ZM54.5851 67.668V64.7589H54.9203V65.8327H54.9487C54.9733 65.7949 55.0074 65.7466 55.051 65.6879C55.0955 65.6282 55.1589 65.5752 55.2413 65.5288C55.3247 65.4814 55.4374 65.4577 55.5794 65.4577C55.7631 65.4577 55.925 65.5037 56.0652 65.5955C56.2054 65.6874 56.3147 65.8176 56.3933 65.9862C56.4719 66.1547 56.5112 66.3536 56.5112 66.5827C56.5112 66.8138 56.4719 67.0141 56.3933 67.1836C56.3147 67.3522 56.2058 67.4828 56.0666 67.5756C55.9274 67.6675 55.7669 67.7134 55.5851 67.7134C55.4449 67.7134 55.3327 67.6902 55.2484 67.6438C55.1642 67.5965 55.0993 67.543 55.0538 67.4833C55.0084 67.4227 54.9733 67.3725 54.9487 67.3327H54.9089V67.668H54.5851ZM54.9146 66.5771C54.9146 66.7418 54.9388 66.8872 54.9871 67.0131C55.0354 67.1381 55.1059 67.2362 55.1987 67.3072C55.2915 67.3772 55.4052 67.4123 55.5396 67.4123C55.6798 67.4123 55.7967 67.3754 55.8905 67.3015C55.9852 67.2267 56.0562 67.1263 56.1036 67.0004C56.1518 66.8735 56.176 66.7324 56.176 66.5771C56.176 66.4237 56.1523 66.2854 56.105 66.1623C56.0586 66.0382 55.988 65.9402 55.8933 65.8683C55.7996 65.7953 55.6817 65.7589 55.5396 65.7589C55.4033 65.7589 55.2887 65.7934 55.1959 65.8626C55.1031 65.9308 55.033 66.0264 54.9857 66.1495C54.9383 66.2717 54.9146 66.4142 54.9146 66.5771ZM57.9388 67.7134C57.7286 67.7134 57.5472 67.667 57.3947 67.5742C57.2432 67.4805 57.1263 67.3498 57.0439 67.1822C56.9625 67.0136 56.9217 66.8176 56.9217 66.5941C56.9217 66.3706 56.9625 66.1737 57.0439 66.0032C57.1263 65.8318 57.2409 65.6983 57.3876 65.6026C57.5354 65.506 57.7077 65.4577 57.9047 65.4577C58.0183 65.4577 58.1305 65.4767 58.2413 65.5146C58.3521 65.5524 58.453 65.614 58.5439 65.6992C58.6348 65.7835 58.7072 65.8952 58.7612 66.0344C58.8152 66.1737 58.8422 66.3451 58.8422 66.5487V66.6907H57.1604V66.4009H58.5013C58.5013 66.2778 58.4767 66.168 58.4274 66.0714C58.3791 65.9748 58.31 65.8986 58.22 65.8427C58.131 65.7868 58.0259 65.7589 57.9047 65.7589C57.7712 65.7589 57.6556 65.792 57.5581 65.8583C57.4615 65.9237 57.3872 66.0089 57.3351 66.114C57.283 66.2191 57.257 66.3318 57.257 66.4521V66.6452C57.257 66.81 57.2854 66.9497 57.3422 67.0643C57.4 67.1779 57.48 67.2646 57.5822 67.3242C57.6845 67.3829 57.8034 67.4123 57.9388 67.4123C58.0268 67.4123 58.1064 67.4 58.1774 67.3754C58.2494 67.3498 58.3114 67.3119 58.3635 67.2617C58.4156 67.2106 58.4558 67.1471 58.4842 67.0714L58.8081 67.1623C58.774 67.2721 58.7167 67.3687 58.6362 67.4521C58.5557 67.5344 58.4563 67.5988 58.3379 67.6452C58.2196 67.6907 58.0865 67.7134 57.9388 67.7134ZM59.3521 67.668V65.4862H59.676V65.8157H59.6987C59.7385 65.7077 59.8105 65.6201 59.9146 65.5529C60.0188 65.4857 60.1362 65.4521 60.2669 65.4521C60.2915 65.4521 60.3223 65.4525 60.3592 65.4535C60.3962 65.4544 60.4241 65.4558 60.443 65.4577V65.7987C60.4317 65.7958 60.4056 65.7915 60.3649 65.7859C60.3251 65.7792 60.283 65.7759 60.2385 65.7759C60.1324 65.7759 60.0377 65.7982 59.9544 65.8427C59.872 65.8862 59.8067 65.9469 59.7584 66.0245C59.711 66.1012 59.6874 66.1888 59.6874 66.2873V67.668H59.3521Z" fill="black"/>
<path d="M257 9H197V39H257V9Z" fill="#F0F0F0" stroke="#FF0000" stroke-width="2"/>
<path d="M227.032 29.1193C226.469 29.1193 225.968 29.0227 225.528 28.8295C225.09 28.6364 224.742 28.3679 224.484 28.0241C224.228 27.6776 224.089 27.2756 224.066 26.8182H225.14C225.163 27.0994 225.259 27.3423 225.43 27.5469C225.6 27.7486 225.823 27.9048 226.099 28.0156C226.374 28.1264 226.68 28.1818 227.015 28.1818C227.39 28.1818 227.722 28.1165 228.012 27.9858C228.302 27.8551 228.529 27.6733 228.694 27.4403C228.859 27.2074 228.941 26.9375 228.941 26.6307C228.941 26.3097 228.862 26.027 228.702 25.7827C228.543 25.5355 228.31 25.3423 228.004 25.2031C227.697 25.0639 227.322 24.9943 226.879 24.9943H226.18V24.0568H226.879C227.225 24.0568 227.529 23.9943 227.79 23.8693C228.055 23.7443 228.261 23.5682 228.408 23.3409C228.559 23.1136 228.634 22.8466 228.634 22.5398C228.634 22.2443 228.569 21.9872 228.438 21.7685C228.308 21.5497 228.123 21.3793 227.884 21.2571C227.648 21.1349 227.37 21.0739 227.049 21.0739C226.748 21.0739 226.464 21.1293 226.197 21.2401C225.933 21.348 225.717 21.5057 225.549 21.7131C225.381 21.9176 225.29 22.1648 225.276 22.4545H224.254C224.271 21.9972 224.408 21.5966 224.667 21.2528C224.925 20.9062 225.263 20.6364 225.681 20.4432C226.102 20.25 226.563 20.1534 227.066 20.1534C227.606 20.1534 228.069 20.2628 228.455 20.4815C228.842 20.6974 229.138 20.983 229.346 21.3381C229.553 21.6932 229.657 22.0767 229.657 22.4886C229.657 22.9801 229.528 23.3991 229.269 23.7457C229.013 24.0923 228.665 24.3324 228.225 24.4659V24.5341C228.776 24.625 229.207 24.8594 229.516 25.2372C229.826 25.6122 229.981 26.0767 229.981 26.6307C229.981 27.1051 229.852 27.5312 229.593 27.9091C229.337 28.2841 228.988 28.5795 228.545 28.7955C228.102 29.0114 227.597 29.1193 227.032 29.1193Z" fill="black"/>
<path d="M250.635 35V34.6165L252.076 33.0398C252.245 32.8551 252.384 32.6946 252.493 32.5582C252.603 32.4205 252.684 32.2912 252.736 32.1705C252.79 32.0483 252.817 31.9205 252.817 31.7869C252.817 31.6335 252.78 31.5007 252.706 31.3885C252.634 31.2763 252.534 31.1896 252.408 31.1286C252.282 31.0675 252.14 31.0369 251.982 31.0369C251.814 31.0369 251.668 31.0717 251.543 31.1413C251.419 31.2095 251.324 31.3054 251.255 31.429C251.189 31.5526 251.155 31.6974 251.155 31.8636H250.652C250.652 31.608 250.711 31.3835 250.829 31.1903C250.947 30.9972 251.108 30.8466 251.311 30.7386C251.515 30.6307 251.745 30.5767 251.999 30.5767C252.255 30.5767 252.481 30.6307 252.679 30.7386C252.876 30.8466 253.031 30.9922 253.143 31.1754C253.255 31.3587 253.311 31.5625 253.311 31.7869C253.311 31.9474 253.282 32.1044 253.224 32.2578C253.167 32.4098 253.068 32.5795 252.926 32.767C252.785 32.9531 252.59 33.1804 252.34 33.4489L251.36 34.4972V34.5312H253.388V35H250.635Z" fill="black"/>
<path d="M387 9H327V39H387V9Z" fill="#F0F0F0" stroke="#FF0000" stroke-width="2"/>
<path d="M356.98 29.1193C356.48 29.1193 356.03 29.0199 355.629 28.821C355.229 28.6222 354.908 28.3494 354.666 28.0028C354.425 27.6562 354.293 27.2614 354.27 26.8182H355.293C355.333 27.2131 355.512 27.5398 355.83 27.7983C356.151 28.054 356.534 28.1818 356.98 28.1818C357.338 28.1818 357.656 28.098 357.935 27.9304C358.216 27.7628 358.436 27.5327 358.595 27.2401C358.757 26.9446 358.838 26.6108 358.838 26.2386C358.838 25.858 358.754 25.5185 358.587 25.2202C358.422 24.919 358.195 24.6818 357.905 24.5085C357.615 24.3352 357.284 24.2472 356.912 24.2443C356.645 24.2415 356.371 24.2827 356.09 24.3679C355.808 24.4503 355.577 24.5568 355.395 24.6875L354.406 24.5682L354.935 20.2727H359.469V21.2102H355.821L355.514 23.7841H355.566C355.744 23.642 355.969 23.5241 356.239 23.4304C356.509 23.3366 356.79 23.2898 357.083 23.2898C357.617 23.2898 358.093 23.4176 358.51 23.6733C358.931 23.9261 359.26 24.2727 359.499 24.7131C359.74 25.1534 359.861 25.6562 359.861 26.2216C359.861 26.7784 359.736 27.2756 359.486 27.7131C359.239 28.1477 358.898 28.4915 358.463 28.7443C358.029 28.9943 357.534 29.1193 356.98 29.1193Z" fill="black"/>
<path d="M382.016 35.0597C381.735 35.0597 381.484 35.0114 381.264 34.9148C381.045 34.8182 380.871 34.6839 380.742 34.5121C380.614 34.3388 380.544 34.1378 380.533 33.9091H381.07C381.081 34.0497 381.13 34.1712 381.215 34.2734C381.3 34.3743 381.412 34.4524 381.549 34.5078C381.687 34.5632 381.84 34.5909 382.007 34.5909C382.195 34.5909 382.361 34.5582 382.506 34.4929C382.651 34.4276 382.765 34.3366 382.847 34.2202C382.929 34.1037 382.971 33.9688 382.971 33.8153C382.971 33.6548 382.931 33.5135 382.851 33.3913C382.772 33.2678 382.655 33.1712 382.502 33.1016C382.348 33.032 382.161 32.9972 381.939 32.9972H381.59V32.5284H381.939C382.113 32.5284 382.265 32.4972 382.395 32.4347C382.527 32.3722 382.63 32.2841 382.704 32.1705C382.779 32.0568 382.817 31.9233 382.817 31.7699C382.817 31.6222 382.784 31.4936 382.719 31.3842C382.654 31.2749 382.561 31.1896 382.442 31.1286C382.324 31.0675 382.185 31.0369 382.025 31.0369C381.874 31.0369 381.732 31.0646 381.598 31.12C381.466 31.174 381.358 31.2528 381.275 31.3565C381.191 31.4588 381.145 31.5824 381.138 31.7273H380.627C380.635 31.4986 380.704 31.2983 380.833 31.1264C380.963 30.9531 381.132 30.8182 381.341 30.7216C381.551 30.625 381.782 30.5767 382.033 30.5767C382.303 30.5767 382.534 30.6314 382.728 30.7408C382.921 30.8487 383.069 30.9915 383.173 31.169C383.277 31.3466 383.328 31.5384 383.328 31.7443C383.328 31.9901 383.264 32.1996 383.135 32.3729C383.007 32.5462 382.833 32.6662 382.613 32.733V32.767C382.888 32.8125 383.103 32.9297 383.258 33.1186C383.413 33.3061 383.49 33.5384 383.49 33.8153C383.49 34.0526 383.426 34.2656 383.297 34.4545C383.169 34.642 382.994 34.7898 382.772 34.8977C382.551 35.0057 382.299 35.0597 382.016 35.0597Z" fill="black"/>
<path d="M487 9H427V39H487V9Z" fill="#F0F0F0" stroke="#808080" stroke-width="1.5"/>
<path d="M454.748 29L458.652 21.2784V21.2102H454.152V20.2727H459.743V21.2614L455.856 29H454.748Z" fill="black"/>
<path d="M480.425 34.1051V33.6705L482.342 30.6364H482.658V31.3097H482.445L480.996 33.6023V33.6364H483.578V34.1051H480.425ZM482.479 35V33.973V33.7706V30.6364H482.981V35H482.479Z" fill="black"/>
<path d="M187 79H127V109H187V79Z" fill="#F0F0F0" stroke="#808080" stroke-width="1.5"/>
<path d="M183.091 100.636V105H182.563V101.19H182.537L181.472 101.898V101.361L182.563 100.636H183.091Z" fill="black"/>
<path d="M154.271 99V98.233L157.151 95.0795C157.489 94.7102 157.768 94.3892 157.987 94.1165C158.205 93.8409 158.367 93.5824 158.472 93.3409C158.58 93.0966 158.634 92.8409 158.634 92.5739C158.634 92.267 158.56 92.0014 158.413 91.777C158.268 91.5526 158.069 91.3793 157.816 91.2571C157.563 91.1349 157.279 91.0739 156.964 91.0739C156.629 91.0739 156.336 91.1435 156.086 91.2827C155.839 91.419 155.647 91.6108 155.511 91.858C155.377 92.1051 155.31 92.3949 155.31 92.7273H154.305C154.305 92.2159 154.423 91.767 154.658 91.3807C154.894 90.9943 155.215 90.6932 155.621 90.4773C156.031 90.2614 156.489 90.1534 156.998 90.1534C157.509 90.1534 157.962 90.2614 158.357 90.4773C158.752 90.6932 159.062 90.9844 159.286 91.3509C159.511 91.7173 159.623 92.125 159.623 92.5739C159.623 92.8949 159.565 93.2088 159.448 93.5156C159.335 93.8196 159.136 94.1591 158.852 94.5341C158.57 94.9062 158.18 95.3608 157.68 95.8977L155.719 97.9943V98.0625H159.776V99H154.271Z" fill="black"/>
<path d="M307 79H247V109H307V79Z" fill="#F0F0F0" stroke="#008000" stroke-width="2"/>
<path d="M273.849 97.2102V96.3409L277.684 90.2727H278.315V91.6193H277.889L274.991 96.2045V96.2727H280.156V97.2102H273.849ZM277.957 99V96.946V96.5412V90.2727H278.963V99H277.957Z" fill="black"/>
<path d="M300.635 105V104.616L302.076 103.04C302.245 102.855 302.384 102.695 302.493 102.558C302.603 102.42 302.684 102.291 302.736 102.17C302.79 102.048 302.817 101.92 302.817 101.787C302.817 101.634 302.78 101.501 302.706 101.388C302.634 101.276 302.534 101.19 302.408 101.129C302.282 101.067 302.14 101.037 301.982 101.037C301.814 101.037 301.668 101.072 301.543 101.141C301.419 101.21 301.324 101.305 301.255 101.429C301.189 101.553 301.155 101.697 301.155 101.864H300.652C300.652 101.608 300.711 101.384 300.829 101.19C300.947 100.997 301.108 100.847 301.311 100.739C301.515 100.631 301.745 100.577 301.999 100.577C302.255 100.577 302.481 100.631 302.679 100.739C302.876 100.847 303.031 100.992 303.143 101.175C303.255 101.359 303.311 101.562 303.311 101.787C303.311 101.947 303.282 102.104 303.224 102.258C303.167 102.41 303.068 102.58 302.926 102.767C302.785 102.953 302.59 103.18 302.34 103.449L301.36 104.497V104.531H303.388V105H300.635Z" fill="black"/>
<path d="M387 79H327V109H387V79Z" fill="#F0F0F0" stroke="#008000" stroke-width="2"/>
<path d="M356.98 99.1193C356.48 99.1193 356.03 99.0199 355.629 98.821C355.229 98.6222 354.908 98.3494 354.666 98.0028C354.425 97.6562 354.293 97.2614 354.27 96.8182H355.293C355.333 97.2131 355.512 97.5398 355.83 97.7983C356.151 98.054 356.534 98.1818 356.98 98.1818C357.338 98.1818 357.656 98.098 357.935 97.9304C358.216 97.7628 358.436 97.5327 358.595 97.2401C358.757 96.9446 358.838 96.6108 358.838 96.2386C358.838 95.858 358.754 95.5185 358.587 95.2202C358.422 94.919 358.195 94.6818 357.905 94.5085C357.615 94.3352 357.284 94.2472 356.912 94.2443C356.645 94.2415 356.371 94.2827 356.09 94.3679C355.808 94.4503 355.577 94.5568 355.395 94.6875L354.406 94.5682L354.935 90.2727H359.469V91.2102H355.821L355.514 93.7841H355.566C355.744 93.642 355.969 93.5241 356.239 93.4304C356.509 93.3366 356.79 93.2898 357.083 93.2898C357.617 93.2898 358.093 93.4176 358.51 93.6733C358.931 93.9261 359.26 94.2727 359.499 94.7131C359.74 95.1534 359.861 95.6562 359.861 96.2216C359.861 96.7784 359.736 97.2756 359.486 97.7131C359.239 98.1477 358.898 98.4915 358.463 98.7443C358.029 98.9943 357.534 99.1193 356.98 99.1193Z" fill="black"/>
<path d="M382.016 105.06C381.735 105.06 381.484 105.011 381.264 104.915C381.045 104.818 380.871 104.684 380.742 104.512C380.614 104.339 380.544 104.138 380.533 103.909H381.07C381.081 104.05 381.13 104.171 381.215 104.273C381.3 104.374 381.412 104.452 381.549 104.508C381.687 104.563 381.84 104.591 382.007 104.591C382.195 104.591 382.361 104.558 382.506 104.493C382.651 104.428 382.765 104.337 382.847 104.22C382.929 104.104 382.971 103.969 382.971 103.815C382.971 103.655 382.931 103.513 382.851 103.391C382.772 103.268 382.655 103.171 382.502 103.102C382.348 103.032 382.161 102.997 381.939 102.997H381.59V102.528H381.939C382.113 102.528 382.265 102.497 382.395 102.435C382.527 102.372 382.63 102.284 382.704 102.17C382.779 102.057 382.817 101.923 382.817 101.77C382.817 101.622 382.784 101.494 382.719 101.384C382.654 101.275 382.561 101.19 382.442 101.129C382.324 101.067 382.185 101.037 382.025 101.037C381.874 101.037 381.732 101.065 381.598 101.12C381.466 101.174 381.358 101.253 381.275 101.357C381.191 101.459 381.145 101.582 381.138 101.727H380.627C380.635 101.499 380.704 101.298 380.833 101.126C380.963 100.953 381.132 100.818 381.341 100.722C381.551 100.625 381.782 100.577 382.033 100.577C382.303 100.577 382.534 100.631 382.728 100.741C382.921 100.849 383.069 100.991 383.173 101.169C383.277 101.347 383.328 101.538 383.328 101.744C383.328 101.99 383.264 102.2 383.135 102.373C383.007 102.546 382.833 102.666 382.613 102.733V102.767C382.888 102.812 383.103 102.93 383.258 103.119C383.413 103.306 383.49 103.538 383.49 103.815C383.49 104.053 383.426 104.266 383.297 104.455C383.169 104.642 382.994 104.79 382.772 104.898C382.551 105.006 382.299 105.06 382.016 105.06Z" fill="black"/>
<path d="M457 79H397V109H457V79Z" fill="#F0F0F0" stroke="#808080" stroke-width="1.5"/>
<path d="M427.057 99.1193C426.699 99.1136 426.341 99.0455 425.983 98.9148C425.625 98.7841 425.298 98.5639 425.003 98.2543C424.708 97.9418 424.47 97.5199 424.291 96.9886C424.112 96.4545 424.023 95.7841 424.023 94.9773C424.023 94.2045 424.095 93.5199 424.24 92.9233C424.385 92.3239 424.595 91.8196 424.871 91.4105C425.146 90.9986 425.479 90.6861 425.868 90.473C426.26 90.2599 426.702 90.1534 427.193 90.1534C427.682 90.1534 428.117 90.2514 428.497 90.4474C428.881 90.6406 429.193 90.9105 429.435 91.2571C429.676 91.6037 429.833 92.0028 429.904 92.4545H428.864C428.767 92.0625 428.58 91.7372 428.301 91.4787C428.023 91.2202 427.654 91.0909 427.193 91.0909C426.517 91.0909 425.985 91.3849 425.595 91.973C425.209 92.5611 425.014 93.3864 425.012 94.4489H425.08C425.239 94.2074 425.428 94.0014 425.646 93.831C425.868 93.6577 426.112 93.5241 426.379 93.4304C426.646 93.3366 426.929 93.2898 427.227 93.2898C427.727 93.2898 428.185 93.4148 428.6 93.6648C429.014 93.9119 429.347 94.2543 429.597 94.6918C429.847 95.1264 429.972 95.625 429.972 96.1875C429.972 96.7273 429.851 97.2216 429.61 97.6705C429.368 98.1165 429.029 98.4716 428.591 98.7358C428.156 98.9972 427.645 99.125 427.057 99.1193ZM427.057 98.1818C427.415 98.1818 427.736 98.0923 428.02 97.9134C428.307 97.7344 428.533 97.4943 428.698 97.1932C428.865 96.892 428.949 96.5568 428.949 96.1875C428.949 95.8267 428.868 95.4986 428.706 95.2031C428.547 94.9048 428.327 94.6676 428.046 94.4915C427.767 94.3153 427.449 94.2273 427.091 94.2273C426.821 94.2273 426.57 94.2812 426.337 94.3892C426.104 94.4943 425.899 94.6392 425.723 94.8239C425.55 95.0085 425.414 95.2202 425.314 95.4588C425.215 95.6946 425.165 95.9432 425.165 96.2045C425.165 96.5511 425.246 96.875 425.408 97.1761C425.573 97.4773 425.797 97.7202 426.081 97.9048C426.368 98.0895 426.693 98.1818 427.057 98.1818Z" fill="black"/>
<path d="M450.425 104.105V103.67L452.342 100.636H452.658V101.31H452.445L450.996 103.602V103.636H453.578V104.105H450.425ZM452.479 105V103.973V103.771V100.636H452.981V105H452.479Z" fill="black"/>
<path d="M11.4318 20.2727H12.6932L15.6591 27.517H15.7614L18.7273 20.2727H19.9886V29H19V22.3693H18.9148L16.1875 29H15.233L12.5057 22.3693H12.4205V29H11.4318V20.2727ZM23.8974 29.1534C23.4826 29.1534 23.1062 29.0753 22.7681 28.919C22.43 28.7599 22.1616 28.5312 21.9627 28.233C21.7638 27.9318 21.6644 27.5682 21.6644 27.142C21.6644 26.767 21.7383 26.4631 21.886 26.2301C22.0337 25.9943 22.2312 25.8097 22.4783 25.6761C22.7255 25.5426 22.9982 25.4432 23.2965 25.3778C23.5977 25.3097 23.9002 25.2557 24.2042 25.2159C24.6019 25.1648 24.9244 25.1264 25.1715 25.1009C25.4215 25.0724 25.6033 25.0256 25.717 24.9602C25.8335 24.8949 25.8917 24.7812 25.8917 24.6193V24.5852C25.8917 24.1648 25.7766 23.8381 25.5465 23.6051C25.3192 23.3722 24.9741 23.2557 24.511 23.2557C24.0309 23.2557 23.6545 23.3608 23.3817 23.571C23.109 23.7812 22.9173 24.0057 22.8065 24.2443L21.8519 23.9034C22.0224 23.5057 22.2496 23.196 22.5337 22.9744C22.8207 22.75 23.1332 22.5937 23.4712 22.5057C23.8121 22.4148 24.1474 22.3693 24.4769 22.3693C24.6871 22.3693 24.9286 22.3949 25.2013 22.446C25.4769 22.4943 25.7425 22.5952 25.9982 22.7486C26.2567 22.902 26.4712 23.1335 26.6417 23.4432C26.8121 23.7528 26.8974 24.1676 26.8974 24.6875V29H25.8917V28.1136H25.8406C25.7724 28.2557 25.6587 28.4077 25.4996 28.5696C25.3406 28.7315 25.1289 28.8693 24.8647 28.983C24.6005 29.0966 24.2781 29.1534 23.8974 29.1534ZM24.0508 28.25C24.4485 28.25 24.7837 28.1719 25.0565 28.0156C25.332 27.8594 25.5394 27.6577 25.6786 27.4105C25.8207 27.1634 25.8917 26.9034 25.8917 26.6307V25.7102C25.8491 25.7614 25.7553 25.8082 25.6104 25.8509C25.4684 25.8906 25.3036 25.9261 25.1161 25.9574C24.9315 25.9858 24.7511 26.0114 24.5749 26.0341C24.4016 26.054 24.261 26.071 24.1531 26.0852C23.8917 26.1193 23.6474 26.1747 23.4201 26.2514C23.1957 26.3253 23.0138 26.4375 22.8746 26.5881C22.7383 26.7358 22.6701 26.9375 22.6701 27.1932C22.6701 27.5426 22.7994 27.8068 23.0579 27.9858C23.3192 28.1619 23.6502 28.25 24.0508 28.25ZM28.733 29V22.4545H29.7386V29H28.733ZM29.2443 21.3636C29.0483 21.3636 28.8793 21.2969 28.7372 21.1634C28.598 21.0298 28.5284 20.8693 28.5284 20.6818C28.5284 20.4943 28.598 20.3338 28.7372 20.2003C28.8793 20.0668 29.0483 20 29.2443 20C29.4403 20 29.608 20.0668 29.7472 20.2003C29.8892 20.3338 29.9602 20.4943 29.9602 20.6818C29.9602 20.8693 29.8892 21.0298 29.7472 21.1634C29.608 21.2969 29.4403 21.3636 29.2443 21.3636ZM32.5863 25.0625V29H31.5806V22.4545H32.5522V23.4773H32.6374C32.7908 23.1449 33.0238 22.8778 33.3363 22.6761C33.6488 22.4716 34.0522 22.3693 34.5465 22.3693C34.9897 22.3693 35.3775 22.4602 35.7099 22.642C36.0423 22.821 36.3008 23.0938 36.4854 23.4602C36.6701 23.8239 36.7624 24.2841 36.7624 24.8409V29H35.7567V24.9091C35.7567 24.3949 35.6232 23.9943 35.3562 23.7074C35.0891 23.4176 34.7227 23.2727 34.2567 23.2727C33.9357 23.2727 33.6488 23.3423 33.396 23.4815C33.146 23.6207 32.9485 23.8239 32.8036 24.0909C32.6587 24.358 32.5863 24.6818 32.5863 25.0625ZM44.6342 29.1364C44.0206 29.1364 43.4922 28.9915 43.049 28.7017C42.6058 28.4119 42.2649 28.0128 42.0263 27.5043C41.7876 26.9957 41.6683 26.4148 41.6683 25.7614C41.6683 25.0966 41.7905 24.5099 42.0348 24.0014C42.282 23.4901 42.6257 23.0909 43.0661 22.804C43.5092 22.5142 44.0263 22.3693 44.6172 22.3693C45.0774 22.3693 45.4922 22.4545 45.8615 22.625C46.2308 22.7955 46.5334 23.0341 46.7692 23.3409C47.005 23.6477 47.1513 24.0057 47.2081 24.4148H46.2024C46.1257 24.1165 45.9553 23.8523 45.6911 23.6222C45.4297 23.3892 45.0774 23.2727 44.6342 23.2727C44.2422 23.2727 43.8984 23.375 43.603 23.5795C43.3104 23.7812 43.0817 24.0668 42.9169 24.4361C42.755 24.8026 42.674 25.233 42.674 25.7273C42.674 26.233 42.7536 26.6733 42.9126 27.0483C43.0746 27.4233 43.3018 27.7145 43.5945 27.9219C43.8899 28.1293 44.2365 28.233 44.6342 28.233C44.8956 28.233 45.1328 28.1875 45.3459 28.0966C45.5589 28.0057 45.7393 27.875 45.8871 27.7045C46.0348 27.5341 46.1399 27.3295 46.2024 27.0909H47.2081C47.1513 27.4773 47.0107 27.8253 46.7862 28.1349C46.5646 28.4418 46.2706 28.6861 45.9041 28.8679C45.5405 29.0469 45.1172 29.1364 44.6342 29.1364ZM49.6839 25.0625V29H48.6783V20.2727H49.6839V23.4773H49.7692C49.9226 23.1392 50.1527 22.8707 50.4595 22.6719C50.7692 22.4702 51.1811 22.3693 51.6953 22.3693C52.1413 22.3693 52.532 22.4588 52.8672 22.6378C53.2024 22.8139 53.4624 23.0852 53.647 23.4517C53.8345 23.8153 53.9283 24.2784 53.9283 24.8409V29H52.9226V24.9091C52.9226 24.3892 52.7876 23.9872 52.5178 23.7031C52.2507 23.4162 51.88 23.2727 51.4055 23.2727C51.076 23.2727 50.7805 23.3423 50.5192 23.4815C50.2607 23.6207 50.0561 23.8239 49.9055 24.0909C49.7578 24.358 49.6839 24.6818 49.6839 25.0625ZM57.6942 29.1534C57.2795 29.1534 56.9031 29.0753 56.565 28.919C56.2269 28.7599 55.9585 28.5312 55.7596 28.233C55.5607 27.9318 55.4613 27.5682 55.4613 27.142C55.4613 26.767 55.5352 26.4631 55.6829 26.2301C55.8306 25.9943 56.0281 25.8097 56.2752 25.6761C56.5224 25.5426 56.7951 25.4432 57.0934 25.3778C57.3945 25.3097 57.6971 25.2557 58.0011 25.2159C58.3988 25.1648 58.7212 25.1264 58.9684 25.1009C59.2184 25.0724 59.4002 25.0256 59.5138 24.9602C59.6303 24.8949 59.6886 24.7812 59.6886 24.6193V24.5852C59.6886 24.1648 59.5735 23.8381 59.3434 23.6051C59.1161 23.3722 58.771 23.2557 58.3079 23.2557C57.8278 23.2557 57.4513 23.3608 57.1786 23.571C56.9059 23.7812 56.7141 24.0057 56.6033 24.2443L55.6488 23.9034C55.8192 23.5057 56.0465 23.196 56.3306 22.9744C56.6175 22.75 56.93 22.5937 57.2681 22.5057C57.609 22.4148 57.9442 22.3693 58.2738 22.3693C58.484 22.3693 58.7255 22.3949 58.9982 22.446C59.2738 22.4943 59.5394 22.5952 59.7951 22.7486C60.0536 22.902 60.2681 23.1335 60.4386 23.4432C60.609 23.7528 60.6942 24.1676 60.6942 24.6875V29H59.6886V28.1136H59.6374C59.5692 28.2557 59.4556 28.4077 59.2965 28.5696C59.1374 28.7315 58.9258 28.8693 58.6616 28.983C58.3974 29.0966 58.0749 29.1534 57.6942 29.1534ZM57.8477 28.25C58.2454 28.25 58.5806 28.1719 58.8533 28.0156C59.1289 27.8594 59.3363 27.6577 59.4755 27.4105C59.6175 27.1634 59.6886 26.9034 59.6886 26.6307V25.7102C59.646 25.7614 59.5522 25.8082 59.4073 25.8509C59.2653 25.8906 59.1005 25.9261 58.913 25.9574C58.7283 25.9858 58.5479 26.0114 58.3718 26.0341C58.1985 26.054 58.0579 26.071 57.9499 26.0852C57.6886 26.1193 57.4442 26.1747 57.217 26.2514C56.9925 26.3253 56.8107 26.4375 56.6715 26.5881C56.5352 26.7358 56.467 26.9375 56.467 27.1932C56.467 27.5426 56.5962 27.8068 56.8548 27.9858C57.1161 28.1619 57.4471 28.25 57.8477 28.25ZM62.5298 29V22.4545H63.5355V29H62.5298ZM63.0412 21.3636C62.8452 21.3636 62.6761 21.2969 62.5341 21.1634C62.3949 21.0298 62.3253 20.8693 62.3253 20.6818C62.3253 20.4943 62.3949 20.3338 62.5341 20.2003C62.6761 20.0668 62.8452 20 63.0412 20C63.2372 20 63.4048 20.0668 63.544 20.2003C63.6861 20.3338 63.7571 20.4943 63.7571 20.6818C63.7571 20.8693 63.6861 21.0298 63.544 21.1634C63.4048 21.2969 63.2372 21.3636 63.0412 21.3636ZM66.3832 25.0625V29H65.3775V22.4545H66.3491V23.4773H66.4343C66.5877 23.1449 66.8207 22.8778 67.1332 22.6761C67.4457 22.4716 67.8491 22.3693 68.3434 22.3693C68.7866 22.3693 69.1744 22.4602 69.5067 22.642C69.8391 22.821 70.0977 23.0938 70.2823 23.4602C70.467 23.8239 70.5593 24.2841 70.5593 24.8409V29H69.5536V24.9091C69.5536 24.3949 69.4201 23.9943 69.1531 23.7074C68.886 23.4176 68.5195 23.2727 68.0536 23.2727C67.7326 23.2727 67.4457 23.3423 67.1928 23.4815C66.9428 23.6207 66.7454 23.8239 66.6005 24.0909C66.4556 24.358 66.3832 24.6818 66.3832 25.0625Z" fill="white"/>
<path d="M11.4318 99V90.2727H14.3807C15.0653 90.2727 15.625 90.3963 16.0597 90.6435C16.4972 90.8878 16.821 91.2188 17.0312 91.6364C17.2415 92.054 17.3466 92.5199 17.3466 93.0341C17.3466 93.5483 17.2415 94.0156 17.0312 94.4361C16.8239 94.8565 16.5028 95.1918 16.0682 95.4418C15.6335 95.6889 15.0767 95.8125 14.3977 95.8125H12.2841V94.875H14.3636C14.8324 94.875 15.2088 94.794 15.4929 94.6321C15.777 94.4702 15.983 94.2514 16.1108 93.9759C16.2415 93.6974 16.3068 93.3835 16.3068 93.0341C16.3068 92.6847 16.2415 92.3722 16.1108 92.0966C15.983 91.821 15.7756 91.6051 15.4886 91.4489C15.2017 91.2898 14.821 91.2102 14.3466 91.2102H12.4886V99H11.4318ZM20.8388 99.1534C20.424 99.1534 20.0476 99.0753 19.7095 98.919C19.3714 98.7599 19.103 98.5312 18.9041 98.233C18.7053 97.9318 18.6058 97.5682 18.6058 97.142C18.6058 96.767 18.6797 96.4631 18.8274 96.2301C18.9751 95.9943 19.1726 95.8097 19.4197 95.6761C19.6669 95.5426 19.9396 95.4432 20.2379 95.3778C20.5391 95.3097 20.8416 95.2557 21.1456 95.2159C21.5433 95.1648 21.8658 95.1264 22.1129 95.1009C22.3629 95.0724 22.5447 95.0256 22.6584 94.9602C22.7749 94.8949 22.8331 94.7812 22.8331 94.6193V94.5852C22.8331 94.1648 22.718 93.8381 22.4879 93.6051C22.2607 93.3722 21.9155 93.2557 21.4524 93.2557C20.9723 93.2557 20.5959 93.3608 20.3232 93.571C20.0504 93.7812 19.8587 94.0057 19.7479 94.2443L18.7933 93.9034C18.9638 93.5057 19.1911 93.196 19.4751 92.9744C19.7621 92.75 20.0746 92.5937 20.4126 92.5057C20.7536 92.4148 21.0888 92.3693 21.4183 92.3693C21.6286 92.3693 21.87 92.3949 22.1428 92.446C22.4183 92.4943 22.6839 92.5952 22.9396 92.7486C23.1982 92.902 23.4126 93.1335 23.5831 93.4432C23.7536 93.7528 23.8388 94.1676 23.8388 94.6875V99H22.8331V98.1136H22.782C22.7138 98.2557 22.6001 98.4077 22.4411 98.5696C22.282 98.7315 22.0703 98.8693 21.8061 98.983C21.5419 99.0966 21.2195 99.1534 20.8388 99.1534ZM20.9922 98.25C21.3899 98.25 21.7251 98.1719 21.9979 98.0156C22.2734 97.8594 22.4808 97.6577 22.62 97.4105C22.7621 97.1634 22.8331 96.9034 22.8331 96.6307V95.7102C22.7905 95.7614 22.6967 95.8082 22.5518 95.8509C22.4098 95.8906 22.245 95.9261 22.0575 95.9574C21.8729 95.9858 21.6925 96.0114 21.5163 96.0341C21.343 96.054 21.2024 96.071 21.0945 96.0852C20.8331 96.1193 20.5888 96.1747 20.3615 96.2514C20.1371 96.3253 19.9553 96.4375 19.8161 96.5881C19.6797 96.7358 19.6115 96.9375 19.6115 97.1932C19.6115 97.5426 19.7408 97.8068 19.9993 97.9858C20.2607 98.1619 20.5916 98.25 20.9922 98.25ZM25.6744 99V92.4545H26.646V93.4432H26.7141C26.8335 93.1193 27.0494 92.8565 27.3619 92.6548C27.6744 92.4531 28.0266 92.3523 28.4187 92.3523C28.4925 92.3523 28.5849 92.3537 28.6957 92.3565C28.8065 92.3594 28.8903 92.3636 28.9471 92.3693V93.392C28.913 93.3835 28.8349 93.3707 28.7127 93.3537C28.5934 93.3338 28.467 93.3239 28.3335 93.3239C28.0153 93.3239 27.7312 93.3906 27.4812 93.5241C27.234 93.6548 27.038 93.8366 26.8931 94.0696C26.7511 94.2997 26.68 94.5625 26.68 94.858V99H25.6744ZM32.0653 99.1534C31.6506 99.1534 31.2741 99.0753 30.9361 98.919C30.598 98.7599 30.3295 98.5312 30.1307 98.233C29.9318 97.9318 29.8324 97.5682 29.8324 97.142C29.8324 96.767 29.9063 96.4631 30.054 96.2301C30.2017 95.9943 30.3991 95.8097 30.6463 95.6761C30.8935 95.5426 31.1662 95.4432 31.4645 95.3778C31.7656 95.3097 32.0682 95.2557 32.3722 95.2159C32.7699 95.1648 33.0923 95.1264 33.3395 95.1009C33.5895 95.0724 33.7713 95.0256 33.8849 94.9602C34.0014 94.8949 34.0597 94.7812 34.0597 94.6193V94.5852C34.0597 94.1648 33.9446 93.8381 33.7145 93.6051C33.4872 93.3722 33.142 93.2557 32.679 93.2557C32.1989 93.2557 31.8224 93.3608 31.5497 93.571C31.277 93.7812 31.0852 94.0057 30.9744 94.2443L30.0199 93.9034C30.1903 93.5057 30.4176 93.196 30.7017 92.9744C30.9886 92.75 31.3011 92.5937 31.6392 92.5057C31.9801 92.4148 32.3153 92.3693 32.6449 92.3693C32.8551 92.3693 33.0966 92.3949 33.3693 92.446C33.6449 92.4943 33.9105 92.5952 34.1662 92.7486C34.4247 92.902 34.6392 93.1335 34.8097 93.4432C34.9801 93.7528 35.0653 94.1676 35.0653 94.6875V99H34.0597V98.1136H34.0085C33.9403 98.2557 33.8267 98.4077 33.6676 98.5696C33.5085 98.7315 33.2969 98.8693 33.0327 98.983C32.7685 99.0966 32.446 99.1534 32.0653 99.1534ZM32.2188 98.25C32.6165 98.25 32.9517 98.1719 33.2244 98.0156C33.5 97.8594 33.7074 97.6577 33.8466 97.4105C33.9886 97.1634 34.0597 96.9034 34.0597 96.6307V95.7102C34.017 95.7614 33.9233 95.8082 33.7784 95.8509C33.6364 95.8906 33.4716 95.9261 33.2841 95.9574C33.0994 95.9858 32.919 96.0114 32.7429 96.0341C32.5696 96.054 32.429 96.071 32.321 96.0852C32.0597 96.1193 31.8153 96.1747 31.5881 96.2514C31.3636 96.3253 31.1818 96.4375 31.0426 96.5881C30.9063 96.7358 30.8381 96.9375 30.8381 97.1932C30.8381 97.5426 30.9673 97.8068 31.2259 97.9858C31.4872 98.1619 31.8182 98.25 32.2188 98.25ZM37.9066 90.2727V99H36.9009V90.2727H37.9066ZM40.7543 90.2727V99H39.7486V90.2727H40.7543ZM45.3406 99.1364C44.7099 99.1364 44.1658 98.9972 43.7085 98.7188C43.2539 98.4375 42.9031 98.0455 42.6559 97.5426C42.4116 97.0369 42.2894 96.4489 42.2894 95.7784C42.2894 95.108 42.4116 94.517 42.6559 94.0057C42.9031 93.4915 43.2468 93.0909 43.6871 92.804C44.1303 92.5142 44.6474 92.3693 45.2383 92.3693C45.5792 92.3693 45.9158 92.4261 46.2482 92.5398C46.5806 92.6534 46.8832 92.8381 47.1559 93.0938C47.4286 93.3466 47.646 93.6818 47.8079 94.0994C47.9698 94.517 48.0508 95.0312 48.0508 95.642V96.0682H43.0053V95.1989H47.0281C47.0281 94.8295 46.9542 94.5 46.8065 94.2102C46.6616 93.9205 46.4542 93.6918 46.1843 93.5241C45.9173 93.3565 45.6019 93.2727 45.2383 93.2727C44.8377 93.2727 44.4911 93.3722 44.1985 93.571C43.9087 93.767 43.6857 94.0227 43.5295 94.3381C43.3732 94.6534 43.2951 94.9915 43.2951 95.3523V95.9318C43.2951 96.4261 43.3803 96.8452 43.5508 97.1889C43.7241 97.5298 43.9641 97.7898 44.271 97.9688C44.5778 98.1449 44.9343 98.233 45.3406 98.233C45.6048 98.233 45.8434 98.196 46.0565 98.1222C46.2724 98.0455 46.4585 97.9318 46.6147 97.7812C46.771 97.6278 46.8917 97.4375 46.9769 97.2102L47.9485 97.483C47.8462 97.8125 47.6744 98.1023 47.4329 98.3523C47.1914 98.5994 46.8931 98.7926 46.538 98.9318C46.1829 99.0682 45.7837 99.1364 45.3406 99.1364ZM50.5863 90.2727V99H49.5806V90.2727H50.5863ZM58.4624 99.1364C57.8487 99.1364 57.3203 98.9915 56.8771 98.7017C56.4339 98.4119 56.093 98.0128 55.8544 97.5043C55.6158 96.9957 55.4964 96.4148 55.4964 95.7614C55.4964 95.0966 55.6186 94.5099 55.8629 94.0014C56.1101 93.4901 56.4538 93.0909 56.8942 92.804C57.3374 92.5142 57.8544 92.3693 58.4453 92.3693C58.9055 92.3693 59.3203 92.4545 59.6896 92.625C60.0589 92.7955 60.3615 93.0341 60.5973 93.3409C60.8331 93.6477 60.9794 94.0057 61.0362 94.4148H60.0305C59.9538 94.1165 59.7834 93.8523 59.5192 93.6222C59.2578 93.3892 58.9055 93.2727 58.4624 93.2727C58.0703 93.2727 57.7266 93.375 57.4311 93.5795C57.1385 93.7812 56.9098 94.0668 56.745 94.4361C56.5831 94.8026 56.5021 95.233 56.5021 95.7273C56.5021 96.233 56.5817 96.6733 56.7408 97.0483C56.9027 97.4233 57.13 97.7145 57.4226 97.9219C57.718 98.1293 58.0646 98.233 58.4624 98.233C58.7237 98.233 58.9609 98.1875 59.174 98.0966C59.3871 98.0057 59.5675 97.875 59.7152 97.7045C59.8629 97.5341 59.968 97.3295 60.0305 97.0909H61.0362C60.9794 97.4773 60.8388 97.8253 60.6143 98.1349C60.3928 98.4418 60.0987 98.6861 59.7322 98.8679C59.3686 99.0469 58.9453 99.1364 58.4624 99.1364ZM63.5121 95.0625V99H62.5064V90.2727H63.5121V93.4773H63.5973C63.7507 93.1392 63.9808 92.8707 64.2876 92.6719C64.5973 92.4702 65.0092 92.3693 65.5234 92.3693C65.9695 92.3693 66.3601 92.4588 66.6953 92.6378C67.0305 92.8139 67.2905 93.0852 67.4751 93.4517C67.6626 93.8153 67.7564 94.2784 67.7564 94.8409V99H66.7507V94.9091C66.7507 94.3892 66.6158 93.9872 66.3459 93.7031C66.0788 93.4162 65.7081 93.2727 65.2337 93.2727C64.9041 93.2727 64.6087 93.3423 64.3473 93.4815C64.0888 93.6207 63.8842 93.8239 63.7337 94.0909C63.5859 94.358 63.5121 94.6818 63.5121 95.0625ZM71.5224 99.1534C71.1076 99.1534 70.7312 99.0753 70.3931 98.919C70.055 98.7599 69.7866 98.5312 69.5877 98.233C69.3888 97.9318 69.2894 97.5682 69.2894 97.142C69.2894 96.767 69.3633 96.4631 69.511 96.2301C69.6587 95.9943 69.8562 95.8097 70.1033 95.6761C70.3505 95.5426 70.6232 95.4432 70.9215 95.3778C71.2227 95.3097 71.5252 95.2557 71.8292 95.2159C72.2269 95.1648 72.5494 95.1264 72.7965 95.1009C73.0465 95.0724 73.2283 95.0256 73.342 94.9602C73.4585 94.8949 73.5167 94.7812 73.5167 94.6193V94.5852C73.5167 94.1648 73.4016 93.8381 73.1715 93.6051C72.9442 93.3722 72.5991 93.2557 72.136 93.2557C71.6559 93.2557 71.2795 93.3608 71.0067 93.571C70.734 93.7812 70.5423 94.0057 70.4315 94.2443L69.4769 93.9034C69.6474 93.5057 69.8746 93.196 70.1587 92.9744C70.4457 92.75 70.7582 92.5937 71.0962 92.5057C71.4371 92.4148 71.7724 92.3693 72.1019 92.3693C72.3121 92.3693 72.5536 92.3949 72.8263 92.446C73.1019 92.4943 73.3675 92.5952 73.6232 92.7486C73.8817 92.902 74.0962 93.1335 74.2667 93.4432C74.4371 93.7528 74.5224 94.1676 74.5224 94.6875V99H73.5167V98.1136H73.4656C73.3974 98.2557 73.2837 98.4077 73.1246 98.5696C72.9656 98.7315 72.7539 98.8693 72.4897 98.983C72.2255 99.0966 71.9031 99.1534 71.5224 99.1534ZM71.6758 98.25C72.0735 98.25 72.4087 98.1719 72.6815 98.0156C72.957 97.8594 73.1644 97.6577 73.3036 97.4105C73.4457 97.1634 73.5167 96.9034 73.5167 96.6307V95.7102C73.4741 95.7614 73.3803 95.8082 73.2354 95.8509C73.0934 95.8906 72.9286 95.9261 72.7411 95.9574C72.5565 95.9858 72.3761 96.0114 72.1999 96.0341C72.0266 96.054 71.886 96.071 71.7781 96.0852C71.5167 96.1193 71.2724 96.1747 71.0451 96.2514C70.8207 96.3253 70.6388 96.4375 70.4996 96.5881C70.3633 96.7358 70.2951 96.9375 70.2951 97.1932C70.2951 97.5426 70.4244 97.8068 70.6829 97.9858C70.9442 98.1619 71.2752 98.25 71.6758 98.25ZM76.358 99V92.4545H77.3636V99H76.358ZM76.8693 91.3636C76.6733 91.3636 76.5043 91.2969 76.3622 91.1634C76.223 91.0298 76.1534 90.8693 76.1534 90.6818C76.1534 90.4943 76.223 90.3338 76.3622 90.2003C76.5043 90.0668 76.6733 90 76.8693 90C77.0653 90 77.233 90.0668 77.3722 90.2003C77.5142 90.3338 77.5852 90.4943 77.5852 90.6818C77.5852 90.8693 77.5142 91.0298 77.3722 91.1634C77.233 91.2969 77.0653 91.3636 76.8693 91.3636ZM80.2113 95.0625V99H79.2056V92.4545H80.1772V93.4773H80.2624C80.4158 93.1449 80.6488 92.8778 80.9613 92.6761C81.2738 92.4716 81.6772 92.3693 82.1715 92.3693C82.6147 92.3693 83.0025 92.4602 83.3349 92.642C83.6673 92.821 83.9258 93.0938 84.1104 93.4602C84.2951 93.8239 84.3874 94.2841 84.3874 94.8409V99H83.3817V94.9091C83.3817 94.3949 83.2482 93.9943 82.9812 93.7074C82.7141 93.4176 82.3477 93.2727 81.8817 93.2727C81.5607 93.2727 81.2738 93.3423 81.021 93.4815C80.771 93.6207 80.5735 93.8239 80.4286 94.0909C80.2837 94.358 80.2113 94.6818 80.2113 95.0625Z" fill="white"/>
<path d="M207 49L195.497 50.0048L202.119 59.4645L207 49ZM157.573 84.8192L200.2 54.9804L199.053 53.3419L156.427 83.1808L157.573 84.8192Z" fill="white"/>
<path d="M327 49L315.497 50.0048L322.119 59.4645L327 49ZM277.573 84.8192L320.2 54.9804L319.053 53.3419L276.427 83.1808L277.573 84.8192Z" fill="#ADD8E6"/>
<path d="M357 49L351.226 59H362.774L357 49ZM358 84V58H356V84H358Z" fill="#ADD8E6"/>
<path d="M447 49L437.026 54.818L447.051 60.5469L447 49ZM427.868 84.4961L443.403 57.3103L441.667 56.318L426.132 83.5039L427.868 84.4961Z" fill="white"/>
</svg>
