<svg width="676" height="246" viewBox="0 0 676 246" fill="none" xmlns="http://www.w3.org/2000/svg">
<line x1="429" y1="63.5" x2="629" y2="63.5" stroke="white" stroke-dasharray="2 2"/>
<line x1="429" y1="132.5" x2="629" y2="132.5" stroke="white" stroke-dasharray="2 2"/>
<path d="M517 47H487V77H517V47Z" fill="#F0F0F0" stroke="black" stroke-width="2"/>
<path d="M513.341 68.6364V73H512.813V69.1903H512.787L511.722 69.8977V69.3608L512.813 68.6364H513.341Z" fill="black"/>
<path d="M559 117H529V147H559V117Z" fill="#F0F0F0" stroke="black" stroke-width="2"/>
<path d="M555.341 138.636V143H554.813V139.19H554.787L553.722 139.898V139.361L554.813 138.636H555.341Z" fill="black"/>
<line x1="429" y1="202.5" x2="629" y2="202.5" stroke="white" stroke-dasharray="2 2"/>
<path d="M475 187H445V217H475V187Z" fill="#F0F0F0" stroke="black" stroke-width="2"/>
<path d="M471.341 208.636V213H470.813V209.19H470.787L469.722 209.898V209.361L470.813 208.636H471.341Z" fill="black"/>
<path d="M594 187H564V217H594V187Z" fill="#F0F0F0" stroke="black" stroke-width="2"/>
<path d="M587.385 213V212.616L588.826 211.04C588.995 210.855 589.134 210.695 589.243 210.558C589.353 210.42 589.434 210.291 589.486 210.17C589.54 210.048 589.567 209.92 589.567 209.787C589.567 209.634 589.53 209.501 589.456 209.388C589.384 209.276 589.284 209.19 589.158 209.129C589.032 209.067 588.89 209.037 588.732 209.037C588.564 209.037 588.418 209.072 588.293 209.141C588.169 209.21 588.074 209.305 588.005 209.429C587.939 209.553 587.905 209.697 587.905 209.864H587.402C587.402 209.608 587.461 209.384 587.579 209.19C587.697 208.997 587.858 208.847 588.061 208.739C588.265 208.631 588.495 208.577 588.749 208.577C589.005 208.577 589.231 208.631 589.429 208.739C589.626 208.847 589.781 208.992 589.893 209.175C590.005 209.359 590.061 209.562 590.061 209.787C590.061 209.947 590.032 210.104 589.974 210.258C589.917 210.41 589.818 210.58 589.676 210.767C589.535 210.953 589.34 211.18 589.09 211.449L588.11 212.497V212.531H590.138V213H587.385Z" fill="black"/>
<path d="M335.432 58.2727H336.693L339.659 65.517H339.761L342.727 58.2727H343.989V67H343V60.3693H342.915L340.188 67H339.233L336.506 60.3693H336.42V67H335.432V58.2727ZM347.897 67.1534C347.483 67.1534 347.106 67.0753 346.768 66.919C346.43 66.7599 346.162 66.5312 345.963 66.233C345.764 65.9318 345.664 65.5682 345.664 65.142C345.664 64.767 345.738 64.4631 345.886 64.2301C346.034 63.9943 346.231 63.8097 346.478 63.6761C346.725 63.5426 346.998 63.4432 347.297 63.3778C347.598 63.3097 347.9 63.2557 348.204 63.2159C348.602 63.1648 348.924 63.1264 349.172 63.1009C349.422 63.0724 349.603 63.0256 349.717 62.9602C349.833 62.8949 349.892 62.7812 349.892 62.6193V62.5852C349.892 62.1648 349.777 61.8381 349.547 61.6051C349.319 61.3722 348.974 61.2557 348.511 61.2557C348.031 61.2557 347.654 61.3608 347.382 61.571C347.109 61.7812 346.917 62.0057 346.806 62.2443L345.852 61.9034C346.022 61.5057 346.25 61.196 346.534 60.9744C346.821 60.75 347.133 60.5937 347.471 60.5057C347.812 60.4148 348.147 60.3693 348.477 60.3693C348.687 60.3693 348.929 60.3949 349.201 60.446C349.477 60.4943 349.743 60.5952 349.998 60.7486C350.257 60.902 350.471 61.1335 350.642 61.4432C350.812 61.7528 350.897 62.1676 350.897 62.6875V67H349.892V66.1136H349.841C349.772 66.2557 349.659 66.4077 349.5 66.5696C349.341 66.7315 349.129 66.8693 348.865 66.983C348.6 67.0966 348.278 67.1534 347.897 67.1534ZM348.051 66.25C348.449 66.25 348.784 66.1719 349.056 66.0156C349.332 65.8594 349.539 65.6577 349.679 65.4105C349.821 65.1634 349.892 64.9034 349.892 64.6307V63.7102C349.849 63.7614 349.755 63.8082 349.61 63.8509C349.468 63.8906 349.304 63.9261 349.116 63.9574C348.931 63.9858 348.751 64.0114 348.575 64.0341C348.402 64.054 348.261 64.071 348.153 64.0852C347.892 64.1193 347.647 64.1747 347.42 64.2514C347.196 64.3253 347.014 64.4375 346.875 64.5881C346.738 64.7358 346.67 64.9375 346.67 65.1932C346.67 65.5426 346.799 65.8068 347.058 65.9858C347.319 66.1619 347.65 66.25 348.051 66.25ZM352.733 67V60.4545H353.739V67H352.733ZM353.244 59.3636C353.048 59.3636 352.879 59.2969 352.737 59.1634C352.598 59.0298 352.528 58.8693 352.528 58.6818C352.528 58.4943 352.598 58.3338 352.737 58.2003C352.879 58.0668 353.048 58 353.244 58C353.44 58 353.608 58.0668 353.747 58.2003C353.889 58.3338 353.96 58.4943 353.96 58.6818C353.96 58.8693 353.889 59.0298 353.747 59.1634C353.608 59.2969 353.44 59.3636 353.244 59.3636ZM356.586 63.0625V67H355.581V60.4545H356.552V61.4773H356.637C356.791 61.1449 357.024 60.8778 357.336 60.6761C357.649 60.4716 358.052 60.3693 358.547 60.3693C358.99 60.3693 359.377 60.4602 359.71 60.642C360.042 60.821 360.301 61.0938 360.485 61.4602C360.67 61.8239 360.762 62.2841 360.762 62.8409V67H359.757V62.9091C359.757 62.3949 359.623 61.9943 359.356 61.7074C359.089 61.4176 358.723 61.2727 358.257 61.2727C357.936 61.2727 357.649 61.3423 357.396 61.4815C357.146 61.6207 356.949 61.8239 356.804 62.0909C356.659 62.358 356.586 62.6818 356.586 63.0625ZM368.634 67.1364C368.021 67.1364 367.492 66.9915 367.049 66.7017C366.606 66.4119 366.265 66.0128 366.026 65.5043C365.788 64.9957 365.668 64.4148 365.668 63.7614C365.668 63.0966 365.79 62.5099 366.035 62.0014C366.282 61.4901 366.626 61.0909 367.066 60.804C367.509 60.5142 368.026 60.3693 368.617 60.3693C369.077 60.3693 369.492 60.4545 369.862 60.625C370.231 60.7955 370.533 61.0341 370.769 61.3409C371.005 61.6477 371.151 62.0057 371.208 62.4148H370.202C370.126 62.1165 369.955 61.8523 369.691 61.6222C369.43 61.3892 369.077 61.2727 368.634 61.2727C368.242 61.2727 367.898 61.375 367.603 61.5795C367.31 61.7812 367.082 62.0668 366.917 62.4361C366.755 62.8026 366.674 63.233 366.674 63.7273C366.674 64.233 366.754 64.6733 366.913 65.0483C367.075 65.4233 367.302 65.7145 367.594 65.9219C367.89 66.1293 368.237 66.233 368.634 66.233C368.896 66.233 369.133 66.1875 369.346 66.0966C369.559 66.0057 369.739 65.875 369.887 65.7045C370.035 65.5341 370.14 65.3295 370.202 65.0909H371.208C371.151 65.4773 371.011 65.8253 370.786 66.1349C370.565 66.4418 370.271 66.6861 369.904 66.8679C369.54 67.0469 369.117 67.1364 368.634 67.1364ZM373.684 63.0625V67H372.678V58.2727H373.684V61.4773H373.769C373.923 61.1392 374.153 60.8707 374.46 60.6719C374.769 60.4702 375.181 60.3693 375.695 60.3693C376.141 60.3693 376.532 60.4588 376.867 60.6378C377.202 60.8139 377.462 61.0852 377.647 61.4517C377.835 61.8153 377.928 62.2784 377.928 62.8409V67H376.923V62.9091C376.923 62.3892 376.788 61.9872 376.518 61.7031C376.251 61.4162 375.88 61.2727 375.406 61.2727C375.076 61.2727 374.781 61.3423 374.519 61.4815C374.261 61.6207 374.056 61.8239 373.906 62.0909C373.758 62.358 373.684 62.6818 373.684 63.0625ZM381.694 67.1534C381.279 67.1534 380.903 67.0753 380.565 66.919C380.227 66.7599 379.958 66.5312 379.76 66.233C379.561 65.9318 379.461 65.5682 379.461 65.142C379.461 64.767 379.535 64.4631 379.683 64.2301C379.831 63.9943 380.028 63.8097 380.275 63.6761C380.522 63.5426 380.795 63.4432 381.093 63.3778C381.395 63.3097 381.697 63.2557 382.001 63.2159C382.399 63.1648 382.721 63.1264 382.968 63.1009C383.218 63.0724 383.4 63.0256 383.514 62.9602C383.63 62.8949 383.689 62.7812 383.689 62.6193V62.5852C383.689 62.1648 383.574 61.8381 383.343 61.6051C383.116 61.3722 382.771 61.2557 382.308 61.2557C381.828 61.2557 381.451 61.3608 381.179 61.571C380.906 61.7812 380.714 62.0057 380.603 62.2443L379.649 61.9034C379.819 61.5057 380.047 61.196 380.331 60.9744C380.618 60.75 380.93 60.5937 381.268 60.5057C381.609 60.4148 381.944 60.3693 382.274 60.3693C382.484 60.3693 382.725 60.3949 382.998 60.446C383.274 60.4943 383.539 60.5952 383.795 60.7486C384.054 60.902 384.268 61.1335 384.439 61.4432C384.609 61.7528 384.694 62.1676 384.694 62.6875V67H383.689V66.1136H383.637C383.569 66.2557 383.456 66.4077 383.297 66.5696C383.137 66.7315 382.926 66.8693 382.662 66.983C382.397 67.0966 382.075 67.1534 381.694 67.1534ZM381.848 66.25C382.245 66.25 382.581 66.1719 382.853 66.0156C383.129 65.8594 383.336 65.6577 383.475 65.4105C383.618 65.1634 383.689 64.9034 383.689 64.6307V63.7102C383.646 63.7614 383.552 63.8082 383.407 63.8509C383.265 63.8906 383.1 63.9261 382.913 63.9574C382.728 63.9858 382.548 64.0114 382.372 64.0341C382.199 64.054 382.058 64.071 381.95 64.0852C381.689 64.1193 381.444 64.1747 381.217 64.2514C380.993 64.3253 380.811 64.4375 380.672 64.5881C380.535 64.7358 380.467 64.9375 380.467 65.1932C380.467 65.5426 380.596 65.8068 380.855 65.9858C381.116 66.1619 381.447 66.25 381.848 66.25ZM386.53 67V60.4545H387.536V67H386.53ZM387.041 59.3636C386.845 59.3636 386.676 59.2969 386.534 59.1634C386.395 59.0298 386.325 58.8693 386.325 58.6818C386.325 58.4943 386.395 58.3338 386.534 58.2003C386.676 58.0668 386.845 58 387.041 58C387.237 58 387.405 58.0668 387.544 58.2003C387.686 58.3338 387.757 58.4943 387.757 58.6818C387.757 58.8693 387.686 59.0298 387.544 59.1634C387.405 59.2969 387.237 59.3636 387.041 59.3636ZM390.383 63.0625V67H389.377V60.4545H390.349V61.4773H390.434C390.588 61.1449 390.821 60.8778 391.133 60.6761C391.446 60.4716 391.849 60.3693 392.343 60.3693C392.787 60.3693 393.174 60.4602 393.507 60.642C393.839 60.821 394.098 61.0938 394.282 61.4602C394.467 61.8239 394.559 62.2841 394.559 62.8409V67H393.554V62.9091C393.554 62.3949 393.42 61.9943 393.153 61.7074C392.886 61.4176 392.52 61.2727 392.054 61.2727C391.733 61.2727 391.446 61.3423 391.193 61.4815C390.943 61.6207 390.745 61.8239 390.6 62.0909C390.456 62.358 390.383 62.6818 390.383 63.0625Z" fill="white"/>
<path d="M335.432 137V128.273H338.381C339.065 128.273 339.625 128.396 340.06 128.643C340.497 128.888 340.821 129.219 341.031 129.636C341.241 130.054 341.347 130.52 341.347 131.034C341.347 131.548 341.241 132.016 341.031 132.436C340.824 132.857 340.503 133.192 340.068 133.442C339.634 133.689 339.077 133.812 338.398 133.812H336.284V132.875H338.364C338.832 132.875 339.209 132.794 339.493 132.632C339.777 132.47 339.983 132.251 340.111 131.976C340.241 131.697 340.307 131.384 340.307 131.034C340.307 130.685 340.241 130.372 340.111 130.097C339.983 129.821 339.776 129.605 339.489 129.449C339.202 129.29 338.821 129.21 338.347 129.21H336.489V137H335.432ZM344.839 137.153C344.424 137.153 344.048 137.075 343.71 136.919C343.371 136.76 343.103 136.531 342.904 136.233C342.705 135.932 342.606 135.568 342.606 135.142C342.606 134.767 342.68 134.463 342.827 134.23C342.975 133.994 343.173 133.81 343.42 133.676C343.667 133.543 343.94 133.443 344.238 133.378C344.539 133.31 344.842 133.256 345.146 133.216C345.543 133.165 345.866 133.126 346.113 133.101C346.363 133.072 346.545 133.026 346.658 132.96C346.775 132.895 346.833 132.781 346.833 132.619V132.585C346.833 132.165 346.718 131.838 346.488 131.605C346.261 131.372 345.915 131.256 345.452 131.256C344.972 131.256 344.596 131.361 344.323 131.571C344.05 131.781 343.859 132.006 343.748 132.244L342.793 131.903C342.964 131.506 343.191 131.196 343.475 130.974C343.762 130.75 344.075 130.594 344.413 130.506C344.754 130.415 345.089 130.369 345.418 130.369C345.629 130.369 345.87 130.395 346.143 130.446C346.418 130.494 346.684 130.595 346.94 130.749C347.198 130.902 347.413 131.134 347.583 131.443C347.754 131.753 347.839 132.168 347.839 132.688V137H346.833V136.114H346.782C346.714 136.256 346.6 136.408 346.441 136.57C346.282 136.732 346.07 136.869 345.806 136.983C345.542 137.097 345.219 137.153 344.839 137.153ZM344.992 136.25C345.39 136.25 345.725 136.172 345.998 136.016C346.273 135.859 346.481 135.658 346.62 135.411C346.762 135.163 346.833 134.903 346.833 134.631V133.71C346.79 133.761 346.697 133.808 346.552 133.851C346.41 133.891 346.245 133.926 346.058 133.957C345.873 133.986 345.692 134.011 345.516 134.034C345.343 134.054 345.202 134.071 345.094 134.085C344.833 134.119 344.589 134.175 344.362 134.251C344.137 134.325 343.955 134.437 343.816 134.588C343.68 134.736 343.612 134.937 343.612 135.193C343.612 135.543 343.741 135.807 343.999 135.986C344.261 136.162 344.592 136.25 344.992 136.25ZM349.674 137V130.455H350.646V131.443H350.714C350.833 131.119 351.049 130.857 351.362 130.655C351.674 130.453 352.027 130.352 352.419 130.352C352.493 130.352 352.585 130.354 352.696 130.357C352.806 130.359 352.89 130.364 352.947 130.369V131.392C352.913 131.384 352.835 131.371 352.713 131.354C352.593 131.334 352.467 131.324 352.333 131.324C352.015 131.324 351.731 131.391 351.481 131.524C351.234 131.655 351.038 131.837 350.893 132.07C350.751 132.3 350.68 132.562 350.68 132.858V137H349.674ZM356.065 137.153C355.651 137.153 355.274 137.075 354.936 136.919C354.598 136.76 354.33 136.531 354.131 136.233C353.932 135.932 353.832 135.568 353.832 135.142C353.832 134.767 353.906 134.463 354.054 134.23C354.202 133.994 354.399 133.81 354.646 133.676C354.893 133.543 355.166 133.443 355.464 133.378C355.766 133.31 356.068 133.256 356.372 133.216C356.77 133.165 357.092 133.126 357.339 133.101C357.589 133.072 357.771 133.026 357.885 132.96C358.001 132.895 358.06 132.781 358.06 132.619V132.585C358.06 132.165 357.945 131.838 357.714 131.605C357.487 131.372 357.142 131.256 356.679 131.256C356.199 131.256 355.822 131.361 355.55 131.571C355.277 131.781 355.085 132.006 354.974 132.244L354.02 131.903C354.19 131.506 354.418 131.196 354.702 130.974C354.989 130.75 355.301 130.594 355.639 130.506C355.98 130.415 356.315 130.369 356.645 130.369C356.855 130.369 357.097 130.395 357.369 130.446C357.645 130.494 357.911 130.595 358.166 130.749C358.425 130.902 358.639 131.134 358.81 131.443C358.98 131.753 359.065 132.168 359.065 132.688V137H358.06V136.114H358.009C357.94 136.256 357.827 136.408 357.668 136.57C357.509 136.732 357.297 136.869 357.033 136.983C356.768 137.097 356.446 137.153 356.065 137.153ZM356.219 136.25C356.616 136.25 356.952 136.172 357.224 136.016C357.5 135.859 357.707 135.658 357.847 135.411C357.989 135.163 358.06 134.903 358.06 134.631V133.71C358.017 133.761 357.923 133.808 357.778 133.851C357.636 133.891 357.472 133.926 357.284 133.957C357.099 133.986 356.919 134.011 356.743 134.034C356.57 134.054 356.429 134.071 356.321 134.085C356.06 134.119 355.815 134.175 355.588 134.251C355.364 134.325 355.182 134.437 355.043 134.588C354.906 134.736 354.838 134.937 354.838 135.193C354.838 135.543 354.967 135.807 355.226 135.986C355.487 136.162 355.818 136.25 356.219 136.25ZM361.907 128.273V137H360.901V128.273H361.907ZM364.754 128.273V137H363.749V128.273H364.754ZM369.341 137.136C368.71 137.136 368.166 136.997 367.708 136.719C367.254 136.438 366.903 136.045 366.656 135.543C366.412 135.037 366.289 134.449 366.289 133.778C366.289 133.108 366.412 132.517 366.656 132.006C366.903 131.491 367.247 131.091 367.687 130.804C368.13 130.514 368.647 130.369 369.238 130.369C369.579 130.369 369.916 130.426 370.248 130.54C370.581 130.653 370.883 130.838 371.156 131.094C371.429 131.347 371.646 131.682 371.808 132.099C371.97 132.517 372.051 133.031 372.051 133.642V134.068H367.005V133.199H371.028C371.028 132.83 370.954 132.5 370.806 132.21C370.662 131.92 370.454 131.692 370.184 131.524C369.917 131.357 369.602 131.273 369.238 131.273C368.838 131.273 368.491 131.372 368.199 131.571C367.909 131.767 367.686 132.023 367.529 132.338C367.373 132.653 367.295 132.991 367.295 133.352V133.932C367.295 134.426 367.38 134.845 367.551 135.189C367.724 135.53 367.964 135.79 368.271 135.969C368.578 136.145 368.934 136.233 369.341 136.233C369.605 136.233 369.843 136.196 370.056 136.122C370.272 136.045 370.458 135.932 370.615 135.781C370.771 135.628 370.892 135.437 370.977 135.21L371.949 135.483C371.846 135.812 371.674 136.102 371.433 136.352C371.191 136.599 370.893 136.793 370.538 136.932C370.183 137.068 369.784 137.136 369.341 137.136ZM374.586 128.273V137H373.581V128.273H374.586ZM382.462 137.136C381.849 137.136 381.32 136.991 380.877 136.702C380.434 136.412 380.093 136.013 379.854 135.504C379.616 134.996 379.496 134.415 379.496 133.761C379.496 133.097 379.619 132.51 379.863 132.001C380.11 131.49 380.454 131.091 380.894 130.804C381.337 130.514 381.854 130.369 382.445 130.369C382.906 130.369 383.32 130.455 383.69 130.625C384.059 130.795 384.362 131.034 384.597 131.341C384.833 131.648 384.979 132.006 385.036 132.415H384.031C383.954 132.116 383.783 131.852 383.519 131.622C383.258 131.389 382.906 131.273 382.462 131.273C382.07 131.273 381.727 131.375 381.431 131.58C381.138 131.781 380.91 132.067 380.745 132.436C380.583 132.803 380.502 133.233 380.502 133.727C380.502 134.233 380.582 134.673 380.741 135.048C380.903 135.423 381.13 135.714 381.423 135.922C381.718 136.129 382.065 136.233 382.462 136.233C382.724 136.233 382.961 136.188 383.174 136.097C383.387 136.006 383.567 135.875 383.715 135.705C383.863 135.534 383.968 135.33 384.031 135.091H385.036C384.979 135.477 384.839 135.825 384.614 136.135C384.393 136.442 384.099 136.686 383.732 136.868C383.369 137.047 382.945 137.136 382.462 137.136ZM387.512 133.062V137H386.506V128.273H387.512V131.477H387.597C387.751 131.139 387.981 130.871 388.288 130.672C388.597 130.47 389.009 130.369 389.523 130.369C389.969 130.369 390.36 130.459 390.695 130.638C391.031 130.814 391.29 131.085 391.475 131.452C391.663 131.815 391.756 132.278 391.756 132.841V137H390.751V132.909C390.751 132.389 390.616 131.987 390.346 131.703C390.079 131.416 389.708 131.273 389.234 131.273C388.904 131.273 388.609 131.342 388.347 131.482C388.089 131.621 387.884 131.824 387.734 132.091C387.586 132.358 387.512 132.682 387.512 133.062ZM395.522 137.153C395.108 137.153 394.731 137.075 394.393 136.919C394.055 136.76 393.787 136.531 393.588 136.233C393.389 135.932 393.289 135.568 393.289 135.142C393.289 134.767 393.363 134.463 393.511 134.23C393.659 133.994 393.856 133.81 394.103 133.676C394.35 133.543 394.623 133.443 394.922 133.378C395.223 133.31 395.525 133.256 395.829 133.216C396.227 133.165 396.549 133.126 396.797 133.101C397.047 133.072 397.228 133.026 397.342 132.96C397.458 132.895 397.517 132.781 397.517 132.619V132.585C397.517 132.165 397.402 131.838 397.172 131.605C396.944 131.372 396.599 131.256 396.136 131.256C395.656 131.256 395.279 131.361 395.007 131.571C394.734 131.781 394.542 132.006 394.431 132.244L393.477 131.903C393.647 131.506 393.875 131.196 394.159 130.974C394.446 130.75 394.758 130.594 395.096 130.506C395.437 130.415 395.772 130.369 396.102 130.369C396.312 130.369 396.554 130.395 396.826 130.446C397.102 130.494 397.368 130.595 397.623 130.749C397.882 130.902 398.096 131.134 398.267 131.443C398.437 131.753 398.522 132.168 398.522 132.688V137H397.517V136.114H397.466C397.397 136.256 397.284 136.408 397.125 136.57C396.966 136.732 396.754 136.869 396.49 136.983C396.225 137.097 395.903 137.153 395.522 137.153ZM395.676 136.25C396.074 136.25 396.409 136.172 396.681 136.016C396.957 135.859 397.164 135.658 397.304 135.411C397.446 135.163 397.517 134.903 397.517 134.631V133.71C397.474 133.761 397.38 133.808 397.235 133.851C397.093 133.891 396.929 133.926 396.741 133.957C396.556 133.986 396.376 134.011 396.2 134.034C396.027 134.054 395.886 134.071 395.778 134.085C395.517 134.119 395.272 134.175 395.045 134.251C394.821 134.325 394.639 134.437 394.5 134.588C394.363 134.736 394.295 134.937 394.295 135.193C394.295 135.543 394.424 135.807 394.683 135.986C394.944 136.162 395.275 136.25 395.676 136.25ZM400.358 137V130.455H401.364V137H400.358ZM400.869 129.364C400.673 129.364 400.504 129.297 400.362 129.163C400.223 129.03 400.153 128.869 400.153 128.682C400.153 128.494 400.223 128.334 400.362 128.2C400.504 128.067 400.673 128 400.869 128C401.065 128 401.233 128.067 401.372 128.2C401.514 128.334 401.585 128.494 401.585 128.682C401.585 128.869 401.514 129.03 401.372 129.163C401.233 129.297 401.065 129.364 400.869 129.364ZM404.211 133.062V137H403.206V130.455H404.177V131.477H404.262C404.416 131.145 404.649 130.878 404.961 130.676C405.274 130.472 405.677 130.369 406.172 130.369C406.615 130.369 407.002 130.46 407.335 130.642C407.667 130.821 407.926 131.094 408.11 131.46C408.295 131.824 408.387 132.284 408.387 132.841V137H407.382V132.909C407.382 132.395 407.248 131.994 406.981 131.707C406.714 131.418 406.348 131.273 405.882 131.273C405.561 131.273 405.274 131.342 405.021 131.482C404.771 131.621 404.574 131.824 404.429 132.091C404.284 132.358 404.211 132.682 404.211 133.062ZM416.651 128.273V137H415.594V129.381H415.543L413.413 130.795V129.722L415.594 128.273H416.651Z" fill="white"/>
<path d="M335.432 207V198.273H338.381C339.065 198.273 339.625 198.396 340.06 198.643C340.497 198.888 340.821 199.219 341.031 199.636C341.241 200.054 341.347 200.52 341.347 201.034C341.347 201.548 341.241 202.016 341.031 202.436C340.824 202.857 340.503 203.192 340.068 203.442C339.634 203.689 339.077 203.812 338.398 203.812H336.284V202.875H338.364C338.832 202.875 339.209 202.794 339.493 202.632C339.777 202.47 339.983 202.251 340.111 201.976C340.241 201.697 340.307 201.384 340.307 201.034C340.307 200.685 340.241 200.372 340.111 200.097C339.983 199.821 339.776 199.605 339.489 199.449C339.202 199.29 338.821 199.21 338.347 199.21H336.489V207H335.432ZM344.839 207.153C344.424 207.153 344.048 207.075 343.71 206.919C343.371 206.76 343.103 206.531 342.904 206.233C342.705 205.932 342.606 205.568 342.606 205.142C342.606 204.767 342.68 204.463 342.827 204.23C342.975 203.994 343.173 203.81 343.42 203.676C343.667 203.543 343.94 203.443 344.238 203.378C344.539 203.31 344.842 203.256 345.146 203.216C345.543 203.165 345.866 203.126 346.113 203.101C346.363 203.072 346.545 203.026 346.658 202.96C346.775 202.895 346.833 202.781 346.833 202.619V202.585C346.833 202.165 346.718 201.838 346.488 201.605C346.261 201.372 345.915 201.256 345.452 201.256C344.972 201.256 344.596 201.361 344.323 201.571C344.05 201.781 343.859 202.006 343.748 202.244L342.793 201.903C342.964 201.506 343.191 201.196 343.475 200.974C343.762 200.75 344.075 200.594 344.413 200.506C344.754 200.415 345.089 200.369 345.418 200.369C345.629 200.369 345.87 200.395 346.143 200.446C346.418 200.494 346.684 200.595 346.94 200.749C347.198 200.902 347.413 201.134 347.583 201.443C347.754 201.753 347.839 202.168 347.839 202.688V207H346.833V206.114H346.782C346.714 206.256 346.6 206.408 346.441 206.57C346.282 206.732 346.07 206.869 345.806 206.983C345.542 207.097 345.219 207.153 344.839 207.153ZM344.992 206.25C345.39 206.25 345.725 206.172 345.998 206.016C346.273 205.859 346.481 205.658 346.62 205.411C346.762 205.163 346.833 204.903 346.833 204.631V203.71C346.79 203.761 346.697 203.808 346.552 203.851C346.41 203.891 346.245 203.926 346.058 203.957C345.873 203.986 345.692 204.011 345.516 204.034C345.343 204.054 345.202 204.071 345.094 204.085C344.833 204.119 344.589 204.175 344.362 204.251C344.137 204.325 343.955 204.437 343.816 204.588C343.68 204.736 343.612 204.937 343.612 205.193C343.612 205.543 343.741 205.807 343.999 205.986C344.261 206.162 344.592 206.25 344.992 206.25ZM349.674 207V200.455H350.646V201.443H350.714C350.833 201.119 351.049 200.857 351.362 200.655C351.674 200.453 352.027 200.352 352.419 200.352C352.493 200.352 352.585 200.354 352.696 200.357C352.806 200.359 352.89 200.364 352.947 200.369V201.392C352.913 201.384 352.835 201.371 352.713 201.354C352.593 201.334 352.467 201.324 352.333 201.324C352.015 201.324 351.731 201.391 351.481 201.524C351.234 201.655 351.038 201.837 350.893 202.07C350.751 202.3 350.68 202.562 350.68 202.858V207H349.674ZM356.065 207.153C355.651 207.153 355.274 207.075 354.936 206.919C354.598 206.76 354.33 206.531 354.131 206.233C353.932 205.932 353.832 205.568 353.832 205.142C353.832 204.767 353.906 204.463 354.054 204.23C354.202 203.994 354.399 203.81 354.646 203.676C354.893 203.543 355.166 203.443 355.464 203.378C355.766 203.31 356.068 203.256 356.372 203.216C356.77 203.165 357.092 203.126 357.339 203.101C357.589 203.072 357.771 203.026 357.885 202.96C358.001 202.895 358.06 202.781 358.06 202.619V202.585C358.06 202.165 357.945 201.838 357.714 201.605C357.487 201.372 357.142 201.256 356.679 201.256C356.199 201.256 355.822 201.361 355.55 201.571C355.277 201.781 355.085 202.006 354.974 202.244L354.02 201.903C354.19 201.506 354.418 201.196 354.702 200.974C354.989 200.75 355.301 200.594 355.639 200.506C355.98 200.415 356.315 200.369 356.645 200.369C356.855 200.369 357.097 200.395 357.369 200.446C357.645 200.494 357.911 200.595 358.166 200.749C358.425 200.902 358.639 201.134 358.81 201.443C358.98 201.753 359.065 202.168 359.065 202.688V207H358.06V206.114H358.009C357.94 206.256 357.827 206.408 357.668 206.57C357.509 206.732 357.297 206.869 357.033 206.983C356.768 207.097 356.446 207.153 356.065 207.153ZM356.219 206.25C356.616 206.25 356.952 206.172 357.224 206.016C357.5 205.859 357.707 205.658 357.847 205.411C357.989 205.163 358.06 204.903 358.06 204.631V203.71C358.017 203.761 357.923 203.808 357.778 203.851C357.636 203.891 357.472 203.926 357.284 203.957C357.099 203.986 356.919 204.011 356.743 204.034C356.57 204.054 356.429 204.071 356.321 204.085C356.06 204.119 355.815 204.175 355.588 204.251C355.364 204.325 355.182 204.437 355.043 204.588C354.906 204.736 354.838 204.937 354.838 205.193C354.838 205.543 354.967 205.807 355.226 205.986C355.487 206.162 355.818 206.25 356.219 206.25ZM361.907 198.273V207H360.901V198.273H361.907ZM364.754 198.273V207H363.749V198.273H364.754ZM369.341 207.136C368.71 207.136 368.166 206.997 367.708 206.719C367.254 206.438 366.903 206.045 366.656 205.543C366.412 205.037 366.289 204.449 366.289 203.778C366.289 203.108 366.412 202.517 366.656 202.006C366.903 201.491 367.247 201.091 367.687 200.804C368.13 200.514 368.647 200.369 369.238 200.369C369.579 200.369 369.916 200.426 370.248 200.54C370.581 200.653 370.883 200.838 371.156 201.094C371.429 201.347 371.646 201.682 371.808 202.099C371.97 202.517 372.051 203.031 372.051 203.642V204.068H367.005V203.199H371.028C371.028 202.83 370.954 202.5 370.806 202.21C370.662 201.92 370.454 201.692 370.184 201.524C369.917 201.357 369.602 201.273 369.238 201.273C368.838 201.273 368.491 201.372 368.199 201.571C367.909 201.767 367.686 202.023 367.529 202.338C367.373 202.653 367.295 202.991 367.295 203.352V203.932C367.295 204.426 367.38 204.845 367.551 205.189C367.724 205.53 367.964 205.79 368.271 205.969C368.578 206.145 368.934 206.233 369.341 206.233C369.605 206.233 369.843 206.196 370.056 206.122C370.272 206.045 370.458 205.932 370.615 205.781C370.771 205.628 370.892 205.437 370.977 205.21L371.949 205.483C371.846 205.812 371.674 206.102 371.433 206.352C371.191 206.599 370.893 206.793 370.538 206.932C370.183 207.068 369.784 207.136 369.341 207.136ZM374.586 198.273V207H373.581V198.273H374.586ZM382.462 207.136C381.849 207.136 381.32 206.991 380.877 206.702C380.434 206.412 380.093 206.013 379.854 205.504C379.616 204.996 379.496 204.415 379.496 203.761C379.496 203.097 379.619 202.51 379.863 202.001C380.11 201.49 380.454 201.091 380.894 200.804C381.337 200.514 381.854 200.369 382.445 200.369C382.906 200.369 383.32 200.455 383.69 200.625C384.059 200.795 384.362 201.034 384.597 201.341C384.833 201.648 384.979 202.006 385.036 202.415H384.031C383.954 202.116 383.783 201.852 383.519 201.622C383.258 201.389 382.906 201.273 382.462 201.273C382.07 201.273 381.727 201.375 381.431 201.58C381.138 201.781 380.91 202.067 380.745 202.436C380.583 202.803 380.502 203.233 380.502 203.727C380.502 204.233 380.582 204.673 380.741 205.048C380.903 205.423 381.13 205.714 381.423 205.922C381.718 206.129 382.065 206.233 382.462 206.233C382.724 206.233 382.961 206.188 383.174 206.097C383.387 206.006 383.567 205.875 383.715 205.705C383.863 205.534 383.968 205.33 384.031 205.091H385.036C384.979 205.477 384.839 205.825 384.614 206.135C384.393 206.442 384.099 206.686 383.732 206.868C383.369 207.047 382.945 207.136 382.462 207.136ZM387.512 203.062V207H386.506V198.273H387.512V201.477H387.597C387.751 201.139 387.981 200.871 388.288 200.672C388.597 200.47 389.009 200.369 389.523 200.369C389.969 200.369 390.36 200.459 390.695 200.638C391.031 200.814 391.29 201.085 391.475 201.452C391.663 201.815 391.756 202.278 391.756 202.841V207H390.751V202.909C390.751 202.389 390.616 201.987 390.346 201.703C390.079 201.416 389.708 201.273 389.234 201.273C388.904 201.273 388.609 201.342 388.347 201.482C388.089 201.621 387.884 201.824 387.734 202.091C387.586 202.358 387.512 202.682 387.512 203.062ZM395.522 207.153C395.108 207.153 394.731 207.075 394.393 206.919C394.055 206.76 393.787 206.531 393.588 206.233C393.389 205.932 393.289 205.568 393.289 205.142C393.289 204.767 393.363 204.463 393.511 204.23C393.659 203.994 393.856 203.81 394.103 203.676C394.35 203.543 394.623 203.443 394.922 203.378C395.223 203.31 395.525 203.256 395.829 203.216C396.227 203.165 396.549 203.126 396.797 203.101C397.047 203.072 397.228 203.026 397.342 202.96C397.458 202.895 397.517 202.781 397.517 202.619V202.585C397.517 202.165 397.402 201.838 397.172 201.605C396.944 201.372 396.599 201.256 396.136 201.256C395.656 201.256 395.279 201.361 395.007 201.571C394.734 201.781 394.542 202.006 394.431 202.244L393.477 201.903C393.647 201.506 393.875 201.196 394.159 200.974C394.446 200.75 394.758 200.594 395.096 200.506C395.437 200.415 395.772 200.369 396.102 200.369C396.312 200.369 396.554 200.395 396.826 200.446C397.102 200.494 397.368 200.595 397.623 200.749C397.882 200.902 398.096 201.134 398.267 201.443C398.437 201.753 398.522 202.168 398.522 202.688V207H397.517V206.114H397.466C397.397 206.256 397.284 206.408 397.125 206.57C396.966 206.732 396.754 206.869 396.49 206.983C396.225 207.097 395.903 207.153 395.522 207.153ZM395.676 206.25C396.074 206.25 396.409 206.172 396.681 206.016C396.957 205.859 397.164 205.658 397.304 205.411C397.446 205.163 397.517 204.903 397.517 204.631V203.71C397.474 203.761 397.38 203.808 397.235 203.851C397.093 203.891 396.929 203.926 396.741 203.957C396.556 203.986 396.376 204.011 396.2 204.034C396.027 204.054 395.886 204.071 395.778 204.085C395.517 204.119 395.272 204.175 395.045 204.251C394.821 204.325 394.639 204.437 394.5 204.588C394.363 204.736 394.295 204.937 394.295 205.193C394.295 205.543 394.424 205.807 394.683 205.986C394.944 206.162 395.275 206.25 395.676 206.25ZM400.358 207V200.455H401.364V207H400.358ZM400.869 199.364C400.673 199.364 400.504 199.297 400.362 199.163C400.223 199.03 400.153 198.869 400.153 198.682C400.153 198.494 400.223 198.334 400.362 198.2C400.504 198.067 400.673 198 400.869 198C401.065 198 401.233 198.067 401.372 198.2C401.514 198.334 401.585 198.494 401.585 198.682C401.585 198.869 401.514 199.03 401.372 199.163C401.233 199.297 401.065 199.364 400.869 199.364ZM404.211 203.062V207H403.206V200.455H404.177V201.477H404.262C404.416 201.145 404.649 200.878 404.961 200.676C405.274 200.472 405.677 200.369 406.172 200.369C406.615 200.369 407.002 200.46 407.335 200.642C407.667 200.821 407.926 201.094 408.11 201.46C408.295 201.824 408.387 202.284 408.387 202.841V207H407.382V202.909C407.382 202.395 407.248 201.994 406.981 201.707C406.714 201.418 406.348 201.273 405.882 201.273C405.561 201.273 405.274 201.342 405.021 201.482C404.771 201.621 404.574 201.824 404.429 202.091C404.284 202.358 404.211 202.682 404.211 203.062ZM413.583 207V206.233L416.464 203.08C416.802 202.71 417.08 202.389 417.299 202.116C417.518 201.841 417.68 201.582 417.785 201.341C417.893 201.097 417.947 200.841 417.947 200.574C417.947 200.267 417.873 200.001 417.725 199.777C417.58 199.553 417.381 199.379 417.129 199.257C416.876 199.135 416.592 199.074 416.276 199.074C415.941 199.074 415.648 199.143 415.398 199.283C415.151 199.419 414.96 199.611 414.823 199.858C414.69 200.105 414.623 200.395 414.623 200.727H413.617C413.617 200.216 413.735 199.767 413.971 199.381C414.207 198.994 414.528 198.693 414.934 198.477C415.343 198.261 415.802 198.153 416.31 198.153C416.822 198.153 417.275 198.261 417.67 198.477C418.065 198.693 418.374 198.984 418.599 199.351C418.823 199.717 418.935 200.125 418.935 200.574C418.935 200.895 418.877 201.209 418.761 201.516C418.647 201.82 418.448 202.159 418.164 202.534C417.883 202.906 417.492 203.361 416.992 203.898L415.032 205.994V206.062H419.089V207H413.583Z" fill="white"/>
<path d="M546.354 63.6465C546.158 63.4512 545.842 63.4512 545.646 63.6465L542.464 66.8284C542.269 67.0237 542.269 67.3403 542.464 67.5355C542.66 67.7308 542.976 67.7308 543.172 67.5355L546 64.7071L548.828 67.5355C549.024 67.7308 549.34 67.7308 549.536 67.5355C549.731 67.3403 549.731 67.0237 549.536 66.8284L546.354 63.6465ZM546.5 117L546.5 64L545.5 64L545.5 117L546.5 117Z" fill="#00FF00"/>
<path d="M581.354 63.6464C581.158 63.4512 580.842 63.4512 580.646 63.6464L577.464 66.8284C577.269 67.0237 577.269 67.3403 577.464 67.5355C577.66 67.7308 577.976 67.7308 578.172 67.5355L581 64.7071L583.828 67.5355C584.024 67.7308 584.34 67.7308 584.536 67.5355C584.731 67.3403 584.731 67.0237 584.536 66.8284L581.354 63.6464ZM581.5 187L581.5 64L580.5 64L580.5 187L581.5 187Z" fill="#00FF00"/>
<path d="M456.002 21V12.2727H461.235V13.2102H457.059V16.1591H460.843V17.0966H457.059V21H456.002ZM462.909 21V14.4545H463.914V21H462.909ZM463.42 13.3636C463.224 13.3636 463.055 13.2969 462.913 13.1634C462.774 13.0298 462.704 12.8693 462.704 12.6818C462.704 12.4943 462.774 12.3338 462.913 12.2003C463.055 12.0668 463.224 12 463.42 12C463.616 12 463.784 12.0668 463.923 12.2003C464.065 12.3338 464.136 12.4943 464.136 12.6818C464.136 12.8693 464.065 13.0298 463.923 13.1634C463.784 13.2969 463.616 13.3636 463.42 13.3636ZM466.762 17.0625V21H465.756V14.4545H466.728V15.4773H466.813C466.967 15.1449 467.2 14.8778 467.512 14.6761C467.825 14.4716 468.228 14.3693 468.722 14.3693C469.165 14.3693 469.553 14.4602 469.886 14.642C470.218 14.821 470.477 15.0938 470.661 15.4602C470.846 15.8239 470.938 16.2841 470.938 16.8409V21H469.933V16.9091C469.933 16.3949 469.799 15.9943 469.532 15.7074C469.265 15.4176 468.898 15.2727 468.433 15.2727C468.112 15.2727 467.825 15.3423 467.572 15.4815C467.322 15.6207 467.124 15.8239 466.979 16.0909C466.835 16.358 466.762 16.6818 466.762 17.0625ZM474.702 21.1534C474.287 21.1534 473.911 21.0753 473.573 20.919C473.235 20.7599 472.966 20.5312 472.767 20.233C472.569 19.9318 472.469 19.5682 472.469 19.142C472.469 18.767 472.543 18.4631 472.691 18.2301C472.838 17.9943 473.036 17.8097 473.283 17.6761C473.53 17.5426 473.803 17.4432 474.101 17.3778C474.402 17.3097 474.705 17.2557 475.009 17.2159C475.407 17.1648 475.729 17.1264 475.976 17.1009C476.226 17.0724 476.408 17.0256 476.522 16.9602C476.638 16.8949 476.696 16.7812 476.696 16.6193V16.5852C476.696 16.1648 476.581 15.8381 476.351 15.6051C476.124 15.3722 475.779 15.2557 475.316 15.2557C474.836 15.2557 474.459 15.3608 474.186 15.571C473.914 15.7812 473.722 16.0057 473.611 16.2443L472.657 15.9034C472.827 15.5057 473.054 15.196 473.338 14.9744C473.625 14.75 473.938 14.5937 474.276 14.5057C474.617 14.4148 474.952 14.3693 475.282 14.3693C475.492 14.3693 475.733 14.3949 476.006 14.446C476.282 14.4943 476.547 14.5952 476.803 14.7486C477.061 14.902 477.276 15.1335 477.446 15.4432C477.617 15.7528 477.702 16.1676 477.702 16.6875V21H476.696V20.1136H476.645C476.577 20.2557 476.463 20.4077 476.304 20.5696C476.145 20.7315 475.934 20.8693 475.669 20.983C475.405 21.0966 475.083 21.1534 474.702 21.1534ZM474.855 20.25C475.253 20.25 475.588 20.1719 475.861 20.0156C476.137 19.8594 476.344 19.6577 476.483 19.4105C476.625 19.1634 476.696 18.9034 476.696 18.6307V17.7102C476.654 17.7614 476.56 17.8082 476.415 17.8509C476.273 17.8906 476.108 17.9261 475.921 17.9574C475.736 17.9858 475.556 18.0114 475.38 18.0341C475.206 18.054 475.066 18.071 474.958 18.0852C474.696 18.1193 474.452 18.1747 474.225 18.2514C474 18.3253 473.819 18.4375 473.679 18.5881C473.543 18.7358 473.475 18.9375 473.475 19.1932C473.475 19.5426 473.604 19.8068 473.863 19.9858C474.124 20.1619 474.455 20.25 474.855 20.25ZM480.543 12.2727V21H479.538V12.2727H480.543ZM482.385 21V14.4545H483.391V21H482.385ZM482.897 13.3636C482.701 13.3636 482.532 13.2969 482.39 13.1634C482.25 13.0298 482.181 12.8693 482.181 12.6818C482.181 12.4943 482.25 12.3338 482.39 12.2003C482.532 12.0668 482.701 12 482.897 12C483.093 12 483.26 12.0668 483.4 12.2003C483.542 12.3338 483.613 12.4943 483.613 12.6818C483.613 12.8693 483.542 13.0298 483.4 13.1634C483.26 13.2969 483.093 13.3636 482.897 13.3636ZM485.045 21V20.233L488.761 15.4602V15.392H485.165V14.4545H490.057V15.2557L486.443 19.9943V20.0625H490.176V21H485.045ZM494.282 21.1364C493.651 21.1364 493.107 20.9972 492.65 20.7188C492.195 20.4375 491.844 20.0455 491.597 19.5426C491.353 19.0369 491.231 18.4489 491.231 17.7784C491.231 17.108 491.353 16.517 491.597 16.0057C491.844 15.4915 492.188 15.0909 492.629 14.804C493.072 14.5142 493.589 14.3693 494.18 14.3693C494.521 14.3693 494.857 14.4261 495.19 14.5398C495.522 14.6534 495.825 14.8381 496.097 15.0938C496.37 15.3466 496.587 15.6818 496.749 16.0994C496.911 16.517 496.992 17.0312 496.992 17.642V18.0682H491.947V17.1989H495.969C495.969 16.8295 495.896 16.5 495.748 16.2102C495.603 15.9205 495.396 15.6918 495.126 15.5241C494.859 15.3565 494.543 15.2727 494.18 15.2727C493.779 15.2727 493.433 15.3722 493.14 15.571C492.85 15.767 492.627 16.0227 492.471 16.3381C492.315 16.6534 492.237 16.9915 492.237 17.3523V17.9318C492.237 18.4261 492.322 18.8452 492.492 19.1889C492.665 19.5298 492.906 19.7898 493.212 19.9688C493.519 20.1449 493.876 20.233 494.282 20.233C494.546 20.233 494.785 20.196 494.998 20.1222C495.214 20.0455 495.4 19.9318 495.556 19.7812C495.712 19.6278 495.833 19.4375 495.918 19.2102L496.89 19.483C496.788 19.8125 496.616 20.1023 496.374 20.3523C496.133 20.5994 495.835 20.7926 495.479 20.9318C495.124 21.0682 494.725 21.1364 494.282 21.1364ZM500.994 21.1364C500.448 21.1364 499.967 20.9986 499.549 20.723C499.131 20.4446 498.805 20.0526 498.569 19.5469C498.333 19.0384 498.215 18.4375 498.215 17.7443C498.215 17.0568 498.333 16.4602 498.569 15.9545C498.805 15.4489 499.133 15.0582 499.553 14.7827C499.974 14.5071 500.46 14.3693 501.011 14.3693C501.437 14.3693 501.773 14.4403 502.021 14.5824C502.271 14.7216 502.461 14.8807 502.592 15.0597C502.725 15.2358 502.829 15.3807 502.903 15.4943H502.988V12.2727H503.994V21H503.022V19.9943H502.903C502.829 20.1136 502.724 20.2642 502.587 20.446C502.451 20.625 502.256 20.7855 502.004 20.9276C501.751 21.0668 501.414 21.1364 500.994 21.1364ZM501.13 20.233C501.533 20.233 501.874 20.1278 502.153 19.9176C502.431 19.7045 502.643 19.4105 502.788 19.0355C502.933 18.6577 503.005 18.2216 503.005 17.7273C503.005 17.2386 502.934 16.8111 502.792 16.4446C502.65 16.0753 502.44 15.7884 502.161 15.5838C501.883 15.3764 501.539 15.2727 501.13 15.2727C500.704 15.2727 500.349 15.3821 500.065 15.6009C499.783 15.8168 499.572 16.1108 499.43 16.483C499.29 16.8523 499.221 17.267 499.221 17.7273C499.221 18.1932 499.292 18.6165 499.434 18.9972C499.579 19.375 499.792 19.6761 500.073 19.9006C500.357 20.1222 500.71 20.233 501.13 20.233Z" fill="white"/>
<path d="M454.945 23.3864H505.05V24.2045H454.945V23.3864Z" fill="white"/>
<line x1="105" y1="63.5" x2="305" y2="63.5" stroke="white" stroke-dasharray="2 2"/>
<line x1="105" y1="132.5" x2="305" y2="132.5" stroke="white" stroke-dasharray="2 2"/>
<path d="M193 47H163V77H193V47Z" fill="#F0F0F0" stroke="black" stroke-width="2"/>
<path d="M189.341 68.6364V73H188.813V69.1903H188.787L187.722 69.8977V69.3608L188.813 68.6364H189.341Z" fill="black"/>
<path d="M235 117H205V147H235V117Z" fill="#F0F0F0" stroke="black" stroke-width="2"/>
<path d="M231.341 138.636V143H230.813V139.19H230.787L229.722 139.898V139.361L230.813 138.636H231.341Z" fill="black"/>
<line x1="105" y1="202.5" x2="305" y2="202.5" stroke="white" stroke-dasharray="2 2"/>
<path d="M151 187H121V217H151V187Z" fill="#F0F0F0" stroke="black" stroke-width="2"/>
<path d="M147.341 208.636V213H146.813V209.19H146.787L145.722 209.898V209.361L146.813 208.636H147.341Z" fill="black"/>
<path d="M11.4318 58.2727H12.6932L15.6591 65.517H15.7614L18.7273 58.2727H19.9886V67H19V60.3693H18.9148L16.1875 67H15.233L12.5057 60.3693H12.4205V67H11.4318V58.2727ZM23.8974 67.1534C23.4826 67.1534 23.1062 67.0753 22.7681 66.919C22.43 66.7599 22.1616 66.5312 21.9627 66.233C21.7638 65.9318 21.6644 65.5682 21.6644 65.142C21.6644 64.767 21.7383 64.4631 21.886 64.2301C22.0337 63.9943 22.2312 63.8097 22.4783 63.6761C22.7255 63.5426 22.9982 63.4432 23.2965 63.3778C23.5977 63.3097 23.9002 63.2557 24.2042 63.2159C24.6019 63.1648 24.9244 63.1264 25.1715 63.1009C25.4215 63.0724 25.6033 63.0256 25.717 62.9602C25.8335 62.8949 25.8917 62.7812 25.8917 62.6193V62.5852C25.8917 62.1648 25.7766 61.8381 25.5465 61.6051C25.3192 61.3722 24.9741 61.2557 24.511 61.2557C24.0309 61.2557 23.6545 61.3608 23.3817 61.571C23.109 61.7812 22.9173 62.0057 22.8065 62.2443L21.8519 61.9034C22.0224 61.5057 22.2496 61.196 22.5337 60.9744C22.8207 60.75 23.1332 60.5937 23.4712 60.5057C23.8121 60.4148 24.1474 60.3693 24.4769 60.3693C24.6871 60.3693 24.9286 60.3949 25.2013 60.446C25.4769 60.4943 25.7425 60.5952 25.9982 60.7486C26.2567 60.902 26.4712 61.1335 26.6417 61.4432C26.8121 61.7528 26.8974 62.1676 26.8974 62.6875V67H25.8917V66.1136H25.8406C25.7724 66.2557 25.6587 66.4077 25.4996 66.5696C25.3406 66.7315 25.1289 66.8693 24.8647 66.983C24.6005 67.0966 24.2781 67.1534 23.8974 67.1534ZM24.0508 66.25C24.4485 66.25 24.7837 66.1719 25.0565 66.0156C25.332 65.8594 25.5394 65.6577 25.6786 65.4105C25.8207 65.1634 25.8917 64.9034 25.8917 64.6307V63.7102C25.8491 63.7614 25.7553 63.8082 25.6104 63.8509C25.4684 63.8906 25.3036 63.9261 25.1161 63.9574C24.9315 63.9858 24.7511 64.0114 24.5749 64.0341C24.4016 64.054 24.261 64.071 24.1531 64.0852C23.8917 64.1193 23.6474 64.1747 23.4201 64.2514C23.1957 64.3253 23.0138 64.4375 22.8746 64.5881C22.7383 64.7358 22.6701 64.9375 22.6701 65.1932C22.6701 65.5426 22.7994 65.8068 23.0579 65.9858C23.3192 66.1619 23.6502 66.25 24.0508 66.25ZM28.733 67V60.4545H29.7386V67H28.733ZM29.2443 59.3636C29.0483 59.3636 28.8793 59.2969 28.7372 59.1634C28.598 59.0298 28.5284 58.8693 28.5284 58.6818C28.5284 58.4943 28.598 58.3338 28.7372 58.2003C28.8793 58.0668 29.0483 58 29.2443 58C29.4403 58 29.608 58.0668 29.7472 58.2003C29.8892 58.3338 29.9602 58.4943 29.9602 58.6818C29.9602 58.8693 29.8892 59.0298 29.7472 59.1634C29.608 59.2969 29.4403 59.3636 29.2443 59.3636ZM32.5863 63.0625V67H31.5806V60.4545H32.5522V61.4773H32.6374C32.7908 61.1449 33.0238 60.8778 33.3363 60.6761C33.6488 60.4716 34.0522 60.3693 34.5465 60.3693C34.9897 60.3693 35.3775 60.4602 35.7099 60.642C36.0423 60.821 36.3008 61.0938 36.4854 61.4602C36.6701 61.8239 36.7624 62.2841 36.7624 62.8409V67H35.7567V62.9091C35.7567 62.3949 35.6232 61.9943 35.3562 61.7074C35.0891 61.4176 34.7227 61.2727 34.2567 61.2727C33.9357 61.2727 33.6488 61.3423 33.396 61.4815C33.146 61.6207 32.9485 61.8239 32.8036 62.0909C32.6587 62.358 32.5863 62.6818 32.5863 63.0625ZM44.6342 67.1364C44.0206 67.1364 43.4922 66.9915 43.049 66.7017C42.6058 66.4119 42.2649 66.0128 42.0263 65.5043C41.7876 64.9957 41.6683 64.4148 41.6683 63.7614C41.6683 63.0966 41.7905 62.5099 42.0348 62.0014C42.282 61.4901 42.6257 61.0909 43.0661 60.804C43.5092 60.5142 44.0263 60.3693 44.6172 60.3693C45.0774 60.3693 45.4922 60.4545 45.8615 60.625C46.2308 60.7955 46.5334 61.0341 46.7692 61.3409C47.005 61.6477 47.1513 62.0057 47.2081 62.4148H46.2024C46.1257 62.1165 45.9553 61.8523 45.6911 61.6222C45.4297 61.3892 45.0774 61.2727 44.6342 61.2727C44.2422 61.2727 43.8984 61.375 43.603 61.5795C43.3104 61.7812 43.0817 62.0668 42.9169 62.4361C42.755 62.8026 42.674 63.233 42.674 63.7273C42.674 64.233 42.7536 64.6733 42.9126 65.0483C43.0746 65.4233 43.3018 65.7145 43.5945 65.9219C43.8899 66.1293 44.2365 66.233 44.6342 66.233C44.8956 66.233 45.1328 66.1875 45.3459 66.0966C45.5589 66.0057 45.7393 65.875 45.8871 65.7045C46.0348 65.5341 46.1399 65.3295 46.2024 65.0909H47.2081C47.1513 65.4773 47.0107 65.8253 46.7862 66.1349C46.5646 66.4418 46.2706 66.6861 45.9041 66.8679C45.5405 67.0469 45.1172 67.1364 44.6342 67.1364ZM49.6839 63.0625V67H48.6783V58.2727H49.6839V61.4773H49.7692C49.9226 61.1392 50.1527 60.8707 50.4595 60.6719C50.7692 60.4702 51.1811 60.3693 51.6953 60.3693C52.1413 60.3693 52.532 60.4588 52.8672 60.6378C53.2024 60.8139 53.4624 61.0852 53.647 61.4517C53.8345 61.8153 53.9283 62.2784 53.9283 62.8409V67H52.9226V62.9091C52.9226 62.3892 52.7876 61.9872 52.5178 61.7031C52.2507 61.4162 51.88 61.2727 51.4055 61.2727C51.076 61.2727 50.7805 61.3423 50.5192 61.4815C50.2607 61.6207 50.0561 61.8239 49.9055 62.0909C49.7578 62.358 49.6839 62.6818 49.6839 63.0625ZM57.6942 67.1534C57.2795 67.1534 56.9031 67.0753 56.565 66.919C56.2269 66.7599 55.9585 66.5312 55.7596 66.233C55.5607 65.9318 55.4613 65.5682 55.4613 65.142C55.4613 64.767 55.5352 64.4631 55.6829 64.2301C55.8306 63.9943 56.0281 63.8097 56.2752 63.6761C56.5224 63.5426 56.7951 63.4432 57.0934 63.3778C57.3945 63.3097 57.6971 63.2557 58.0011 63.2159C58.3988 63.1648 58.7212 63.1264 58.9684 63.1009C59.2184 63.0724 59.4002 63.0256 59.5138 62.9602C59.6303 62.8949 59.6886 62.7812 59.6886 62.6193V62.5852C59.6886 62.1648 59.5735 61.8381 59.3434 61.6051C59.1161 61.3722 58.771 61.2557 58.3079 61.2557C57.8278 61.2557 57.4513 61.3608 57.1786 61.571C56.9059 61.7812 56.7141 62.0057 56.6033 62.2443L55.6488 61.9034C55.8192 61.5057 56.0465 61.196 56.3306 60.9744C56.6175 60.75 56.93 60.5937 57.2681 60.5057C57.609 60.4148 57.9442 60.3693 58.2738 60.3693C58.484 60.3693 58.7255 60.3949 58.9982 60.446C59.2738 60.4943 59.5394 60.5952 59.7951 60.7486C60.0536 60.902 60.2681 61.1335 60.4386 61.4432C60.609 61.7528 60.6942 62.1676 60.6942 62.6875V67H59.6886V66.1136H59.6374C59.5692 66.2557 59.4556 66.4077 59.2965 66.5696C59.1374 66.7315 58.9258 66.8693 58.6616 66.983C58.3974 67.0966 58.0749 67.1534 57.6942 67.1534ZM57.8477 66.25C58.2454 66.25 58.5806 66.1719 58.8533 66.0156C59.1289 65.8594 59.3363 65.6577 59.4755 65.4105C59.6175 65.1634 59.6886 64.9034 59.6886 64.6307V63.7102C59.646 63.7614 59.5522 63.8082 59.4073 63.8509C59.2653 63.8906 59.1005 63.9261 58.913 63.9574C58.7283 63.9858 58.5479 64.0114 58.3718 64.0341C58.1985 64.054 58.0579 64.071 57.9499 64.0852C57.6886 64.1193 57.4442 64.1747 57.217 64.2514C56.9925 64.3253 56.8107 64.4375 56.6715 64.5881C56.5352 64.7358 56.467 64.9375 56.467 65.1932C56.467 65.5426 56.5962 65.8068 56.8548 65.9858C57.1161 66.1619 57.4471 66.25 57.8477 66.25ZM62.5298 67V60.4545H63.5355V67H62.5298ZM63.0412 59.3636C62.8452 59.3636 62.6761 59.2969 62.5341 59.1634C62.3949 59.0298 62.3253 58.8693 62.3253 58.6818C62.3253 58.4943 62.3949 58.3338 62.5341 58.2003C62.6761 58.0668 62.8452 58 63.0412 58C63.2372 58 63.4048 58.0668 63.544 58.2003C63.6861 58.3338 63.7571 58.4943 63.7571 58.6818C63.7571 58.8693 63.6861 59.0298 63.544 59.1634C63.4048 59.2969 63.2372 59.3636 63.0412 59.3636ZM66.3832 63.0625V67H65.3775V60.4545H66.3491V61.4773H66.4343C66.5877 61.1449 66.8207 60.8778 67.1332 60.6761C67.4457 60.4716 67.8491 60.3693 68.3434 60.3693C68.7866 60.3693 69.1744 60.4602 69.5067 60.642C69.8391 60.821 70.0977 61.0938 70.2823 61.4602C70.467 61.8239 70.5593 62.2841 70.5593 62.8409V67H69.5536V62.9091C69.5536 62.3949 69.4201 61.9943 69.1531 61.7074C68.886 61.4176 68.5195 61.2727 68.0536 61.2727C67.7326 61.2727 67.4457 61.3423 67.1928 61.4815C66.9428 61.6207 66.7454 61.8239 66.6005 62.0909C66.4556 62.358 66.3832 62.6818 66.3832 63.0625Z" fill="white"/>
<path d="M11.4318 137V128.273H14.3807C15.0653 128.273 15.625 128.396 16.0597 128.643C16.4972 128.888 16.821 129.219 17.0312 129.636C17.2415 130.054 17.3466 130.52 17.3466 131.034C17.3466 131.548 17.2415 132.016 17.0312 132.436C16.8239 132.857 16.5028 133.192 16.0682 133.442C15.6335 133.689 15.0767 133.812 14.3977 133.812H12.2841V132.875H14.3636C14.8324 132.875 15.2088 132.794 15.4929 132.632C15.777 132.47 15.983 132.251 16.1108 131.976C16.2415 131.697 16.3068 131.384 16.3068 131.034C16.3068 130.685 16.2415 130.372 16.1108 130.097C15.983 129.821 15.7756 129.605 15.4886 129.449C15.2017 129.29 14.821 129.21 14.3466 129.21H12.4886V137H11.4318ZM20.8388 137.153C20.424 137.153 20.0476 137.075 19.7095 136.919C19.3714 136.76 19.103 136.531 18.9041 136.233C18.7053 135.932 18.6058 135.568 18.6058 135.142C18.6058 134.767 18.6797 134.463 18.8274 134.23C18.9751 133.994 19.1726 133.81 19.4197 133.676C19.6669 133.543 19.9396 133.443 20.2379 133.378C20.5391 133.31 20.8416 133.256 21.1456 133.216C21.5433 133.165 21.8658 133.126 22.1129 133.101C22.3629 133.072 22.5447 133.026 22.6584 132.96C22.7749 132.895 22.8331 132.781 22.8331 132.619V132.585C22.8331 132.165 22.718 131.838 22.4879 131.605C22.2607 131.372 21.9155 131.256 21.4524 131.256C20.9723 131.256 20.5959 131.361 20.3232 131.571C20.0504 131.781 19.8587 132.006 19.7479 132.244L18.7933 131.903C18.9638 131.506 19.1911 131.196 19.4751 130.974C19.7621 130.75 20.0746 130.594 20.4126 130.506C20.7536 130.415 21.0888 130.369 21.4183 130.369C21.6286 130.369 21.87 130.395 22.1428 130.446C22.4183 130.494 22.6839 130.595 22.9396 130.749C23.1982 130.902 23.4126 131.134 23.5831 131.443C23.7536 131.753 23.8388 132.168 23.8388 132.688V137H22.8331V136.114H22.782C22.7138 136.256 22.6001 136.408 22.4411 136.57C22.282 136.732 22.0703 136.869 21.8061 136.983C21.5419 137.097 21.2195 137.153 20.8388 137.153ZM20.9922 136.25C21.3899 136.25 21.7251 136.172 21.9979 136.016C22.2734 135.859 22.4808 135.658 22.62 135.411C22.7621 135.163 22.8331 134.903 22.8331 134.631V133.71C22.7905 133.761 22.6967 133.808 22.5518 133.851C22.4098 133.891 22.245 133.926 22.0575 133.957C21.8729 133.986 21.6925 134.011 21.5163 134.034C21.343 134.054 21.2024 134.071 21.0945 134.085C20.8331 134.119 20.5888 134.175 20.3615 134.251C20.1371 134.325 19.9553 134.437 19.8161 134.588C19.6797 134.736 19.6115 134.937 19.6115 135.193C19.6115 135.543 19.7408 135.807 19.9993 135.986C20.2607 136.162 20.5916 136.25 20.9922 136.25ZM25.6744 137V130.455H26.646V131.443H26.7141C26.8335 131.119 27.0494 130.857 27.3619 130.655C27.6744 130.453 28.0266 130.352 28.4187 130.352C28.4925 130.352 28.5849 130.354 28.6957 130.357C28.8065 130.359 28.8903 130.364 28.9471 130.369V131.392C28.913 131.384 28.8349 131.371 28.7127 131.354C28.5934 131.334 28.467 131.324 28.3335 131.324C28.0153 131.324 27.7312 131.391 27.4812 131.524C27.234 131.655 27.038 131.837 26.8931 132.07C26.7511 132.3 26.68 132.562 26.68 132.858V137H25.6744ZM32.0653 137.153C31.6506 137.153 31.2741 137.075 30.9361 136.919C30.598 136.76 30.3295 136.531 30.1307 136.233C29.9318 135.932 29.8324 135.568 29.8324 135.142C29.8324 134.767 29.9063 134.463 30.054 134.23C30.2017 133.994 30.3991 133.81 30.6463 133.676C30.8935 133.543 31.1662 133.443 31.4645 133.378C31.7656 133.31 32.0682 133.256 32.3722 133.216C32.7699 133.165 33.0923 133.126 33.3395 133.101C33.5895 133.072 33.7713 133.026 33.8849 132.96C34.0014 132.895 34.0597 132.781 34.0597 132.619V132.585C34.0597 132.165 33.9446 131.838 33.7145 131.605C33.4872 131.372 33.142 131.256 32.679 131.256C32.1989 131.256 31.8224 131.361 31.5497 131.571C31.277 131.781 31.0852 132.006 30.9744 132.244L30.0199 131.903C30.1903 131.506 30.4176 131.196 30.7017 130.974C30.9886 130.75 31.3011 130.594 31.6392 130.506C31.9801 130.415 32.3153 130.369 32.6449 130.369C32.8551 130.369 33.0966 130.395 33.3693 130.446C33.6449 130.494 33.9105 130.595 34.1662 130.749C34.4247 130.902 34.6392 131.134 34.8097 131.443C34.9801 131.753 35.0653 132.168 35.0653 132.688V137H34.0597V136.114H34.0085C33.9403 136.256 33.8267 136.408 33.6676 136.57C33.5085 136.732 33.2969 136.869 33.0327 136.983C32.7685 137.097 32.446 137.153 32.0653 137.153ZM32.2188 136.25C32.6165 136.25 32.9517 136.172 33.2244 136.016C33.5 135.859 33.7074 135.658 33.8466 135.411C33.9886 135.163 34.0597 134.903 34.0597 134.631V133.71C34.017 133.761 33.9233 133.808 33.7784 133.851C33.6364 133.891 33.4716 133.926 33.2841 133.957C33.0994 133.986 32.919 134.011 32.7429 134.034C32.5696 134.054 32.429 134.071 32.321 134.085C32.0597 134.119 31.8153 134.175 31.5881 134.251C31.3636 134.325 31.1818 134.437 31.0426 134.588C30.9063 134.736 30.8381 134.937 30.8381 135.193C30.8381 135.543 30.9673 135.807 31.2259 135.986C31.4872 136.162 31.8182 136.25 32.2188 136.25ZM37.9066 128.273V137H36.9009V128.273H37.9066ZM40.7543 128.273V137H39.7486V128.273H40.7543ZM45.3406 137.136C44.7099 137.136 44.1658 136.997 43.7085 136.719C43.2539 136.438 42.9031 136.045 42.6559 135.543C42.4116 135.037 42.2894 134.449 42.2894 133.778C42.2894 133.108 42.4116 132.517 42.6559 132.006C42.9031 131.491 43.2468 131.091 43.6871 130.804C44.1303 130.514 44.6474 130.369 45.2383 130.369C45.5792 130.369 45.9158 130.426 46.2482 130.54C46.5806 130.653 46.8832 130.838 47.1559 131.094C47.4286 131.347 47.646 131.682 47.8079 132.099C47.9698 132.517 48.0508 133.031 48.0508 133.642V134.068H43.0053V133.199H47.0281C47.0281 132.83 46.9542 132.5 46.8065 132.21C46.6616 131.92 46.4542 131.692 46.1843 131.524C45.9173 131.357 45.6019 131.273 45.2383 131.273C44.8377 131.273 44.4911 131.372 44.1985 131.571C43.9087 131.767 43.6857 132.023 43.5295 132.338C43.3732 132.653 43.2951 132.991 43.2951 133.352V133.932C43.2951 134.426 43.3803 134.845 43.5508 135.189C43.7241 135.53 43.9641 135.79 44.271 135.969C44.5778 136.145 44.9343 136.233 45.3406 136.233C45.6048 136.233 45.8434 136.196 46.0565 136.122C46.2724 136.045 46.4585 135.932 46.6147 135.781C46.771 135.628 46.8917 135.437 46.9769 135.21L47.9485 135.483C47.8462 135.812 47.6744 136.102 47.4329 136.352C47.1914 136.599 46.8931 136.793 46.538 136.932C46.1829 137.068 45.7837 137.136 45.3406 137.136ZM50.5863 128.273V137H49.5806V128.273H50.5863ZM58.4624 137.136C57.8487 137.136 57.3203 136.991 56.8771 136.702C56.4339 136.412 56.093 136.013 55.8544 135.504C55.6158 134.996 55.4964 134.415 55.4964 133.761C55.4964 133.097 55.6186 132.51 55.8629 132.001C56.1101 131.49 56.4538 131.091 56.8942 130.804C57.3374 130.514 57.8544 130.369 58.4453 130.369C58.9055 130.369 59.3203 130.455 59.6896 130.625C60.0589 130.795 60.3615 131.034 60.5973 131.341C60.8331 131.648 60.9794 132.006 61.0362 132.415H60.0305C59.9538 132.116 59.7834 131.852 59.5192 131.622C59.2578 131.389 58.9055 131.273 58.4624 131.273C58.0703 131.273 57.7266 131.375 57.4311 131.58C57.1385 131.781 56.9098 132.067 56.745 132.436C56.5831 132.803 56.5021 133.233 56.5021 133.727C56.5021 134.233 56.5817 134.673 56.7408 135.048C56.9027 135.423 57.13 135.714 57.4226 135.922C57.718 136.129 58.0646 136.233 58.4624 136.233C58.7237 136.233 58.9609 136.188 59.174 136.097C59.3871 136.006 59.5675 135.875 59.7152 135.705C59.8629 135.534 59.968 135.33 60.0305 135.091H61.0362C60.9794 135.477 60.8388 135.825 60.6143 136.135C60.3928 136.442 60.0987 136.686 59.7322 136.868C59.3686 137.047 58.9453 137.136 58.4624 137.136ZM63.5121 133.062V137H62.5064V128.273H63.5121V131.477H63.5973C63.7507 131.139 63.9808 130.871 64.2876 130.672C64.5973 130.47 65.0092 130.369 65.5234 130.369C65.9695 130.369 66.3601 130.459 66.6953 130.638C67.0305 130.814 67.2905 131.085 67.4751 131.452C67.6626 131.815 67.7564 132.278 67.7564 132.841V137H66.7507V132.909C66.7507 132.389 66.6158 131.987 66.3459 131.703C66.0788 131.416 65.7081 131.273 65.2337 131.273C64.9041 131.273 64.6087 131.342 64.3473 131.482C64.0888 131.621 63.8842 131.824 63.7337 132.091C63.5859 132.358 63.5121 132.682 63.5121 133.062ZM71.5224 137.153C71.1076 137.153 70.7312 137.075 70.3931 136.919C70.055 136.76 69.7866 136.531 69.5877 136.233C69.3888 135.932 69.2894 135.568 69.2894 135.142C69.2894 134.767 69.3633 134.463 69.511 134.23C69.6587 133.994 69.8562 133.81 70.1033 133.676C70.3505 133.543 70.6232 133.443 70.9215 133.378C71.2227 133.31 71.5252 133.256 71.8292 133.216C72.2269 133.165 72.5494 133.126 72.7965 133.101C73.0465 133.072 73.2283 133.026 73.342 132.96C73.4585 132.895 73.5167 132.781 73.5167 132.619V132.585C73.5167 132.165 73.4016 131.838 73.1715 131.605C72.9442 131.372 72.5991 131.256 72.136 131.256C71.6559 131.256 71.2795 131.361 71.0067 131.571C70.734 131.781 70.5423 132.006 70.4315 132.244L69.4769 131.903C69.6474 131.506 69.8746 131.196 70.1587 130.974C70.4457 130.75 70.7582 130.594 71.0962 130.506C71.4371 130.415 71.7724 130.369 72.1019 130.369C72.3121 130.369 72.5536 130.395 72.8263 130.446C73.1019 130.494 73.3675 130.595 73.6232 130.749C73.8817 130.902 74.0962 131.134 74.2667 131.443C74.4371 131.753 74.5224 132.168 74.5224 132.688V137H73.5167V136.114H73.4656C73.3974 136.256 73.2837 136.408 73.1246 136.57C72.9656 136.732 72.7539 136.869 72.4897 136.983C72.2255 137.097 71.9031 137.153 71.5224 137.153ZM71.6758 136.25C72.0735 136.25 72.4087 136.172 72.6815 136.016C72.957 135.859 73.1644 135.658 73.3036 135.411C73.4457 135.163 73.5167 134.903 73.5167 134.631V133.71C73.4741 133.761 73.3803 133.808 73.2354 133.851C73.0934 133.891 72.9286 133.926 72.7411 133.957C72.5565 133.986 72.3761 134.011 72.1999 134.034C72.0266 134.054 71.886 134.071 71.7781 134.085C71.5167 134.119 71.2724 134.175 71.0451 134.251C70.8207 134.325 70.6388 134.437 70.4996 134.588C70.3633 134.736 70.2951 134.937 70.2951 135.193C70.2951 135.543 70.4244 135.807 70.6829 135.986C70.9442 136.162 71.2752 136.25 71.6758 136.25ZM76.358 137V130.455H77.3636V137H76.358ZM76.8693 129.364C76.6733 129.364 76.5043 129.297 76.3622 129.163C76.223 129.03 76.1534 128.869 76.1534 128.682C76.1534 128.494 76.223 128.334 76.3622 128.2C76.5043 128.067 76.6733 128 76.8693 128C77.0653 128 77.233 128.067 77.3722 128.2C77.5142 128.334 77.5852 128.494 77.5852 128.682C77.5852 128.869 77.5142 129.03 77.3722 129.163C77.233 129.297 77.0653 129.364 76.8693 129.364ZM80.2113 133.062V137H79.2056V130.455H80.1772V131.477H80.2624C80.4158 131.145 80.6488 130.878 80.9613 130.676C81.2738 130.472 81.6772 130.369 82.1715 130.369C82.6147 130.369 83.0025 130.46 83.3349 130.642C83.6673 130.821 83.9258 131.094 84.1104 131.46C84.2951 131.824 84.3874 132.284 84.3874 132.841V137H83.3817V132.909C83.3817 132.395 83.2482 131.994 82.9812 131.707C82.7141 131.418 82.3477 131.273 81.8817 131.273C81.5607 131.273 81.2738 131.342 81.021 131.482C80.771 131.621 80.5735 131.824 80.4286 132.091C80.2837 132.358 80.2113 132.682 80.2113 133.062ZM92.6513 128.273V137H91.5945V129.381H91.5433L89.4126 130.795V129.722L91.5945 128.273H92.6513Z" fill="white"/>
<path d="M11.4318 207V198.273H14.3807C15.0653 198.273 15.625 198.396 16.0597 198.643C16.4972 198.888 16.821 199.219 17.0312 199.636C17.2415 200.054 17.3466 200.52 17.3466 201.034C17.3466 201.548 17.2415 202.016 17.0312 202.436C16.8239 202.857 16.5028 203.192 16.0682 203.442C15.6335 203.689 15.0767 203.812 14.3977 203.812H12.2841V202.875H14.3636C14.8324 202.875 15.2088 202.794 15.4929 202.632C15.777 202.47 15.983 202.251 16.1108 201.976C16.2415 201.697 16.3068 201.384 16.3068 201.034C16.3068 200.685 16.2415 200.372 16.1108 200.097C15.983 199.821 15.7756 199.605 15.4886 199.449C15.2017 199.29 14.821 199.21 14.3466 199.21H12.4886V207H11.4318ZM20.8388 207.153C20.424 207.153 20.0476 207.075 19.7095 206.919C19.3714 206.76 19.103 206.531 18.9041 206.233C18.7053 205.932 18.6058 205.568 18.6058 205.142C18.6058 204.767 18.6797 204.463 18.8274 204.23C18.9751 203.994 19.1726 203.81 19.4197 203.676C19.6669 203.543 19.9396 203.443 20.2379 203.378C20.5391 203.31 20.8416 203.256 21.1456 203.216C21.5433 203.165 21.8658 203.126 22.1129 203.101C22.3629 203.072 22.5447 203.026 22.6584 202.96C22.7749 202.895 22.8331 202.781 22.8331 202.619V202.585C22.8331 202.165 22.718 201.838 22.4879 201.605C22.2607 201.372 21.9155 201.256 21.4524 201.256C20.9723 201.256 20.5959 201.361 20.3232 201.571C20.0504 201.781 19.8587 202.006 19.7479 202.244L18.7933 201.903C18.9638 201.506 19.1911 201.196 19.4751 200.974C19.7621 200.75 20.0746 200.594 20.4126 200.506C20.7536 200.415 21.0888 200.369 21.4183 200.369C21.6286 200.369 21.87 200.395 22.1428 200.446C22.4183 200.494 22.6839 200.595 22.9396 200.749C23.1982 200.902 23.4126 201.134 23.5831 201.443C23.7536 201.753 23.8388 202.168 23.8388 202.688V207H22.8331V206.114H22.782C22.7138 206.256 22.6001 206.408 22.4411 206.57C22.282 206.732 22.0703 206.869 21.8061 206.983C21.5419 207.097 21.2195 207.153 20.8388 207.153ZM20.9922 206.25C21.3899 206.25 21.7251 206.172 21.9979 206.016C22.2734 205.859 22.4808 205.658 22.62 205.411C22.7621 205.163 22.8331 204.903 22.8331 204.631V203.71C22.7905 203.761 22.6967 203.808 22.5518 203.851C22.4098 203.891 22.245 203.926 22.0575 203.957C21.8729 203.986 21.6925 204.011 21.5163 204.034C21.343 204.054 21.2024 204.071 21.0945 204.085C20.8331 204.119 20.5888 204.175 20.3615 204.251C20.1371 204.325 19.9553 204.437 19.8161 204.588C19.6797 204.736 19.6115 204.937 19.6115 205.193C19.6115 205.543 19.7408 205.807 19.9993 205.986C20.2607 206.162 20.5916 206.25 20.9922 206.25ZM25.6744 207V200.455H26.646V201.443H26.7141C26.8335 201.119 27.0494 200.857 27.3619 200.655C27.6744 200.453 28.0266 200.352 28.4187 200.352C28.4925 200.352 28.5849 200.354 28.6957 200.357C28.8065 200.359 28.8903 200.364 28.9471 200.369V201.392C28.913 201.384 28.8349 201.371 28.7127 201.354C28.5934 201.334 28.467 201.324 28.3335 201.324C28.0153 201.324 27.7312 201.391 27.4812 201.524C27.234 201.655 27.038 201.837 26.8931 202.07C26.7511 202.3 26.68 202.562 26.68 202.858V207H25.6744ZM32.0653 207.153C31.6506 207.153 31.2741 207.075 30.9361 206.919C30.598 206.76 30.3295 206.531 30.1307 206.233C29.9318 205.932 29.8324 205.568 29.8324 205.142C29.8324 204.767 29.9063 204.463 30.054 204.23C30.2017 203.994 30.3991 203.81 30.6463 203.676C30.8935 203.543 31.1662 203.443 31.4645 203.378C31.7656 203.31 32.0682 203.256 32.3722 203.216C32.7699 203.165 33.0923 203.126 33.3395 203.101C33.5895 203.072 33.7713 203.026 33.8849 202.96C34.0014 202.895 34.0597 202.781 34.0597 202.619V202.585C34.0597 202.165 33.9446 201.838 33.7145 201.605C33.4872 201.372 33.142 201.256 32.679 201.256C32.1989 201.256 31.8224 201.361 31.5497 201.571C31.277 201.781 31.0852 202.006 30.9744 202.244L30.0199 201.903C30.1903 201.506 30.4176 201.196 30.7017 200.974C30.9886 200.75 31.3011 200.594 31.6392 200.506C31.9801 200.415 32.3153 200.369 32.6449 200.369C32.8551 200.369 33.0966 200.395 33.3693 200.446C33.6449 200.494 33.9105 200.595 34.1662 200.749C34.4247 200.902 34.6392 201.134 34.8097 201.443C34.9801 201.753 35.0653 202.168 35.0653 202.688V207H34.0597V206.114H34.0085C33.9403 206.256 33.8267 206.408 33.6676 206.57C33.5085 206.732 33.2969 206.869 33.0327 206.983C32.7685 207.097 32.446 207.153 32.0653 207.153ZM32.2188 206.25C32.6165 206.25 32.9517 206.172 33.2244 206.016C33.5 205.859 33.7074 205.658 33.8466 205.411C33.9886 205.163 34.0597 204.903 34.0597 204.631V203.71C34.017 203.761 33.9233 203.808 33.7784 203.851C33.6364 203.891 33.4716 203.926 33.2841 203.957C33.0994 203.986 32.919 204.011 32.7429 204.034C32.5696 204.054 32.429 204.071 32.321 204.085C32.0597 204.119 31.8153 204.175 31.5881 204.251C31.3636 204.325 31.1818 204.437 31.0426 204.588C30.9063 204.736 30.8381 204.937 30.8381 205.193C30.8381 205.543 30.9673 205.807 31.2259 205.986C31.4872 206.162 31.8182 206.25 32.2188 206.25ZM37.9066 198.273V207H36.9009V198.273H37.9066ZM40.7543 198.273V207H39.7486V198.273H40.7543ZM45.3406 207.136C44.7099 207.136 44.1658 206.997 43.7085 206.719C43.2539 206.438 42.9031 206.045 42.6559 205.543C42.4116 205.037 42.2894 204.449 42.2894 203.778C42.2894 203.108 42.4116 202.517 42.6559 202.006C42.9031 201.491 43.2468 201.091 43.6871 200.804C44.1303 200.514 44.6474 200.369 45.2383 200.369C45.5792 200.369 45.9158 200.426 46.2482 200.54C46.5806 200.653 46.8832 200.838 47.1559 201.094C47.4286 201.347 47.646 201.682 47.8079 202.099C47.9698 202.517 48.0508 203.031 48.0508 203.642V204.068H43.0053V203.199H47.0281C47.0281 202.83 46.9542 202.5 46.8065 202.21C46.6616 201.92 46.4542 201.692 46.1843 201.524C45.9173 201.357 45.6019 201.273 45.2383 201.273C44.8377 201.273 44.4911 201.372 44.1985 201.571C43.9087 201.767 43.6857 202.023 43.5295 202.338C43.3732 202.653 43.2951 202.991 43.2951 203.352V203.932C43.2951 204.426 43.3803 204.845 43.5508 205.189C43.7241 205.53 43.9641 205.79 44.271 205.969C44.5778 206.145 44.9343 206.233 45.3406 206.233C45.6048 206.233 45.8434 206.196 46.0565 206.122C46.2724 206.045 46.4585 205.932 46.6147 205.781C46.771 205.628 46.8917 205.437 46.9769 205.21L47.9485 205.483C47.8462 205.812 47.6744 206.102 47.4329 206.352C47.1914 206.599 46.8931 206.793 46.538 206.932C46.1829 207.068 45.7837 207.136 45.3406 207.136ZM50.5863 198.273V207H49.5806V198.273H50.5863ZM58.4624 207.136C57.8487 207.136 57.3203 206.991 56.8771 206.702C56.4339 206.412 56.093 206.013 55.8544 205.504C55.6158 204.996 55.4964 204.415 55.4964 203.761C55.4964 203.097 55.6186 202.51 55.8629 202.001C56.1101 201.49 56.4538 201.091 56.8942 200.804C57.3374 200.514 57.8544 200.369 58.4453 200.369C58.9055 200.369 59.3203 200.455 59.6896 200.625C60.0589 200.795 60.3615 201.034 60.5973 201.341C60.8331 201.648 60.9794 202.006 61.0362 202.415H60.0305C59.9538 202.116 59.7834 201.852 59.5192 201.622C59.2578 201.389 58.9055 201.273 58.4624 201.273C58.0703 201.273 57.7266 201.375 57.4311 201.58C57.1385 201.781 56.9098 202.067 56.745 202.436C56.5831 202.803 56.5021 203.233 56.5021 203.727C56.5021 204.233 56.5817 204.673 56.7408 205.048C56.9027 205.423 57.13 205.714 57.4226 205.922C57.718 206.129 58.0646 206.233 58.4624 206.233C58.7237 206.233 58.9609 206.188 59.174 206.097C59.3871 206.006 59.5675 205.875 59.7152 205.705C59.8629 205.534 59.968 205.33 60.0305 205.091H61.0362C60.9794 205.477 60.8388 205.825 60.6143 206.135C60.3928 206.442 60.0987 206.686 59.7322 206.868C59.3686 207.047 58.9453 207.136 58.4624 207.136ZM63.5121 203.062V207H62.5064V198.273H63.5121V201.477H63.5973C63.7507 201.139 63.9808 200.871 64.2876 200.672C64.5973 200.47 65.0092 200.369 65.5234 200.369C65.9695 200.369 66.3601 200.459 66.6953 200.638C67.0305 200.814 67.2905 201.085 67.4751 201.452C67.6626 201.815 67.7564 202.278 67.7564 202.841V207H66.7507V202.909C66.7507 202.389 66.6158 201.987 66.3459 201.703C66.0788 201.416 65.7081 201.273 65.2337 201.273C64.9041 201.273 64.6087 201.342 64.3473 201.482C64.0888 201.621 63.8842 201.824 63.7337 202.091C63.5859 202.358 63.5121 202.682 63.5121 203.062ZM71.5224 207.153C71.1076 207.153 70.7312 207.075 70.3931 206.919C70.055 206.76 69.7866 206.531 69.5877 206.233C69.3888 205.932 69.2894 205.568 69.2894 205.142C69.2894 204.767 69.3633 204.463 69.511 204.23C69.6587 203.994 69.8562 203.81 70.1033 203.676C70.3505 203.543 70.6232 203.443 70.9215 203.378C71.2227 203.31 71.5252 203.256 71.8292 203.216C72.2269 203.165 72.5494 203.126 72.7965 203.101C73.0465 203.072 73.2283 203.026 73.342 202.96C73.4585 202.895 73.5167 202.781 73.5167 202.619V202.585C73.5167 202.165 73.4016 201.838 73.1715 201.605C72.9442 201.372 72.5991 201.256 72.136 201.256C71.6559 201.256 71.2795 201.361 71.0067 201.571C70.734 201.781 70.5423 202.006 70.4315 202.244L69.4769 201.903C69.6474 201.506 69.8746 201.196 70.1587 200.974C70.4457 200.75 70.7582 200.594 71.0962 200.506C71.4371 200.415 71.7724 200.369 72.1019 200.369C72.3121 200.369 72.5536 200.395 72.8263 200.446C73.1019 200.494 73.3675 200.595 73.6232 200.749C73.8817 200.902 74.0962 201.134 74.2667 201.443C74.4371 201.753 74.5224 202.168 74.5224 202.688V207H73.5167V206.114H73.4656C73.3974 206.256 73.2837 206.408 73.1246 206.57C72.9656 206.732 72.7539 206.869 72.4897 206.983C72.2255 207.097 71.9031 207.153 71.5224 207.153ZM71.6758 206.25C72.0735 206.25 72.4087 206.172 72.6815 206.016C72.957 205.859 73.1644 205.658 73.3036 205.411C73.4457 205.163 73.5167 204.903 73.5167 204.631V203.71C73.4741 203.761 73.3803 203.808 73.2354 203.851C73.0934 203.891 72.9286 203.926 72.7411 203.957C72.5565 203.986 72.3761 204.011 72.1999 204.034C72.0266 204.054 71.886 204.071 71.7781 204.085C71.5167 204.119 71.2724 204.175 71.0451 204.251C70.8207 204.325 70.6388 204.437 70.4996 204.588C70.3633 204.736 70.2951 204.937 70.2951 205.193C70.2951 205.543 70.4244 205.807 70.6829 205.986C70.9442 206.162 71.2752 206.25 71.6758 206.25ZM76.358 207V200.455H77.3636V207H76.358ZM76.8693 199.364C76.6733 199.364 76.5043 199.297 76.3622 199.163C76.223 199.03 76.1534 198.869 76.1534 198.682C76.1534 198.494 76.223 198.334 76.3622 198.2C76.5043 198.067 76.6733 198 76.8693 198C77.0653 198 77.233 198.067 77.3722 198.2C77.5142 198.334 77.5852 198.494 77.5852 198.682C77.5852 198.869 77.5142 199.03 77.3722 199.163C77.233 199.297 77.0653 199.364 76.8693 199.364ZM80.2113 203.062V207H79.2056V200.455H80.1772V201.477H80.2624C80.4158 201.145 80.6488 200.878 80.9613 200.676C81.2738 200.472 81.6772 200.369 82.1715 200.369C82.6147 200.369 83.0025 200.46 83.3349 200.642C83.6673 200.821 83.9258 201.094 84.1104 201.46C84.2951 201.824 84.3874 202.284 84.3874 202.841V207H83.3817V202.909C83.3817 202.395 83.2482 201.994 82.9812 201.707C82.7141 201.418 82.3477 201.273 81.8817 201.273C81.5607 201.273 81.2738 201.342 81.021 201.482C80.771 201.621 80.5735 201.824 80.4286 202.091C80.2837 202.358 80.2113 202.682 80.2113 203.062ZM89.5831 207V206.233L92.4638 203.08C92.8018 202.71 93.0803 202.389 93.299 202.116C93.5178 201.841 93.6797 201.582 93.7848 201.341C93.8928 201.097 93.9467 200.841 93.9467 200.574C93.9467 200.267 93.8729 200.001 93.7251 199.777C93.5803 199.553 93.3814 199.379 93.1286 199.257C92.8757 199.135 92.5916 199.074 92.2763 199.074C91.9411 199.074 91.6484 199.143 91.3984 199.283C91.1513 199.419 90.9595 199.611 90.8232 199.858C90.6896 200.105 90.6229 200.395 90.6229 200.727H89.6172C89.6172 200.216 89.7351 199.767 89.9709 199.381C90.2067 198.994 90.5277 198.693 90.9339 198.477C91.343 198.261 91.8018 198.153 92.3104 198.153C92.8217 198.153 93.2749 198.261 93.6697 198.477C94.0646 198.693 94.3743 198.984 94.5987 199.351C94.8232 199.717 94.9354 200.125 94.9354 200.574C94.9354 200.895 94.8771 201.209 94.7607 201.516C94.647 201.82 94.4482 202.159 94.1641 202.534C93.8828 202.906 93.4922 203.361 92.9922 203.898L91.032 205.994V206.062H95.0888V207H89.5831Z" fill="white"/>
<path d="M137.354 63.6464C137.158 63.4512 136.842 63.4512 136.646 63.6464L133.464 66.8284C133.269 67.0237 133.269 67.3403 133.464 67.5355C133.66 67.7308 133.976 67.7308 134.172 67.5355L137 64.7071L139.828 67.5355C140.024 67.7308 140.34 67.7308 140.536 67.5355C140.731 67.3403 140.731 67.0237 140.536 66.8284L137.354 63.6464ZM137.5 188L137.5 64L136.5 64L136.5 188L137.5 188Z" fill="#FF0000"/>
<path d="M222.354 63.6465C222.158 63.4512 221.842 63.4512 221.646 63.6465L218.464 66.8284C218.269 67.0237 218.269 67.3403 218.464 67.5355C218.66 67.7308 218.976 67.7308 219.172 67.5355L222 64.7071L224.828 67.5355C225.024 67.7308 225.34 67.7308 225.536 67.5355C225.731 67.3403 225.731 67.0237 225.536 66.8284L222.354 63.6465ZM222.5 117L222.5 64L221.5 64L221.5 117L222.5 117Z" fill="#00FF00"/>
<path d="M126.958 12.2727V21H125.935L121.179 14.1477H121.094V21H120.037V12.2727H121.06L125.833 19.142H125.918V12.2727H126.958ZM131.595 21.1364C131.004 21.1364 130.486 20.9957 130.04 20.7145C129.597 20.4332 129.25 20.0398 129 19.5341C128.753 19.0284 128.629 18.4375 128.629 17.7614C128.629 17.0795 128.753 16.4844 129 15.9759C129.25 15.4673 129.597 15.0724 130.04 14.7912C130.486 14.5099 131.004 14.3693 131.595 14.3693C132.186 14.3693 132.703 14.5099 133.146 14.7912C133.592 15.0724 133.939 15.4673 134.186 15.9759C134.436 16.4844 134.561 17.0795 134.561 17.7614C134.561 18.4375 134.436 19.0284 134.186 19.5341C133.939 20.0398 133.592 20.4332 133.146 20.7145C132.703 20.9957 132.186 21.1364 131.595 21.1364ZM131.595 20.233C132.044 20.233 132.413 20.1179 132.703 19.8878C132.993 19.6577 133.207 19.3551 133.347 18.9801C133.486 18.6051 133.555 18.1989 133.555 17.7614C133.555 17.3239 133.486 16.9162 133.347 16.5384C133.207 16.1605 132.993 15.8551 132.703 15.6222C132.413 15.3892 132.044 15.2727 131.595 15.2727C131.146 15.2727 130.777 15.3892 130.487 15.6222C130.197 15.8551 129.983 16.1605 129.844 16.5384C129.705 16.9162 129.635 17.3239 129.635 17.7614C129.635 18.1989 129.705 18.6051 129.844 18.9801C129.983 19.3551 130.197 19.6577 130.487 19.8878C130.777 20.1179 131.146 20.233 131.595 20.233ZM138.943 14.4545V15.3068H135.551V14.4545H138.943ZM136.539 12.8864H137.545V19.125C137.545 19.4091 137.586 19.6222 137.669 19.7642C137.754 19.9034 137.862 19.9972 137.993 20.0455C138.126 20.0909 138.267 20.1136 138.414 20.1136C138.525 20.1136 138.616 20.108 138.687 20.0966C138.758 20.0824 138.815 20.071 138.858 20.0625L139.062 20.9659C138.994 20.9915 138.899 21.017 138.777 21.0426C138.654 21.071 138.5 21.0852 138.312 21.0852C138.028 21.0852 137.75 21.0241 137.477 20.902C137.207 20.7798 136.983 20.5938 136.804 20.3438C136.627 20.0938 136.539 19.7784 136.539 19.3977V12.8864ZM143.967 21V12.2727H149.2V13.2102H145.024V16.1591H148.808V17.0966H145.024V21H143.967ZM150.874 21V14.4545H151.879V21H150.874ZM151.385 13.3636C151.189 13.3636 151.02 13.2969 150.878 13.1634C150.739 13.0298 150.669 12.8693 150.669 12.6818C150.669 12.4943 150.739 12.3338 150.878 12.2003C151.02 12.0668 151.189 12 151.385 12C151.581 12 151.749 12.0668 151.888 12.2003C152.03 12.3338 152.101 12.4943 152.101 12.6818C152.101 12.8693 152.03 13.0298 151.888 13.1634C151.749 13.2969 151.581 13.3636 151.385 13.3636ZM154.727 17.0625V21H153.721V14.4545H154.693V15.4773H154.778C154.931 15.1449 155.164 14.8778 155.477 14.6761C155.789 14.4716 156.193 14.3693 156.687 14.3693C157.13 14.3693 157.518 14.4602 157.85 14.642C158.183 14.821 158.441 15.0938 158.626 15.4602C158.811 15.8239 158.903 16.2841 158.903 16.8409V21H157.897V16.9091C157.897 16.3949 157.764 15.9943 157.497 15.7074C157.23 15.4176 156.863 15.2727 156.397 15.2727C156.076 15.2727 155.789 15.3423 155.537 15.4815C155.287 15.6207 155.089 15.8239 154.944 16.0909C154.799 16.358 154.727 16.6818 154.727 17.0625ZM162.667 21.1534C162.252 21.1534 161.876 21.0753 161.538 20.919C161.2 20.7599 160.931 20.5312 160.732 20.233C160.533 19.9318 160.434 19.5682 160.434 19.142C160.434 18.767 160.508 18.4631 160.656 18.2301C160.803 17.9943 161.001 17.8097 161.248 17.6761C161.495 17.5426 161.768 17.4432 162.066 17.3778C162.367 17.3097 162.67 17.2557 162.974 17.2159C163.371 17.1648 163.694 17.1264 163.941 17.1009C164.191 17.0724 164.373 17.0256 164.487 16.9602C164.603 16.8949 164.661 16.7812 164.661 16.6193V16.5852C164.661 16.1648 164.546 15.8381 164.316 15.6051C164.089 15.3722 163.744 15.2557 163.281 15.2557C162.8 15.2557 162.424 15.3608 162.151 15.571C161.879 15.7812 161.687 16.0057 161.576 16.2443L160.621 15.9034C160.792 15.5057 161.019 15.196 161.303 14.9744C161.59 14.75 161.903 14.5937 162.241 14.5057C162.582 14.4148 162.917 14.3693 163.246 14.3693C163.457 14.3693 163.698 14.3949 163.971 14.446C164.246 14.4943 164.512 14.5952 164.768 14.7486C165.026 14.902 165.241 15.1335 165.411 15.4432C165.582 15.7528 165.667 16.1676 165.667 16.6875V21H164.661V20.1136H164.61C164.542 20.2557 164.428 20.4077 164.269 20.5696C164.11 20.7315 163.898 20.8693 163.634 20.983C163.37 21.0966 163.048 21.1534 162.667 21.1534ZM162.82 20.25C163.218 20.25 163.553 20.1719 163.826 20.0156C164.102 19.8594 164.309 19.6577 164.448 19.4105C164.59 19.1634 164.661 18.9034 164.661 18.6307V17.7102C164.619 17.7614 164.525 17.8082 164.38 17.8509C164.238 17.8906 164.073 17.9261 163.886 17.9574C163.701 17.9858 163.521 18.0114 163.344 18.0341C163.171 18.054 163.031 18.071 162.923 18.0852C162.661 18.1193 162.417 18.1747 162.19 18.2514C161.965 18.3253 161.783 18.4375 161.644 18.5881C161.508 18.7358 161.44 18.9375 161.44 19.1932C161.44 19.5426 161.569 19.8068 161.827 19.9858C162.089 20.1619 162.42 20.25 162.82 20.25ZM168.508 12.2727V21H167.502V12.2727H168.508ZM170.35 21V14.4545H171.356V21H170.35ZM170.862 13.3636C170.665 13.3636 170.496 13.2969 170.354 13.1634C170.215 13.0298 170.146 12.8693 170.146 12.6818C170.146 12.4943 170.215 12.3338 170.354 12.2003C170.496 12.0668 170.665 12 170.862 12C171.058 12 171.225 12.0668 171.364 12.2003C171.506 12.3338 171.577 12.4943 171.577 12.6818C171.577 12.8693 171.506 13.0298 171.364 13.1634C171.225 13.2969 171.058 13.3636 170.862 13.3636ZM173.01 21V20.233L176.726 15.4602V15.392H173.13V14.4545H178.022V15.2557L174.408 19.9943V20.0625H178.141V21H173.01ZM182.247 21.1364C181.616 21.1364 181.072 20.9972 180.615 20.7188C180.16 20.4375 179.809 20.0455 179.562 19.5426C179.318 19.0369 179.196 18.4489 179.196 17.7784C179.196 17.108 179.318 16.517 179.562 16.0057C179.809 15.4915 180.153 15.0909 180.593 14.804C181.037 14.5142 181.554 14.3693 182.145 14.3693C182.485 14.3693 182.822 14.4261 183.154 14.5398C183.487 14.6534 183.789 14.8381 184.062 15.0938C184.335 15.3466 184.552 15.6818 184.714 16.0994C184.876 16.517 184.957 17.0312 184.957 17.642V18.0682H179.912V17.1989H183.934C183.934 16.8295 183.86 16.5 183.713 16.2102C183.568 15.9205 183.36 15.6918 183.091 15.5241C182.824 15.3565 182.508 15.2727 182.145 15.2727C181.744 15.2727 181.397 15.3722 181.105 15.571C180.815 15.767 180.592 16.0227 180.436 16.3381C180.279 16.6534 180.201 16.9915 180.201 17.3523V17.9318C180.201 18.4261 180.287 18.8452 180.457 19.1889C180.63 19.5298 180.87 19.7898 181.177 19.9688C181.484 20.1449 181.841 20.233 182.247 20.233C182.511 20.233 182.75 20.196 182.963 20.1222C183.179 20.0455 183.365 19.9318 183.521 19.7812C183.677 19.6278 183.798 19.4375 183.883 19.2102L184.855 19.483C184.752 19.8125 184.581 20.1023 184.339 20.3523C184.098 20.5994 183.799 20.7926 183.444 20.9318C183.089 21.0682 182.69 21.1364 182.247 21.1364ZM188.958 21.1364C188.413 21.1364 187.931 20.9986 187.514 20.723C187.096 20.4446 186.77 20.0526 186.534 19.5469C186.298 19.0384 186.18 18.4375 186.18 17.7443C186.18 17.0568 186.298 16.4602 186.534 15.9545C186.77 15.4489 187.098 15.0582 187.518 14.7827C187.939 14.5071 188.424 14.3693 188.975 14.3693C189.402 14.3693 189.738 14.4403 189.985 14.5824C190.235 14.7216 190.426 14.8807 190.556 15.0597C190.69 15.2358 190.794 15.3807 190.868 15.4943H190.953V12.2727H191.958V21H190.987V19.9943H190.868C190.794 20.1136 190.689 20.2642 190.552 20.446C190.416 20.625 190.221 20.7855 189.968 20.9276C189.716 21.0668 189.379 21.1364 188.958 21.1364ZM189.095 20.233C189.498 20.233 189.839 20.1278 190.118 19.9176C190.396 19.7045 190.608 19.4105 190.752 19.0355C190.897 18.6577 190.97 18.2216 190.97 17.7273C190.97 17.2386 190.899 16.8111 190.757 16.4446C190.615 16.0753 190.404 15.7884 190.126 15.5838C189.848 15.3764 189.504 15.2727 189.095 15.2727C188.669 15.2727 188.314 15.3821 188.029 15.6009C187.748 15.8168 187.537 16.1108 187.395 16.483C187.255 16.8523 187.186 17.267 187.186 17.7273C187.186 18.1932 187.257 18.6165 187.399 18.9972C187.544 19.375 187.757 19.6761 188.038 19.9006C188.322 20.1222 188.674 20.233 189.095 20.233Z" fill="white"/>
<path d="M118.98 23.3864H193.015V24.2045H118.98V23.3864Z" fill="white"/>
</svg>
