<svg width="226" height="116" viewBox="0 0 226 116" fill="none" xmlns="http://www.w3.org/2000/svg">
<path d="M168 14H58V44H168V14Z" fill="#F0F0F0" stroke="grey" stroke-width="1.5"/>
<path d="M64.0865 34V27.4545H65.0581V28.4773H65.1433C65.2797 28.1278 65.4998 27.8565 65.8038 27.6634C66.1078 27.4673 66.4728 27.3693 66.899 27.3693C67.3308 27.3693 67.6902 27.4673 67.9771 27.6634C68.2669 27.8565 68.4927 28.1278 68.6547 28.4773H68.7228C68.8904 28.1392 69.1419 27.8707 69.4771 27.6719C69.8123 27.4702 70.2143 27.3693 70.6831 27.3693C71.2683 27.3693 71.747 27.5526 72.1191 27.919C72.4913 28.2827 72.6774 28.8494 72.6774 29.6193V34H71.6717V29.6193C71.6717 29.1364 71.5396 28.7912 71.2754 28.5838C71.0112 28.3764 70.7001 28.2727 70.3422 28.2727C69.8819 28.2727 69.5254 28.4119 69.2726 28.6903C69.0197 28.9659 68.8933 29.3153 68.8933 29.7386V34H67.8706V29.517C67.8706 29.1449 67.7498 28.8452 67.5083 28.6179C67.2669 28.3878 66.9558 28.2727 66.5751 28.2727C66.3137 28.2727 66.0694 28.3423 65.8422 28.4815C65.6177 28.6207 65.4359 28.8139 65.2967 29.0611C65.1603 29.3054 65.0922 29.5881 65.0922 29.9091V34H64.0865ZM76.4423 34.1534C76.0275 34.1534 75.6511 34.0753 75.313 33.919C74.975 33.7599 74.7065 33.5312 74.5076 33.233C74.3088 32.9318 74.2093 32.5682 74.2093 32.142C74.2093 31.767 74.2832 31.4631 74.4309 31.2301C74.5787 30.9943 74.7761 30.8097 75.0233 30.6761C75.2704 30.5426 75.5431 30.4432 75.8414 30.3778C76.1426 30.3097 76.4451 30.2557 76.7491 30.2159C77.1468 30.1648 77.4693 30.1264 77.7164 30.1009C77.9664 30.0724 78.1483 30.0256 78.2619 29.9602C78.3784 29.8949 78.4366 29.7812 78.4366 29.6193V29.5852C78.4366 29.1648 78.3216 28.8381 78.0914 28.6051C77.8642 28.3722 77.519 28.2557 77.0559 28.2557C76.5758 28.2557 76.1994 28.3608 75.9267 28.571C75.6539 28.7812 75.4622 29.0057 75.3514 29.2443L74.3968 28.9034C74.5673 28.5057 74.7946 28.196 75.0787 27.9744C75.3656 27.75 75.6781 27.5937 76.0162 27.5057C76.3571 27.4148 76.6923 27.3693 77.0218 27.3693C77.2321 27.3693 77.4735 27.3949 77.7463 27.446C78.0218 27.4943 78.2875 27.5952 78.5431 27.7486C78.8017 27.902 79.0162 28.1335 79.1866 28.4432C79.3571 28.7528 79.4423 29.1676 79.4423 29.6875V34H78.4366V33.1136H78.3855C78.3173 33.2557 78.2037 33.4077 78.0446 33.5696C77.8855 33.7315 77.6738 33.8693 77.4096 33.983C77.1454 34.0966 76.823 34.1534 76.4423 34.1534ZM76.5957 33.25C76.9934 33.25 77.3287 33.1719 77.6014 33.0156C77.877 32.8594 78.0843 32.6577 78.2235 32.4105C78.3656 32.1634 78.4366 31.9034 78.4366 31.6307V30.7102C78.394 30.7614 78.3002 30.8082 78.1554 30.8509C78.0133 30.8906 77.8485 30.9261 77.661 30.9574C77.4764 30.9858 77.296 31.0114 77.1199 31.0341C76.9466 31.054 76.8059 31.071 76.698 31.0852C76.4366 31.1193 76.1923 31.1747 75.965 31.2514C75.7406 31.3253 75.5588 31.4375 75.4196 31.5881C75.2832 31.7358 75.215 31.9375 75.215 32.1932C75.215 32.5426 75.3443 32.8068 75.6028 32.9858C75.8642 33.1619 76.1951 33.25 76.5957 33.25ZM81.2779 34V27.4545H82.2836V34H81.2779ZM81.7892 26.3636C81.5932 26.3636 81.4242 26.2969 81.2821 26.1634C81.1429 26.0298 81.0733 25.8693 81.0733 25.6818C81.0733 25.4943 81.1429 25.3338 81.2821 25.2003C81.4242 25.0668 81.5932 25 81.7892 25C81.9853 25 82.1529 25.0668 82.2921 25.2003C82.4341 25.3338 82.5051 25.4943 82.5051 25.6818C82.5051 25.8693 82.4341 26.0298 82.2921 26.1634C82.1529 26.2969 81.9853 26.3636 81.7892 26.3636ZM85.1312 30.0625V34H84.1255V27.4545H85.0971V28.4773H85.1824C85.3358 28.1449 85.5687 27.8778 85.8812 27.6761C86.1937 27.4716 86.5971 27.3693 87.0914 27.3693C87.5346 27.3693 87.9224 27.4602 88.2548 27.642C88.5872 27.821 88.8457 28.0938 89.0304 28.4602C89.215 28.8239 89.3074 29.2841 89.3074 29.8409V34H88.3017V29.9091C88.3017 29.3949 88.1681 28.9943 87.9011 28.7074C87.6341 28.4176 87.2676 28.2727 86.8017 28.2727C86.4806 28.2727 86.1937 28.3423 85.9409 28.4815C85.6909 28.6207 85.4934 28.8239 85.3485 29.0909C85.2037 29.358 85.1312 29.6818 85.1312 30.0625ZM94.6564 34V25.2727H95.6621V28.4943H95.7473C95.8212 28.3807 95.9235 28.2358 96.0542 28.0597C96.1877 27.8807 96.378 27.7216 96.6252 27.5824C96.8752 27.4403 97.2132 27.3693 97.6394 27.3693C98.1905 27.3693 98.6763 27.5071 99.0968 27.7827C99.5172 28.0582 99.8453 28.4489 100.081 28.9545C100.317 29.4602 100.435 30.0568 100.435 30.7443C100.435 31.4375 100.317 32.0384 100.081 32.5469C99.8453 33.0526 99.5186 33.4446 99.101 33.723C98.6834 33.9986 98.2019 34.1364 97.6564 34.1364C97.236 34.1364 96.8993 34.0668 96.6465 33.9276C96.3936 33.7855 96.199 33.625 96.0627 33.446C95.9263 33.2642 95.8212 33.1136 95.7473 32.9943H95.628V34H94.6564ZM95.6451 30.7273C95.6451 31.2216 95.7175 31.6577 95.8624 32.0355C96.0073 32.4105 96.2189 32.7045 96.4973 32.9176C96.7757 33.1278 97.1167 33.233 97.5201 33.233C97.9405 33.233 98.2914 33.1222 98.5726 32.9006C98.8567 32.6761 99.0698 32.375 99.2118 31.9972C99.3567 31.6165 99.4292 31.1932 99.4292 30.7273C99.4292 30.267 99.3581 29.8523 99.2161 29.483C99.0769 29.1108 98.8652 28.8168 98.5811 28.6009C98.2999 28.3821 97.9462 28.2727 97.5201 28.2727C97.111 28.2727 96.7672 28.3764 96.4888 28.5838C96.2104 28.7884 96.0002 29.0753 95.8581 29.4446C95.7161 29.8111 95.6451 30.2386 95.6451 30.7273ZM102.979 25.2727V34H101.973V25.2727H102.979ZM107.48 34.1364C106.889 34.1364 106.371 33.9957 105.925 33.7145C105.481 33.4332 105.135 33.0398 104.885 32.5341C104.638 32.0284 104.514 31.4375 104.514 30.7614C104.514 30.0795 104.638 29.4844 104.885 28.9759C105.135 28.4673 105.481 28.0724 105.925 27.7912C106.371 27.5099 106.889 27.3693 107.48 27.3693C108.071 27.3693 108.588 27.5099 109.031 27.7912C109.477 28.0724 109.824 28.4673 110.071 28.9759C110.321 29.4844 110.446 30.0795 110.446 30.7614C110.446 31.4375 110.321 32.0284 110.071 32.5341C109.824 33.0398 109.477 33.4332 109.031 33.7145C108.588 33.9957 108.071 34.1364 107.48 34.1364ZM107.48 33.233C107.929 33.233 108.298 33.1179 108.588 32.8878C108.878 32.6577 109.092 32.3551 109.231 31.9801C109.371 31.6051 109.44 31.1989 109.44 30.7614C109.44 30.3239 109.371 29.9162 109.231 29.5384C109.092 29.1605 108.878 28.8551 108.588 28.6222C108.298 28.3892 107.929 28.2727 107.48 28.2727C107.031 28.2727 106.662 28.3892 106.372 28.6222C106.082 28.8551 105.868 29.1605 105.729 29.5384C105.589 29.9162 105.52 30.3239 105.52 30.7614C105.52 31.1989 105.589 31.6051 105.729 31.9801C105.868 32.3551 106.082 32.6577 106.372 32.8878C106.662 33.1179 107.031 33.233 107.48 33.233ZM114.64 34.1364C114.026 34.1364 113.498 33.9915 113.055 33.7017C112.612 33.4119 112.271 33.0128 112.032 32.5043C111.794 31.9957 111.674 31.4148 111.674 30.7614C111.674 30.0966 111.796 29.5099 112.041 29.0014C112.288 28.4901 112.632 28.0909 113.072 27.804C113.515 27.5142 114.032 27.3693 114.623 27.3693C115.083 27.3693 115.498 27.4545 115.867 27.625C116.237 27.7955 116.539 28.0341 116.775 28.3409C117.011 28.6477 117.157 29.0057 117.214 29.4148H116.208C116.132 29.1165 115.961 28.8523 115.697 28.6222C115.436 28.3892 115.083 28.2727 114.64 28.2727C114.248 28.2727 113.904 28.375 113.609 28.5795C113.316 28.7812 113.088 29.0668 112.923 29.4361C112.761 29.8026 112.68 30.233 112.68 30.7273C112.68 31.233 112.759 31.6733 112.919 32.0483C113.08 32.4233 113.308 32.7145 113.6 32.9219C113.896 33.1293 114.242 33.233 114.64 33.233C114.901 33.233 115.139 33.1875 115.352 33.0966C115.565 33.0057 115.745 32.875 115.893 32.7045C116.041 32.5341 116.146 32.3295 116.208 32.0909H117.214C117.157 32.4773 117.017 32.8253 116.792 33.1349C116.57 33.4418 116.276 33.6861 115.91 33.8679C115.546 34.0469 115.123 34.1364 114.64 34.1364ZM119.622 31.6136L119.605 30.3693H119.809L122.673 27.4545H123.917L120.866 30.5398H120.781L119.622 31.6136ZM118.684 34V25.2727H119.69V34H118.684ZM122.843 34L120.286 30.7614L121.002 30.0625L124.122 34H122.843ZM131.501 27.4545V28.3068H127.973V27.4545H131.501ZM129.03 34V26.5511C129.03 26.1761 129.118 25.8636 129.294 25.6136C129.47 25.3636 129.699 25.1761 129.98 25.0511C130.261 24.9261 130.558 24.8636 130.871 24.8636C131.118 24.8636 131.319 24.8835 131.476 24.9233C131.632 24.9631 131.748 25 131.825 25.0341L131.535 25.9034C131.484 25.8864 131.413 25.8651 131.322 25.8395C131.234 25.8139 131.118 25.8011 130.973 25.8011C130.64 25.8011 130.4 25.8849 130.253 26.0526C130.108 26.2202 130.035 26.4659 130.035 26.7898V34H129.03ZM137.036 31.3239V27.4545H138.041V34H137.036V32.892H136.968C136.814 33.2244 136.575 33.5071 136.252 33.7401C135.928 33.9702 135.519 34.0852 135.024 34.0852C134.615 34.0852 134.252 33.9957 133.933 33.8168C133.615 33.6349 133.365 33.3622 133.183 32.9986C133.002 32.6321 132.911 32.1705 132.911 31.6136V27.4545H133.916V31.5455C133.916 32.0227 134.05 32.4034 134.317 32.6875C134.587 32.9716 134.931 33.1136 135.348 33.1136C135.598 33.1136 135.852 33.0497 136.111 32.9219C136.372 32.794 136.591 32.598 136.767 32.3338C136.946 32.0696 137.036 31.733 137.036 31.3239ZM140.889 30.0625V34H139.883V27.4545H140.855V28.4773H140.94C141.094 28.1449 141.327 27.8778 141.639 27.6761C141.952 27.4716 142.355 27.3693 142.849 27.3693C143.292 27.3693 143.68 27.4602 144.013 27.642C144.345 27.821 144.604 28.0938 144.788 28.4602C144.973 28.8239 145.065 29.2841 145.065 29.8409V34H144.059V29.9091C144.059 29.3949 143.926 28.9943 143.659 28.7074C143.392 28.4176 143.025 28.2727 142.559 28.2727C142.238 28.2727 141.952 28.3423 141.699 28.4815C141.449 28.6207 141.251 28.8239 141.106 29.0909C140.961 29.358 140.889 29.6818 140.889 30.0625ZM147.909 30.0625V34H146.903V27.4545H147.874V28.4773H147.96C148.113 28.1449 148.346 27.8778 148.659 27.6761C148.971 27.4716 149.374 27.3693 149.869 27.3693C150.312 27.3693 150.7 27.4602 151.032 27.642C151.365 27.821 151.623 28.0938 151.808 28.4602C151.992 28.8239 152.085 29.2841 152.085 29.8409V34H151.079V29.9091C151.079 29.3949 150.945 28.9943 150.678 28.7074C150.411 28.4176 150.045 28.2727 149.579 28.2727C149.258 28.2727 148.971 28.3423 148.718 28.4815C148.468 28.6207 148.271 28.8239 148.126 29.0909C147.981 29.358 147.909 29.6818 147.909 30.0625ZM156.667 34.1364C156.036 34.1364 155.492 33.9972 155.035 33.7188C154.58 33.4375 154.229 33.0455 153.982 32.5426C153.738 32.0369 153.616 31.4489 153.616 30.7784C153.616 30.108 153.738 29.517 153.982 29.0057C154.229 28.4915 154.573 28.0909 155.013 27.804C155.456 27.5142 155.974 27.3693 156.564 27.3693C156.905 27.3693 157.242 27.4261 157.574 27.5398C157.907 27.6534 158.209 27.8381 158.482 28.0938C158.755 28.3466 158.972 28.6818 159.134 29.0994C159.296 29.517 159.377 30.0312 159.377 30.642V31.0682H154.331V30.1989H158.354C158.354 29.8295 158.28 29.5 158.133 29.2102C157.988 28.9205 157.78 28.6918 157.51 28.5241C157.243 28.3565 156.928 28.2727 156.564 28.2727C156.164 28.2727 155.817 28.3722 155.525 28.571C155.235 28.767 155.012 29.0227 154.856 29.3381C154.699 29.6534 154.621 29.9915 154.621 30.3523V30.9318C154.621 31.4261 154.706 31.8452 154.877 32.1889C155.05 32.5298 155.29 32.7898 155.597 32.9688C155.904 33.1449 156.26 33.233 156.667 33.233C156.931 33.233 157.17 33.196 157.383 33.1222C157.599 33.0455 157.785 32.9318 157.941 32.7812C158.097 32.6278 158.218 32.4375 158.303 32.2102L159.275 32.483C159.172 32.8125 159.001 33.1023 158.759 33.3523C158.518 33.5994 158.219 33.7926 157.864 33.9318C157.509 34.0682 157.11 34.1364 156.667 34.1364ZM161.912 25.2727V34H160.907V25.2727H161.912Z" fill="black"/>
<path d="M69 79H9V109H69V79Z" fill="#F0F0F0" stroke="grey" stroke-width="1.5"/>
<path d="M65.0913 100.636V105H64.5629V101.19H64.5373L63.4719 101.898V101.361L64.5629 100.636H65.0913Z" fill="black"/>
<path d="M23.2553 94.0455V86.5455H24.065V87.4119H24.1644C24.226 87.3172 24.3112 87.1965 24.4201 87.0497C24.5314 86.9006 24.69 86.768 24.896 86.652C25.1043 86.5336 25.386 86.4744 25.7411 86.4744C26.2004 86.4744 26.6052 86.5893 26.9556 86.8189C27.306 87.0485 27.5794 87.3741 27.7759 87.7955C27.9724 88.2169 28.0707 88.714 28.0707 89.2869C28.0707 89.8646 27.9724 90.3653 27.7759 90.7891C27.5794 91.2105 27.3072 91.5372 26.9592 91.7692C26.6112 91.9988 26.2099 92.1136 25.7553 92.1136C25.4049 92.1136 25.1244 92.0556 24.9137 91.9396C24.703 91.8213 24.5408 91.6875 24.4272 91.5384C24.3136 91.3868 24.226 91.2614 24.1644 91.1619H24.0934V94.0455H23.2553ZM24.0792 89.2727C24.0792 89.6847 24.1396 90.0481 24.2603 90.3629C24.381 90.6754 24.5574 90.9205 24.7894 91.098C25.0214 91.2732 25.3055 91.3608 25.6417 91.3608C25.9921 91.3608 26.2844 91.2685 26.5188 91.0838C26.7556 90.8968 26.9331 90.6458 27.0515 90.331C27.1722 90.0137 27.2326 89.661 27.2326 89.2727C27.2326 88.8892 27.1734 88.5436 27.055 88.2358C26.939 87.9257 26.7627 87.6806 26.5259 87.5007C26.2915 87.3184 25.9968 87.2273 25.6417 87.2273C25.3008 87.2273 25.0143 87.3137 24.7823 87.4865C24.5503 87.657 24.3751 87.8961 24.2567 88.2038C24.1384 88.5092 24.0792 88.8655 24.0792 89.2727ZM30.9542 92.1278C30.6085 92.1278 30.2949 92.0627 30.0131 91.9325C29.7314 91.8 29.5077 91.6094 29.342 91.3608C29.1763 91.1098 29.0934 90.8068 29.0934 90.4517C29.0934 90.1392 29.1549 89.8859 29.2781 89.6918C29.4012 89.4953 29.5657 89.3414 29.7717 89.2301C29.9776 89.1188 30.2049 89.036 30.4535 88.9815C30.7044 88.9247 30.9566 88.8797 31.2099 88.8466C31.5413 88.804 31.81 88.772 32.016 88.7507C32.2243 88.727 32.3758 88.688 32.4705 88.6335C32.5676 88.5791 32.6161 88.4844 32.6161 88.3494V88.321C32.6161 87.9706 32.5202 87.6984 32.3285 87.5043C32.1391 87.3101 31.8514 87.2131 31.4656 87.2131C31.0655 87.2131 30.7518 87.3007 30.5245 87.4759C30.2972 87.651 30.1374 87.8381 30.0451 88.0369L29.2496 87.7528C29.3917 87.4214 29.5811 87.1634 29.8178 86.9787C30.0569 86.7917 30.3174 86.6615 30.5991 86.5881C30.8832 86.5123 31.1625 86.4744 31.4371 86.4744C31.6123 86.4744 31.8136 86.4957 32.0408 86.5384C32.2705 86.5786 32.4918 86.6626 32.7049 86.7905C32.9203 86.9183 33.0991 87.1113 33.2411 87.3693C33.3832 87.6274 33.4542 87.973 33.4542 88.4062V92H32.6161V91.2614H32.5735C32.5167 91.3797 32.422 91.5064 32.2894 91.6413C32.1568 91.7763 31.9805 91.8911 31.7603 91.9858C31.5401 92.0805 31.2714 92.1278 30.9542 92.1278ZM31.082 91.375C31.4135 91.375 31.6928 91.3099 31.9201 91.1797C32.1497 91.0495 32.3226 90.8814 32.4386 90.6754C32.5569 90.4695 32.6161 90.2528 32.6161 90.0256V89.2585C32.5806 89.3011 32.5025 89.3402 32.3817 89.3757C32.2634 89.4089 32.1261 89.4384 31.9698 89.4645C31.8159 89.4882 31.6656 89.5095 31.5188 89.5284C31.3744 89.545 31.2572 89.5592 31.1673 89.571C30.9495 89.5994 30.7459 89.6456 30.5565 89.7095C30.3694 89.7711 30.2179 89.8646 30.1019 89.9901C29.9883 90.1132 29.9315 90.2812 29.9315 90.4943C29.9315 90.7855 30.0392 91.0057 30.2546 91.1548C30.4724 91.3016 30.7482 91.375 31.082 91.375ZM34.9838 92V86.5455H35.7935V87.3693H35.8503C35.9498 87.0994 36.1297 86.8804 36.3901 86.7124C36.6505 86.5443 36.9441 86.4602 37.2708 86.4602C37.3323 86.4602 37.4093 86.4614 37.5016 86.4638C37.5939 86.4661 37.6638 86.4697 37.7111 86.4744V87.3267C37.6827 87.3196 37.6176 87.3089 37.5158 87.2947C37.4164 87.2782 37.311 87.2699 37.1998 87.2699C36.9346 87.2699 36.6979 87.3255 36.4895 87.4368C36.2836 87.5457 36.1202 87.6972 35.9995 87.8913C35.8811 88.0831 35.8219 88.3021 35.8219 88.5483V92H34.9838ZM40.3097 92.1278C39.964 92.1278 39.6503 92.0627 39.3686 91.9325C39.0869 91.8 38.8632 91.6094 38.6974 91.3608C38.5317 91.1098 38.4489 90.8068 38.4489 90.4517C38.4489 90.1392 38.5104 89.8859 38.6335 89.6918C38.7566 89.4953 38.9212 89.3414 39.1271 89.2301C39.3331 89.1188 39.5604 89.036 39.8089 88.9815C40.0599 88.9247 40.312 88.8797 40.5653 88.8466C40.8968 88.804 41.1655 88.772 41.3714 88.7507C41.5798 88.727 41.7313 88.688 41.826 88.6335C41.9231 88.5791 41.9716 88.4844 41.9716 88.3494V88.321C41.9716 87.9706 41.8757 87.6984 41.6839 87.5043C41.4946 87.3101 41.2069 87.2131 40.821 87.2131C40.4209 87.2131 40.1072 87.3007 39.88 87.4759C39.6527 87.651 39.4929 87.8381 39.4006 88.0369L38.6051 87.7528C38.7472 87.4214 38.9366 87.1634 39.1733 86.9787C39.4124 86.7917 39.6728 86.6615 39.9545 86.5881C40.2386 86.5123 40.518 86.4744 40.7926 86.4744C40.9678 86.4744 41.169 86.4957 41.3963 86.5384C41.6259 86.5786 41.8473 86.6626 42.0604 86.7905C42.2758 86.9183 42.4545 87.1113 42.5966 87.3693C42.7386 87.6274 42.8097 87.973 42.8097 88.4062V92H41.9716V91.2614H41.929C41.8722 91.3797 41.7775 91.5064 41.6449 91.6413C41.5123 91.7763 41.3359 91.8911 41.1158 91.9858C40.8956 92.0805 40.6269 92.1278 40.3097 92.1278ZM40.4375 91.375C40.7689 91.375 41.0483 91.3099 41.2756 91.1797C41.5052 91.0495 41.678 90.8814 41.794 90.6754C41.9124 90.4695 41.9716 90.2528 41.9716 90.0256V89.2585C41.9361 89.3011 41.858 89.3402 41.7372 89.3757C41.6188 89.4089 41.4815 89.4384 41.3253 89.4645C41.1714 89.4882 41.0211 89.5095 40.8743 89.5284C40.7299 89.545 40.6127 89.5592 40.5227 89.571C40.3049 89.5994 40.1013 89.6456 39.9119 89.7095C39.7249 89.7711 39.5734 89.8646 39.4574 89.9901C39.3438 90.1132 39.2869 90.2812 39.2869 90.4943C39.2869 90.7855 39.3946 91.0057 39.6101 91.1548C39.8279 91.3016 40.1037 91.375 40.4375 91.375ZM45.1774 84.7273V92H44.3393V84.7273H45.1774ZM47.5504 84.7273V92H46.7124V84.7273H47.5504ZM51.3723 92.1136C50.8468 92.1136 50.3934 91.9976 50.0123 91.7656C49.6335 91.5312 49.3411 91.2045 49.1351 90.7855C48.9315 90.3641 48.8297 89.8741 48.8297 89.3153C48.8297 88.7566 48.9315 88.2642 49.1351 87.8381C49.3411 87.4096 49.6275 87.0758 49.9945 86.8366C50.3638 86.5952 50.7947 86.4744 51.2871 86.4744C51.5712 86.4744 51.8517 86.5218 52.1287 86.6165C52.4057 86.7112 52.6578 86.8651 52.8851 87.0781C53.1124 87.2888 53.2935 87.5682 53.4284 87.9162C53.5634 88.2642 53.6309 88.6927 53.6309 89.2017V89.5568H49.4263V88.8324H52.7786C52.7786 88.5246 52.717 88.25 52.5939 88.0085C52.4732 87.767 52.3004 87.5765 52.0755 87.4368C51.8529 87.2971 51.5901 87.2273 51.2871 87.2273C50.9533 87.2273 50.6645 87.3101 50.4206 87.4759C50.1792 87.6392 49.9933 87.8523 49.8631 88.1151C49.7329 88.3778 49.6678 88.6596 49.6678 88.9602V89.4432C49.6678 89.8551 49.7388 90.2043 49.8809 90.4908C50.0253 90.7749 50.2253 90.9915 50.481 91.1406C50.7367 91.2874 51.0338 91.3608 51.3723 91.3608C51.5925 91.3608 51.7914 91.33 51.9689 91.2685C52.1489 91.2045 52.3039 91.1098 52.4341 90.9844C52.5643 90.8565 52.665 90.6979 52.736 90.5085L53.5456 90.7358C53.4604 91.0104 53.3172 91.2519 53.1159 91.4602C52.9147 91.6662 52.6661 91.8272 52.3702 91.9432C52.0743 92.0568 51.7417 92.1136 51.3723 92.1136ZM55.7438 84.7273V92H54.9057V84.7273H55.7438ZM28.0427 98.5455V99.2557H25.1024V98.5455H28.0427ZM25.983 104V97.7926C25.983 97.4801 26.0564 97.2197 26.2032 97.0114C26.35 96.803 26.5406 96.6468 26.7749 96.5426C27.0093 96.4384 27.2567 96.3864 27.5171 96.3864C27.7231 96.3864 27.8912 96.4029 28.0214 96.4361C28.1516 96.4692 28.2487 96.5 28.3126 96.5284L28.0711 97.2528C28.0285 97.2386 27.9693 97.2209 27.8936 97.1996C27.8202 97.1783 27.7231 97.1676 27.6024 97.1676C27.3254 97.1676 27.1253 97.2375 27.0022 97.3771C26.8815 97.5168 26.8211 97.7216 26.8211 97.9915V104H25.983ZM32.6547 101.77V98.5455H33.4928V104H32.6547V103.077H32.5979C32.4701 103.354 32.2712 103.589 32.0013 103.783C31.7314 103.975 31.3905 104.071 30.9786 104.071C30.6377 104.071 30.3347 103.996 30.0695 103.847C29.8044 103.696 29.596 103.469 29.4445 103.165C29.293 102.86 29.2172 102.475 29.2172 102.011V98.5455H30.0553V101.955C30.0553 102.352 30.1666 102.67 30.3891 102.906C30.614 103.143 30.9005 103.261 31.2485 103.261C31.4568 103.261 31.6687 103.208 31.8841 103.102C32.1019 102.995 32.2842 102.832 32.431 102.612C32.5802 102.391 32.6547 102.111 32.6547 101.77ZM35.8659 100.719V104H35.0278V98.5455H35.8374V99.3977H35.9085C36.0363 99.1207 36.2304 98.8982 36.4909 98.7301C36.7513 98.5597 37.0874 98.4744 37.4994 98.4744C37.8687 98.4744 38.1919 98.5502 38.4688 98.7017C38.7458 98.8509 38.9613 99.0781 39.1151 99.3835C39.269 99.6866 39.346 100.07 39.346 100.534V104H38.5079V100.591C38.5079 100.162 38.3966 99.8286 38.1741 99.5895C37.9516 99.348 37.6462 99.2273 37.2579 99.2273C36.9904 99.2273 36.7513 99.2853 36.5406 99.4013C36.3322 99.5173 36.1677 99.6866 36.047 99.9091C35.9262 100.132 35.8659 100.402 35.8659 100.719ZM41.7155 100.719V104H40.8774V98.5455H41.6871V99.3977H41.7581C41.8859 99.1207 42.08 98.8982 42.3405 98.7301C42.6009 98.5597 42.9371 98.4744 43.349 98.4744C43.7183 98.4744 44.0415 98.5502 44.3184 98.7017C44.5954 98.8509 44.8109 99.0781 44.9648 99.3835C45.1186 99.6866 45.1956 100.07 45.1956 100.534V104H44.3575V100.591C44.3575 100.162 44.2462 99.8286 44.0237 99.5895C43.8012 99.348 43.4958 99.2273 43.1075 99.2273C42.84 99.2273 42.6009 99.2853 42.3902 99.4013C42.1818 99.5173 42.0173 99.6866 41.8966 99.9091C41.7758 100.132 41.7155 100.402 41.7155 100.719ZM49.0139 104.114C48.4884 104.114 48.035 103.998 47.6539 103.766C47.2751 103.531 46.9827 103.205 46.7767 102.786C46.5731 102.364 46.4713 101.874 46.4713 101.315C46.4713 100.757 46.5731 100.264 46.7767 99.8381C46.9827 99.4096 47.2691 99.0758 47.6361 98.8366C48.0054 98.5952 48.4363 98.4744 48.9287 98.4744C49.2128 98.4744 49.4933 98.5218 49.7703 98.6165C50.0473 98.7112 50.2994 98.8651 50.5267 99.0781C50.754 99.2888 50.9351 99.5682 51.07 99.9162C51.205 100.264 51.2725 100.693 51.2725 101.202V101.557H47.0679V100.832H50.4202C50.4202 100.525 50.3586 100.25 50.2355 100.009C50.1148 99.767 49.942 99.5765 49.7171 99.4368C49.4945 99.2971 49.2317 99.2273 48.9287 99.2273C48.5949 99.2273 48.3061 99.3101 48.0622 99.4759C47.8208 99.6392 47.6349 99.8523 47.5047 100.115C47.3745 100.378 47.3094 100.66 47.3094 100.96V101.443C47.3094 101.855 47.3804 102.204 47.5225 102.491C47.6669 102.775 47.8669 102.991 48.1226 103.141C48.3783 103.287 48.6754 103.361 49.0139 103.361C49.2341 103.361 49.433 103.33 49.6105 103.268C49.7905 103.205 49.9455 103.11 50.0757 102.984C50.2059 102.857 50.3066 102.698 50.3776 102.509L51.1872 102.736C51.102 103.01 50.9588 103.252 50.7575 103.46C50.5563 103.666 50.3077 103.827 50.0118 103.943C49.7159 104.057 49.3833 104.114 49.0139 104.114ZM53.3854 96.7273V104H52.5473V96.7273H53.3854Z" fill="black"/>
<path d="M143 79H83V109H143V79Z" fill="#F0F0F0" stroke="grey" stroke-width="1.5"/>
<path d="M97.2553 94.0455V86.5455H98.065V87.4119H98.1644C98.226 87.3172 98.3112 87.1965 98.4201 87.0497C98.5314 86.9006 98.69 86.768 98.896 86.652C99.1043 86.5336 99.386 86.4744 99.7411 86.4744C100.2 86.4744 100.605 86.5893 100.956 86.8189C101.306 87.0485 101.579 87.3741 101.776 87.7955C101.972 88.2169 102.071 88.714 102.071 89.2869C102.071 89.8646 101.972 90.3653 101.776 90.7891C101.579 91.2105 101.307 91.5372 100.959 91.7692C100.611 91.9988 100.21 92.1136 99.7553 92.1136C99.4049 92.1136 99.1244 92.0556 98.9137 91.9396C98.703 91.8213 98.5408 91.6875 98.4272 91.5384C98.3136 91.3868 98.226 91.2614 98.1644 91.1619H98.0934V94.0455H97.2553ZM98.0792 89.2727C98.0792 89.6847 98.1396 90.0481 98.2603 90.3629C98.381 90.6754 98.5574 90.9205 98.7894 91.098C99.0214 91.2732 99.3055 91.3608 99.6417 91.3608C99.9921 91.3608 100.284 91.2685 100.519 91.0838C100.756 90.8968 100.933 90.6458 101.051 90.331C101.172 90.0137 101.233 89.661 101.233 89.2727C101.233 88.8892 101.173 88.5436 101.055 88.2358C100.939 87.9257 100.763 87.6806 100.526 87.5007C100.292 87.3184 99.9968 87.2273 99.6417 87.2273C99.3008 87.2273 99.0143 87.3137 98.7823 87.4865C98.5503 87.657 98.3751 87.8961 98.2567 88.2038C98.1384 88.5092 98.0792 88.8655 98.0792 89.2727ZM104.954 92.1278C104.609 92.1278 104.295 92.0627 104.013 91.9325C103.731 91.8 103.508 91.6094 103.342 91.3608C103.176 91.1098 103.093 90.8068 103.093 90.4517C103.093 90.1392 103.155 89.8859 103.278 89.6918C103.401 89.4953 103.566 89.3414 103.772 89.2301C103.978 89.1188 104.205 89.036 104.453 88.9815C104.704 88.9247 104.957 88.8797 105.21 88.8466C105.541 88.804 105.81 88.772 106.016 88.7507C106.224 88.727 106.376 88.688 106.471 88.6335C106.568 88.5791 106.616 88.4844 106.616 88.3494V88.321C106.616 87.9706 106.52 87.6984 106.328 87.5043C106.139 87.3101 105.851 87.2131 105.466 87.2131C105.065 87.2131 104.752 87.3007 104.525 87.4759C104.297 87.651 104.137 87.8381 104.045 88.0369L103.25 87.7528C103.392 87.4214 103.581 87.1634 103.818 86.9787C104.057 86.7917 104.317 86.6615 104.599 86.5881C104.883 86.5123 105.163 86.4744 105.437 86.4744C105.612 86.4744 105.814 86.4957 106.041 86.5384C106.27 86.5786 106.492 86.6626 106.705 86.7905C106.92 86.9183 107.099 87.1113 107.241 87.3693C107.383 87.6274 107.454 87.973 107.454 88.4062V92H106.616V91.2614H106.574C106.517 91.3797 106.422 91.5064 106.289 91.6413C106.157 91.7763 105.98 91.8911 105.76 91.9858C105.54 92.0805 105.271 92.1278 104.954 92.1278ZM105.082 91.375C105.413 91.375 105.693 91.3099 105.92 91.1797C106.15 91.0495 106.323 90.8814 106.439 90.6754C106.557 90.4695 106.616 90.2528 106.616 90.0256V89.2585C106.581 89.3011 106.502 89.3402 106.382 89.3757C106.263 89.4089 106.126 89.4384 105.97 89.4645C105.816 89.4882 105.666 89.5095 105.519 89.5284C105.374 89.545 105.257 89.5592 105.167 89.571C104.949 89.5994 104.746 89.6456 104.556 89.7095C104.369 89.7711 104.218 89.8646 104.102 89.9901C103.988 90.1132 103.931 90.2812 103.931 90.4943C103.931 90.7855 104.039 91.0057 104.255 91.1548C104.472 91.3016 104.748 91.375 105.082 91.375ZM108.984 92V86.5455H109.794V87.3693H109.85C109.95 87.0994 110.13 86.8804 110.39 86.7124C110.651 86.5443 110.944 86.4602 111.271 86.4602C111.332 86.4602 111.409 86.4614 111.502 86.4638C111.594 86.4661 111.664 86.4697 111.711 86.4744V87.3267C111.683 87.3196 111.618 87.3089 111.516 87.2947C111.416 87.2782 111.311 87.2699 111.2 87.2699C110.935 87.2699 110.698 87.3255 110.49 87.4368C110.284 87.5457 110.12 87.6972 109.999 87.8913C109.881 88.0831 109.822 88.3021 109.822 88.5483V92H108.984ZM114.31 92.1278C113.964 92.1278 113.65 92.0627 113.369 91.9325C113.087 91.8 112.863 91.6094 112.697 91.3608C112.532 91.1098 112.449 90.8068 112.449 90.4517C112.449 90.1392 112.51 89.8859 112.634 89.6918C112.757 89.4953 112.921 89.3414 113.127 89.2301C113.333 89.1188 113.56 89.036 113.809 88.9815C114.06 88.9247 114.312 88.8797 114.565 88.8466C114.897 88.804 115.165 88.772 115.371 88.7507C115.58 88.727 115.731 88.688 115.826 88.6335C115.923 88.5791 115.972 88.4844 115.972 88.3494V88.321C115.972 87.9706 115.876 87.6984 115.684 87.5043C115.495 87.3101 115.207 87.2131 114.821 87.2131C114.421 87.2131 114.107 87.3007 113.88 87.4759C113.653 87.651 113.493 87.8381 113.401 88.0369L112.605 87.7528C112.747 87.4214 112.937 87.1634 113.173 86.9787C113.412 86.7917 113.673 86.6615 113.955 86.5881C114.239 86.5123 114.518 86.4744 114.793 86.4744C114.968 86.4744 115.169 86.4957 115.396 86.5384C115.626 86.5786 115.847 86.6626 116.06 86.7905C116.276 86.9183 116.455 87.1113 116.597 87.3693C116.739 87.6274 116.81 87.973 116.81 88.4062V92H115.972V91.2614H115.929C115.872 91.3797 115.777 91.5064 115.645 91.6413C115.512 91.7763 115.336 91.8911 115.116 91.9858C114.896 92.0805 114.627 92.1278 114.31 92.1278ZM114.438 91.375C114.769 91.375 115.048 91.3099 115.276 91.1797C115.505 91.0495 115.678 90.8814 115.794 90.6754C115.912 90.4695 115.972 90.2528 115.972 90.0256V89.2585C115.936 89.3011 115.858 89.3402 115.737 89.3757C115.619 89.4089 115.482 89.4384 115.325 89.4645C115.171 89.4882 115.021 89.5095 114.874 89.5284C114.73 89.545 114.613 89.5592 114.523 89.571C114.305 89.5994 114.101 89.6456 113.912 89.7095C113.725 89.7711 113.573 89.8646 113.457 89.9901C113.344 90.1132 113.287 90.2812 113.287 90.4943C113.287 90.7855 113.395 91.0057 113.61 91.1548C113.828 91.3016 114.104 91.375 114.438 91.375ZM119.177 84.7273V92H118.339V84.7273H119.177ZM121.55 84.7273V92H120.712V84.7273H121.55ZM125.372 92.1136C124.847 92.1136 124.393 91.9976 124.012 91.7656C123.633 91.5312 123.341 91.2045 123.135 90.7855C122.932 90.3641 122.83 89.8741 122.83 89.3153C122.83 88.7566 122.932 88.2642 123.135 87.8381C123.341 87.4096 123.628 87.0758 123.994 86.8366C124.364 86.5952 124.795 86.4744 125.287 86.4744C125.571 86.4744 125.852 86.5218 126.129 86.6165C126.406 86.7112 126.658 86.8651 126.885 87.0781C127.112 87.2888 127.294 87.5682 127.428 87.9162C127.563 88.2642 127.631 88.6927 127.631 89.2017V89.5568H123.426V88.8324H126.779C126.779 88.5246 126.717 88.25 126.594 88.0085C126.473 87.767 126.3 87.5765 126.075 87.4368C125.853 87.2971 125.59 87.2273 125.287 87.2273C124.953 87.2273 124.664 87.3101 124.421 87.4759C124.179 87.6392 123.993 87.8523 123.863 88.1151C123.733 88.3778 123.668 88.6596 123.668 88.9602V89.4432C123.668 89.8551 123.739 90.2043 123.881 90.4908C124.025 90.7749 124.225 90.9915 124.481 91.1406C124.737 91.2874 125.034 91.3608 125.372 91.3608C125.593 91.3608 125.791 91.33 125.969 91.2685C126.149 91.2045 126.304 91.1098 126.434 90.9844C126.564 90.8565 126.665 90.6979 126.736 90.5085L127.546 90.7358C127.46 91.0104 127.317 91.2519 127.116 91.4602C126.915 91.6662 126.666 91.8272 126.37 91.9432C126.074 92.0568 125.742 92.1136 125.372 92.1136ZM129.744 84.7273V92H128.906V84.7273H129.744ZM102.043 98.5455V99.2557H99.1024V98.5455H102.043ZM99.983 104V97.7926C99.983 97.4801 100.056 97.2197 100.203 97.0114C100.35 96.803 100.541 96.6468 100.775 96.5426C101.009 96.4384 101.257 96.3864 101.517 96.3864C101.723 96.3864 101.891 96.4029 102.021 96.4361C102.152 96.4692 102.249 96.5 102.313 96.5284L102.071 97.2528C102.028 97.2386 101.969 97.2209 101.894 97.1996C101.82 97.1783 101.723 97.1676 101.602 97.1676C101.325 97.1676 101.125 97.2375 101.002 97.3771C100.881 97.5168 100.821 97.7216 100.821 97.9915V104H99.983ZM106.655 101.77V98.5455H107.493V104H106.655V103.077H106.598C106.47 103.354 106.271 103.589 106.001 103.783C105.731 103.975 105.391 104.071 104.979 104.071C104.638 104.071 104.335 103.996 104.07 103.847C103.804 103.696 103.596 103.469 103.445 103.165C103.293 102.86 103.217 102.475 103.217 102.011V98.5455H104.055V101.955C104.055 102.352 104.167 102.67 104.389 102.906C104.614 103.143 104.9 103.261 105.248 103.261C105.457 103.261 105.669 103.208 105.884 103.102C106.102 102.995 106.284 102.832 106.431 102.612C106.58 102.391 106.655 102.111 106.655 101.77ZM109.866 100.719V104H109.028V98.5455H109.837V99.3977H109.908C110.036 99.1207 110.23 98.8982 110.491 98.7301C110.751 98.5597 111.087 98.4744 111.499 98.4744C111.869 98.4744 112.192 98.5502 112.469 98.7017C112.746 98.8509 112.961 99.0781 113.115 99.3835C113.269 99.6866 113.346 100.07 113.346 100.534V104H112.508V100.591C112.508 100.162 112.397 99.8286 112.174 99.5895C111.952 99.348 111.646 99.2273 111.258 99.2273C110.99 99.2273 110.751 99.2853 110.541 99.4013C110.332 99.5173 110.168 99.6866 110.047 99.9091C109.926 100.132 109.866 100.402 109.866 100.719ZM115.715 100.719V104H114.877V98.5455H115.687V99.3977H115.758C115.886 99.1207 116.08 98.8982 116.34 98.7301C116.601 98.5597 116.937 98.4744 117.349 98.4744C117.718 98.4744 118.041 98.5502 118.318 98.7017C118.595 98.8509 118.811 99.0781 118.965 99.3835C119.119 99.6866 119.196 100.07 119.196 100.534V104H118.358V100.591C118.358 100.162 118.246 99.8286 118.024 99.5895C117.801 99.348 117.496 99.2273 117.108 99.2273C116.84 99.2273 116.601 99.2853 116.39 99.4013C116.182 99.5173 116.017 99.6866 115.897 99.9091C115.776 100.132 115.715 100.402 115.715 100.719ZM123.014 104.114C122.488 104.114 122.035 103.998 121.654 103.766C121.275 103.531 120.983 103.205 120.777 102.786C120.573 102.364 120.471 101.874 120.471 101.315C120.471 100.757 120.573 100.264 120.777 99.8381C120.983 99.4096 121.269 99.0758 121.636 98.8366C122.005 98.5952 122.436 98.4744 122.929 98.4744C123.213 98.4744 123.493 98.5218 123.77 98.6165C124.047 98.7112 124.299 98.8651 124.527 99.0781C124.754 99.2888 124.935 99.5682 125.07 99.9162C125.205 100.264 125.272 100.693 125.272 101.202V101.557H121.068V100.832H124.42C124.42 100.525 124.359 100.25 124.236 100.009C124.115 99.767 123.942 99.5765 123.717 99.4368C123.495 99.2971 123.232 99.2273 122.929 99.2273C122.595 99.2273 122.306 99.3101 122.062 99.4759C121.821 99.6392 121.635 99.8523 121.505 100.115C121.374 100.378 121.309 100.66 121.309 100.96V101.443C121.309 101.855 121.38 102.204 121.522 102.491C121.667 102.775 121.867 102.991 122.123 103.141C122.378 103.287 122.675 103.361 123.014 103.361C123.234 103.361 123.433 103.33 123.611 103.268C123.79 103.205 123.946 103.11 124.076 102.984C124.206 102.857 124.307 102.698 124.378 102.509L125.187 102.736C125.102 103.01 124.959 103.252 124.758 103.46C124.556 103.666 124.308 103.827 124.012 103.943C123.716 104.057 123.383 104.114 123.014 104.114ZM127.385 96.7273V104H126.547V96.7273H127.385Z" fill="black"/>
<path d="M136.635 105V104.616L138.076 103.04C138.245 102.855 138.384 102.695 138.493 102.558C138.603 102.42 138.684 102.291 138.736 102.17C138.79 102.048 138.817 101.92 138.817 101.787C138.817 101.634 138.78 101.501 138.706 101.388C138.634 101.276 138.534 101.19 138.408 101.129C138.282 101.067 138.14 101.037 137.982 101.037C137.814 101.037 137.668 101.072 137.543 101.141C137.419 101.21 137.324 101.305 137.255 101.429C137.189 101.553 137.155 101.697 137.155 101.864H136.652C136.652 101.608 136.711 101.384 136.829 101.19C136.947 100.997 137.108 100.847 137.311 100.739C137.515 100.631 137.745 100.577 137.999 100.577C138.255 100.577 138.481 100.631 138.679 100.739C138.876 100.847 139.031 100.992 139.143 101.175C139.255 101.359 139.311 101.562 139.311 101.787C139.311 101.947 139.282 102.104 139.224 102.258C139.167 102.41 139.068 102.58 138.926 102.767C138.785 102.953 138.59 103.18 138.34 103.449L137.36 104.497V104.531H139.388V105H136.635Z" fill="black"/>
<path d="M89 49L77.4968 50.0048L84.1186 59.4645L89 49ZM39.5735 84.8192L82.2004 54.9804L81.0535 53.3419L38.4265 83.1808L39.5735 84.8192Z" fill="white"/>
<path d="M217 79H157V109H217V79Z" fill="#F0F0F0" stroke="grey" stroke-width="1.5"/>
<path d="M212.016 105.06C211.735 105.06 211.484 105.011 211.264 104.915C211.045 104.818 210.871 104.684 210.742 104.512C210.614 104.339 210.544 104.138 210.533 103.909H211.07C211.081 104.05 211.13 104.171 211.215 104.273C211.3 104.374 211.412 104.452 211.549 104.508C211.687 104.563 211.84 104.591 212.007 104.591C212.195 104.591 212.361 104.558 212.506 104.493C212.651 104.428 212.765 104.337 212.847 104.22C212.929 104.104 212.971 103.969 212.971 103.815C212.971 103.655 212.931 103.513 212.851 103.391C212.772 103.268 212.655 103.171 212.502 103.102C212.348 103.032 212.161 102.997 211.939 102.997H211.59V102.528H211.939C212.113 102.528 212.265 102.497 212.395 102.435C212.527 102.372 212.63 102.284 212.704 102.17C212.779 102.057 212.817 101.923 212.817 101.77C212.817 101.622 212.784 101.494 212.719 101.384C212.654 101.275 212.561 101.19 212.442 101.129C212.324 101.067 212.185 101.037 212.025 101.037C211.874 101.037 211.732 101.065 211.598 101.12C211.466 101.174 211.358 101.253 211.275 101.357C211.191 101.459 211.145 101.582 211.138 101.727H210.627C210.635 101.499 210.704 101.298 210.833 101.126C210.963 100.953 211.132 100.818 211.341 100.722C211.551 100.625 211.782 100.577 212.033 100.577C212.303 100.577 212.534 100.631 212.728 100.741C212.921 100.849 213.069 100.991 213.173 101.169C213.277 101.347 213.328 101.538 213.328 101.744C213.328 101.99 213.264 102.2 213.135 102.373C213.007 102.546 212.833 102.666 212.613 102.733V102.767C212.888 102.812 213.103 102.93 213.258 103.119C213.413 103.306 213.49 103.538 213.49 103.815C213.49 104.053 213.426 104.266 213.297 104.455C213.169 104.642 212.994 104.79 212.772 104.898C212.551 105.006 212.299 105.06 212.016 105.06Z" fill="black"/>
<path d="M171.255 94.0455V86.5455H172.065V87.4119H172.164C172.226 87.3172 172.311 87.1965 172.42 87.0497C172.531 86.9006 172.69 86.768 172.896 86.652C173.104 86.5336 173.386 86.4744 173.741 86.4744C174.2 86.4744 174.605 86.5893 174.956 86.8189C175.306 87.0485 175.579 87.3741 175.776 87.7955C175.972 88.2169 176.071 88.714 176.071 89.2869C176.071 89.8646 175.972 90.3653 175.776 90.7891C175.579 91.2105 175.307 91.5372 174.959 91.7692C174.611 91.9988 174.21 92.1136 173.755 92.1136C173.405 92.1136 173.124 92.0556 172.914 91.9396C172.703 91.8213 172.541 91.6875 172.427 91.5384C172.314 91.3868 172.226 91.2614 172.164 91.1619H172.093V94.0455H171.255ZM172.079 89.2727C172.079 89.6847 172.14 90.0481 172.26 90.3629C172.381 90.6754 172.557 90.9205 172.789 91.098C173.021 91.2732 173.306 91.3608 173.642 91.3608C173.992 91.3608 174.284 91.2685 174.519 91.0838C174.756 90.8968 174.933 90.6458 175.051 90.331C175.172 90.0137 175.233 89.661 175.233 89.2727C175.233 88.8892 175.173 88.5436 175.055 88.2358C174.939 87.9257 174.763 87.6806 174.526 87.5007C174.292 87.3184 173.997 87.2273 173.642 87.2273C173.301 87.2273 173.014 87.3137 172.782 87.4865C172.55 87.657 172.375 87.8961 172.257 88.2038C172.138 88.5092 172.079 88.8655 172.079 89.2727ZM178.954 92.1278C178.609 92.1278 178.295 92.0627 178.013 91.9325C177.731 91.8 177.508 91.6094 177.342 91.3608C177.176 91.1098 177.093 90.8068 177.093 90.4517C177.093 90.1392 177.155 89.8859 177.278 89.6918C177.401 89.4953 177.566 89.3414 177.772 89.2301C177.978 89.1188 178.205 89.036 178.453 88.9815C178.704 88.9247 178.957 88.8797 179.21 88.8466C179.541 88.804 179.81 88.772 180.016 88.7507C180.224 88.727 180.376 88.688 180.471 88.6335C180.568 88.5791 180.616 88.4844 180.616 88.3494V88.321C180.616 87.9706 180.52 87.6984 180.328 87.5043C180.139 87.3101 179.851 87.2131 179.466 87.2131C179.065 87.2131 178.752 87.3007 178.525 87.4759C178.297 87.651 178.137 87.8381 178.045 88.0369L177.25 87.7528C177.392 87.4214 177.581 87.1634 177.818 86.9787C178.057 86.7917 178.317 86.6615 178.599 86.5881C178.883 86.5123 179.163 86.4744 179.437 86.4744C179.612 86.4744 179.814 86.4957 180.041 86.5384C180.27 86.5786 180.492 86.6626 180.705 86.7905C180.92 86.9183 181.099 87.1113 181.241 87.3693C181.383 87.6274 181.454 87.973 181.454 88.4062V92H180.616V91.2614H180.574C180.517 91.3797 180.422 91.5064 180.289 91.6413C180.157 91.7763 179.98 91.8911 179.76 91.9858C179.54 92.0805 179.271 92.1278 178.954 92.1278ZM179.082 91.375C179.413 91.375 179.693 91.3099 179.92 91.1797C180.15 91.0495 180.323 90.8814 180.439 90.6754C180.557 90.4695 180.616 90.2528 180.616 90.0256V89.2585C180.581 89.3011 180.502 89.3402 180.382 89.3757C180.263 89.4089 180.126 89.4384 179.97 89.4645C179.816 89.4882 179.666 89.5095 179.519 89.5284C179.374 89.545 179.257 89.5592 179.167 89.571C178.949 89.5994 178.746 89.6456 178.556 89.7095C178.369 89.7711 178.218 89.8646 178.102 89.9901C177.988 90.1132 177.931 90.2812 177.931 90.4943C177.931 90.7855 178.039 91.0057 178.255 91.1548C178.472 91.3016 178.748 91.375 179.082 91.375ZM182.984 92V86.5455H183.794V87.3693H183.85C183.95 87.0994 184.13 86.8804 184.39 86.7124C184.651 86.5443 184.944 86.4602 185.271 86.4602C185.332 86.4602 185.409 86.4614 185.502 86.4638C185.594 86.4661 185.664 86.4697 185.711 86.4744V87.3267C185.683 87.3196 185.618 87.3089 185.516 87.2947C185.416 87.2782 185.311 87.2699 185.2 87.2699C184.935 87.2699 184.698 87.3255 184.49 87.4368C184.284 87.5457 184.12 87.6972 183.999 87.8913C183.881 88.0831 183.822 88.3021 183.822 88.5483V92H182.984ZM188.31 92.1278C187.964 92.1278 187.65 92.0627 187.369 91.9325C187.087 91.8 186.863 91.6094 186.697 91.3608C186.532 91.1098 186.449 90.8068 186.449 90.4517C186.449 90.1392 186.51 89.8859 186.634 89.6918C186.757 89.4953 186.921 89.3414 187.127 89.2301C187.333 89.1188 187.56 89.036 187.809 88.9815C188.06 88.9247 188.312 88.8797 188.565 88.8466C188.897 88.804 189.165 88.772 189.371 88.7507C189.58 88.727 189.731 88.688 189.826 88.6335C189.923 88.5791 189.972 88.4844 189.972 88.3494V88.321C189.972 87.9706 189.876 87.6984 189.684 87.5043C189.495 87.3101 189.207 87.2131 188.821 87.2131C188.421 87.2131 188.107 87.3007 187.88 87.4759C187.653 87.651 187.493 87.8381 187.401 88.0369L186.605 87.7528C186.747 87.4214 186.937 87.1634 187.173 86.9787C187.412 86.7917 187.673 86.6615 187.955 86.5881C188.239 86.5123 188.518 86.4744 188.793 86.4744C188.968 86.4744 189.169 86.4957 189.396 86.5384C189.626 86.5786 189.847 86.6626 190.06 86.7905C190.276 86.9183 190.455 87.1113 190.597 87.3693C190.739 87.6274 190.81 87.973 190.81 88.4062V92H189.972V91.2614H189.929C189.872 91.3797 189.777 91.5064 189.645 91.6413C189.512 91.7763 189.336 91.8911 189.116 91.9858C188.896 92.0805 188.627 92.1278 188.31 92.1278ZM188.438 91.375C188.769 91.375 189.048 91.3099 189.276 91.1797C189.505 91.0495 189.678 90.8814 189.794 90.6754C189.912 90.4695 189.972 90.2528 189.972 90.0256V89.2585C189.936 89.3011 189.858 89.3402 189.737 89.3757C189.619 89.4089 189.482 89.4384 189.325 89.4645C189.171 89.4882 189.021 89.5095 188.874 89.5284C188.73 89.545 188.613 89.5592 188.523 89.571C188.305 89.5994 188.101 89.6456 187.912 89.7095C187.725 89.7711 187.573 89.8646 187.457 89.9901C187.344 90.1132 187.287 90.2812 187.287 90.4943C187.287 90.7855 187.395 91.0057 187.61 91.1548C187.828 91.3016 188.104 91.375 188.438 91.375ZM193.177 84.7273V92H192.339V84.7273H193.177ZM195.55 84.7273V92H194.712V84.7273H195.55ZM199.372 92.1136C198.847 92.1136 198.393 91.9976 198.012 91.7656C197.633 91.5312 197.341 91.2045 197.135 90.7855C196.932 90.3641 196.83 89.8741 196.83 89.3153C196.83 88.7566 196.932 88.2642 197.135 87.8381C197.341 87.4096 197.628 87.0758 197.994 86.8366C198.364 86.5952 198.795 86.4744 199.287 86.4744C199.571 86.4744 199.852 86.5218 200.129 86.6165C200.406 86.7112 200.658 86.8651 200.885 87.0781C201.112 87.2888 201.294 87.5682 201.428 87.9162C201.563 88.2642 201.631 88.6927 201.631 89.2017V89.5568H197.426V88.8324H200.779C200.779 88.5246 200.717 88.25 200.594 88.0085C200.473 87.767 200.3 87.5765 200.075 87.4368C199.853 87.2971 199.59 87.2273 199.287 87.2273C198.953 87.2273 198.664 87.3101 198.421 87.4759C198.179 87.6392 197.993 87.8523 197.863 88.1151C197.733 88.3778 197.668 88.6596 197.668 88.9602V89.4432C197.668 89.8551 197.739 90.2043 197.881 90.4908C198.025 90.7749 198.225 90.9915 198.481 91.1406C198.737 91.2874 199.034 91.3608 199.372 91.3608C199.593 91.3608 199.791 91.33 199.969 91.2685C200.149 91.2045 200.304 91.1098 200.434 90.9844C200.564 90.8565 200.665 90.6979 200.736 90.5085L201.546 90.7358C201.46 91.0104 201.317 91.2519 201.116 91.4602C200.915 91.6662 200.666 91.8272 200.37 91.9432C200.074 92.0568 199.742 92.1136 199.372 92.1136ZM203.744 84.7273V92H202.906V84.7273H203.744ZM176.043 98.5455V99.2557H173.102V98.5455H176.043ZM173.983 104V97.7926C173.983 97.4801 174.056 97.2197 174.203 97.0114C174.35 96.803 174.541 96.6468 174.775 96.5426C175.009 96.4384 175.257 96.3864 175.517 96.3864C175.723 96.3864 175.891 96.4029 176.021 96.4361C176.152 96.4692 176.249 96.5 176.313 96.5284L176.071 97.2528C176.028 97.2386 175.969 97.2209 175.894 97.1996C175.82 97.1783 175.723 97.1676 175.602 97.1676C175.325 97.1676 175.125 97.2375 175.002 97.3771C174.881 97.5168 174.821 97.7216 174.821 97.9915V104H173.983ZM180.655 101.77V98.5455H181.493V104H180.655V103.077H180.598C180.47 103.354 180.271 103.589 180.001 103.783C179.731 103.975 179.391 104.071 178.979 104.071C178.638 104.071 178.335 103.996 178.07 103.847C177.804 103.696 177.596 103.469 177.445 103.165C177.293 102.86 177.217 102.475 177.217 102.011V98.5455H178.055V101.955C178.055 102.352 178.167 102.67 178.389 102.906C178.614 103.143 178.9 103.261 179.248 103.261C179.457 103.261 179.669 103.208 179.884 103.102C180.102 102.995 180.284 102.832 180.431 102.612C180.58 102.391 180.655 102.111 180.655 101.77ZM183.866 100.719V104H183.028V98.5455H183.837V99.3977H183.908C184.036 99.1207 184.23 98.8982 184.491 98.7301C184.751 98.5597 185.087 98.4744 185.499 98.4744C185.869 98.4744 186.192 98.5502 186.469 98.7017C186.746 98.8509 186.961 99.0781 187.115 99.3835C187.269 99.6866 187.346 100.07 187.346 100.534V104H186.508V100.591C186.508 100.162 186.397 99.8286 186.174 99.5895C185.952 99.348 185.646 99.2273 185.258 99.2273C184.99 99.2273 184.751 99.2853 184.541 99.4013C184.332 99.5173 184.168 99.6866 184.047 99.9091C183.926 100.132 183.866 100.402 183.866 100.719ZM189.715 100.719V104H188.877V98.5455H189.687V99.3977H189.758C189.886 99.1207 190.08 98.8982 190.34 98.7301C190.601 98.5597 190.937 98.4744 191.349 98.4744C191.718 98.4744 192.041 98.5502 192.318 98.7017C192.595 98.8509 192.811 99.0781 192.965 99.3835C193.119 99.6866 193.196 100.07 193.196 100.534V104H192.358V100.591C192.358 100.162 192.246 99.8286 192.024 99.5895C191.801 99.348 191.496 99.2273 191.108 99.2273C190.84 99.2273 190.601 99.2853 190.39 99.4013C190.182 99.5173 190.017 99.6866 189.897 99.9091C189.776 100.132 189.715 100.402 189.715 100.719ZM197.014 104.114C196.488 104.114 196.035 103.998 195.654 103.766C195.275 103.531 194.983 103.205 194.777 102.786C194.573 102.364 194.471 101.874 194.471 101.315C194.471 100.757 194.573 100.264 194.777 99.8381C194.983 99.4096 195.269 99.0758 195.636 98.8366C196.005 98.5952 196.436 98.4744 196.929 98.4744C197.213 98.4744 197.493 98.5218 197.77 98.6165C198.047 98.7112 198.299 98.8651 198.527 99.0781C198.754 99.2888 198.935 99.5682 199.07 99.9162C199.205 100.264 199.272 100.693 199.272 101.202V101.557H195.068V100.832H198.42C198.42 100.525 198.359 100.25 198.236 100.009C198.115 99.767 197.942 99.5765 197.717 99.4368C197.495 99.2971 197.232 99.2273 196.929 99.2273C196.595 99.2273 196.306 99.3101 196.062 99.4759C195.821 99.6392 195.635 99.8523 195.505 100.115C195.374 100.378 195.309 100.66 195.309 100.96V101.443C195.309 101.855 195.38 102.204 195.522 102.491C195.667 102.775 195.867 102.991 196.123 103.141C196.378 103.287 196.675 103.361 197.014 103.361C197.234 103.361 197.433 103.33 197.611 103.268C197.79 103.205 197.946 103.11 198.076 102.984C198.206 102.857 198.307 102.698 198.378 102.509L199.187 102.736C199.102 103.01 198.959 103.252 198.758 103.46C198.556 103.666 198.308 103.827 198.012 103.943C197.716 104.057 197.383 104.114 197.014 104.114ZM201.385 96.7273V104H200.547V96.7273H201.385Z" fill="black"/>
<path d="M137 49L141.881 59.4645L148.503 50.0048L137 49ZM187.573 83.1808L144.947 53.3419L143.8 54.9804L186.427 84.8192L187.573 83.1808Z" fill="white"/>
<path d="M113 49L107.226 59H118.774L113 49ZM114 84V58H112V84H114Z" fill="white"/>
</svg>
