<?xml version="1.0" encoding="UTF-8"?>
<svg xmlns="http://www.w3.org/2000/svg" xmlns:xlink="http://www.w3.org/1999/xlink" version="1.1" width="653px" height="220px" viewBox="-0.5 -0.5 653 220">
  <defs></defs>
  <g>
    <rect x="496" y="16" width="156" height="63" rx="9.45" ry="9.45" fill="rgb(255, 255, 255)" stroke="rgb(0, 0, 0)"></rect>
    <g transform="translate(-0.5 -0.5)">
      <switch>
        <text x="574" y="51" fill="rgb(0, 0, 0)" font-family="Helvetica" font-size="12px" text-anchor="middle"></text>
      </switch>
    </g>
    <rect x="513.1" y="31" width="118" height="30" fill="none" stroke="none"></rect>
    <g transform="translate(-0.5 -0.5)">
      <switch>
        <text x="572" y="50" fill="rgb(0, 0, 0)" font-family="Helvetica" font-size="12px" text-anchor="middle">Game state machine</text>
      </switch>
    </g>
    <rect x="294.74" y="17" width="156" height="62" rx="9.3" ry="9.3" fill="rgb(255, 255, 255)" stroke="rgb(0, 0, 0)"></rect>
    <g transform="translate(-0.5 -0.5)">
      <switch>
        <text x="373" y="52" fill="rgb(0, 0, 0)" font-family="Helvetica" font-size="12px" text-anchor="middle"></text>
      </switch>
    </g>
    <rect x="311.84" y="32" width="118" height="30" fill="none" stroke="none"></rect>
    <g transform="translate(-0.5 -0.5)">
      <switch>
        <text x="371" y="51" fill="rgb(0, 0, 0)" font-family="Helvetica" font-size="12px" text-anchor="middle">Paima Funnel</text>
      </switch>
    </g>
    <rect x="65" y="0" width="118" height="30" fill="none" stroke="none"></rect>
    <g transform="translate(-0.5 -0.5)">
      <switch>
        <text x="124" y="19" fill="rgb(255, 255, 255)" font-family="Helvetica" font-size="12px" text-anchor="middle">Blocks</text>
      </switch>
    </g>
    <path d="M 450.74 48 L 489.63 47.57" fill="none" stroke="rgb(255, 255, 255)" stroke-miterlimit="10"></path>
    <path d="M 494.88 47.51 L 487.92 51.09 L 489.63 47.57 L 487.84 44.09 Z" fill="rgb(255, 255, 255)" stroke="rgb(255, 255, 255)" stroke-miterlimit="10"></path>
    <path d="M 132 28 L 162 28 L 170 36 L 170 62 L 140 62 L 132 54 L 132 28 Z" fill="rgb(255, 255, 255)" stroke="rgb(0, 0, 0)" stroke-miterlimit="10"></path>
    <path d="M 132 28 L 162 28 L 170 36 L 140 36 Z" fill-opacity="0.05" fill="#000000" stroke="none"></path>
    <path d="M 132 28 L 140 36 L 140 62 L 132 54 Z" fill-opacity="0.1" fill="#000000" stroke="none"></path>
    <path d="M 140 62 L 140 36 L 132 28 M 140 36 L 170 36" fill="none" stroke="rgb(0, 0, 0)" stroke-miterlimit="10"></path>
    <path d="M 173 28 L 203 28 L 211 36 L 211 62 L 181 62 L 173 54 L 173 28 Z" fill="rgb(255, 255, 255)" stroke="rgb(0, 0, 0)" stroke-miterlimit="10"></path>
    <path d="M 173 28 L 203 28 L 211 36 L 181 36 Z" fill-opacity="0.05" fill="#000000" stroke="none"></path>
    <path d="M 173 28 L 181 36 L 181 62 L 173 54 Z" fill-opacity="0.1" fill="#000000" stroke="none"></path>
    <path d="M 181 62 L 181 36 L 173 28 M 181 36 L 211 36" fill="none" stroke="rgb(0, 0, 0)" stroke-miterlimit="10"></path>
    <path d="M 215 28 L 245 28 L 253 36 L 253 62 L 223 62 L 215 54 L 215 28 Z" fill="rgb(255, 255, 255)" stroke="rgb(0, 0, 0)" stroke-miterlimit="10"></path>
    <path d="M 215 28 L 245 28 L 253 36 L 223 36 Z" fill-opacity="0.05" fill="#000000" stroke="none"></path>
    <path d="M 215 28 L 223 36 L 223 62 L 215 54 Z" fill-opacity="0.1" fill="#000000" stroke="none"></path>
    <path d="M 223 62 L 223 36 L 215 28 M 223 36 L 253 36" fill="none" stroke="rgb(0, 0, 0)" stroke-miterlimit="10"></path>
    <path d="M 260 48 L 288.37 48" fill="none" stroke="rgb(255, 255, 255)" stroke-miterlimit="10"></path>
    <path d="M 293.62 48 L 286.62 51.5 L 288.37 48 L 286.62 44.5 Z" fill="rgb(255, 255, 255)" stroke="rgb(255, 255, 255)" stroke-miterlimit="10"></path>
    <rect x="496" y="146.5" width="156" height="63" rx="9.45" ry="9.45" fill="rgb(255, 255, 255)" stroke="rgb(0, 0, 0)"></rect>
    <g transform="translate(-0.5 -0.5)">
      <switch>
        <text x="574" y="182" fill="rgb(0, 0, 0)" font-family="Helvetica" font-size="12px" text-anchor="middle"></text>
      </switch>
    </g>
    <rect x="513.1" y="161.5" width="118" height="30" fill="none" stroke="none"></rect>
    <g transform="translate(-0.5 -0.5)">
      <switch>
        <text x="572" y="180" fill="rgb(0, 0, 0)" font-family="Helvetica" font-size="12px" text-anchor="middle">Game state machine</text>
      </switch>
    </g>
    <rect x="294.74" y="147.5" width="156" height="62" rx="9.3" ry="9.3" fill="rgb(255, 255, 255)" stroke="rgb(0, 0, 0)"></rect>
    <g transform="translate(-0.5 -0.5)">
      <switch>
        <text x="373" y="182" fill="rgb(0, 0, 0)" font-family="Helvetica" font-size="12px" text-anchor="middle"></text>
      </switch>
    </g>
    <rect x="311.84" y="162.5" width="118" height="30" fill="none" stroke="none"></rect>
    <g transform="translate(-0.5 -0.5)">
      <switch>
        <text x="371" y="181" fill="rgb(0, 0, 0)" font-family="Helvetica" font-size="12px" text-anchor="middle">Paima Funnel</text>
      </switch>
    </g>
    <rect x="62" y="111" width="118" height="30" fill="none" stroke="none"></rect>
    <g transform="translate(-0.5 -0.5)">
      <switch>
        <text x="121" y="130" fill="rgb(255, 255, 255)" font-family="Helvetica" font-size="12px" text-anchor="middle">Slices of time</text>
      </switch>
    </g>
    <path d="M 450.74 178.5 L 489.63 178.07" fill="none" stroke="rgb(255, 255, 255)" stroke-miterlimit="10"></path>
    <path d="M 494.88 178.01 L 487.92 181.59 L 489.63 178.07 L 487.84 174.59 Z" fill="rgb(0, 0, 0)" stroke="rgb(255, 255, 255)" stroke-miterlimit="10"></path>
    <path d="M 257 179 L 288.37 178.58" fill="none" stroke="rgb(255, 255, 255)" stroke-miterlimit="10"></path>
    <path d="M 293.62 178.51 L 286.67 182.11 L 288.37 178.58 L 286.58 175.11 Z" fill="rgb(255, 255, 255)" stroke="rgb(255, 255, 255)" stroke-miterlimit="10"></path>
    <rect x="0" y="139" width="80" height="80" fill="rgb(255, 255, 255)" stroke="rgb(0, 0, 0)"></rect>
    <rect x="0" y="138" width="80" height="19" fill="none" stroke="none"></rect>
    <g transform="translate(-0.5 -0.5)">
      <switch>
        <text x="40" y="151" fill="rgb(0, 0, 0)" font-family="Helvetica" font-size="12px" text-anchor="middle">15 seconds</text>
      </switch>
    </g>
    <path d="M 21 165 L 51 165 L 59 173 L 59 199 L 29 199 L 21 191 L 21 165 Z" fill="rgb(255, 255, 255)" stroke="rgb(0, 0, 0)" stroke-miterlimit="10"></path>
    <path d="M 21 165 L 51 165 L 59 173 L 29 173 Z" fill-opacity="0.05" fill="#000000" stroke="none"></path>
    <path d="M 21 165 L 29 173 L 29 199 L 21 191 Z" fill-opacity="0.1" fill="#000000" stroke="none"></path>
    <path d="M 29 199 L 29 173 L 21 165 M 29 173 L 59 173" fill="none" stroke="rgb(0, 0, 0)" stroke-miterlimit="10"></path>
    <rect x="85" y="139" width="80" height="80" fill="rgb(255, 255, 255)" stroke="rgb(0, 0, 0)"></rect>
    <rect x="85" y="138" width="80" height="19" fill="none" stroke="none"></rect>
    <g transform="translate(-0.5 -0.5)">
      <switch>
        <text x="125" y="151" fill="rgb(0, 0, 0)" font-family="Helvetica" font-size="12px" text-anchor="middle">15 seconds</text>
      </switch>
    </g>
    <rect x="170" y="139" width="80" height="80" fill="rgb(255, 255, 255)" stroke="rgb(0, 0, 0)"></rect>
    <rect x="170" y="138" width="80" height="19" fill="none" stroke="none"></rect>
    <g transform="translate(-0.5 -0.5)">
      <switch>
        <text x="210" y="151" fill="rgb(0, 0, 0)" font-family="Helvetica" font-size="12px" text-anchor="middle">15 seconds</text>
      </switch>
    </g>
    <path d="M 209 170 L 235.65 170 L 243.65 178 L 243.65 201 L 217 201 L 209 193 L 209 170 Z" fill="rgb(255, 255, 255)" stroke="rgb(0, 0, 0)" stroke-miterlimit="10"></path>
    <path d="M 209 170 L 235.65 170 L 243.65 178 L 217 178 Z" fill-opacity="0.05" fill="#000000" stroke="none"></path>
    <path d="M 209 170 L 217 178 L 217 201 L 209 193 Z" fill-opacity="0.1" fill="#000000" stroke="none"></path>
    <path d="M 217 201 L 217 178 L 209 170 M 217 178 L 243.65 178" fill="none" stroke="rgb(0, 0, 0)" stroke-miterlimit="10"></path>
    <path d="M 176 170 L 202.65 170 L 210.65 178 L 210.65 201 L 184 201 L 176 193 L 176 170 Z" fill="rgb(255, 255, 255)" stroke="rgb(0, 0, 0)" stroke-miterlimit="10"></path>
    <path d="M 176 170 L 202.65 170 L 210.65 178 L 184 178 Z" fill-opacity="0.05" fill="#000000" stroke="none"></path>
    <path d="M 176 170 L 184 178 L 184 201 L 176 193 Z" fill-opacity="0.1" fill="#000000" stroke="none"></path>
    <path d="M 184 201 L 184 178 L 176 170 M 184 178 L 210.65 178" fill="none" stroke="rgb(0, 0, 0)" stroke-miterlimit="10"></path>
    <path d="M 8 28 L 38 28 L 46 36 L 46 62 L 16 62 L 8 54 L 8 28 Z" fill="rgb(255, 255, 255)" stroke="rgb(0, 0, 0)" stroke-miterlimit="10"></path>
    <path d="M 8 28 L 38 28 L 46 36 L 16 36 Z" fill-opacity="0.05" fill="#000000" stroke="none"></path>
    <path d="M 8 28 L 16 36 L 16 62 L 8 54 Z" fill-opacity="0.1" fill="#000000" stroke="none"></path>
    <path d="M 16 62 L 16 36 L 8 28 M 16 36 L 46 36" fill="none" stroke="rgb(0, 0, 0)" stroke-miterlimit="10"></path>
    <path d="M 49 28 L 79 28 L 87 36 L 87 62 L 57 62 L 49 54 L 49 28 Z" fill="rgb(255, 255, 255)" stroke="rgb(0, 0, 0)" stroke-miterlimit="10"></path>
    <path d="M 49 28 L 79 28 L 87 36 L 57 36 Z" fill-opacity="0.05" fill="#000000" stroke="none"></path>
    <path d="M 49 28 L 57 36 L 57 62 L 49 54 Z" fill-opacity="0.1" fill="#000000" stroke="none"></path>
    <path d="M 57 62 L 57 36 L 49 28 M 57 36 L 87 36" fill="none" stroke="rgb(0, 0, 0)" stroke-miterlimit="10"></path>
    <path d="M 91 28 L 121 28 L 129 36 L 129 62 L 99 62 L 91 54 L 91 28 Z" fill="rgb(255, 255, 255)" stroke="rgb(0, 0, 0)" stroke-miterlimit="10"></path>
    <path d="M 91 28 L 121 28 L 129 36 L 99 36 Z" fill-opacity="0.05" fill="#000000" stroke="none"></path>
    <path d="M 91 28 L 99 36 L 99 62 L 91 54 Z" fill-opacity="0.1" fill="#000000" stroke="none"></path>
    <path d="M 99 62 L 99 36 L 91 28 M 99 36 L 129 36" fill="none" stroke="rgb(0, 0, 0)" stroke-miterlimit="10"></path>
  </g>
</svg>
