<svg version="1.1" viewBox="0.0 0.0 624.0 243.0" fill="none" stroke="none" stroke-linecap="square" stroke-miterlimit="10" preserveAspectRatio="none" width="624" height="243" xmlns:xlink="http://www.w3.org/1999/xlink" xmlns="http://www.w3.org/2000/svg"><clipPath id="id_0"><path d="M0 0L624.0 0L624.0 243.0L0 243.0L0 0Z" clip-rule="nonzero"/></clipPath><path fill="#FFFFFF" fill-opacity="0.0" clip-path="url(#id_0)" d="M-50.405334 -71.30964L718.17224 -71.30964L718.17224 507.16672L-50.405334 507.16672Z" fill-rule="evenodd"/><path fill="#FFFFFF" fill-opacity="0.0" clip-path="url(#id_0)" d="M0 82.575714L436.3384 82.575714" fill-rule="evenodd"/><path stroke="#FFFFFF" stroke-width="0.6683493946765215" stroke-linejoin="round" stroke-linecap="butt" clip-path="url(#id_0)" d="M0 82.575714L434.05197 82.575714" fill-rule="evenodd"/><path fill="#FFFFFF" stroke="#FFFFFF" stroke-width="0.6683493946765215" stroke-linecap="butt" clip-path="url(#id_0)" d="M434.05197 82.575714L433.3017 83.32866L435.36307 82.575714L433.3017 81.82277Z" fill-rule="evenodd"/><path fill="#FFFFFF" fill-opacity="0.0" clip-path="url(#id_0)" d="M376.08667 24.519663L612.3797 24.519663L612.3797 50.478558L376.08667 50.478558Z" fill-rule="evenodd"/><path fill="#FFFFFF" clip-path="url(#id_0)" d="M382.87302 40.829483L382.87302 33.16124L385.34363 33.16124Q386.75092 33.16124 387.1783 33.276318Q387.83508 33.4437 388.2729 34.02954Q388.72116 34.60492 388.72116 35.515068Q388.72116 36.226444 388.46054 36.707672Q388.21036 37.1889 387.8142 37.460896Q387.42853 37.732895 387.02197 37.827045Q386.46945 37.93166 385.4166 37.93166L384.41583 37.93166L384.41583 40.829483L382.87302 40.829483ZM384.41583 34.458458L384.41583 36.63444L385.26022 36.63444Q386.16714 36.63444 386.46945 36.519367Q386.7822 36.39383 386.9594 36.142754Q387.13663 35.881218 387.13663 35.535988Q387.13663 35.11753 386.88644 34.845535Q386.64667 34.573536 386.2714 34.51077Q385.98993 34.458458 385.15598 34.458458L384.41583 34.458458ZM391.0771 36.969208L389.74277 36.728596Q389.9721 35.92306 390.51416 35.535988Q391.06665 35.148914 392.14038 35.148914Q393.1203 35.148914 393.59982 35.379066Q394.07935 35.60922 394.2774 35.97537Q394.47546 36.33106 394.47546 37.28305L394.45462 38.99873Q394.45462 39.73103 394.5276 40.08672Q394.60056 40.43195 394.7882 40.829483L393.3392 40.829483Q393.28708 40.68302 393.20367 40.390102Q393.162 40.264565 393.15155 40.222717Q392.77628 40.58887 392.34888 40.777176Q391.92148 40.95502 391.43152 40.95502Q390.57672 40.95502 390.08676 40.494717Q389.5968 40.023952 389.5968 39.312572Q389.5968 38.84181 389.81573 38.47566Q390.04507 38.099045 390.4412 37.91074Q390.84775 37.71197 391.60873 37.56551Q392.64078 37.36674 393.0369 37.19936L393.0369 37.0529Q393.0369 36.63444 392.8284 36.456596Q392.6199 36.26829 392.03613 36.26829Q391.65045 36.26829 391.43152 36.425213Q391.21262 36.582134 391.0771 36.969208ZM393.0369 38.16181Q392.75543 38.255966 392.14038 38.391964Q391.53577 38.5175 391.3481 38.64304Q391.05624 38.84181 391.05624 39.15565Q391.05624 39.469494 391.28558 39.699646Q391.51492 39.91934 391.86935 39.91934Q392.26547 39.91934 392.63034 39.657803Q392.89096 39.459034 392.97433 39.16611Q393.0369 38.977806 393.0369 38.454735L393.0369 38.16181ZM395.91928 34.52123L395.91928 33.16124L397.3787 33.16124L397.3787 34.52123L395.91928 34.52123ZM395.91928 40.829483L395.91928 35.274452L397.3787 35.274452L397.3787 40.829483L395.91928 40.829483ZM398.7704 35.274452L400.12555 35.274452L400.12555 36.027676Q400.84485 35.148914 401.8456 35.148914Q402.37726 35.148914 402.76294 35.368607Q403.1591 35.588295 403.40927 36.027676Q403.77414 35.588295 404.1911 35.368607Q404.61853 35.148914 405.09805 35.148914Q405.71307 35.148914 406.13007 35.39999Q406.55746 35.640602 406.76596 36.12183Q406.9119 36.47752 406.9119 37.27259L406.9119 40.829483L405.45248 40.829483L405.45248 37.6492Q405.45248 36.822746 405.2961 36.582134Q405.09805 36.26829 404.67062 36.26829Q404.36832 36.26829 404.0973 36.456596Q403.82626 36.6449 403.70117 37.011055Q403.5865 37.377205 403.5865 38.16181L403.5865 40.829483L402.11664 40.829483L402.11664 37.785202Q402.11664 36.969208 402.03323 36.739056Q401.96027 36.498444 401.7935 36.383366Q401.63712 36.26829 401.35565 36.26829Q401.01163 36.26829 400.7406 36.456596Q400.46957 36.63444 400.3549 36.979668Q400.24023 37.324898 400.24023 38.13043L400.24023 40.829483L398.7704 40.829483L398.7704 35.274452ZM409.47113 36.969208L408.13678 36.728596Q408.36612 35.92306 408.9082 35.535988Q409.4607 35.148914 410.53442 35.148914Q411.5143 35.148914 411.99384 35.379066Q412.4734 35.60922 412.67145 35.97537Q412.8695 36.33106 412.8695 37.28305L412.84866 38.99873Q412.84866 39.73103 412.92163 40.08672Q412.9946 40.43195 413.18225 40.829483L411.73325 40.829483Q411.68112 40.68302 411.59772 40.390102Q411.55603 40.264565 411.5456 40.222717Q411.17032 40.58887 410.74292 40.777176Q410.3155 40.95502 409.82556 40.95502Q408.97073 40.95502 408.4808 40.494717Q407.99084 40.023952 407.99084 39.312572Q407.99084 38.84181 408.20975 38.47566Q408.4391 38.099045 408.83524 37.91074Q409.2418 37.71197 410.00278 37.56551Q411.0348 37.36674 411.43094 37.19936L411.43094 37.0529Q411.43094 36.63444 411.22244 36.456596Q411.01395 36.26829 410.43018 36.26829Q410.04446 36.26829 409.82556 36.425213Q409.60663 36.582134 409.47113 36.969208ZM411.43094 38.16181Q411.14948 38.255966 410.53442 38.391964Q409.9298 38.5175 409.74216 38.64304Q409.45026 38.84181 409.45026 39.15565Q409.45026 39.469494 409.6796 39.699646Q409.90894 39.91934 410.2634 39.91934Q410.65952 39.91934 411.02438 39.657803Q411.28497 39.459034 411.36838 39.16611Q411.43094 38.977806 411.43094 38.454735L411.43094 38.16181ZM414.1465 38.779037L414.1465 37.314434L417.02368 37.314434L417.02368 38.779037L414.1465 38.779037ZM417.87848 40.829483L417.87848 33.16124L423.53897 33.16124L423.53897 34.458458L419.4213 34.458458L419.4213 36.153214L423.25754 36.153214L423.25754 37.450436L419.4213 37.450436L419.4213 39.532265L423.68494 39.532265L423.68494 40.829483L417.87848 40.829483ZM430.023 40.829483L428.55316 40.829483L428.55316 37.99443Q428.55316 37.094746 428.45935 36.83321Q428.36554 36.56121 428.15704 36.414753Q427.94855 36.26829 427.64624 36.26829Q427.27097 36.26829 426.96866 36.47752Q426.66632 36.68675 426.55167 37.031975Q426.43698 37.377205 426.43698 38.308273L426.43698 40.829483L424.97757 40.829483L424.97757 35.274452L426.33276 35.274452L426.33276 36.090446Q427.06247 35.148914 428.15704 35.148914Q428.647 35.148914 429.04312 35.32676Q429.44968 35.494144 429.64774 35.76614Q429.85623 36.03814 429.93964 36.383366Q430.023 36.728596 430.023 37.377205L430.023 40.829483ZM431.373 41.195633L433.04092 41.40486Q433.0826 41.697784 433.23898 41.8024Q433.44748 41.95932 433.89572 41.95932Q434.4691 41.95932 434.75055 41.791935Q434.9486 41.67686 435.04242 41.415325Q435.1154 41.23748 435.1154 40.73533L435.1154 39.9298Q434.45865 40.829483 433.4579 40.829483Q432.34247 40.829483 431.68573 39.87749Q431.17493 39.134727 431.17493 38.015354Q431.17493 36.62398 431.8421 35.891678Q432.51968 35.148914 433.51 35.148914Q434.54205 35.148914 435.2092 36.0486L435.2092 35.274452L436.57483 35.274452L436.57483 40.254105Q436.57483 41.24794 436.40802 41.729168Q436.25165 42.220856 435.95978 42.492855Q435.66788 42.775314 435.17795 42.932236Q434.69843 43.089157 433.94785 43.089157Q432.54053 43.089157 431.94635 42.59747Q431.36258 42.11624 431.36258 41.373478Q431.36258 41.300247 431.373 41.195633ZM432.67606 37.93166Q432.67606 38.820885 433.02008 39.22888Q433.36407 39.63688 433.86444 39.63688Q434.3961 39.63688 434.76096 39.21842Q435.13623 38.79996 435.13623 37.973507Q435.13623 37.105206 434.7818 36.68675Q434.42737 36.26829 433.8853 36.26829Q433.36407 36.26829 433.02008 36.68675Q432.67606 37.094746 432.67606 37.93166ZM438.02905 34.52123L438.02905 33.16124L439.48846 33.16124L439.48846 34.52123L438.02905 34.52123ZM438.02905 40.829483L438.02905 35.274452L439.48846 35.274452L439.48846 40.829483L438.02905 40.829483ZM446.02985 40.829483L444.56 40.829483L444.56 37.99443Q444.56 37.094746 444.46616 36.83321Q444.37234 36.56121 444.16385 36.414753Q443.95538 36.26829 443.65305 36.26829Q443.27777 36.26829 442.97546 36.47752Q442.67316 36.68675 442.55847 37.031975Q442.44382 37.377205 442.44382 38.308273L442.44382 40.829483L440.98438 40.829483L440.98438 35.274452L442.33957 35.274452L442.33957 36.090446Q443.06927 35.148914 444.16385 35.148914Q444.6538 35.148914 445.04993 35.32676Q445.4565 35.494144 445.65457 35.76614Q445.86307 36.03814 445.94644 36.383366Q446.02985 36.728596 446.02985 37.377205L446.02985 40.829483ZM450.71567 39.061497L452.17508 39.302113Q451.89362 40.107643 451.289 40.536564Q450.6844 40.95502 449.76703 40.95502Q448.32846 40.95502 447.63 40.00303Q447.08792 39.249805 447.08792 38.088585Q447.08792 36.707672 447.80722 35.933525Q448.52652 35.148914 449.6211 35.148914Q450.8616 35.148914 451.57047 35.96491Q452.28976 36.780903 452.25848 38.47566L448.58905 38.47566Q448.5995 39.124268 448.93307 39.490417Q449.27707 39.856567 449.78787 39.856567Q450.1319 39.856567 450.36124 39.668262Q450.60098 39.479958 450.71567 39.061497ZM450.79904 37.575974Q450.78864 36.937824 450.4759 36.603058Q450.16315 36.26829 449.7149 36.26829Q449.23538 36.26829 448.92264 36.62398Q448.6099 36.969208 448.6099 37.575974L450.79904 37.575974Z" fill-rule="nonzero"/><path fill="#FFFFFF" fill-opacity="0.0" clip-path="url(#id_0)" d="M0 191.91693L436.3384 191.91693" fill-rule="evenodd"/><path stroke="#FFFFFF" stroke-width="0.6683493946765215" stroke-linejoin="round" stroke-linecap="butt" clip-path="url(#id_0)" d="M0 191.91693L434.05197 191.91693" fill-rule="evenodd"/><path fill="#FFFFFF" stroke="#FFFFFF" stroke-width="0.6683493946765215" stroke-linecap="butt" clip-path="url(#id_0)" d="M434.05197 191.91693L433.3017 192.66988L435.36307 191.91693L433.3017 191.16399Z" fill-rule="evenodd"/><path fill="#FFFFFF" fill-opacity="0.0" clip-path="url(#id_0)" d="M376.08667 121.90418L624.0 121.90418L624.0 160.85307L376.08667 160.85307Z" fill-rule="evenodd"/><clipPath id="id_1"><path d="M-5.684342E-14 1.4210855E-14L624.0 1.4210855E-14L624.0 243.0L-5.684342E-14 243.0L-5.684342E-14 1.4210855E-14Z" clip-rule="nonzero"/></clipPath><path fill="#FFFFFF" clip-path="url(#id_1)" d="M384.59305 138.214L384.59305 131.84297L382.3205 131.84297L382.3205 130.54576L388.39798 130.54576L388.39798 131.84297L386.13586 131.84297L386.13586 138.214L384.59305 138.214ZM389.68542 134.35373L388.35107 134.11311Q388.5804 133.30759 389.1225 132.9205Q389.675 132.53343 390.74872 132.53343Q391.7286 132.53343 392.20816 132.76358Q392.68768 132.99374 392.88574 133.3599Q393.0838 133.71558 393.0838 134.66757L393.06296 136.38324Q393.06296 137.11555 393.13593 137.47124Q393.2089 137.81647 393.39655 138.214L391.94754 138.214Q391.89542 138.06754 391.812 137.77461Q391.77032 137.64908 391.7599 137.60724Q391.3846 137.97339 390.9572 138.1617Q390.52982 138.33954 390.03986 138.33954Q389.18503 138.33954 388.6951 137.87923Q388.20514 137.40846 388.20514 136.69708Q388.20514 136.22632 388.42404 135.86017Q388.65338 135.48357 389.04953 135.29526Q389.4561 135.09648 390.21707 134.95003Q391.24908 134.75127 391.64523 134.58388L391.64523 134.43742Q391.64523 134.01895 391.43674 133.84111Q391.22824 133.6528 390.64447 133.6528Q390.25876 133.6528 390.03986 133.80972Q389.82092 133.96664 389.68542 134.35373ZM391.64523 135.54633Q391.36377 135.64049 390.74872 135.77649Q390.1441 135.90202 389.95645 136.02756Q389.66458 136.22632 389.66458 136.54016Q389.66458 136.85402 389.89392 137.08417Q390.12326 137.30385 390.4777 137.30385Q390.8738 137.30385 391.23868 137.04231Q391.49927 136.84355 391.58267 136.55063Q391.64523 136.36232 391.64523 135.83925L391.64523 135.54633ZM395.92447 138.214L394.46506 138.214L394.46506 132.65897L395.82025 132.65897L395.82025 133.44357Q396.17468 132.88911 396.4457 132.71127Q396.72717 132.53343 397.0816 132.53343Q397.58197 132.53343 398.0511 132.80544L397.5924 134.0922Q397.22754 133.85158 396.9044 133.85158Q396.60208 133.85158 396.38315 134.01895Q396.17468 134.18634 396.0496 134.63618Q395.92447 135.07556 395.92447 136.49832L395.92447 138.214ZM398.54623 138.58015L400.21417 138.78938Q400.25586 139.0823 400.41223 139.18692Q400.62073 139.34384 401.06897 139.34384Q401.64233 139.34384 401.92377 139.17645Q402.12186 139.06137 402.21567 138.79984Q402.28864 138.622 402.28864 138.11984L402.28864 137.31432Q401.6319 138.214 400.63113 138.214Q399.51572 138.214 398.85898 137.26201Q398.34818 136.51924 398.34818 135.39987Q398.34818 134.0085 399.01535 133.2762Q399.69293 132.53343 400.68326 132.53343Q401.7153 132.53343 402.38245 133.43312L402.38245 132.65897L403.74808 132.65897L403.74808 137.63863Q403.74808 138.63246 403.58127 139.11368Q403.4249 139.60538 403.13303 139.87737Q402.84113 140.15984 402.3512 140.31676Q401.87167 140.47368 401.1211 140.47368Q399.71378 140.47368 399.1196 139.98198Q398.53583 139.50076 398.53583 138.758Q398.53583 138.68477 398.54623 138.58015ZM399.8493 135.31618Q399.8493 136.2054 400.19333 136.6134Q400.53732 137.0214 401.0377 137.0214Q401.56934 137.0214 401.9342 136.60294Q402.30948 136.18448 402.30948 135.35802Q402.30948 134.48973 401.95505 134.07126Q401.60062 133.6528 401.05856 133.6528Q400.53732 133.6528 400.19333 134.07126Q399.8493 134.47926 399.8493 135.31618ZM408.40262 136.44601L409.86203 136.68663Q409.58057 137.49216 408.97595 137.92108Q408.37134 138.33954 407.45398 138.33954Q406.0154 138.33954 405.31696 137.38754Q404.77487 136.63432 404.77487 135.4731Q404.77487 134.0922 405.49417 133.31804Q406.21347 132.53343 407.30804 132.53343Q408.54855 132.53343 409.25742 133.34943Q409.9767 134.16542 409.94543 135.86017L406.276 135.86017Q406.28644 136.50879 406.62003 136.87494Q406.96402 137.24109 407.47482 137.24109Q407.81885 137.24109 408.0482 137.05278Q408.28793 136.86447 408.40262 136.44601ZM408.486 134.9605Q408.4756 134.32234 408.16284 133.98758Q407.8501 133.6528 407.40186 133.6528Q406.92233 133.6528 406.6096 134.0085Q406.29688 134.35373 406.29688 134.9605L408.486 134.9605ZM413.67218 132.65897L413.67218 133.83066L412.67145 133.83066L412.67145 136.0694Q412.67145 136.74939 412.70273 136.86447Q412.73398 136.96909 412.82782 137.04231Q412.93207 137.11555 413.078 137.11555Q413.2865 137.11555 413.67218 136.97955L413.7973 138.11984Q413.2865 138.33954 412.64017 138.33954Q412.24405 138.33954 411.92087 138.20354Q411.60815 138.06754 411.45178 137.8583Q411.30585 137.64908 411.25372 137.28293Q411.2016 137.03186 411.2016 136.24725L411.2016 133.83066L410.53442 133.83066L410.53442 132.65897L411.2016 132.65897L411.2016 131.55005L412.67145 130.69221L412.67145 132.65897L413.67218 132.65897ZM417.66998 130.54576L420.72437 130.54576Q421.6313 130.54576 422.07956 130.61899Q422.5278 130.69221 422.87183 130.93283Q423.22626 131.17345 423.4556 131.58144Q423.69534 131.97897 423.69534 132.47066Q423.69534 133.01466 423.40347 133.46451Q423.122 133.91434 422.62164 134.13403Q423.32007 134.34326 423.69534 134.83495Q424.07065 135.32664 424.07065 135.98572Q424.07065 136.50879 423.83087 137.01094Q423.5911 137.50262 423.1637 137.79555Q422.74673 138.08846 422.13168 138.1617Q421.74597 138.20354 420.27612 138.214L417.66998 138.214L417.66998 130.54576ZM419.21283 131.82205L419.21283 133.59004L420.224 133.59004Q421.13092 133.59004 421.34985 133.56912Q421.74597 133.51682 421.96487 133.29712Q422.1942 133.06697 422.1942 132.69035Q422.1942 132.33467 421.99615 132.11497Q421.8085 131.89528 421.42282 131.84297Q421.19348 131.82205 420.0989 131.82205L419.21283 131.82205ZM419.21283 134.86633L419.21283 136.91678L420.64096 136.91678Q421.47495 136.91678 421.70428 136.87494Q422.04828 136.81216 422.25677 136.57155Q422.47568 136.32048 422.47568 135.91248Q422.47568 135.56726 422.3089 135.32664Q422.1421 135.08603 421.82938 134.98141Q421.51663 134.86633 420.46375 134.86633L419.21283 134.86633ZM425.36847 138.214L425.36847 130.54576L426.8279 130.54576L426.8279 138.214L425.36847 138.214ZM427.99023 135.35802Q427.99023 134.62572 428.34467 133.94572Q428.70953 133.25528 429.36627 132.89958Q430.03345 132.53343 430.84656 132.53343Q432.0975 132.53343 432.90018 133.34943Q433.70288 134.16542 433.70288 135.42079Q433.70288 136.67616 432.88977 137.51308Q432.08707 138.33954 430.857 138.33954Q430.096 138.33954 429.39755 137.99431Q428.70953 137.64908 428.34467 136.97955Q427.99023 136.31001 427.99023 135.35802ZM429.49136 135.43126Q429.49136 136.2577 429.87708 136.69708Q430.27322 137.13647 430.84656 137.13647Q431.41992 137.13647 431.8056 136.69708Q432.20175 136.2577 432.20175 135.42079Q432.20175 134.6048 431.8056 134.16542Q431.41992 133.72604 430.84656 133.72604Q430.27322 133.72604 429.87708 134.16542Q429.49136 134.6048 429.49136 135.43126ZM439.68134 134.30142L438.23233 134.56296Q438.15933 134.12357 437.89874 133.90388Q437.64856 133.68419 437.23157 133.68419Q436.68948 133.68419 436.3559 134.07126Q436.03275 134.44788 436.03275 135.3371Q436.03275 136.32048 436.36633 136.72847Q436.69992 137.13647 437.2524 137.13647Q437.6694 137.13647 437.93 136.90633Q438.20105 136.66571 438.3157 136.07986L439.7543 136.33093Q439.52496 137.32478 438.88907 137.83739Q438.25317 138.33954 437.18988 138.33954Q435.9702 138.33954 435.25092 137.57585Q434.53162 136.8017 434.53162 135.44171Q434.53162 134.0608 435.25092 133.29712Q435.98062 132.53343 437.21072 132.53343Q438.2219 132.53343 438.8161 132.97281Q439.42072 133.40173 439.68134 134.30142ZM440.7394 138.214L440.7394 130.54576L442.19885 130.54576L442.19885 134.61526L443.91888 132.65897L445.72232 132.65897L443.82507 134.68849L445.85785 138.214L444.27332 138.214L442.88687 135.71371L442.19885 136.43555L442.19885 138.214L440.7394 138.214ZM451.55484 134.30142L450.10583 134.56296Q450.03287 134.12357 449.77225 133.90388Q449.52206 133.68419 449.10507 133.68419Q448.563 133.68419 448.2294 134.07126Q447.90625 134.44788 447.90625 135.3371Q447.90625 136.32048 448.23984 136.72847Q448.57343 137.13647 449.12592 137.13647Q449.5429 137.13647 449.80353 136.90633Q450.07455 136.66571 450.1892 136.07986L451.6278 136.33093Q451.39847 137.32478 450.76257 137.83739Q450.12668 138.33954 449.0634 138.33954Q447.84372 138.33954 447.12442 137.57585Q446.40512 136.8017 446.40512 135.44171Q446.40512 134.0608 447.12442 133.29712Q447.85413 132.53343 449.08423 132.53343Q450.0954 132.53343 450.6896 132.97281Q451.29422 133.40173 451.55484 134.30142ZM454.12448 130.54576L454.12448 133.3599Q454.83334 132.53343 455.81323 132.53343Q456.32404 132.53343 456.7306 132.72174Q457.13715 132.91005 457.3352 133.20297Q457.5437 133.49588 457.61667 133.85158Q457.70007 134.20726 457.70007 134.95003L457.70007 138.214L456.23022 138.214L456.23022 135.27434Q456.23022 134.40604 456.14682 134.17587Q456.06342 133.93527 455.85495 133.79927Q455.64645 133.6528 455.32327 133.6528Q454.95844 133.6528 454.66653 133.83066Q454.38507 134.0085 454.24957 134.37465Q454.12448 134.73033 454.12448 135.43126L454.12448 138.214L452.6546 138.214L452.6546 130.54576L454.12448 130.54576ZM460.28015 134.35373L458.9458 134.11311Q459.17514 133.30759 459.71722 132.9205Q460.2697 132.53343 461.34344 132.53343Q462.32333 132.53343 462.80286 132.76358Q463.28238 132.99374 463.48047 133.3599Q463.67853 133.71558 463.67853 134.66757L463.65768 136.38324Q463.65768 137.11555 463.73065 137.47124Q463.80362 137.81647 463.99127 138.214L462.54227 138.214Q462.49014 138.06754 462.40674 137.77461Q462.36505 137.64908 462.3546 137.60724Q461.97934 137.97339 461.55194 138.1617Q461.1245 138.33954 460.63458 138.33954Q459.77975 138.33954 459.2898 137.87923Q458.79987 137.40846 458.79987 136.69708Q458.79987 136.22632 459.01877 135.86017Q459.2481 135.48357 459.64426 135.29526Q460.0508 135.09648 460.8118 134.95003Q461.8438 134.75127 462.23993 134.58388L462.23993 134.43742Q462.23993 134.01895 462.03146 133.84111Q461.82297 133.6528 461.2392 133.6528Q460.8535 133.6528 460.63458 133.80972Q460.41565 133.96664 460.28015 134.35373ZM462.23993 135.54633Q461.9585 135.64049 461.34344 135.77649Q460.73883 135.90202 460.55118 136.02756Q460.25928 136.22632 460.25928 136.54016Q460.25928 136.85402 460.48862 137.08417Q460.71796 137.30385 461.0724 137.30385Q461.46854 137.30385 461.83337 137.04231Q462.094 136.84355 462.1774 136.55063Q462.23993 136.36232 462.23993 135.83925L462.23993 135.54633ZM465.1223 131.90575L465.1223 130.54576L466.58176 130.54576L466.58176 131.90575L465.1223 131.90575ZM465.1223 138.214L465.1223 132.65897L466.58176 132.65897L466.58176 138.214L465.1223 138.214ZM473.1231 138.214L471.65326 138.214L471.65326 135.37895Q471.65326 134.47926 471.55945 134.21773Q471.46564 133.94572 471.25714 133.79927Q471.04865 133.6528 470.74634 133.6528Q470.37106 133.6528 470.06876 133.86203Q469.76642 134.07126 469.65176 134.41649Q469.53708 134.76172 469.53708 135.6928L469.53708 138.214L468.07767 138.214L468.07767 132.65897L469.43286 132.65897L469.43286 133.47496Q470.16257 132.53343 471.25714 132.53343Q471.7471 132.53343 472.14322 132.71127Q472.54977 132.87866 472.74783 133.15067Q472.95633 133.42265 473.03973 133.76788Q473.1231 134.11311 473.1231 134.76172L473.1231 138.214ZM478.6064 138.214L476.8551 132.65897L478.27283 132.65897L479.31528 136.29956L480.26392 132.65897L481.68164 132.65897L482.599 136.29956L483.6623 132.65897L485.10086 132.65897L483.3287 138.214L481.9214 138.214L480.96234 134.63618L480.02414 138.214L478.6064 138.214ZM485.8775 131.90575L485.8775 130.54576L487.3369 130.54576L487.3369 131.90575L485.8775 131.90575ZM485.8775 138.214L485.8775 132.65897L487.3369 132.65897L487.3369 138.214L485.8775 138.214ZM491.37643 132.65897L491.37643 133.83066L490.37567 133.83066L490.37567 136.0694Q490.37567 136.74939 490.40695 136.86447Q490.43823 136.96909 490.53204 137.04231Q490.6363 137.11555 490.78223 137.11555Q490.99072 137.11555 491.37643 136.97955L491.50153 138.11984Q490.99072 138.33954 490.3444 138.33954Q489.94827 138.33954 489.62512 138.20354Q489.31238 138.06754 489.156 137.8583Q489.01007 137.64908 488.95795 137.28293Q488.90582 137.03186 488.90582 136.24725L488.90582 133.83066L488.23865 133.83066L488.23865 132.65897L488.90582 132.65897L488.90582 131.55005L490.37567 130.69221L490.37567 132.65897L491.37643 132.65897ZM493.85745 130.54576L493.85745 133.3599Q494.5663 132.53343 495.54623 132.53343Q496.05704 132.53343 496.4636 132.72174Q496.87015 132.91005 497.0682 133.20297Q497.2767 133.49588 497.34967 133.85158Q497.43304 134.20726 497.43304 134.95003L497.43304 138.214L495.9632 138.214L495.9632 135.27434Q495.9632 134.40604 495.87982 134.17587Q495.79642 133.93527 495.58792 133.79927Q495.37943 133.6528 495.05627 133.6528Q494.6914 133.6528 494.39954 133.83066Q494.11807 134.0085 493.98254 134.37465Q493.85745 134.73033 493.85745 135.43126L493.85745 138.214L492.3876 138.214L492.3876 130.54576L493.85745 130.54576ZM498.57455 135.35802Q498.57455 134.62572 498.929 133.94572Q499.29382 133.25528 499.95056 132.89958Q500.61774 132.53343 501.43085 132.53343Q502.6818 132.53343 503.48447 133.34943Q504.28717 134.16542 504.28717 135.42079Q504.28717 136.67616 503.47406 137.51308Q502.67136 138.33954 501.44128 138.33954Q500.6803 138.33954 499.98184 137.99431Q499.29382 137.64908 498.929 136.97955Q498.57455 136.31001 498.57455 135.35802ZM500.07568 135.43126Q500.07568 136.2577 500.46136 136.69708Q500.8575 137.13647 501.43085 137.13647Q502.0042 137.13647 502.38992 136.69708Q502.78604 136.2577 502.78604 135.42079Q502.78604 134.6048 502.38992 134.16542Q502.0042 133.72604 501.43085 133.72604Q500.8575 133.72604 500.46136 134.16542Q500.07568 134.6048 500.07568 135.43126ZM509.07724 138.214L509.07724 137.37709Q508.7749 137.82692 508.28497 138.08846Q507.795 138.33954 507.24252 138.33954Q506.69 138.33954 506.24176 138.09892Q505.80392 137.84785 505.60587 137.40846Q505.4078 136.95863 505.4078 136.17401L505.4078 132.65897L506.86722 132.65897L506.86722 135.21156Q506.86722 136.38324 506.95062 136.64478Q507.03403 136.90633 507.24252 137.06325Q507.46143 137.22017 507.78458 137.22017Q508.15988 137.22017 508.45175 137.01094Q508.75406 136.8017 508.8583 136.49832Q508.973 136.19495 508.973 135.00233L508.973 132.65897L510.44284 132.65897L510.44284 138.214L509.07724 138.214ZM514.49274 132.65897L514.49274 133.83066L513.492 133.83066L513.492 136.0694Q513.492 136.74939 513.52325 136.86447Q513.55457 136.96909 513.6484 137.04231Q513.7526 137.11555 513.89856 137.11555Q514.10706 137.11555 514.49274 136.97955L514.61786 138.11984Q514.10706 138.33954 513.46075 138.33954Q513.0646 138.33954 512.74146 138.20354Q512.4287 138.06754 512.27234 137.8583Q512.1264 137.64908 512.0743 137.28293Q512.02216 137.03186 512.02216 136.24725L512.02216 133.83066L511.35498 133.83066L511.35498 132.65897L512.02216 132.65897L512.02216 131.55005L513.492 130.69221L513.492 132.65897L514.49274 132.65897Z" fill-rule="nonzero"/><path fill="#FFFFFF" clip-path="url(#id_1)" d="M382.87302 143.40079L385.9274 143.40079Q386.83432 143.40079 387.28256 143.47401Q387.73083 143.54724 388.07483 143.78786Q388.42926 144.02847 388.6586 144.43648Q388.89838 144.834 388.89838 145.3257Q388.89838 145.86969 388.60648 146.31953Q388.325 146.76938 387.82465 146.98906Q388.52307 147.19829 388.89838 147.68999Q389.27365 148.18167 389.27365 148.84074Q389.27365 149.36382 389.03387 149.86597Q388.79413 150.35765 388.36673 150.65057Q387.94974 150.9435 387.3347 151.01672Q386.94897 151.05856 385.47913 151.06903L382.87302 151.06903L382.87302 143.40079ZM384.41583 144.67708L384.41583 146.44507L385.427 146.44507Q386.33395 146.44507 386.55286 146.42415Q386.94897 146.37184 387.1679 146.15215Q387.39725 145.922 387.39725 145.54538Q387.39725 145.1897 387.1992 144.97Q387.01154 144.75032 386.62582 144.69801Q386.39648 144.67708 385.3019 144.67708L384.41583 144.67708ZM384.41583 147.72136L384.41583 149.7718L385.844 149.7718Q386.67795 149.7718 386.9073 149.72997Q387.2513 149.66719 387.45978 149.42659Q387.6787 149.1755 387.6787 148.76752Q387.6787 148.42229 387.5119 148.18167Q387.34512 147.94106 387.03238 147.83644Q386.71964 147.72136 385.66678 147.72136L384.41583 147.72136ZM390.5715 151.06903L390.5715 143.40079L392.03094 143.40079L392.03094 151.06903L390.5715 151.06903ZM393.19327 148.21306Q393.19327 147.48076 393.5477 146.80077Q393.91257 146.1103 394.5693 145.75461Q395.23645 145.38846 396.0496 145.38846Q397.3005 145.38846 398.1032 146.20445Q398.90588 147.02045 398.90588 148.27582Q398.90588 149.5312 398.09277 150.36812Q397.2901 151.19456 396.06 151.19456Q395.299 151.19456 394.60056 150.84933Q393.91257 150.50412 393.5477 149.83458Q393.19327 149.16505 393.19327 148.21306ZM394.6944 148.28629Q394.6944 149.11275 395.0801 149.55212Q395.47623 149.9915 396.0496 149.9915Q396.62292 149.9915 397.00864 149.55212Q397.40475 149.11275 397.40475 148.27582Q397.40475 147.45982 397.00864 147.02045Q396.62292 146.58107 396.0496 146.58107Q395.47623 146.58107 395.0801 147.02045Q394.6944 147.45982 394.6944 148.28629ZM404.88434 147.15645L403.43533 147.41798Q403.36237 146.9786 403.10175 146.75891Q402.85156 146.53923 402.43457 146.53923Q401.89252 146.53923 401.55893 146.9263Q401.23578 147.3029 401.23578 148.19214Q401.23578 149.1755 401.56934 149.58351Q401.90292 149.9915 402.45544 149.9915Q402.8724 149.9915 403.13303 149.76135Q403.40405 149.52074 403.51874 148.93489L404.9573 149.18597Q404.72797 150.17981 404.09207 150.69241Q403.45618 151.19456 402.39288 151.19456Q401.17322 151.19456 400.45392 150.43088Q399.73465 149.65674 399.73465 148.29675Q399.73465 146.91583 400.45392 146.15215Q401.18365 145.38846 402.41373 145.38846Q403.4249 145.38846 404.0191 145.82785Q404.62372 146.25676 404.88434 147.15645ZM405.9424 151.06903L405.9424 143.40079L407.40186 143.40079L407.40186 147.47029L409.1219 145.514L410.92532 145.514L409.02808 147.54352L411.06085 151.06903L409.47632 151.06903L408.08987 148.56874L407.40186 149.29059L407.40186 151.06903L405.9424 151.06903ZM414.76157 151.43518L416.42947 151.64441Q416.47116 151.93733 416.62753 152.04195Q416.83603 152.19887 417.28427 152.19887Q417.85764 152.19887 418.1391 152.03148Q418.33716 151.91641 418.43097 151.65488Q418.50394 151.47702 418.50394 150.97488L418.50394 150.16934Q417.8472 151.06903 416.84647 151.06903Q415.73102 151.06903 415.07428 150.11703Q414.56348 149.37428 414.56348 148.2549Q414.56348 146.86353 415.23065 146.13123Q415.90826 145.38846 416.8986 145.38846Q417.9306 145.38846 418.59778 146.28815L418.59778 145.514L419.96338 145.514L419.96338 150.49365Q419.96338 151.48749 419.7966 151.96872Q419.64023 152.4604 419.34833 152.7324Q419.05646 153.01486 418.5665 153.17178Q418.08698 153.3287 417.3364 153.3287Q415.9291 153.3287 415.3349 152.83702Q414.75113 152.35579 414.75113 151.61302Q414.75113 151.5398 414.76157 151.43518ZM416.0646 148.1712Q416.0646 149.06044 416.40863 149.46843Q416.75262 149.87642 417.25302 149.87642Q417.78467 149.87642 418.1495 149.45796Q418.5248 149.0395 418.5248 148.21306Q418.5248 147.34476 418.17038 146.9263Q417.81595 146.50784 417.27386 146.50784Q416.75262 146.50784 416.40863 146.9263Q416.0646 147.33429 416.0646 148.1712ZM424.61792 149.30104L426.07736 149.54166Q425.7959 150.3472 425.19125 150.77611Q424.58664 151.19456 423.66928 151.19456Q422.2307 151.19456 421.53226 150.24257Q420.9902 149.48935 420.9902 148.32812Q420.9902 146.94722 421.70947 146.17307Q422.42877 145.38846 423.52335 145.38846Q424.76385 145.38846 425.47272 146.20445Q426.19202 147.02045 426.16074 148.71521L422.49133 148.71521Q422.50174 149.36382 422.83533 149.72997Q423.17935 150.09612 423.69012 150.09612Q424.03415 150.09612 424.2635 149.9078Q424.50327 149.7195 424.61792 149.30104ZM424.70132 147.81552Q424.6909 147.17737 424.37814 146.8426Q424.06543 146.50784 423.61716 146.50784Q423.13763 146.50784 422.82492 146.86353Q422.51218 147.20876 422.51218 147.81552L424.70132 147.81552ZM432.38937 151.06903L430.91953 151.06903L430.91953 148.23398Q430.91953 147.33429 430.8257 147.07275Q430.7319 146.80077 430.5234 146.6543Q430.3149 146.50784 430.0126 146.50784Q429.63733 146.50784 429.33502 146.71707Q429.03268 146.9263 428.91803 147.27153Q428.80334 147.61674 428.80334 148.54782L428.80334 151.06903L427.34393 151.06903L427.34393 145.514L428.69913 145.514L428.69913 146.32999Q429.42883 145.38846 430.5234 145.38846Q431.01334 145.38846 431.4095 145.56631Q431.81604 145.73369 432.0141 146.00569Q432.2226 146.27768 432.306 146.62291Q432.38937 146.96814 432.38937 147.61674L432.38937 151.06903ZM437.0752 149.30104L438.53464 149.54166Q438.25317 150.3472 437.64856 150.77611Q437.0439 151.19456 436.12656 151.19456Q434.688 151.19456 433.98953 150.24257Q433.44748 149.48935 433.44748 148.32812Q433.44748 146.94722 434.16675 146.17307Q434.88605 145.38846 435.98062 145.38846Q437.22113 145.38846 437.93 146.20445Q438.6493 147.02045 438.618 148.71521L434.9486 148.71521Q434.959 149.36382 435.2926 149.72997Q435.63663 150.09612 436.14743 150.09612Q436.49142 150.09612 436.72076 149.9078Q436.96054 149.7195 437.0752 149.30104ZM437.1586 147.81552Q437.14816 147.17737 436.83545 146.8426Q436.5227 146.50784 436.07443 146.50784Q435.5949 146.50784 435.2822 146.86353Q434.96945 147.20876 434.96945 147.81552L437.1586 147.81552ZM441.20853 151.06903L439.74908 151.06903L439.74908 145.514L441.10428 145.514L441.10428 146.29861Q441.4587 145.74416 441.72974 145.56631Q442.0112 145.38846 442.36563 145.38846Q442.866 145.38846 443.3351 145.66046L442.87643 146.94722Q442.51157 146.7066 442.18842 146.7066Q441.8861 146.7066 441.6672 146.874Q441.4587 147.04137 441.33362 147.49121Q441.20853 147.9306 441.20853 149.35335L441.20853 151.06903ZM445.06036 147.20876L443.72604 146.96814Q443.95538 146.16261 444.49744 145.77554Q445.04993 145.38846 446.12366 145.38846Q447.10358 145.38846 447.5831 145.61862Q448.06262 145.84877 448.26068 146.21492Q448.45874 146.5706 448.45874 147.5226L448.4379 149.23828Q448.4379 149.97058 448.51086 150.32626Q448.58386 150.6715 448.77148 151.06903L447.32248 151.06903Q447.27036 150.92258 447.18695 150.62965Q447.14526 150.50412 447.13483 150.46227Q446.75955 150.82841 446.33215 151.01672Q445.90475 151.19456 445.4148 151.19456Q444.56 151.19456 444.07004 150.73427Q443.58008 150.2635 443.58008 149.55212Q443.58008 149.08136 443.799 148.71521Q444.02835 148.3386 444.42447 148.15028Q444.83102 147.95152 445.592 147.80505Q446.62405 147.6063 447.02017 147.4389L447.02017 147.29245Q447.02017 146.874 446.81168 146.69615Q446.60318 146.50784 446.0194 146.50784Q445.63373 146.50784 445.4148 146.66476Q445.1959 146.82169 445.06036 147.20876ZM447.02017 148.40137Q446.7387 148.49551 446.12366 148.63152Q445.51904 148.75705 445.3314 148.88258Q445.03952 149.08136 445.03952 149.3952Q445.03952 149.70905 445.26886 149.9392Q445.4982 150.15889 445.85263 150.15889Q446.24875 150.15889 446.61362 149.89735Q446.87424 149.69858 446.9576 149.40565Q447.02017 149.21736 447.02017 148.69427L447.02017 148.40137ZM452.4357 145.514L452.4357 146.68568L451.43494 146.68568L451.43494 148.92444Q451.43494 149.60443 451.46622 149.7195Q451.4975 149.82411 451.5913 149.89735Q451.69556 149.97058 451.8415 149.97058Q452.05 149.97058 452.4357 149.83458L452.5608 150.97488Q452.05 151.19456 451.4037 151.19456Q451.00754 151.19456 450.6844 151.05856Q450.37164 150.92258 450.21527 150.71335Q450.06934 150.50412 450.0172 150.13795Q449.9651 149.88689 449.9651 149.10228L449.9651 146.68568L449.2979 146.68568L449.2979 145.514L449.9651 145.514L449.9651 144.40509L451.43494 143.54724L451.43494 145.514L452.4357 145.514ZM453.4573 144.76077L453.4573 143.40079L454.91672 143.40079L454.91672 144.76077L453.4573 144.76077ZM453.4573 151.06903L453.4573 145.514L454.91672 145.514L454.91672 151.06903L453.4573 151.06903ZM456.07907 148.21306Q456.07907 147.48076 456.4335 146.80077Q456.79834 146.1103 457.4551 145.75461Q458.12225 145.38846 458.93536 145.38846Q460.1863 145.38846 460.989 146.20445Q461.7917 147.02045 461.7917 148.27582Q461.7917 149.5312 460.97858 150.36812Q460.1759 151.19456 458.9458 151.19456Q458.1848 151.19456 457.48636 150.84933Q456.79834 150.50412 456.4335 149.83458Q456.07907 149.16505 456.07907 148.21306ZM457.5802 148.28629Q457.5802 149.11275 457.9659 149.55212Q458.36203 149.9915 458.93536 149.9915Q459.50873 149.9915 459.89444 149.55212Q460.29056 149.11275 460.29056 148.27582Q460.29056 147.45982 459.89444 147.02045Q459.50873 146.58107 458.93536 146.58107Q458.36203 146.58107 457.9659 147.02045Q457.5802 147.45982 457.5802 148.28629ZM467.97864 151.06903L466.5088 151.06903L466.5088 148.23398Q466.5088 147.33429 466.41495 147.07275Q466.32114 146.80077 466.11264 146.6543Q465.90414 146.50784 465.60184 146.50784Q465.22656 146.50784 464.92426 146.71707Q464.62195 146.9263 464.50726 147.27153Q464.3926 147.61674 464.3926 148.54782L464.3926 151.06903L462.93317 151.06903L462.93317 145.514L464.28836 145.514L464.28836 146.32999Q465.01807 145.38846 466.11264 145.38846Q466.6026 145.38846 466.99872 145.56631Q467.40527 145.73369 467.60336 146.00569Q467.81183 146.27768 467.89523 146.62291Q467.97864 146.96814 467.97864 147.61674L467.97864 151.06903ZM473.4619 151.06903L471.7106 145.514L473.12833 145.514L474.17078 149.15459L475.11942 145.514L476.53714 145.514L477.4545 149.15459L478.5178 145.514L479.9564 145.514L478.1842 151.06903L476.77692 151.06903L475.81784 147.49121L474.87964 151.06903L473.4619 151.06903ZM480.733 144.76077L480.733 143.40079L482.19244 143.40079L482.19244 144.76077L480.733 144.76077ZM480.733 151.06903L480.733 145.514L482.19244 145.514L482.19244 151.06903L480.733 151.06903ZM486.23193 145.514L486.23193 146.68568L485.23117 146.68568L485.23117 148.92444Q485.23117 149.60443 485.26245 149.7195Q485.29373 149.82411 485.38754 149.89735Q485.4918 149.97058 485.63773 149.97058Q485.84622 149.97058 486.23193 149.83458L486.35703 150.97488Q485.84622 151.19456 485.19992 151.19456Q484.80377 151.19456 484.48062 151.05856Q484.16788 150.92258 484.0115 150.71335Q483.86557 150.50412 483.81345 150.13795Q483.76132 149.88689 483.76132 149.10228L483.76132 146.68568L483.09415 146.68568L483.09415 145.514L483.76132 145.514L483.76132 144.40509L485.23117 143.54724L485.23117 145.514L486.23193 145.514ZM488.71295 143.40079L488.71295 146.21492Q489.4218 145.38846 490.40173 145.38846Q490.91254 145.38846 491.3191 145.57677Q491.72565 145.76508 491.9237 146.058Q492.1322 146.35092 492.20517 146.7066Q492.28857 147.0623 492.28857 147.80505L492.28857 151.06903L490.81873 151.06903L490.81873 148.12936Q490.81873 147.26106 490.73532 147.03091Q490.65192 146.7903 490.44342 146.6543Q490.23495 146.50784 489.91177 146.50784Q489.54694 146.50784 489.25504 146.68568Q488.97357 146.86353 488.83804 147.22968Q488.71295 147.58537 488.71295 148.28629L488.71295 151.06903L487.2431 151.06903L487.2431 143.40079L488.71295 143.40079ZM501.56638 147.15645L500.11737 147.41798Q500.0444 146.9786 499.78378 146.75891Q499.5336 146.53923 499.1166 146.53923Q498.57455 146.53923 498.24097 146.9263Q497.9178 147.3029 497.9178 148.19214Q497.9178 149.1755 498.25137 149.58351Q498.58496 149.9915 499.13745 149.9915Q499.55444 149.9915 499.81506 149.76135Q500.0861 149.52074 500.20078 148.93489L501.63934 149.18597Q501.41 150.17981 500.7741 150.69241Q500.1382 151.19456 499.07492 151.19456Q497.85526 151.19456 497.13596 150.43088Q496.41666 149.65674 496.41666 148.29675Q496.41666 146.91583 497.13596 146.15215Q497.86566 145.38846 499.09576 145.38846Q500.10693 145.38846 500.70114 145.82785Q501.30576 146.25676 501.56638 147.15645ZM502.33258 148.21306Q502.33258 147.48076 502.687 146.80077Q503.05185 146.1103 503.70862 145.75461Q504.37576 145.38846 505.18887 145.38846Q506.43982 145.38846 507.24252 146.20445Q508.0452 147.02045 508.0452 148.27582Q508.0452 149.5312 507.2321 150.36812Q506.4294 151.19456 505.1993 151.19456Q504.43832 151.19456 503.73987 150.84933Q503.05185 150.50412 502.687 149.83458Q502.33258 149.16505 502.33258 148.21306ZM503.8337 148.28629Q503.8337 149.11275 504.21942 149.55212Q504.61554 149.9915 505.18887 149.9915Q505.76224 149.9915 506.14795 149.55212Q506.54407 149.11275 506.54407 148.27582Q506.54407 147.45982 506.14795 147.02045Q505.76224 146.58107 505.18887 146.58107Q504.61554 146.58107 504.21942 147.02045Q503.8337 147.45982 503.8337 148.28629ZM514.2321 151.06903L512.76227 151.06903L512.76227 148.23398Q512.76227 147.33429 512.66846 147.07275Q512.57465 146.80077 512.36615 146.6543Q512.15765 146.50784 511.85535 146.50784Q511.48007 146.50784 511.17776 146.71707Q510.87546 146.9263 510.76077 147.27153Q510.64612 147.61674 510.64612 148.54782L510.64612 151.06903L509.18668 151.06903L509.18668 145.514L510.54187 145.514L510.54187 146.32999Q511.27158 145.38846 512.36615 145.38846Q512.8561 145.38846 513.25226 145.56631Q513.6588 145.73369 513.8569 146.00569Q514.06537 146.27768 514.14874 146.62291Q514.2321 146.96814 514.2321 147.61674L514.2321 151.06903ZM515.1964 149.4789L516.66626 149.2592Q516.7601 149.68813 517.04156 149.9078Q517.33344 150.1275 517.8547 150.1275Q518.4176 150.1275 518.7095 149.91827Q518.8971 149.7718 518.8971 149.5312Q518.8971 149.36382 518.79285 149.24873Q518.6886 149.14412 518.3029 149.06044Q516.53076 148.6629 516.06165 148.3386Q515.4049 147.88875 515.4049 147.09367Q515.4049 146.37184 515.96783 145.88016Q516.54114 145.38846 517.72955 145.38846Q518.86584 145.38846 519.41833 145.76508Q519.9708 146.13123 520.1793 146.85307L518.8033 147.11461Q518.7095 146.7903 518.4593 146.62291Q518.2195 146.44507 517.76086 146.44507Q517.17706 146.44507 516.9269 146.60199Q516.7601 146.71707 516.7601 146.90538Q516.7601 147.0623 516.906 147.16692Q517.10406 147.31337 518.2716 147.58537Q519.4496 147.84691 519.90826 148.23398Q520.36694 148.63152 520.36694 149.33243Q520.36694 150.09612 519.7311 150.65057Q519.09515 151.19456 517.8547 151.19456Q516.7184 151.19456 516.06165 150.73427Q515.4049 150.27396 515.1964 149.4789ZM524.18756 145.514L524.18756 146.68568L523.18677 146.68568L523.18677 148.92444Q523.18677 149.60443 523.2181 149.7195Q523.2493 149.82411 523.34314 149.89735Q523.4474 149.97058 523.5933 149.97058Q523.8018 149.97058 524.18756 149.83458L524.3126 150.97488Q523.8018 151.19456 523.1555 151.19456Q522.7594 151.19456 522.4362 151.05856Q522.1235 150.92258 521.9671 150.71335Q521.82117 150.50412 521.76904 150.13795Q521.7169 149.88689 521.7169 149.10228L521.7169 146.68568L521.04974 146.68568L521.04974 145.514L521.7169 145.514L521.7169 144.40509L523.18677 143.54724L523.18677 145.514L524.18756 145.514ZM526.3037 147.20876L524.96936 146.96814Q525.1987 146.16261 525.7408 145.77554Q526.2933 145.38846 527.367 145.38846Q528.3469 145.38846 528.8264 145.61862Q529.30597 145.84877 529.504 146.21492Q529.7021 146.5706 529.7021 147.5226L529.6813 149.23828Q529.6813 149.97058 529.7542 150.32626Q529.8272 150.6715 530.01483 151.06903L528.56586 151.06903Q528.51373 150.92258 528.4303 150.62965Q528.3886 150.50412 528.3782 150.46227Q528.0029 150.82841 527.5755 151.01672Q527.1481 151.19456 526.65814 151.19456Q525.80334 151.19456 525.3134 150.73427Q524.8234 150.2635 524.8234 149.55212Q524.8234 149.08136 525.04236 148.71521Q525.27167 148.3386 525.66785 148.15028Q526.0744 147.95152 526.8354 147.80505Q527.8674 147.6063 528.2635 147.4389L528.2635 147.29245Q528.2635 146.874 528.05505 146.69615Q527.84656 146.50784 527.26276 146.50784Q526.8771 146.50784 526.65814 146.66476Q526.4392 146.82169 526.3037 147.20876ZM528.2635 148.40137Q527.98206 148.49551 527.367 148.63152Q526.7624 148.75705 526.57477 148.88258Q526.28284 149.08136 526.28284 149.3952Q526.28284 149.70905 526.5122 149.9392Q526.7415 150.15889 527.09595 150.15889Q527.4921 150.15889 527.85693 149.89735Q528.11755 149.69858 528.201 149.40565Q528.2635 149.21736 528.2635 148.69427L528.2635 148.40137ZM536.1809 151.06903L534.71106 151.06903L534.71106 148.23398Q534.71106 147.33429 534.61725 147.07275Q534.52344 146.80077 534.31494 146.6543Q534.10645 146.50784 533.80414 146.50784Q533.42883 146.50784 533.1265 146.71707Q532.8242 146.9263 532.7096 147.27153Q532.5949 147.61674 532.5949 148.54782L532.5949 151.06903L531.1355 151.06903L531.1355 145.514L532.49066 145.514L532.49066 146.32999Q533.2204 145.38846 534.31494 145.38846Q534.8049 145.38846 535.20105 145.56631Q535.6076 145.73369 535.80566 146.00569Q536.01416 146.27768 536.09753 146.62291Q536.1809 146.96814 536.1809 147.61674L536.1809 151.06903ZM540.1996 145.514L540.1996 146.68568L539.1988 146.68568L539.1988 148.92444Q539.1988 149.60443 539.2301 149.7195Q539.26135 149.82411 539.35516 149.89735Q539.4594 149.97058 539.60535 149.97058Q539.81384 149.97058 540.1996 149.83458L540.32465 150.97488Q539.81384 151.19456 539.16754 151.19456Q538.7714 151.19456 538.44824 151.05856Q538.1355 150.92258 537.9791 150.71335Q537.8332 150.50412 537.78107 150.13795Q537.72894 149.88689 537.72894 149.10228L537.72894 146.68568L537.06177 146.68568L537.06177 145.514L537.72894 145.514L537.72894 144.40509L539.1988 143.54724L539.1988 145.514L540.1996 145.514ZM546.7201 145.514L546.7201 146.68568L545.71936 146.68568L545.71936 148.92444Q545.71936 149.60443 545.7506 149.7195Q545.7819 149.82411 545.87573 149.89735Q545.98 149.97058 546.1259 149.97058Q546.3344 149.97058 546.7201 149.83458L546.8452 150.97488Q546.3344 151.19456 545.68805 151.19456Q545.29193 151.19456 544.9688 151.05856Q544.65607 150.92258 544.4997 150.71335Q544.35376 150.50412 544.30164 150.13795Q544.2495 149.88689 544.2495 149.10228L544.2495 146.68568L543.58234 146.68568L543.58234 145.514L544.2495 145.514L544.2495 144.40509L545.71936 143.54724L545.71936 145.514L546.7201 145.514ZM547.7417 144.76077L547.7417 143.40079L549.2011 143.40079L549.2011 144.76077L547.7417 144.76077ZM547.7417 151.06903L547.7417 145.514L549.2011 145.514L549.2011 151.06903L547.7417 151.06903ZM550.5928 145.514L551.948 145.514L551.948 146.26723Q552.6673 145.38846 553.668 145.38846Q554.1997 145.38846 554.5854 145.60815Q554.9815 145.82785 555.2317 146.26723Q555.59656 145.82785 556.01355 145.60815Q556.4409 145.38846 556.9205 145.38846Q557.5355 145.38846 557.9525 145.63954Q558.3799 145.88016 558.5884 146.36137Q558.7343 146.71707 558.7343 147.51213L558.7343 151.06903L557.2749 151.06903L557.2749 147.88875Q557.2749 147.0623 557.1185 146.82169Q556.9205 146.50784 556.49304 146.50784Q556.19073 146.50784 555.91974 146.69615Q555.6487 146.88445 555.52356 147.2506Q555.40894 147.61674 555.40894 148.40137L555.40894 151.06903L553.9391 151.06903L553.9391 148.02475Q553.9391 147.20876 553.85565 146.9786Q553.7827 146.73799 553.6159 146.62291Q553.45953 146.50784 553.1781 146.50784Q552.83405 146.50784 552.56305 146.69615Q552.292 146.874 552.1773 147.21922Q552.0627 147.56444 552.0627 148.36998L552.0627 151.06903L550.5928 151.06903L550.5928 145.514ZM563.3993 149.30104L564.8587 149.54166Q564.5773 150.3472 563.97266 150.77611Q563.36804 151.19456 562.4507 151.19456Q561.0121 151.19456 560.31366 150.24257Q559.77155 149.48935 559.77155 148.32812Q559.77155 146.94722 560.49084 146.17307Q561.21014 145.38846 562.30475 145.38846Q563.5452 145.38846 564.2541 146.20445Q564.9734 147.02045 564.94214 148.71521L561.2727 148.71521Q561.28314 149.36382 561.6167 149.72997Q561.9607 150.09612 562.4715 150.09612Q562.81555 150.09612 563.04486 149.9078Q563.2846 149.7195 563.3993 149.30104ZM563.48267 147.81552Q563.4723 147.17737 563.15955 146.8426Q562.8468 146.50784 562.39856 146.50784Q561.919 146.50784 561.60626 146.86353Q561.2936 147.20876 561.2936 147.81552L563.48267 147.81552Z" fill-rule="nonzero"/><path fill="#FFFFFF" fill-opacity="0.0" clip-path="url(#id_0)" d="M36.02357 45.505386L36.02357 95.86269" fill-rule="evenodd"/><path stroke="#FFFFFF" stroke-width="0.6683493946765215" stroke-linejoin="round" stroke-linecap="butt" clip-path="url(#id_0)" d="M36.02357 45.505386L36.02357 95.86269" fill-rule="evenodd"/><path fill="#FFFFFF" fill-opacity="0.0" clip-path="url(#id_0)" d="M82.942474 45.505386L82.942474 95.86269" fill-rule="evenodd"/><path stroke="#FFFFFF" stroke-width="0.6683493946765215" stroke-linejoin="round" stroke-linecap="butt" clip-path="url(#id_0)" d="M82.942474 45.505386L82.942474 95.86269" fill-rule="evenodd"/><path fill="#FFFFFF" fill-opacity="0.0" clip-path="url(#id_0)" d="M129.86137 45.505386L129.86137 95.86269" fill-rule="evenodd"/><path stroke="#FFFFFF" stroke-width="0.6683493946765215" stroke-linejoin="round" stroke-linecap="butt" clip-path="url(#id_0)" d="M129.86137 45.505386L129.86137 95.86269" fill-rule="evenodd"/><path fill="#FFFFFF" fill-opacity="0.0" clip-path="url(#id_0)" d="M176.78027 45.505386L176.78027 95.86269" fill-rule="evenodd"/><path stroke="#FFFFFF" stroke-width="0.6683493946765215" stroke-linejoin="round" stroke-linecap="butt" clip-path="url(#id_0)" d="M176.78027 45.505386L176.78027 95.86269" fill-rule="evenodd"/><path fill="#FFFFFF" fill-opacity="0.0" clip-path="url(#id_0)" d="M223.69917 45.505386L223.69917 95.86269" fill-rule="evenodd"/><path stroke="#FFFFFF" stroke-width="0.6683493946765215" stroke-linejoin="round" stroke-linecap="butt" clip-path="url(#id_0)" d="M223.69917 45.505386L223.69917 95.86269" fill-rule="evenodd"/><path fill="#FFFFFF" fill-opacity="0.0" clip-path="url(#id_0)" d="M270.61807 45.505386L270.61807 95.86269" fill-rule="evenodd"/><path stroke="#FFFFFF" stroke-width="0.6683493946765215" stroke-linejoin="round" stroke-linecap="butt" clip-path="url(#id_0)" d="M270.61807 45.505386L270.61807 95.86269" fill-rule="evenodd"/><path fill="#FFFFFF" fill-opacity="0.0" clip-path="url(#id_0)" d="M317.53696 45.505386L317.53696 95.86269" fill-rule="evenodd"/><path stroke="#FFFFFF" stroke-width="0.6683493946765215" stroke-linejoin="round" stroke-linecap="butt" clip-path="url(#id_0)" d="M317.53696 45.505386L317.53696 95.86269" fill-rule="evenodd"/><path fill="#FFFFFF" fill-opacity="0.0" clip-path="url(#id_0)" d="M364.45587 45.505386L364.45587 95.86269" fill-rule="evenodd"/><path stroke="#FFFFFF" stroke-width="0.6683493946765215" stroke-linejoin="round" stroke-linecap="butt" clip-path="url(#id_0)" d="M364.45587 45.505386L364.45587 95.86269" fill-rule="evenodd"/><path fill="#FFFFFF" fill-opacity="0.0" clip-path="url(#id_0)" d="M24.392784 161.84067L24.392784 212.19797" fill-rule="evenodd"/><path stroke="#FFFFFF" stroke-width="0.6683493946765215" stroke-linejoin="round" stroke-linecap="butt" clip-path="url(#id_0)" d="M24.392784 161.84067L24.392784 212.19797" fill-rule="evenodd"/><path fill="#FFFFFF" fill-opacity="0.0" clip-path="url(#id_0)" d="M42.97368 162.99873L42.97368 213.35603" fill-rule="evenodd"/><path stroke="#FFFFFF" stroke-width="0.6683493946765215" stroke-linejoin="round" stroke-linecap="butt" clip-path="url(#id_0)" d="M42.97368 162.99873L42.97368 213.35603" fill-rule="evenodd"/><path fill="#FFFFFF" fill-opacity="0.0" clip-path="url(#id_0)" d="M118.23058 161.84067L118.23058 212.19797" fill-rule="evenodd"/><path stroke="#FFFFFF" stroke-width="0.6683493946765215" stroke-linejoin="round" stroke-linecap="butt" clip-path="url(#id_0)" d="M118.23058 161.84067L118.23058 212.19797" fill-rule="evenodd"/><path fill="#FFFFFF" fill-opacity="0.0" clip-path="url(#id_0)" d="M142.04376 161.84067L142.04376 212.19797" fill-rule="evenodd"/><path stroke="#FFFFFF" stroke-width="0.6683493946765215" stroke-linejoin="round" stroke-linecap="butt" clip-path="url(#id_0)" d="M142.04376 161.84067L142.04376 212.19797" fill-rule="evenodd"/><path fill="#FFFFFF" fill-opacity="0.0" clip-path="url(#id_0)" d="M165.14949 161.84067L165.14949 212.19797" fill-rule="evenodd"/><path stroke="#FFFFFF" stroke-width="0.6683493946765215" stroke-linejoin="round" stroke-linecap="butt" clip-path="url(#id_0)" d="M165.14949 161.84067L165.14949 212.19797" fill-rule="evenodd"/><path fill="#FFFFFF" fill-opacity="0.0" clip-path="url(#id_0)" d="M174.70697 161.84067L174.70697 212.19797" fill-rule="evenodd"/><path stroke="#FFFFFF" stroke-width="0.6683493946765215" stroke-linejoin="round" stroke-linecap="butt" clip-path="url(#id_0)" d="M174.70697 161.84067L174.70697 212.19797" fill-rule="evenodd"/><path fill="#FFFFFF" fill-opacity="0.0" clip-path="url(#id_0)" d="M242.97525 161.84067L242.97525 212.19797" fill-rule="evenodd"/><path stroke="#FFFFFF" stroke-width="0.6683493946765215" stroke-linejoin="round" stroke-linecap="butt" clip-path="url(#id_0)" d="M242.97525 161.84067L242.97525 212.19797" fill-rule="evenodd"/><path fill="#FFFFFF" fill-opacity="0.0" clip-path="url(#id_0)" d="M352.82507 161.84067L352.82507 212.19797" fill-rule="evenodd"/><path stroke="#FFFFFF" stroke-width="0.6683493946765215" stroke-linejoin="round" stroke-linecap="butt" clip-path="url(#id_0)" d="M352.82507 161.84067L352.82507 212.19797" fill-rule="evenodd"/><path fill="#FFFFFF" fill-opacity="0.0" clip-path="url(#id_0)" d="M248.31259 161.84067L248.31259 212.19797" fill-rule="evenodd"/><path stroke="#FFFFFF" stroke-width="0.6683493946765215" stroke-linejoin="round" stroke-linecap="butt" clip-path="url(#id_0)" d="M248.31259 161.84067L248.31259 212.19797" fill-rule="evenodd"/><path fill="#FFFFFF" fill-opacity="0.0" clip-path="url(#id_0)" d="M253.64993 161.84067L253.64993 212.19797" fill-rule="evenodd"/><path stroke="#FFFFFF" stroke-width="0.6683493946765215" stroke-linejoin="round" stroke-linecap="butt" clip-path="url(#id_0)" d="M253.64993 161.84067L253.64993 212.19797" fill-rule="evenodd"/><path fill="#FFFFFF" fill-opacity="0.0" clip-path="url(#id_0)" d="M36.025322 82.81822L36.025322 243.0" fill-rule="evenodd"/><path stroke="#FFFFFF" stroke-width="0.6683493946765215" stroke-linejoin="round" stroke-linecap="butt" stroke-dasharray="0.6683493946765215,2.005048184029565" clip-path="url(#id_0)" d="M36.025322 82.81822L36.025322 243.0" fill-rule="evenodd"/><path fill="#FFFFFF" fill-opacity="0.0" clip-path="url(#id_0)" d="M82.94598 82.81822L82.94598 238.80356" fill-rule="evenodd"/><path stroke="#FFFFFF" stroke-width="0.6683493946765215" stroke-linejoin="round" stroke-linecap="butt" stroke-dasharray="0.6683493946765215,2.005048184029565" clip-path="url(#id_0)" d="M82.94598 82.81822L82.94598 238.80356" fill-rule="evenodd"/><path fill="#FFFFFF" fill-opacity="0.0" clip-path="url(#id_0)" d="M418.21457 88.174484L441.68625 88.174484L441.68625 116.30541L418.21457 116.30541Z" fill-rule="evenodd"/><clipPath id="id_2"><path d="M-5.684342E-14 0L624.0 0L624.0 243.0L-5.684342E-14 243.0L-5.684342E-14 0Z" clip-rule="nonzero"/></clipPath><path fill="#FFFFFF" clip-path="url(#id_2)" d="M427.4298 105.214935L427.58618 106.18785Q427.1275 106.282 426.76263 106.282Q426.16846 106.282 425.83487 106.0937Q425.51172 105.90539 425.3762 105.602005Q425.24066 105.28816 425.24066 104.30479L425.24066 100.570045L424.438 100.570045L424.438 99.72267L425.24066 99.72267L425.24066 98.12207L426.32483 97.463L426.32483 99.72267L427.4298 99.72267L427.4298 100.570045L426.32483 100.570045L426.32483 104.36755Q426.32483 104.82786 426.37695 104.96386Q426.43948 105.09985 426.56458 105.18355Q426.7001 105.256775 426.9503 105.256775Q427.1275 105.256775 427.4298 105.214935Z" fill-rule="nonzero"/><path fill="#FFFFFF" fill-opacity="0.0" clip-path="url(#id_0)" d="M418.21457 191.91693L441.68625 191.91693L441.68625 220.04785L418.21457 220.04785Z" fill-rule="evenodd"/><path fill="#FFFFFF" clip-path="url(#id_2)" d="M427.4298 208.95738L427.58618 209.9303Q427.1275 210.02444 426.76263 210.02444Q426.16846 210.02444 425.83487 209.83614Q425.51172 209.64783 425.3762 209.34445Q425.24066 209.03061 425.24066 208.04723L425.24066 204.31248L424.438 204.31248L424.438 203.46512L425.24066 203.46512L425.24066 201.86452L426.32483 201.20544L426.32483 203.46512L427.4298 203.46512L427.4298 204.31248L426.32483 204.31248L426.32483 208.11Q426.32483 208.5703 426.37695 208.7063Q426.43948 208.8423 426.56458 208.926Q426.7001 208.99922 426.9503 208.99922Q427.1275 208.99922 427.4298 208.95738Z" fill-rule="nonzero"/><path fill="#FFFFFF" fill-opacity="0.0" clip-path="url(#id_0)" d="M14.856309 0L155.70757 0L155.70757 23.807955L14.856309 23.807955Z" fill-rule="evenodd"/><clipPath id="id_3"><path d="M1.7763568E-15 0L624.0 0L624.0 243.0L1.7763568E-15 243.0L1.7763568E-15 0Z" clip-rule="nonzero"/></clipPath><path fill="#FFFFFF" clip-path="url(#id_3)" d="M21.507141 14.595816L21.507141 8.203869L23.904776 8.203869Q24.634491 8.203869 25.072319 8.402637Q25.510149 8.590942 25.760336 8.9989395Q26.010525 9.406936 26.010525 9.846316Q26.010525 10.254313 25.781185 10.620464Q25.562271 10.976153 25.124443 11.195844Q25.69779 11.363227 26.010525 11.781685Q26.32326 12.189682 26.32326 12.744139Q26.32326 13.193981 26.125195 13.581055Q25.937553 13.968128 25.656092 14.177358Q25.385056 14.386586 24.968075 14.4912Q24.551094 14.595816 23.936049 14.595816L21.507141 14.595816ZM22.351524 10.892462L23.72756 10.892462Q24.290482 10.892462 24.530245 10.819232Q24.853405 10.725079 25.009773 10.505388Q25.176565 10.275236 25.176565 9.94047Q25.176565 9.626626 25.020197 9.386013Q24.874254 9.145399 24.592793 9.051247Q24.31133 8.957093 23.623314 8.957093L22.351524 8.957093L22.351524 10.892462ZM22.351524 13.84259L23.936049 13.84259Q24.342606 13.84259 24.509398 13.811207Q24.801283 13.758899 24.999348 13.643824Q25.197414 13.518286 25.322508 13.288134Q25.447601 13.047521 25.447601 12.744139Q25.447601 12.388449 25.25996 12.126913Q25.082745 11.854916 24.759584 11.7503Q24.436424 11.645686 23.82138 11.645686L22.351524 11.645686L22.351524 13.84259ZM27.36513 14.595816L27.36513 8.203869L28.146967 8.203869L28.146967 14.595816L27.36513 14.595816ZM29.059214 12.283834Q29.059214 10.997076 29.778503 10.37985Q30.3727 9.86724 31.227509 9.86724Q32.17614 9.86724 32.780758 10.494926Q33.38538 11.112152 33.38538 12.2210655Q33.38538 13.11029 33.11434 13.6229Q32.85373 14.135511 32.34293 14.417971Q31.83213 14.70043 31.227509 14.70043Q30.25803 14.70043 29.65341 14.083204Q29.059214 13.455517 29.059214 12.283834ZM29.8619 12.283834Q29.8619 13.173058 30.247606 13.612439Q30.643738 14.05182 31.227509 14.05182Q31.811281 14.05182 32.196987 13.612439Q32.582695 13.162597 32.582695 12.25245Q32.582695 11.394611 32.18656 10.955231Q31.800856 10.515849 31.227509 10.515849Q30.643738 10.515849 30.247606 10.955231Q29.8619 11.394611 29.8619 12.283834ZM37.309147 12.90106L38.08056 13.005674Q37.955467 13.800745 37.434242 14.250587Q36.913017 14.70043 36.152027 14.70043Q35.21382 14.70043 34.63005 14.083204Q34.0567 13.455517 34.0567 12.304757Q34.0567 11.551533 34.30689 10.986615Q34.55708 10.421697 35.057453 10.149699Q35.568256 9.86724 36.162453 9.86724Q36.913017 9.86724 37.392544 10.254313Q37.87207 10.630925 38.007587 11.331842L37.2466 11.4469185Q37.13193 10.976153 36.850468 10.746001Q36.57943 10.505388 36.193726 10.505388Q35.59953 10.505388 35.224247 10.934307Q34.85939 11.363227 34.85939 12.273374Q34.85939 13.214904 35.21382 13.633362Q35.57868 14.05182 36.152027 14.05182Q36.610706 14.05182 36.913017 13.769361Q37.22575 13.486901 37.309147 12.90106ZM38.75294 14.595816L38.75294 8.203869L39.53478 8.203869L39.53478 11.854916L41.379913 9.971854L42.39109 9.971854L40.62935 11.687532L42.568306 14.595816L41.609253 14.595816L40.087276 12.231527L39.53478 12.765061L39.53478 14.595816L38.75294 14.595816ZM48.74473 12.095529L48.74473 11.342304L51.434254 11.331842L51.434254 13.706592Q50.819206 14.208741 50.15204 14.459816Q49.495296 14.70043 48.796856 14.70043Q47.85865 14.70043 47.08724 14.302895Q46.32625 13.894898 45.93012 13.141674Q45.54441 12.377988 45.54441 11.436458Q45.54441 10.494926 45.93012 9.689395Q46.32625 8.883863 47.05596 8.49679Q47.78568 8.099255 48.734306 8.099255Q49.422325 8.099255 49.974823 8.329407Q50.537746 8.549097 50.850483 8.957093Q51.17364 9.354629 51.34043 9.992777L50.579445 10.202006Q50.433502 9.720779 50.22501 9.43832Q50.01652 9.155861 49.62039 8.988478Q49.22426 8.8210945 48.74473 8.8210945Q48.16096 8.8210945 47.733555 8.9989395Q47.316574 9.176784 47.05596 9.469705Q46.805775 9.752164 46.659832 10.097391Q46.420067 10.683232 46.420067 11.38415Q46.420067 12.231527 46.711956 12.806908Q47.00384 13.382287 47.55634 13.664746Q48.119263 13.947206 48.755157 13.947206Q49.29723 13.947206 49.818455 13.737976Q50.33968 13.518286 50.610718 13.277673L50.610718 12.095529L48.74473 12.095529ZM55.73427 13.11029L56.536953 13.204442Q56.349316 13.915821 55.82809 14.313356Q55.317287 14.70043 54.514603 14.70043Q53.503426 14.70043 52.90923 14.072742Q52.315033 13.445056 52.315033 12.325681Q52.315033 11.153998 52.90923 10.515849Q53.51385 9.86724 54.472904 9.86724Q55.400684 9.86724 55.984455 10.494926Q56.56823 11.122614 56.56823 12.273374Q56.56823 12.346603 56.56823 12.482602L53.128143 12.482602Q53.16984 13.246288 53.555546 13.6542845Q53.941254 14.05182 54.514603 14.05182Q54.95243 14.05182 55.25474 13.8321295Q55.557053 13.601977 55.73427 13.11029ZM53.16984 11.833992L55.744694 11.833992Q55.69257 11.258613 55.45281 10.965692Q55.077526 10.505388 54.48333 10.505388Q53.941254 10.505388 53.576397 10.871539Q53.21154 11.227228 53.16984 11.833992ZM57.52101 14.595816L57.52101 9.971854L58.229877 9.971854L58.229877 10.630925Q58.730255 9.86724 59.68931 9.86724Q60.10629 9.86724 60.46072 10.0137Q60.815155 10.16016 60.981945 10.411235Q61.15916 10.651849 61.232132 10.986615Q61.27383 11.2063055 61.27383 11.7503L61.27383 14.595816L60.491993 14.595816L60.491993 11.781685Q60.491993 11.300458 60.398174 11.070307Q60.30435 10.829693 60.075016 10.693694Q59.845676 10.547234 59.53294 10.547234Q59.032562 10.547234 58.667706 10.861077Q58.30285 11.174921 58.30285 12.064144L58.30285 14.595816L57.52101 14.595816ZM65.625 13.11029L66.42769 13.204442Q66.24005 13.915821 65.71883 14.313356Q65.20802 14.70043 64.405334 14.70043Q63.394157 14.70043 62.79996 14.072742Q62.205765 13.445056 62.205765 12.325681Q62.205765 11.153998 62.79996 10.515849Q63.404583 9.86724 64.36364 9.86724Q65.29142 9.86724 65.87519 10.494926Q66.45896 11.122614 66.45896 12.273374Q66.45896 12.346603 66.45896 12.482602L63.018875 12.482602Q63.060574 13.246288 63.44628 13.6542845Q63.83199 14.05182 64.405334 14.05182Q64.84316 14.05182 65.14548 13.8321295Q65.447784 13.601977 65.625 13.11029ZM63.060574 11.833992L65.63543 11.833992Q65.583305 11.258613 65.343544 10.965692Q64.96826 10.505388 64.37406 10.505388Q63.83199 10.505388 63.46713 10.871539Q63.102272 11.227228 63.060574 11.833992ZM67.40132 14.595816L67.40132 9.971854L68.11018 9.971854L68.11018 10.672771Q68.381226 10.181083 68.600136 10.024161Q68.829475 9.86724 69.11094 9.86724Q69.50707 9.86724 69.91363 10.118315L69.642586 10.840155Q69.3507 10.672771 69.069244 10.672771Q68.80863 10.672771 68.600136 10.829693Q68.40207 10.986615 68.31868 11.258613Q68.18316 11.677071 68.18316 12.168758L68.18316 14.595816L67.40132 14.595816ZM73.38557 14.020435Q72.94774 14.397048 72.54118 14.553969Q72.14505 14.70043 71.68637 14.70043Q70.925385 14.70043 70.51883 14.334279Q70.112274 13.957666 70.112274 13.371825Q70.112274 13.037059 70.25822 12.7546Q70.41458 12.47214 70.66477 12.304757Q70.914955 12.137374 71.22769 12.043221Q71.45703 11.990914 71.92613 11.928145Q72.87476 11.813069 73.32302 11.656148Q73.32302 11.499226 73.32302 11.45738Q73.32302 10.976153 73.1041 10.777386Q72.801796 10.515849 72.207596 10.515849Q71.66552 10.515849 71.394485 10.714617Q71.13387 10.902924 71.00878 11.394611L70.24779 11.289997Q70.352036 10.798308 70.5918 10.494926Q70.83156 10.191545 71.279816 10.034623Q71.728065 9.86724 72.322266 9.86724Q72.91646 9.86724 73.28132 10.003239Q73.6566 10.139237 73.823395 10.358928Q74.00061 10.568157 74.07358 10.892462Q74.10486 11.091229 74.10486 11.614302L74.10486 12.660447Q74.10486 13.748438 74.156975 14.041358Q74.2091 14.334279 74.35504 14.595816L73.54193 14.595816Q73.41684 14.355202 73.38557 14.020435ZM73.32302 12.273374Q72.895615 12.451218 72.0408 12.566294Q71.56128 12.6395235 71.36321 12.733677Q71.165146 12.8173685 71.050476 12.984752Q70.94623 13.152135 70.94623 13.350903Q70.94623 13.664746 71.17557 13.873975Q71.41534 14.083204 71.87401 14.083204Q72.322266 14.083204 72.6767 13.884437Q73.03113 13.685669 73.19792 13.340441Q73.32302 13.078905 73.32302 12.555832L73.32302 12.273374ZM77.02787 13.894898L77.14254 14.585354Q76.80895 14.658584 76.54834 14.658584Q76.12093 14.658584 75.88117 14.522585Q75.65183 14.386586 75.558014 14.166896Q75.464195 13.947206 75.464195 13.2358265L75.464195 10.578618L74.89085 10.578618L74.89085 9.971854L75.464195 9.971854L75.464195 8.8210945L76.24603 8.350329L76.24603 9.971854L77.02787 9.971854L77.02787 10.578618L76.24603 10.578618L76.24603 13.288134Q76.24603 13.6229 76.277306 13.717053Q76.319 13.811207 76.41283 13.873975Q76.506645 13.926282 76.68386 13.926282Q76.81938 13.926282 77.02787 13.894898ZM77.79919 9.114016L77.79919 8.203869L78.581024 8.203869L78.581024 9.114016L77.79919 9.114016ZM77.79919 14.595816L77.79919 9.971854L78.581024 9.971854L78.581024 14.595816L77.79919 14.595816ZM79.47243 12.283834Q79.47243 10.997076 80.19171 10.37985Q80.78591 9.86724 81.640724 9.86724Q82.58935 9.86724 83.19397 10.494926Q83.79859 11.112152 83.79859 12.2210655Q83.79859 13.11029 83.52756 13.6229Q83.266945 14.135511 82.75614 14.417971Q82.24534 14.70043 81.640724 14.70043Q80.67124 14.70043 80.06662 14.083204Q79.47243 13.455517 79.47243 12.283834ZM80.27511 12.283834Q80.27511 13.173058 80.66082 13.612439Q81.056946 14.05182 81.640724 14.05182Q82.224495 14.05182 82.6102 13.612439Q82.9959 13.162597 82.9959 12.25245Q82.9959 11.394611 82.59978 10.955231Q82.214066 10.515849 81.640724 10.515849Q81.056946 10.515849 80.66082 10.955231Q80.27511 11.394611 80.27511 12.283834ZM84.70968 14.595816L84.70968 9.971854L85.41854 9.971854L85.41854 10.630925Q85.91892 9.86724 86.877975 9.86724Q87.29495 9.86724 87.64938 10.0137Q88.00382 10.16016 88.17061 10.411235Q88.34783 10.651849 88.4208 10.986615Q88.462494 11.2063055 88.462494 11.7503L88.462494 14.595816L87.68066 14.595816L87.68066 11.781685Q87.68066 11.300458 87.58684 11.070307Q87.49302 10.829693 87.26368 10.693694Q87.03434 10.547234 86.7216 10.547234Q86.22123 10.547234 85.85637 10.861077Q85.491516 11.174921 85.491516 12.064144L85.491516 14.595816L84.70968 14.595816Z" fill-rule="nonzero"/><path fill="#FFFFFF" fill-opacity="0.0" clip-path="url(#id_0)" d="M37.419197 23.12085L36.72576 37.10196" fill-rule="evenodd"/><path stroke="#FFFFFF" stroke-width="0.6683493946765215" stroke-linejoin="round" stroke-linecap="butt" clip-path="url(#id_0)" d="M37.419197 23.12085L36.92476 33.089733" fill-rule="evenodd"/><path fill="#FFFFFF" stroke="#FFFFFF" stroke-width="0.6683493946765215" stroke-linecap="butt" clip-path="url(#id_0)" d="M35.82414 33.03475L36.77425 36.12438L38.025383 33.144707Z" fill-rule="evenodd"/><path fill="#FFFFFF" fill-opacity="0.0" clip-path="url(#id_0)" d="M38.813072 24.519663L78.548965 37.804882" fill-rule="evenodd"/><path stroke="#FFFFFF" stroke-width="0.6683493946765215" stroke-linejoin="round" stroke-linecap="butt" clip-path="url(#id_0)" d="M38.813072 24.519663L74.75118 36.53514" fill-rule="evenodd"/><path fill="#FFFFFF" stroke="#FFFFFF" stroke-width="0.6683493946765215" stroke-linecap="butt" clip-path="url(#id_0)" d="M74.40287 37.58433L77.623634 37.495506L75.099495 35.485943Z" fill-rule="evenodd"/><path fill="#FFFFFF" fill-opacity="0.0" clip-path="url(#id_0)" d="M40.206944 23.820255L123.14591 39.21424" fill-rule="evenodd"/><path stroke="#FFFFFF" stroke-width="0.6683493946765215" stroke-linejoin="round" stroke-linecap="butt" clip-path="url(#id_0)" d="M40.206944 23.820255L119.20966 38.483646" fill-rule="evenodd"/><path fill="#FFFFFF" stroke="#FFFFFF" stroke-width="0.6683493946765215" stroke-linecap="butt" clip-path="url(#id_0)" d="M119.00925 39.571095L122.186844 39.036232L119.41007 37.396202Z" fill-rule="evenodd"/><path fill="#FFFFFF" fill-opacity="0.0" clip-path="url(#id_0)" d="M129.86049 82.81822L129.86049 243.0" fill-rule="evenodd"/><path stroke="#FFFFFF" stroke-width="0.6683493946765215" stroke-linejoin="round" stroke-linecap="butt" stroke-dasharray="0.6683493946765215,2.005048184029565" clip-path="url(#id_0)" d="M129.86049 82.81822L129.86049 243.0" fill-rule="evenodd"/><path fill="#FFFFFF" fill-opacity="0.0" clip-path="url(#id_0)" d="M176.78114 82.81822L176.78114 238.80356" fill-rule="evenodd"/><path stroke="#FFFFFF" stroke-width="0.6683493946765215" stroke-linejoin="round" stroke-linecap="butt" stroke-dasharray="0.6683493946765215,2.005048184029565" clip-path="url(#id_0)" d="M176.78114 82.81822L176.78114 238.80356" fill-rule="evenodd"/><path fill="#FFFFFF" fill-opacity="0.0" clip-path="url(#id_0)" d="M223.69917 82.81822L223.69917 243.0" fill-rule="evenodd"/><path stroke="#FFFFFF" stroke-width="0.6683493946765215" stroke-linejoin="round" stroke-linecap="butt" stroke-dasharray="0.6683493946765215,2.005048184029565" clip-path="url(#id_0)" d="M223.69917 82.81822L223.69917 243.0" fill-rule="evenodd"/><path fill="#FFFFFF" fill-opacity="0.0" clip-path="url(#id_0)" d="M270.6198 82.81822L270.6198 238.80356" fill-rule="evenodd"/><path stroke="#FFFFFF" stroke-width="0.6683493946765215" stroke-linejoin="round" stroke-linecap="butt" stroke-dasharray="0.6683493946765215,2.005048184029565" clip-path="url(#id_0)" d="M270.6198 82.81822L270.6198 238.80356" fill-rule="evenodd"/><path fill="#FFFFFF" fill-opacity="0.0" clip-path="url(#id_0)" d="M317.53433 82.81822L317.53433 243.0" fill-rule="evenodd"/><path stroke="#FFFFFF" stroke-width="0.6683493946765215" stroke-linejoin="round" stroke-linecap="butt" stroke-dasharray="0.6683493946765215,2.005048184029565" clip-path="url(#id_0)" d="M317.53433 82.81822L317.53433 243.0" fill-rule="evenodd"/><path fill="#FFFFFF" fill-opacity="0.0" clip-path="url(#id_0)" d="M364.455 82.81822L364.455 238.80356" fill-rule="evenodd"/><path stroke="#FFFFFF" stroke-width="0.6683493946765215" stroke-linejoin="round" stroke-linecap="butt" stroke-dasharray="0.6683493946765215,2.005048184029565" clip-path="url(#id_0)" d="M364.455 82.81822L364.455 238.80356" fill-rule="evenodd"/></svg>