<?xml version="1.0" encoding="UTF-8" standalone="no"?>
<svg
   width="456"
   height="170"
   viewBox="0 0 456 170"
   fill="none"
   version="1.1"
   id="svg34"
   xmlns="http://www.w3.org/2000/svg"
   xmlns:svg="http://www.w3.org/2000/svg">
  <defs
     id="defs34">
    <rect
       x="15.288328"
       y="45.458721"
       width="30.198259"
       height="7.8069615"
       id="rect41" />
    <rect
       x="245.81734"
       y="96.33036"
       width="11.337833"
       height="8.2761259"
       id="rect36" />
    <rect
       x="222.38766"
       y="87.938683"
       width="14.239675"
       height="15.096197"
       id="rect35" />
    <rect
       x="8.6708164"
       y="129.02094"
       width="96.310303"
       height="18.886011"
       id="rect34" />
    <rect
       x="8.6708164"
       y="129.02094"
       width="96.310303"
       height="18.886011"
       id="rect34-3" />
    <rect
       x="222.38766"
       y="87.938683"
       width="14.239675"
       height="15.096197"
       id="rect35-0" />
    <rect
       x="245.81734"
       y="96.33036"
       width="11.337833"
       height="8.2761259"
       id="rect36-6" />
    <rect
       x="222.38766"
       y="87.938683"
       width="14.239675"
       height="15.096197"
       id="rect35-0-2" />
    <rect
       x="245.81734"
       y="96.33036"
       width="11.337833"
       height="8.2761259"
       id="rect36-6-8" />
    <rect
       x="222.38766"
       y="87.938683"
       width="14.239675"
       height="15.096197"
       id="rect35-2" />
    <rect
       x="245.81734"
       y="96.33036"
       width="11.337833"
       height="8.2761259"
       id="rect36-3" />
    <rect
       x="245.81734"
       y="96.33036"
       width="11.337833"
       height="8.2761259"
       id="rect36-9" />
    <rect
       x="222.38766"
       y="87.938683"
       width="14.239675"
       height="15.096197"
       id="rect35-0-9" />
    <rect
       x="222.38766"
       y="87.938683"
       width="14.239675"
       height="15.096197"
       id="rect35-0-2-1" />
    <rect
       x="245.81734"
       y="96.33036"
       width="11.337833"
       height="8.2761259"
       id="rect36-6-8-1" />
    <rect
       x="222.38766"
       y="87.938683"
       width="14.239675"
       height="15.096197"
       id="rect35-2-7" />
    <rect
       x="245.81734"
       y="96.33036"
       width="11.337833"
       height="8.2761259"
       id="rect36-3-8" />
    <rect
       x="222.38766"
       y="87.938683"
       width="14.239675"
       height="15.096197"
       id="rect35-2-7-1" />
    <rect
       x="245.81734"
       y="96.33036"
       width="11.337833"
       height="8.2761259"
       id="rect36-3-8-0" />
    <rect
       x="222.38766"
       y="87.938683"
       width="14.239675"
       height="15.096197"
       id="rect35-2-7-1-5" />
    <rect
       x="245.81734"
       y="96.33036"
       width="11.337833"
       height="8.2761259"
       id="rect36-3-8-0-5" />
    <rect
       x="245.81734"
       y="96.33036"
       width="11.337833"
       height="8.2761259"
       id="rect36-6-8-3" />
    <rect
       x="245.81734"
       y="96.33036"
       width="11.337833"
       height="8.2761259"
       id="rect36-6-8-2" />
    <rect
       x="245.81734"
       y="96.33036"
       width="11.337833"
       height="8.2761259"
       id="rect36-6-8-4" />
    <rect
       x="245.81734"
       y="96.33036"
       width="11.337833"
       height="8.2761259"
       id="rect36-6-8-0" />
    <rect
       x="245.81734"
       y="96.33036"
       width="11.337833"
       height="8.2761259"
       id="rect36-6-8-8" />
  </defs>
  <line
     x1="91"
     y1="25.5"
     x2="495"
     y2="25.5"
     stroke="#ffffff"
     stroke-dasharray="2, 2"
     id="line1" />
  <line
     x1="91"
     y1="94.5"
     x2="495"
     y2="94.5"
     stroke="#ffffff"
     stroke-dasharray="2, 2"
     id="line2" />
  <line
     x1="92"
     y1="144.5"
     x2="496"
     y2="144.5"
     stroke="#ffffff"
     stroke-dasharray="2, 2"
     id="line2-7" />
  <path
     d="M 157,9 H 97 v 30 h 60 z"
     fill="#f0f0f0"
     stroke="#808080"
     stroke-width="1.5"
     id="path2" />
  <path
     d="m 419.75,8.75 h -60 v 30 h 60 z"
     fill="#f0f0f0"
     stroke="#808080"
     stroke-width="1.5"
     id="path2-2" />
  <path
     d="M 66.9769,44.0539 H 13.0231 v 31.8922 h 53.9538 z"
     fill="#f0f0f0"
     stroke="#808080"
     id="path5"
     style="stroke-width:1.33326" />
  <path
     d="m 26.9444,57.3952 v 0.4262 h -1.696 v -0.4262 z m -1.2017,-0.784 h 0.5028 v 3.1193 c 0,0.142 0.0206,0.2485 0.0618,0.3196 0.0426,0.0696 0.0966,0.1164 0.162,0.1406 0.0667,0.0227 0.137,0.0341 0.2109,0.0341 0.0554,0 0.1008,-0.0029 0.1364,-0.0085 0.0355,-0.0071 0.0639,-0.0128 0.0852,-0.0171 l 0.1023,0.4517 c -0.0341,0.0128 -0.0817,0.0256 -0.1428,0.0384 -0.0611,0.0142 -0.1385,0.0213 -0.2322,0.0213 -0.1421,0 -0.2813,-0.0306 -0.4177,-0.0916 -0.1349,-0.0611 -0.2471,-0.1542 -0.3366,-0.2792 -0.0881,-0.125 -0.1321,-0.2826 -0.1321,-0.473 z m 1.9581,4.0568 v -3.2728 h 0.5028 v 3.2728 z m 0.2557,-3.8182 c -0.098,0 -0.1826,-0.0334 -0.2536,-0.1002 -0.0696,-0.0667 -0.1044,-0.147 -0.1044,-0.2407 0,-0.0938 0.0348,-0.174 0.1044,-0.2408 0.071,-0.0668 0.1556,-0.1001 0.2536,-0.1001 0.098,0 0.1818,0.0333 0.2514,0.1001 0.071,0.0668 0.1065,0.147 0.1065,0.2408 0,0.0937 -0.0355,0.174 -0.1065,0.2407 -0.0696,0.0668 -0.1534,0.1002 -0.2514,0.1002 z m 1.1681,3.8182 v -3.2728 h 0.4858 v 0.5114 h 0.0426 c 0.0682,-0.1747 0.1783,-0.3104 0.3303,-0.407 0.152,-0.098 0.3345,-0.147 0.5476,-0.147 0.2159,0 0.3956,0.049 0.539,0.147 0.1449,0.0966 0.2578,0.2323 0.3388,0.407 h 0.0341 c 0.0838,-0.169 0.2095,-0.3033 0.3771,-0.4027 0.1676,-0.1008 0.3686,-0.1513 0.603,-0.1513 0.2926,0 0.532,0.0916 0.7181,0.2749 0.186,0.1818 0.2791,0.4652 0.2791,0.8501 v 2.1904 h -0.5029 v -2.1904 c 0,-0.2414 -0.066,-0.414 -0.1981,-0.5177 -0.1321,-0.1037 -0.2877,-0.1556 -0.4666,-0.1556 -0.2302,0 -0.4084,0.0696 -0.5348,0.2088 -0.1265,0.1378 -0.1897,0.3125 -0.1897,0.5242 v 2.1307 h -0.5113 v -2.2415 c 0,-0.1861 -0.0604,-0.3359 -0.1811,-0.4496 -0.1208,-0.115 -0.2763,-0.1726 -0.4667,-0.1726 -0.1306,0 -0.2528,0.0348 -0.3664,0.1044 -0.1123,0.0696 -0.2032,0.1662 -0.2728,0.2898 -0.0682,0.1222 -0.1022,0.2635 -0.1022,0.424 v 2.0455 z m 6.587,0.0682 c -0.3153,0 -0.5873,-0.0697 -0.816,-0.2089 -0.2273,-0.1406 -0.4027,-0.3366 -0.5263,-0.588 -0.1222,-0.2529 -0.1832,-0.5469 -0.1832,-0.8821 0,-0.3353 0.061,-0.6307 0.1832,-0.8864 0.1236,-0.2571 0.2954,-0.4574 0.5156,-0.6008 0.2216,-0.1449 0.4801,-0.2174 0.7756,-0.2174 0.1704,0 0.3388,0.0284 0.505,0.0853 0.1661,0.0568 0.3174,0.1491 0.4538,0.2769 0.1364,0.1265 0.245,0.2941 0.326,0.5029 0.0809,0.2088 0.1214,0.4659 0.1214,0.7713 v 0.2131 H 34.544 v -0.4347 h 2.0114 c 0,-0.1847 -0.037,-0.3494 -0.1108,-0.4943 C 36.3721,58.1282 36.2684,58.0138 36.1335,57.93 36,57.8462 35.8423,57.8043 35.6605,57.8043 c -0.2003,0 -0.3736,0.0497 -0.5199,0.1492 -0.1449,0.098 -0.2564,0.2258 -0.3345,0.3835 -0.0781,0.1577 -0.1172,0.3267 -0.1172,0.5071 v 0.2898 c 0,0.2471 0.0426,0.4567 0.1278,0.6285 0.0867,0.1705 0.2067,0.3005 0.3601,0.3899 0.1534,0.0881 0.3317,0.1321 0.5348,0.1321 0.1321,0 0.2514,-0.0184 0.358,-0.0554 0.1079,-0.0383 0.201,-0.0951 0.2791,-0.1704 0.0781,-0.0767 0.1385,-0.1719 0.1811,-0.2855 l 0.4858,0.1363 c -0.0511,0.1648 -0.1371,0.3097 -0.2578,0.4347 -0.1208,0.1236 -0.2699,0.2202 -0.4475,0.2898 -0.1775,0.0682 -0.3771,0.1023 -0.5987,0.1023 z m 4.4382,-2.608 -0.4517,0.1278 c -0.0284,-0.0752 -0.0703,-0.1484 -0.1257,-0.2194 -0.054,-0.0725 -0.1278,-0.1321 -0.2216,-0.179 -0.0937,-0.0469 -0.2138,-0.0703 -0.3601,-0.0703 -0.2002,0 -0.3671,0.0462 -0.5007,0.1385 -0.1321,0.0909 -0.1981,0.2067 -0.1981,0.3473 0,0.125 0.0454,0.2237 0.1363,0.2961 0.0909,0.0725 0.233,0.1329 0.4262,0.1812 l 0.4858,0.1193 c 0.2926,0.071 0.5106,0.1797 0.6541,0.326 0.1435,0.1449 0.2152,0.3316 0.2152,0.5603 0,0.1875 -0.054,0.3552 -0.1619,0.5029 -0.1066,0.1477 -0.2557,0.2642 -0.4475,0.3494 -0.1917,0.0852 -0.4148,0.1279 -0.669,0.1279 -0.3338,0 -0.6101,-0.0725 -0.8289,-0.2174 -0.2187,-0.1449 -0.3572,-0.3565 -0.4154,-0.6349 l 0.4772,-0.1193 c 0.0455,0.1761 0.1314,0.3082 0.2578,0.3963 0.1279,0.088 0.2948,0.1321 0.5008,0.1321 0.2343,0 0.4204,-0.0497 0.5582,-0.1492 0.1392,-0.1008 0.2088,-0.2216 0.2088,-0.3622 0,-0.1136 -0.0398,-0.2088 -0.1193,-0.2855 -0.0796,-0.0781 -0.2017,-0.1364 -0.3665,-0.1747 l -0.5454,-0.1279 c -0.2998,-0.071 -0.5199,-0.1811 -0.6606,-0.3302 -0.1392,-0.1506 -0.2088,-0.3388 -0.2088,-0.5646 0,-0.1847 0.0519,-0.3481 0.1556,-0.4901 0.1051,-0.1421 0.2478,-0.2536 0.4282,-0.3345 0.1819,-0.081 0.3878,-0.1215 0.6179,-0.1215 0.3239,0 0.5782,0.0711 0.7628,0.2131 0.1861,0.142 0.3182,0.3295 0.3963,0.5625 z m 2.2399,-0.733 v 0.4262 h -1.696 v -0.4262 z m -1.2017,-0.784 h 0.5028 v 3.1193 c 0,0.142 0.0206,0.2485 0.0618,0.3196 0.0426,0.0696 0.0966,0.1164 0.162,0.1406 0.0667,0.0227 0.137,0.0341 0.2109,0.0341 0.0554,0 0.1009,-0.0029 0.1364,-0.0085 0.0355,-0.0071 0.0639,-0.0128 0.0852,-0.0171 l 0.1023,0.4517 c -0.0341,0.0128 -0.0817,0.0256 -0.1428,0.0384 -0.0611,0.0142 -0.1385,0.0213 -0.2322,0.0213 -0.1421,0 -0.2813,-0.0306 -0.4176,-0.0916 -0.135,-0.0611 -0.2472,-0.1542 -0.3367,-0.2792 -0.0881,-0.125 -0.1321,-0.2826 -0.1321,-0.473 z m 2.9212,4.1335 c -0.2074,0 -0.3956,-0.0391 -0.5647,-0.1172 -0.169,-0.0796 -0.3032,-0.1939 -0.4027,-0.3431 -0.0994,-0.1505 -0.1491,-0.3323 -0.1491,-0.5454 0,-0.1875 0.0369,-0.3395 0.1108,-0.456 0.0739,-0.1179 0.1726,-0.2102 0.2962,-0.277 0.1235,-0.0667 0.2599,-0.1164 0.409,-0.1491 0.1506,-0.0341 0.3019,-0.0611 0.4539,-0.081 0.1988,-0.0255 0.3601,-0.0447 0.4836,-0.0575 0.125,-0.0142 0.216,-0.0376 0.2728,-0.0703 0.0582,-0.0327 0.0873,-0.0895 0.0873,-0.1705 v -0.017 c 0,-0.2102 -0.0575,-0.3736 -0.1726,-0.4901 -0.1136,-0.1165 -0.2862,-0.1747 -0.5177,-0.1747 -0.2401,0 -0.4283,0.0526 -0.5646,0.1577 -0.1364,0.1051 -0.2323,0.2173 -0.2877,0.3366 l -0.4773,-0.1704 c 0.0853,-0.1989 0.1989,-0.3537 0.341,-0.4645 0.1434,-0.1122 0.2997,-0.1904 0.4687,-0.2344 0.1705,-0.0454 0.3381,-0.0682 0.5028,-0.0682 0.1052,0 0.2259,0.0128 0.3623,0.0384 0.1377,0.0241 0.2706,0.0746 0.3984,0.1513 0.1293,0.0767 0.2365,0.1924 0.3217,0.3473 0.0853,0.1548 0.1279,0.3622 0.1279,0.6221 v 2.1563 h -0.5029 v -0.4432 h -0.0255 c -0.0341,0.071 -0.0909,0.147 -0.1705,0.228 -0.0795,0.0809 -0.1854,0.1498 -0.3175,0.2066 -0.1321,0.0569 -0.2933,0.0853 -0.4836,0.0853 z m 0.0767,-0.4517 c 0.1988,0 0.3665,-0.0391 0.5028,-0.1172 0.1378,-0.0781 0.2415,-0.179 0.3111,-0.3026 0.071,-0.1236 0.1065,-0.2535 0.1065,-0.3899 v -0.4602 c -0.0213,0.0256 -0.0682,0.049 -0.1406,0.0703 -0.071,0.0199 -0.1534,0.0376 -0.2472,0.0533 -0.0923,0.0142 -0.1825,0.027 -0.2706,0.0383 -0.0866,0.01 -0.1569,0.0185 -0.2109,0.0256 -0.1307,0.017 -0.2528,0.0447 -0.3665,0.0831 -0.1122,0.0369 -0.2031,0.093 -0.2727,0.1683 -0.0682,0.0739 -0.1023,0.1747 -0.1023,0.3026 0,0.1747 0.0647,0.3068 0.1939,0.3963 0.1307,0.088 0.2962,0.1321 0.4965,0.1321 z m 2.3411,0.375 v -3.2728 h 0.4858 v 0.5114 h 0.0426 c 0.0682,-0.1747 0.1782,-0.3104 0.3302,-0.407 0.152,-0.098 0.3345,-0.147 0.5476,-0.147 0.2159,0 0.3956,0.049 0.5391,0.147 0.1449,0.0966 0.2578,0.2323 0.3388,0.407 h 0.034 c 0.0838,-0.169 0.2096,-0.3033 0.3772,-0.4027 0.1676,-0.1008 0.3686,-0.1513 0.603,-0.1513 0.2926,0 0.5319,0.0916 0.718,0.2749 0.1861,0.1818 0.2791,0.4652 0.2791,0.8501 v 2.1904 h -0.5028 v -2.1904 c 0,-0.2414 -0.0661,-0.414 -0.1982,-0.5177 -0.1321,-0.1037 -0.2876,-0.1556 -0.4666,-0.1556 -0.2301,0 -0.4084,0.0696 -0.5348,0.2088 -0.1264,0.1378 -0.1896,0.3125 -0.1896,0.5242 V 60.668 H 48.419 v -2.2415 c 0,-0.1861 -0.0604,-0.3359 -0.1811,-0.4496 -0.1207,-0.115 -0.2763,-0.1726 -0.4666,-0.1726 -0.1307,0 -0.2529,0.0348 -0.3665,0.1044 -0.1122,0.0696 -0.2031,0.1662 -0.2727,0.2898 -0.0682,0.1222 -0.1023,0.2635 -0.1023,0.424 v 2.0455 z m 5.2148,1.2272 v -4.5 h 0.4858 v 0.5199 h 0.0597 c 0.0369,-0.0568 0.088,-0.1292 0.1534,-0.2173 0.0667,-0.0895 0.1619,-0.169 0.2855,-0.2386 0.125,-0.0711 0.294,-0.1066 0.5071,-0.1066 0.2755,0 0.5184,0.0689 0.7287,0.2067 0.2102,0.1378 0.3743,0.3331 0.4922,0.5859 0.1179,0.2529 0.1768,0.5512 0.1768,0.8949 0,0.3466 -0.0589,0.647 -0.1768,0.9013 -0.1179,0.2528 -0.2813,0.4489 -0.4901,0.5881 -0.2088,0.1378 -0.4496,0.2067 -0.7223,0.2067 -0.2102,0 -0.3785,-0.0349 -0.505,-0.1045 -0.1264,-0.071 -0.2237,-0.1512 -0.2919,-0.2407 -0.0682,-0.0909 -0.1207,-0.1662 -0.1576,-0.2259 h -0.0427 v 1.7301 z m 0.4943,-2.8636 c 0,0.2472 0.0362,0.4652 0.1087,0.6541 0.0724,0.1875 0.1783,0.3345 0.3175,0.4411 0.1392,0.1051 0.3096,0.1576 0.5113,0.1576 0.2102,0 0.3857,-0.0554 0.5263,-0.1661 0.142,-0.1123 0.2486,-0.2628 0.3196,-0.4518 0.0724,-0.1903 0.1087,-0.4019 0.1087,-0.6349 0,-0.2301 -0.0355,-0.4375 -0.1066,-0.6222 -0.0696,-0.186 -0.1754,-0.3331 -0.3174,-0.441 -0.1407,-0.1094 -0.3175,-0.1641 -0.5306,-0.1641 -0.2045,0 -0.3764,0.0519 -0.5156,0.1556 -0.1392,0.1022 -0.2443,0.2457 -0.3153,0.4304 -0.0711,0.1832 -0.1066,0.397 -0.1066,0.6413 z"
     fill="#000000"
     id="path6" />
  <path
     d="m 37.089,69.668 v -2.9091 h 0.3352 v 1.0738 h 0.0284 c 0.0246,-0.0378 0.0587,-0.0861 0.1023,-0.1448 0.0445,-0.0597 0.108,-0.1127 0.1903,-0.1591 0.0834,-0.0474 0.1961,-0.0711 0.3381,-0.0711 0.1837,0 0.3457,0.046 0.4858,0.1378 0.1402,0.0919 0.2495,0.2221 0.3281,0.3907 0.0786,0.1685 0.1179,0.3674 0.1179,0.5965 0,0.2311 -0.0393,0.4314 -0.1179,0.6009 -0.0786,0.1686 -0.1875,0.2992 -0.3267,0.392 -0.1392,0.0919 -0.2997,0.1378 -0.4815,0.1378 -0.1402,0 -0.2524,-0.0232 -0.3367,-0.0696 -0.0842,-0.0473 -0.1491,-0.1008 -0.1946,-0.1605 -0.0454,-0.0606 -0.0805,-0.1108 -0.1051,-0.1506 h -0.0397 v 0.3353 z m 0.3295,-1.0909 c 0,0.1647 0.0242,0.3101 0.0725,0.436 0.0483,0.125 0.1188,0.2231 0.2116,0.2941 0.0928,0.07 0.2065,0.1051 0.3409,0.1051 0.1402,0 0.2571,-0.0369 0.3509,-0.1108 0.0947,-0.0748 0.1657,-0.1752 0.2131,-0.3011 0.0483,-0.1269 0.0724,-0.268 0.0724,-0.4233 0,-0.1534 -0.0237,-0.2917 -0.071,-0.4148 -0.0464,-0.1241 -0.117,-0.2221 -0.2117,-0.294 -0.0937,-0.073 -0.2116,-0.1094 -0.3537,-0.1094 -0.1363,0 -0.2509,0.0345 -0.3437,0.1037 -0.0928,0.0682 -0.1629,0.1638 -0.2102,0.2869 -0.0474,0.1222 -0.0711,0.2647 -0.0711,0.4276 z m 2.4446,-1.8182 v 2.9091 h -0.3352 v -2.9091 z m 1.5004,2.9545 c -0.197,0 -0.3698,-0.0469 -0.5185,-0.1406 -0.1477,-0.0938 -0.2632,-0.2249 -0.3466,-0.3935 -0.0823,-0.1685 -0.1235,-0.3655 -0.1235,-0.5909 0,-0.2272 0.0412,-0.4256 0.1235,-0.5951 0.0834,-0.1696 0.1989,-0.3012 0.3466,-0.3949 0.1487,-0.0938 0.3215,-0.1407 0.5185,-0.1407 0.197,0 0.3693,0.0469 0.517,0.1407 0.1487,0.0937 0.2642,0.2253 0.3466,0.3949 0.0834,0.1695 0.125,0.3679 0.125,0.5951 0,0.2254 -0.0416,0.4224 -0.125,0.5909 -0.0824,0.1686 -0.1979,0.2997 -0.3466,0.3935 -0.1477,0.0937 -0.32,0.1406 -0.517,0.1406 z m 0,-0.3011 c 0.1496,0 0.2727,-0.0384 0.3693,-0.1151 0.0966,-0.0767 0.1681,-0.1775 0.2145,-0.3025 0.0464,-0.125 0.0696,-0.2604 0.0696,-0.4063 0,-0.1458 -0.0232,-0.2817 -0.0696,-0.4076 -0.0464,-0.126 -0.1179,-0.2278 -0.2145,-0.3054 -0.0966,-0.0777 -0.2197,-0.1165 -0.3693,-0.1165 -0.1496,0 -0.2727,0.0388 -0.3693,0.1165 -0.0966,0.0776 -0.1681,0.1794 -0.2145,0.3054 -0.0464,0.1259 -0.0696,0.2618 -0.0696,0.4076 0,0.1459 0.0232,0.2813 0.0696,0.4063 0.0464,0.125 0.1179,0.2258 0.2145,0.3025 0.0966,0.0767 0.2197,0.1151 0.3693,0.1151 z m 2.3867,0.3011 c -0.2045,0 -0.3807,-0.0483 -0.5284,-0.1449 -0.1477,-0.0966 -0.2614,-0.2296 -0.3409,-0.3991 -0.0796,-0.1695 -0.1193,-0.3632 -0.1193,-0.581 0,-0.2216 0.0407,-0.4171 0.1221,-0.5866 0.0824,-0.1705 0.197,-0.3035 0.3438,-0.3992 0.1477,-0.0966 0.3201,-0.1449 0.517,-0.1449 0.1534,0 0.2917,0.0285 0.4148,0.0853 0.1231,0.0568 0.224,0.1363 0.3026,0.2386 0.0786,0.1023 0.1273,0.2216 0.1463,0.358 h -0.3353 c -0.0255,-0.0995 -0.0823,-0.1875 -0.1704,-0.2642 -0.0871,-0.0777 -0.2046,-0.1165 -0.3523,-0.1165 -0.1307,0 -0.2453,0.0341 -0.3437,0.1023 -0.0976,0.0672 -0.1738,0.1624 -0.2287,0.2855 -0.054,0.1221 -0.081,0.2656 -0.081,0.4304 0,0.1685 0.0265,0.3153 0.0795,0.4403 0.054,0.125 0.1298,0.2221 0.2273,0.2912 0.0985,0.0691 0.214,0.1037 0.3466,0.1037 0.0871,0 0.1662,-0.0152 0.2372,-0.0455 0.0711,-0.0303 0.1312,-0.0738 0.1804,-0.1306 0.0493,-0.0569 0.0843,-0.125 0.1051,-0.2046 h 0.3353 c -0.019,0.1288 -0.0658,0.2448 -0.1407,0.348 -0.0738,0.1023 -0.1718,0.1837 -0.294,0.2443 -0.1212,0.0597 -0.2623,0.0895 -0.4233,0.0895 z m 1.6605,-0.8409 -0.0057,-0.4148 h 0.0682 l 0.9546,-0.9715 h 0.4147 l -1.017,1.0284 h -0.0284 z m -0.3125,0.7955 v -2.9091 h 0.3353 v 2.9091 z m 1.3864,0 -0.8523,-1.0796 0.2387,-0.2329 1.0397,1.3125 z m 2.2496,-1.3125 V 69.668 H 48.399 v -2.1818 h 0.3239 v 0.3409 h 0.0284 c 0.0511,-0.1108 0.1288,-0.1999 0.2329,-0.2671 0.1042,-0.0682 0.2387,-0.1023 0.4034,-0.1023 0.1478,0 0.277,0.0303 0.3878,0.091 0.1108,0.0596 0.197,0.1505 0.2585,0.2727 0.0616,0.1212 0.0924,0.2746 0.0924,0.4602 v 1.3864 h -0.3352 v -1.3637 c 0,-0.1714 -0.0446,-0.3049 -0.1336,-0.4005 -0.089,-0.0966 -0.2111,-0.1449 -0.3664,-0.1449 -0.1071,0 -0.2027,0.0232 -0.287,0.0696 -0.0833,0.0464 -0.1491,0.1141 -0.1974,0.2031 -0.0483,0.089 -0.0725,0.197 -0.0725,0.3239 z m 3.3796,0.4204 v -1.2897 h 0.3353 v 2.1818 h -0.3353 v -0.3693 h -0.0227 c -0.0511,0.1107 -0.1307,0.205 -0.2386,0.2826 -0.108,0.0767 -0.2443,0.1151 -0.4091,0.1151 -0.1364,0 -0.2576,-0.0299 -0.3636,-0.0895 -0.1061,-0.0606 -0.1894,-0.1515 -0.25,-0.2727 -0.0606,-0.1222 -0.091,-0.2761 -0.091,-0.4617 v -1.3863 h 0.3353 v 1.3636 c 0,0.1591 0.0445,0.286 0.1335,0.3807 0.09,0.0947 0.2045,0.142 0.3437,0.142 0.0834,0 0.1681,-0.0213 0.2543,-0.0639 0.0871,-0.0426 0.16,-0.108 0.2188,-0.196 0.0596,-0.0881 0.0894,-0.2003 0.0894,-0.3367 z m 0.9493,0.8921 v -2.1818 h 0.3238 v 0.3409 h 0.0284 c 0.0455,-0.1165 0.1189,-0.207 0.2202,-0.2713 0.1013,-0.0654 0.223,-0.0981 0.3651,-0.0981 0.1439,0 0.2637,0.0327 0.3593,0.0981 0.0966,0.0643 0.1719,0.1548 0.2259,0.2713 h 0.0227 c 0.0559,-0.1127 0.1397,-0.2022 0.2514,-0.2685 0.1118,-0.0672 0.2458,-0.1009 0.402,-0.1009 0.1951,0 0.3547,0.0611 0.4787,0.1833 0.1241,0.1212 0.1861,0.3101 0.1861,0.5667 v 1.4603 h -0.3352 v -1.4603 c 0,-0.1609 -0.0441,-0.276 -0.1321,-0.3451 -0.0881,-0.0692 -0.1918,-0.1037 -0.3111,-0.1037 -0.1534,0 -0.2723,0.0464 -0.3565,0.1392 -0.0843,0.0918 -0.1265,0.2083 -0.1265,0.3494 v 1.4205 h -0.3409 v -1.4943 c 0,-0.1241 -0.0402,-0.224 -0.1207,-0.2998 -0.0805,-0.0767 -0.1842,-0.115 -0.3111,-0.115 -0.0871,0 -0.1685,0.0232 -0.2443,0.0696 -0.0748,0.0464 -0.1354,0.1108 -0.1818,0.1932 -0.0455,0.0814 -0.0682,0.1756 -0.0682,0.2826 v 1.3637 z m 3.522,0 v -2.9091 h 0.3352 v 1.0738 h 0.0284 c 0.0246,-0.0378 0.0587,-0.0861 0.1023,-0.1448 0.0445,-0.0597 0.1079,-0.1127 0.1903,-0.1591 0.0834,-0.0474 0.1961,-0.0711 0.3381,-0.0711 0.1837,0 0.3456,0.046 0.4858,0.1378 0.1402,0.0919 0.2495,0.2221 0.3281,0.3907 0.0786,0.1685 0.1179,0.3674 0.1179,0.5965 0,0.2311 -0.0393,0.4314 -0.1179,0.6009 -0.0786,0.1686 -0.1875,0.2992 -0.3267,0.392 -0.1392,0.0919 -0.2997,0.1378 -0.4815,0.1378 -0.1402,0 -0.2524,-0.0232 -0.3367,-0.0696 -0.0842,-0.0473 -0.1491,-0.1008 -0.1946,-0.1605 -0.0454,-0.0606 -0.0805,-0.1108 -0.1051,-0.1506 h -0.0398 v 0.3353 z m 0.3295,-1.0909 c 0,0.1647 0.0242,0.3101 0.0725,0.436 0.0483,0.125 0.1188,0.2231 0.2116,0.2941 0.0928,0.07 0.2065,0.1051 0.3409,0.1051 0.1402,0 0.2571,-0.0369 0.3509,-0.1108 0.0947,-0.0748 0.1657,-0.1752 0.2131,-0.3011 0.0482,-0.1269 0.0724,-0.268 0.0724,-0.4233 0,-0.1534 -0.0237,-0.2917 -0.071,-0.4148 -0.0464,-0.1241 -0.117,-0.2221 -0.2117,-0.294 -0.0937,-0.073 -0.2116,-0.1094 -0.3537,-0.1094 -0.1363,0 -0.2509,0.0345 -0.3437,0.1037 -0.0928,0.0682 -0.1629,0.1638 -0.2102,0.2869 -0.0474,0.1222 -0.0711,0.2647 -0.0711,0.4276 z m 3.0242,1.1363 c -0.2102,0 -0.3916,-0.0464 -0.5441,-0.1392 -0.1515,-0.0937 -0.2684,-0.2244 -0.3508,-0.392 -0.0814,-0.1686 -0.1222,-0.3646 -0.1222,-0.5881 0,-0.2235 0.0408,-0.4204 0.1222,-0.5909 0.0824,-0.1714 0.197,-0.3049 0.3437,-0.4006 0.1478,-0.0966 0.3201,-0.1449 0.5171,-0.1449 0.1136,0 0.2258,0.019 0.3366,0.0569 0.1108,0.0378 0.2117,0.0994 0.3026,0.1846 0.0909,0.0843 0.1633,0.196 0.2173,0.3352 0.054,0.1393 0.081,0.3107 0.081,0.5143 v 0.142 h -1.6818 v -0.2898 h 1.3409 c 0,-0.1231 -0.0246,-0.2329 -0.0739,-0.3295 -0.0483,-0.0966 -0.1174,-0.1728 -0.2074,-0.2287 -0.089,-0.0559 -0.1941,-0.0838 -0.3153,-0.0838 -0.1335,0 -0.2491,0.0331 -0.3466,0.0994 -0.0966,0.0654 -0.1709,0.1506 -0.223,0.2557 -0.0521,0.1051 -0.0781,0.2178 -0.0781,0.3381 v 0.1931 c 0,0.1648 0.0284,0.3045 0.0852,0.4191 0.0578,0.1136 0.1378,0.2003 0.24,0.2599 0.1023,0.0587 0.2212,0.0881 0.3566,0.0881 0.088,0 0.1676,-0.0123 0.2386,-0.0369 0.072,-0.0256 0.134,-0.0635 0.1861,-0.1137 0.0521,-0.0511 0.0923,-0.1146 0.1207,-0.1903 l 0.3239,0.0909 c -0.0341,0.1098 -0.0914,0.2064 -0.1719,0.2898 -0.0805,0.0823 -0.1799,0.1467 -0.2983,0.1931 -0.1183,0.0455 -0.2514,0.0682 -0.3991,0.0682 z m 1.4133,-0.0454 v -2.1818 h 0.3239 v 0.3295 h 0.0227 c 0.0398,-0.108 0.1118,-0.1956 0.2159,-0.2628 0.1042,-0.0672 0.2216,-0.1008 0.3523,-0.1008 0.0246,0 0.0554,4e-4 0.0923,0.0014 0.037,9e-4 0.0649,0.0023 0.0838,0.0042 v 0.341 c -0.0113,-0.0029 -0.0374,-0.0072 -0.0781,-0.0128 -0.0398,-0.0067 -0.0819,-0.01 -0.1264,-0.01 -0.1061,0 -0.2008,0.0223 -0.2841,0.0668 -0.0824,0.0435 -0.1477,0.1042 -0.196,0.1818 -0.0474,0.0767 -0.071,0.1643 -0.071,0.2628 v 1.3807 z"
     fill="#000000"
     id="path7" />
  <path
     d="m 11.4318,20.2727 h 1.2614 l 2.9659,7.2443 h 0.1023 l 2.9659,-7.2443 h 1.2613 V 29 H 19 V 22.3693 H 18.9148 L 16.1875,29 H 15.233 L 12.5057,22.3693 H 12.4205 V 29 h -0.9887 z m 12.4656,8.8807 c -0.4148,0 -0.7912,-0.0781 -1.1293,-0.2344 -0.3381,-0.1591 -0.6065,-0.3878 -0.8054,-0.686 -0.1989,-0.3012 -0.2983,-0.6648 -0.2983,-1.091 0,-0.375 0.0739,-0.6789 0.2216,-0.9119 0.1477,-0.2358 0.3452,-0.4204 0.5923,-0.554 0.2472,-0.1335 0.5199,-0.2329 0.8182,-0.2983 0.3012,-0.0681 0.6037,-0.1221 0.9077,-0.1619 0.3977,-0.0511 0.7202,-0.0895 0.9673,-0.115 0.25,-0.0285 0.4318,-0.0753 0.5455,-0.1407 0.1165,-0.0653 0.1747,-0.179 0.1747,-0.3409 v -0.0341 c 0,-0.4204 -0.1151,-0.7471 -0.3452,-0.9801 -0.2273,-0.2329 -0.5724,-0.3494 -1.0355,-0.3494 -0.4801,0 -0.8565,0.1051 -1.1293,0.3153 -0.2727,0.2102 -0.4644,0.4347 -0.5752,0.6733 l -0.9546,-0.3409 c 0.1705,-0.3977 0.3977,-0.7074 0.6818,-0.929 0.287,-0.2244 0.5995,-0.3807 0.9375,-0.4687 0.3409,-0.0909 0.6762,-0.1364 1.0057,-0.1364 0.2102,0 0.4517,0.0256 0.7244,0.0767 0.2756,0.0483 0.5412,0.1492 0.7969,0.3026 0.2585,0.1534 0.473,0.3849 0.6435,0.6946 0.1704,0.3096 0.2557,0.7244 0.2557,1.2443 V 29 h -1.0057 v -0.8864 h -0.0511 c -0.0682,0.1421 -0.1819,0.2941 -0.341,0.456 -0.159,0.1619 -0.3707,0.2997 -0.6349,0.4134 -0.2642,0.1136 -0.5866,0.1704 -0.9673,0.1704 z M 24.0508,28.25 c 0.3977,0 0.7329,-0.0781 1.0057,-0.2344 0.2755,-0.1562 0.4829,-0.3579 0.6221,-0.6051 0.1421,-0.2471 0.2131,-0.5071 0.2131,-0.7798 v -0.9205 c -0.0426,0.0512 -0.1364,0.098 -0.2813,0.1407 -0.142,0.0397 -0.3068,0.0752 -0.4943,0.1065 -0.1846,0.0284 -0.365,0.054 -0.5412,0.0767 -0.1733,0.0199 -0.3139,0.0369 -0.4218,0.0511 -0.2614,0.0341 -0.5057,0.0895 -0.733,0.1662 -0.2244,0.0739 -0.4063,0.1861 -0.5455,0.3367 -0.1363,0.1477 -0.2045,0.3494 -0.2045,0.6051 0,0.3494 0.1293,0.6136 0.3878,0.7926 0.2613,0.1761 0.5923,0.2642 0.9929,0.2642 z M 28.733,29 v -6.5455 h 1.0056 V 29 Z m 0.5113,-7.6364 c -0.196,0 -0.365,-0.0667 -0.5071,-0.2002 -0.1392,-0.1336 -0.2088,-0.2941 -0.2088,-0.4816 0,-0.1875 0.0696,-0.348 0.2088,-0.4815 C 28.8793,20.0668 29.0483,20 29.2443,20 c 0.196,0 0.3637,0.0668 0.5029,0.2003 0.142,0.1335 0.213,0.294 0.213,0.4815 0,0.1875 -0.071,0.348 -0.213,0.4816 -0.1392,0.1335 -0.3069,0.2002 -0.5029,0.2002 z m 3.342,3.6989 V 29 h -1.0057 v -6.5455 h 0.9716 v 1.0228 h 0.0852 c 0.1534,-0.3324 0.3864,-0.5995 0.6989,-0.8012 0.3125,-0.2045 0.7159,-0.3068 1.2102,-0.3068 0.4432,0 0.831,0.0909 1.1634,0.2727 0.3324,0.179 0.5909,0.4518 0.7755,0.8182 0.1847,0.3637 0.277,0.8239 0.277,1.3807 V 29 h -1.0057 v -4.0909 c 0,-0.5142 -0.1335,-0.9148 -0.4005,-1.2017 -0.2671,-0.2898 -0.6335,-0.4347 -1.0995,-0.4347 -0.321,0 -0.6079,0.0696 -0.8607,0.2088 -0.25,0.1392 -0.4475,0.3424 -0.5924,0.6094 -0.1449,0.2671 -0.2173,0.5909 -0.2173,0.9716 z m 12.0479,4.0739 c -0.6136,0 -1.142,-0.1449 -1.5852,-0.4347 -0.4432,-0.2898 -0.7841,-0.6889 -1.0227,-1.1974 -0.2387,-0.5086 -0.358,-1.0895 -0.358,-1.7429 0,-0.6648 0.1222,-1.2515 0.3665,-1.76 0.2472,-0.5113 0.5909,-0.9105 1.0313,-1.1974 0.4431,-0.2898 0.9602,-0.4347 1.5511,-0.4347 0.4602,0 0.875,0.0852 1.2443,0.2557 0.3693,0.1705 0.6719,0.4091 0.9077,0.7159 0.2358,0.3068 0.3821,0.6648 0.4389,1.0739 h -1.0057 c -0.0767,-0.2983 -0.2471,-0.5625 -0.5113,-0.7926 -0.2614,-0.233 -0.6137,-0.3495 -1.0569,-0.3495 -0.392,0 -0.7358,0.1023 -1.0312,0.3068 -0.2926,0.2017 -0.5213,0.4873 -0.6861,0.8566 -0.1619,0.3665 -0.2429,0.7969 -0.2429,1.2912 0,0.5057 0.0796,0.946 0.2386,1.321 0.162,0.375 0.3892,0.6662 0.6819,0.8736 0.2954,0.2074 0.642,0.3111 1.0397,0.3111 0.2614,0 0.4986,-0.0455 0.7117,-0.1364 0.213,-0.0909 0.3934,-0.2216 0.5412,-0.3921 0.1477,-0.1704 0.2528,-0.375 0.3153,-0.6136 h 1.0057 c -0.0568,0.3864 -0.1974,0.7344 -0.4219,1.044 -0.2216,0.3069 -0.5156,0.5512 -0.8821,0.733 -0.3636,0.179 -0.7869,0.2685 -1.2699,0.2685 z m 5.0497,-4.0739 V 29 h -1.0056 v -8.7273 h 1.0056 v 3.2046 h 0.0853 c 0.1534,-0.3381 0.3835,-0.6066 0.6903,-0.8054 0.3097,-0.2017 0.7216,-0.3026 1.2358,-0.3026 0.446,0 0.8367,0.0895 1.1719,0.2685 0.3352,0.1761 0.5952,0.4474 0.7798,0.8139 0.1875,0.3636 0.2813,0.8267 0.2813,1.3892 V 29 h -1.0057 v -4.0909 c 0,-0.5199 -0.135,-0.9219 -0.4048,-1.206 -0.2671,-0.2869 -0.6378,-0.4304 -1.1123,-0.4304 -0.3295,0 -0.625,0.0696 -0.8863,0.2088 -0.2585,0.1392 -0.4631,0.3424 -0.6137,0.6094 -0.1477,0.2671 -0.2216,0.5909 -0.2216,0.9716 z m 8.0103,4.0909 c -0.4147,0 -0.7911,-0.0781 -1.1292,-0.2344 -0.3381,-0.1591 -0.6065,-0.3878 -0.8054,-0.686 -0.1989,-0.3012 -0.2983,-0.6648 -0.2983,-1.091 0,-0.375 0.0739,-0.6789 0.2216,-0.9119 0.1477,-0.2358 0.3452,-0.4204 0.5923,-0.554 0.2472,-0.1335 0.5199,-0.2329 0.8182,-0.2983 0.3011,-0.0681 0.6037,-0.1221 0.9077,-0.1619 0.3977,-0.0511 0.7201,-0.0895 0.9673,-0.115 0.25,-0.0285 0.4318,-0.0753 0.5454,-0.1407 0.1165,-0.0653 0.1748,-0.179 0.1748,-0.3409 v -0.0341 c 0,-0.4204 -0.1151,-0.7471 -0.3452,-0.9801 -0.2273,-0.2329 -0.5724,-0.3494 -1.0355,-0.3494 -0.4801,0 -0.8566,0.1051 -1.1293,0.3153 -0.2727,0.2102 -0.4645,0.4347 -0.5753,0.6733 l -0.9545,-0.3409 c 0.1704,-0.3977 0.3977,-0.7074 0.6818,-0.929 0.2869,-0.2244 0.5994,-0.3807 0.9375,-0.4687 0.3409,-0.0909 0.6761,-0.1364 1.0057,-0.1364 0.2102,0 0.4517,0.0256 0.7244,0.0767 0.2756,0.0483 0.5412,0.1492 0.7969,0.3026 0.2585,0.1534 0.473,0.3849 0.6435,0.6946 0.1704,0.3096 0.2556,0.7244 0.2556,1.2443 V 29 h -1.0056 v -0.8864 h -0.0512 c -0.0682,0.1421 -0.1818,0.2941 -0.3409,0.456 -0.1591,0.1619 -0.3707,0.2997 -0.6349,0.4134 -0.2642,0.1136 -0.5867,0.1704 -0.9674,0.1704 z M 57.8477,28.25 c 0.3977,0 0.7329,-0.0781 1.0056,-0.2344 0.2756,-0.1562 0.483,-0.3579 0.6222,-0.6051 0.142,-0.2471 0.2131,-0.5071 0.2131,-0.7798 v -0.9205 c -0.0426,0.0512 -0.1364,0.098 -0.2813,0.1407 -0.142,0.0397 -0.3068,0.0752 -0.4943,0.1065 -0.1847,0.0284 -0.3651,0.054 -0.5412,0.0767 -0.1733,0.0199 -0.3139,0.0369 -0.4219,0.0511 -0.2613,0.0341 -0.5057,0.0895 -0.7329,0.1662 -0.2245,0.0739 -0.4063,0.1861 -0.5455,0.3367 -0.1363,0.1477 -0.2045,0.3494 -0.2045,0.6051 0,0.3494 0.1292,0.6136 0.3878,0.7926 0.2613,0.1761 0.5923,0.2642 0.9929,0.2642 z M 62.5298,29 v -6.5455 h 1.0057 V 29 Z m 0.5114,-7.6364 c -0.196,0 -0.3651,-0.0667 -0.5071,-0.2002 -0.1392,-0.1336 -0.2088,-0.2941 -0.2088,-0.4816 0,-0.1875 0.0696,-0.348 0.2088,-0.4815 C 62.6761,20.0668 62.8452,20 63.0412,20 c 0.196,0 0.3636,0.0668 0.5028,0.2003 0.1421,0.1335 0.2131,0.294 0.2131,0.4815 0,0.1875 -0.071,0.348 -0.2131,0.4816 -0.1392,0.1335 -0.3068,0.2002 -0.5028,0.2002 z m 3.342,3.6989 V 29 h -1.0057 v -6.5455 h 0.9716 v 1.0228 h 0.0852 c 0.1534,-0.3324 0.3864,-0.5995 0.6989,-0.8012 0.3125,-0.2045 0.7159,-0.3068 1.2102,-0.3068 0.4432,0 0.831,0.0909 1.1633,0.2727 0.3324,0.179 0.591,0.4518 0.7756,0.8182 0.1847,0.3637 0.277,0.8239 0.277,1.3807 V 29 h -1.0057 v -4.0909 c 0,-0.5142 -0.1335,-0.9148 -0.4005,-1.2017 -0.2671,-0.2898 -0.6336,-0.4347 -1.0995,-0.4347 -0.321,0 -0.6079,0.0696 -0.8608,0.2088 -0.25,0.1392 -0.4474,0.3424 -0.5923,0.6094 -0.1449,0.2671 -0.2173,0.5909 -0.2173,0.9716 z"
     fill="#ffffff"
     id="path29" />
  <path
     d="m 234.75,126.75 h -60 v 30 h 60 z"
     fill="#f0f0f0"
     stroke="#808080"
     stroke-width="1.5"
     id="path17-3" />
  <text
     xml:space="preserve"
     id="text34"
     style="font-size:11.3333px;white-space:pre;shape-inside:url(#rect34);display:inline;fill:#000000"
     transform="translate(0,8)"><tspan
       x="8.6699219"
       y="139.33337"
       id="tspan4"><tspan
         style="fill:#ffffff"
         id="tspan3">Parallel chain 2</tspan></tspan></text>
  <text
     xml:space="preserve"
     id="text34-5"
     style="font-size:11.3333px;white-space:pre;shape-inside:url(#rect34-3);display:inline;fill:#000000"
     transform="translate(0.230748,-40.72006)"><tspan
       x="8.6699219"
       y="139.33337"
       id="tspan6"><tspan
         style="fill:#ffffff"
         id="tspan5">Parallel chain 1</tspan></tspan></text>
  <text
     xml:space="preserve"
     id="text35-0"
     style="font-size:11.3333px;white-space:pre;shape-inside:url(#rect35-2);display:inline;fill:#000000;stroke-width:1;stroke-dasharray:none;paint-order:stroke fill markers"
     transform="translate(-20.830717,47.703968)"><tspan
       x="222.38672"
       y="98.251341"
       id="tspan7">2</tspan></text>
  <text
     xml:space="preserve"
     id="text35-9-6"
     style="font-size:11.3333px;white-space:pre;shape-inside:url(#rect35-0-2);display:inline;fill:#000000;stroke-width:1;stroke-dasharray:none;paint-order:stroke fill markers"
     transform="translate(165.10328,-70.046032)"><tspan
       x="222.38672"
       y="98.251341"
       id="tspan8">5</tspan></text>
  <text
     xml:space="preserve"
     id="text35-9-6-2"
     style="font-size:11.3333px;white-space:pre;shape-inside:url(#rect35-0-2-1);display:inline;fill:#000000;stroke-width:1;stroke-dasharray:none;paint-order:stroke fill markers"
     transform="translate(-98.89672,-69.046032)"><tspan
       x="222.38672"
       y="98.251341"
       id="tspan9">1</tspan></text>
  <text
     xml:space="preserve"
     id="text36-7"
     style="font-size:5.33333px;white-space:pre;shape-inside:url(#rect36-3);display:inline;fill:#000000;stroke-width:1;stroke-dasharray:none;paint-order:stroke fill markers"
     transform="translate(-15.29107,52.62525)"><tspan
       x="245.81641"
       y="101.18274"
       id="tspan10">1</tspan></text>
  <path
     d="m 313.75,126.75 h -60 v 30 h 60 z"
     fill="#f0f0f0"
     stroke="#808080"
     stroke-width="1.5"
     id="path17-3-4" />
  <text
     xml:space="preserve"
     id="text35-0-5"
     style="font-size:11.3333px;white-space:pre;shape-inside:url(#rect35-2-7);display:inline;fill:#000000;stroke-width:1;stroke-dasharray:none;paint-order:stroke fill markers"
     transform="translate(58.16928,47.703968)"><tspan
       x="222.38672"
       y="98.251341"
       id="tspan11">3</tspan></text>
  <text
     xml:space="preserve"
     id="text36-7-3"
     style="font-size:5.33333px;white-space:pre;shape-inside:url(#rect36-3-8);display:inline;fill:#000000;stroke-width:1;stroke-dasharray:none;paint-order:stroke fill markers"
     transform="translate(63.70893,52.62525)"><tspan
       x="245.81641"
       y="101.18274"
       id="tspan12">2</tspan></text>
  <path
     d="m 375.75,77.358094 h -60 v 29.999996 h 60 z"
     fill="#f0f0f0"
     stroke="#808080"
     stroke-width="1.5"
     id="path17-3-4-6" />
  <text
     xml:space="preserve"
     id="text35-0-5-3"
     style="font-size:11.3333px;white-space:pre;shape-inside:url(#rect35-2-7-1);display:inline;fill:#000000;stroke-width:1;stroke-dasharray:none;paint-order:stroke fill markers"
     transform="translate(120.16928,-2.195938)"><tspan
       x="222.38672"
       y="98.251341"
       id="tspan13">4</tspan></text>
  <text
     xml:space="preserve"
     id="text36-7-3-6"
     style="font-size:5.33333px;white-space:pre;shape-inside:url(#rect36-3-8-0);display:inline;fill:#000000;stroke-width:1;stroke-dasharray:none;paint-order:stroke fill markers"
     transform="translate(125.70893,2.725344)"><tspan
       x="245.81641"
       y="101.18274"
       id="tspan14">2</tspan></text>
  <path
     d="m 234.29396,77.358 h -60 v 30 h 60 z"
     fill="#f0f0f0"
     stroke="#808080"
     stroke-width="1.5"
     id="path17-3-4-6-4" />
  <text
     xml:space="preserve"
     id="text35-0-5-3-7"
     style="font-size:11.3333px;white-space:pre;shape-inside:url(#rect35-2-7-1-5);display:inline;fill:#000000;stroke-width:1;stroke-dasharray:none;paint-order:stroke fill markers"
     transform="translate(-21.28676,-1.6880316)"><tspan
       x="222.38672"
       y="98.251341"
       id="tspan15">2</tspan></text>
  <text
     xml:space="preserve"
     id="text36-7-3-6-5"
     style="font-size:5.33333px;white-space:pre;shape-inside:url(#rect36-3-8-0-5);display:inline;fill:#000000;stroke-width:1;stroke-dasharray:none;paint-order:stroke fill markers"
     transform="translate(-15.74711,3.2332504)"><tspan
       x="245.81641"
       y="101.18274"
       id="tspan16">1</tspan></text>
  <text
     xml:space="preserve"
     id="text36-0-7"
     style="font-size:5.33333px;white-space:pre;shape-inside:url(#rect36-6-8);display:inline;fill:#000000;stroke-width:1;stroke-dasharray:none;paint-order:stroke fill markers"
     transform="translate(167.92759,-65.32141)"><tspan
       x="245.81641"
       y="101.18274"
       id="tspan17">2</tspan></text>
  <text
     xml:space="preserve"
     id="text36-0-7-7"
     style="font-size:6.66667px;white-space:pre;shape-inside:url(#rect36-6-8-3);display:inline;fill:#000000;stroke-width:1;stroke-dasharray:none;paint-order:stroke fill markers"
     transform="translate(114.92759,-86.321412)"><tspan
       x="245.81641"
       y="102.39592"
       id="tspan18">1</tspan></text>
  <text
     xml:space="preserve"
     id="text36-0-7-5"
     style="font-size:6.66667px;white-space:pre;shape-inside:url(#rect36-6-8-2);display:inline;fill:#000000;stroke-width:1;stroke-dasharray:none;paint-order:stroke fill markers"
     transform="translate(-69.972406,-18.221318)"><tspan
       x="245.81641"
       y="102.39592"
       id="tspan19">2</tspan></text>
  <text
     xml:space="preserve"
     id="text36-0-7-4"
     style="font-size:6.66667px;white-space:pre;shape-inside:url(#rect36-6-8-4);display:inline;fill:#000000;stroke-width:1;stroke-dasharray:none;paint-order:stroke fill markers"
     transform="translate(71.127594,-18.821412)"><tspan
       x="245.81641"
       y="102.39592"
       id="tspan20">3</tspan></text>
  <text
     xml:space="preserve"
     id="text36-0-7-78"
     style="font-size:6.66667px;white-space:pre;shape-inside:url(#rect36-6-8-0);display:inline;fill:#000000;stroke-width:1;stroke-dasharray:none;paint-order:stroke fill markers"
     transform="translate(8.92759,30.678588)"><tspan
       x="245.81641"
       y="102.39592"
       id="tspan21">5</tspan></text>
  <text
     xml:space="preserve"
     id="text36-0-7-43"
     style="font-size:6.66667px;white-space:pre;shape-inside:url(#rect36-6-8-8);display:inline;fill:#000000;stroke-width:1;stroke-dasharray:none;paint-order:stroke fill markers"
     transform="translate(-69.07241,30.678588)"><tspan
       x="245.81641"
       y="102.39592"
       id="tspan22">4</tspan></text>
  <text
     xml:space="preserve"
     id="text36-0-7-9"
     style="font-size:5.33333px;white-space:pre;shape-inside:url(#rect36-6-8-1);display:inline;fill:#000000;stroke-width:1;stroke-dasharray:none;paint-order:stroke fill markers"
     transform="translate(-94.07241,-64.321412)"><tspan
       x="245.81641"
       y="101.18274"
       id="tspan23">1</tspan></text>
  <text
     xml:space="preserve"
     id="text41"
     style="font-size:5.33333px;white-space:pre;shape-inside:url(#rect41);display:inline;fill:#000000;stroke-width:1;stroke-dasharray:none;paint-order:stroke fill markers"><tspan
       x="15.289062"
       y="50.311649"
       id="tspan24">stf order</tspan></text>
</svg>
