<?xml version="1.0" encoding="UTF-8" standalone="no"?>
<svg
   width="226"
   height="116"
   viewBox="0 0 226 116"
   fill="none"
   version="1.1"
   id="svg14"
   xmlns="http://www.w3.org/2000/svg"
   xmlns:svg="http://www.w3.org/2000/svg">
  <defs
     id="defs14" />
  <path
     d="M 168,14 H 58 v 30 h 110 z"
     fill="#f0f0f0"
     stroke="#808080"
     stroke-width="1.5"
     id="path1" />
  <path
     d="m 64.0865,34 v -6.5455 h 0.9716 v 1.0228 h 0.0852 c 0.1364,-0.3495 0.3565,-0.6208 0.6605,-0.8139 0.304,-0.1961 0.669,-0.2941 1.0952,-0.2941 0.4318,0 0.7912,0.098 1.0781,0.2941 0.2898,0.1931 0.5156,0.4644 0.6776,0.8139 h 0.0681 c 0.1676,-0.3381 0.4191,-0.6066 0.7543,-0.8054 0.3352,-0.2017 0.7372,-0.3026 1.206,-0.3026 0.5852,0 1.0639,0.1833 1.436,0.5497 0.3722,0.3637 0.5583,0.9304 0.5583,1.7003 V 34 h -1.0057 v -4.3807 c 0,-0.4829 -0.1321,-0.8281 -0.3963,-1.0355 -0.2642,-0.2074 -0.5753,-0.3111 -0.9332,-0.3111 -0.4603,0 -0.8168,0.1392 -1.0696,0.4176 -0.2529,0.2756 -0.3793,0.625 -0.3793,1.0483 V 34 h -1.0227 v -4.483 c 0,-0.3721 -0.1208,-0.6718 -0.3623,-0.8991 -0.2414,-0.2301 -0.5525,-0.3452 -0.9332,-0.3452 -0.2614,0 -0.5057,0.0696 -0.7329,0.2088 -0.2245,0.1392 -0.4063,0.3324 -0.5455,0.5796 -0.1364,0.2443 -0.2045,0.527 -0.2045,0.848 V 34 Z m 12.3558,0.1534 c -0.4148,0 -0.7912,-0.0781 -1.1293,-0.2344 -0.338,-0.1591 -0.6065,-0.3878 -0.8054,-0.686 -0.1988,-0.3012 -0.2983,-0.6648 -0.2983,-1.091 0,-0.375 0.0739,-0.6789 0.2216,-0.9119 0.1478,-0.2358 0.3452,-0.4204 0.5924,-0.554 0.2471,-0.1335 0.5198,-0.2329 0.8181,-0.2983 0.3012,-0.0681 0.6037,-0.1221 0.9077,-0.1619 0.3977,-0.0511 0.7202,-0.0895 0.9673,-0.115 0.25,-0.0285 0.4319,-0.0753 0.5455,-0.1407 0.1165,-0.0653 0.1747,-0.179 0.1747,-0.3409 v -0.0341 c 0,-0.4204 -0.115,-0.7471 -0.3452,-0.9801 -0.2272,-0.2329 -0.5724,-0.3494 -1.0355,-0.3494 -0.4801,0 -0.8565,0.1051 -1.1292,0.3153 -0.2728,0.2102 -0.4645,0.4347 -0.5753,0.6733 l -0.9546,-0.3409 c 0.1705,-0.3977 0.3978,-0.7074 0.6819,-0.929 0.2869,-0.2244 0.5994,-0.3807 0.9375,-0.4687 0.3409,-0.0909 0.6761,-0.1364 1.0056,-0.1364 0.2103,0 0.4517,0.0256 0.7245,0.0767 0.2755,0.0483 0.5412,0.1492 0.7968,0.3026 0.2586,0.1534 0.4731,0.3849 0.6435,0.6946 0.1705,0.3096 0.2557,0.7244 0.2557,1.2443 V 34 h -1.0057 v -0.8864 h -0.0511 c -0.0682,0.1421 -0.1818,0.2941 -0.3409,0.456 -0.1591,0.1619 -0.3708,0.2997 -0.635,0.4134 -0.2642,0.1136 -0.5866,0.1704 -0.9673,0.1704 z M 76.5957,33.25 c 0.3977,0 0.733,-0.0781 1.0057,-0.2344 0.2756,-0.1562 0.4829,-0.3579 0.6221,-0.6051 0.1421,-0.2471 0.2131,-0.5071 0.2131,-0.7798 v -0.9205 c -0.0426,0.0512 -0.1364,0.098 -0.2812,0.1407 -0.1421,0.0397 -0.3069,0.0752 -0.4944,0.1065 -0.1846,0.0284 -0.365,0.054 -0.5411,0.0767 -0.1733,0.0199 -0.314,0.0369 -0.4219,0.0511 -0.2614,0.0341 -0.5057,0.0895 -0.733,0.1662 -0.2244,0.0739 -0.4062,0.1861 -0.5454,0.3367 -0.1364,0.1477 -0.2046,0.3494 -0.2046,0.6051 0,0.3494 0.1293,0.6136 0.3878,0.7926 0.2614,0.1761 0.5923,0.2642 0.9929,0.2642 z M 81.2779,34 v -6.5455 h 1.0057 V 34 Z m 0.5113,-7.6364 c -0.196,0 -0.365,-0.0667 -0.5071,-0.2002 -0.1392,-0.1336 -0.2088,-0.2941 -0.2088,-0.4816 0,-0.1875 0.0696,-0.348 0.2088,-0.4815 C 81.4242,25.0668 81.5932,25 81.7892,25 c 0.1961,0 0.3637,0.0668 0.5029,0.2003 0.142,0.1335 0.213,0.294 0.213,0.4815 0,0.1875 -0.071,0.348 -0.213,0.4816 -0.1392,0.1335 -0.3068,0.2002 -0.5029,0.2002 z m 3.342,3.6989 V 34 h -1.0057 v -6.5455 h 0.9716 v 1.0228 h 0.0853 c 0.1534,-0.3324 0.3863,-0.5995 0.6988,-0.8012 0.3125,-0.2045 0.7159,-0.3068 1.2102,-0.3068 0.4432,0 0.831,0.0909 1.1634,0.2727 0.3324,0.179 0.5909,0.4518 0.7756,0.8182 0.1846,0.3637 0.277,0.8239 0.277,1.3807 V 34 h -1.0057 v -4.0909 c 0,-0.5142 -0.1336,-0.9148 -0.4006,-1.2017 -0.267,-0.2898 -0.6335,-0.4347 -1.0994,-0.4347 -0.3211,0 -0.608,0.0696 -0.8608,0.2088 -0.25,0.1392 -0.4475,0.3424 -0.5924,0.6094 -0.1448,0.2671 -0.2173,0.5909 -0.2173,0.9716 z M 94.6564,34 v -8.7273 h 1.0057 v 3.2216 h 0.0852 c 0.0739,-0.1136 0.1762,-0.2585 0.3069,-0.4346 0.1335,-0.179 0.3238,-0.3381 0.571,-0.4773 0.25,-0.1421 0.588,-0.2131 1.0142,-0.2131 0.5511,0 1.0369,0.1378 1.4574,0.4134 0.4204,0.2755 0.7485,0.6662 0.9842,1.1718 0.236,0.5057 0.354,1.1023 0.354,1.7898 0,0.6932 -0.118,1.2941 -0.354,1.8026 -0.2357,0.5057 -0.5624,0.8977 -0.98,1.1761 -0.4176,0.2756 -0.8991,0.4134 -1.4446,0.4134 -0.4204,0 -0.7571,-0.0696 -1.0099,-0.2088 C 96.3936,33.7855 96.199,33.625 96.0627,33.446 95.9263,33.2642 95.8212,33.1136 95.7473,32.9943 H 95.628 V 34 Z m 0.9887,-3.2727 c 0,0.4943 0.0724,0.9304 0.2173,1.3082 0.1449,0.375 0.3565,0.669 0.6349,0.8821 0.2784,0.2102 0.6194,0.3154 1.0228,0.3154 0.4204,0 0.7713,-0.1108 1.0525,-0.3324 0.2841,-0.2245 0.4972,-0.5256 0.6392,-0.9034 0.1449,-0.3807 0.2174,-0.804 0.2174,-1.2699 0,-0.4603 -0.0711,-0.875 -0.2131,-1.2443 -0.1392,-0.3722 -0.3509,-0.6662 -0.635,-0.8821 -0.2812,-0.2188 -0.6349,-0.3282 -1.061,-0.3282 -0.4091,0 -0.7529,0.1037 -1.0313,0.3111 -0.2784,0.2046 -0.4886,0.4915 -0.6307,0.8608 -0.142,0.3665 -0.213,0.794 -0.213,1.2827 z m 7.3339,-5.4546 V 34 h -1.006 v -8.7273 z m 4.501,8.8637 c -0.591,0 -1.109,-0.1407 -1.555,-0.4219 -0.444,-0.2813 -0.79,-0.6747 -1.04,-1.1804 -0.247,-0.5057 -0.371,-1.0966 -0.371,-1.7727 0,-0.6819 0.124,-1.277 0.371,-1.7855 0.25,-0.5086 0.596,-0.9035 1.04,-1.1847 0.446,-0.2813 0.964,-0.4219 1.555,-0.4219 0.591,0 1.108,0.1406 1.551,0.4219 0.446,0.2812 0.793,0.6761 1.04,1.1847 0.25,0.5085 0.375,1.1036 0.375,1.7855 0,0.6761 -0.125,1.267 -0.375,1.7727 -0.247,0.5057 -0.594,0.8991 -1.04,1.1804 -0.443,0.2812 -0.96,0.4219 -1.551,0.4219 z m 0,-0.9034 c 0.449,0 0.818,-0.1151 1.108,-0.3452 0.29,-0.2301 0.504,-0.5327 0.643,-0.9077 0.14,-0.375 0.209,-0.7812 0.209,-1.2187 0,-0.4375 -0.069,-0.8452 -0.209,-1.223 -0.139,-0.3779 -0.353,-0.6833 -0.643,-0.9162 -0.29,-0.233 -0.659,-0.3495 -1.108,-0.3495 -0.449,0 -0.818,0.1165 -1.108,0.3495 -0.29,0.2329 -0.504,0.5383 -0.643,0.9162 -0.14,0.3778 -0.209,0.7855 -0.209,1.223 0,0.4375 0.069,0.8437 0.209,1.2187 0.139,0.375 0.353,0.6776 0.643,0.9077 0.29,0.2301 0.659,0.3452 1.108,0.3452 z m 7.16,0.9034 c -0.614,0 -1.142,-0.1449 -1.585,-0.4347 -0.443,-0.2898 -0.784,-0.6889 -1.023,-1.1974 -0.238,-0.5086 -0.358,-1.0895 -0.358,-1.7429 0,-0.6648 0.122,-1.2515 0.367,-1.76 0.247,-0.5113 0.591,-0.9105 1.031,-1.1974 0.443,-0.2898 0.96,-0.4347 1.551,-0.4347 0.46,0 0.875,0.0852 1.244,0.2557 0.37,0.1705 0.672,0.4091 0.908,0.7159 0.236,0.3068 0.382,0.6648 0.439,1.0739 h -1.006 c -0.076,-0.2983 -0.247,-0.5625 -0.511,-0.7926 -0.261,-0.233 -0.614,-0.3495 -1.057,-0.3495 -0.392,0 -0.736,0.1023 -1.031,0.3068 -0.293,0.2017 -0.521,0.4873 -0.686,0.8566 -0.162,0.3665 -0.243,0.7969 -0.243,1.2912 0,0.5057 0.079,0.946 0.239,1.321 0.161,0.375 0.389,0.6662 0.681,0.8736 0.296,0.2074 0.642,0.3111 1.04,0.3111 0.261,0 0.499,-0.0455 0.712,-0.1364 0.213,-0.0909 0.393,-0.2216 0.541,-0.3921 0.148,-0.1704 0.253,-0.375 0.315,-0.6136 h 1.006 c -0.057,0.3864 -0.197,0.7344 -0.422,1.044 -0.222,0.3069 -0.516,0.5512 -0.882,0.733 -0.364,0.179 -0.787,0.2685 -1.27,0.2685 z m 4.982,-2.5228 -0.017,-1.2443 h 0.204 l 2.864,-2.9148 h 1.244 l -3.051,3.0853 h -0.085 z M 118.684,34 v -8.7273 h 1.006 V 34 Z m 4.159,0 -2.557,-3.2386 0.716,-0.6989 3.12,3.9375 z m 8.658,-6.5455 v 0.8523 h -3.528 V 27.4545 Z M 129.03,34 v -7.4489 c 0,-0.375 0.088,-0.6875 0.264,-0.9375 0.176,-0.25 0.405,-0.4375 0.686,-0.5625 0.281,-0.125 0.578,-0.1875 0.891,-0.1875 0.247,0 0.448,0.0199 0.605,0.0597 0.156,0.0398 0.272,0.0767 0.349,0.1108 l -0.29,0.8693 c -0.051,-0.017 -0.122,-0.0383 -0.213,-0.0639 -0.088,-0.0256 -0.204,-0.0384 -0.349,-0.0384 -0.333,0 -0.573,0.0838 -0.72,0.2515 -0.145,0.1676 -0.218,0.4133 -0.218,0.7372 V 34 Z m 8.006,-2.6761 v -3.8694 h 1.005 V 34 h -1.005 v -1.108 h -0.068 c -0.154,0.3324 -0.393,0.6151 -0.716,0.8481 -0.324,0.2301 -0.733,0.3451 -1.228,0.3451 -0.409,0 -0.772,-0.0895 -1.091,-0.2684 -0.318,-0.1819 -0.568,-0.4546 -0.75,-0.8182 -0.181,-0.3665 -0.272,-0.8281 -0.272,-1.385 v -4.1591 h 1.005 v 4.091 c 0,0.4772 0.134,0.8579 0.401,1.142 0.27,0.2841 0.614,0.4261 1.031,0.4261 0.25,0 0.504,-0.0639 0.763,-0.1917 0.261,-0.1279 0.48,-0.3239 0.656,-0.5881 0.179,-0.2642 0.269,-0.6008 0.269,-1.0099 z m 3.853,-1.2614 V 34 h -1.006 v -6.5455 h 0.972 v 1.0228 h 0.085 c 0.154,-0.3324 0.387,-0.5995 0.699,-0.8012 0.313,-0.2045 0.716,-0.3068 1.21,-0.3068 0.443,0 0.831,0.0909 1.164,0.2727 0.332,0.179 0.591,0.4518 0.775,0.8182 0.185,0.3637 0.277,0.8239 0.277,1.3807 V 34 h -1.006 v -4.0909 c 0,-0.5142 -0.133,-0.9148 -0.4,-1.2017 -0.267,-0.2898 -0.634,-0.4347 -1.1,-0.4347 -0.321,0 -0.607,0.0696 -0.86,0.2088 -0.25,0.1392 -0.448,0.3424 -0.593,0.6094 -0.145,0.2671 -0.217,0.5909 -0.217,0.9716 z m 7.02,0 V 34 h -1.006 v -6.5455 h 0.971 v 1.0228 h 0.086 c 0.153,-0.3324 0.386,-0.5995 0.699,-0.8012 0.312,-0.2045 0.715,-0.3068 1.21,-0.3068 0.443,0 0.831,0.0909 1.163,0.2727 0.333,0.179 0.591,0.4518 0.776,0.8182 0.184,0.3637 0.277,0.8239 0.277,1.3807 V 34 h -1.006 v -4.0909 c 0,-0.5142 -0.134,-0.9148 -0.401,-1.2017 -0.267,-0.2898 -0.633,-0.4347 -1.099,-0.4347 -0.321,0 -0.608,0.0696 -0.861,0.2088 -0.25,0.1392 -0.447,0.3424 -0.592,0.6094 -0.145,0.2671 -0.217,0.5909 -0.217,0.9716 z m 8.758,4.0739 c -0.631,0 -1.175,-0.1392 -1.632,-0.4176 -0.455,-0.2813 -0.806,-0.6733 -1.053,-1.1762 -0.244,-0.5057 -0.366,-1.0937 -0.366,-1.7642 0,-0.6704 0.122,-1.2614 0.366,-1.7727 0.247,-0.5142 0.591,-0.9148 1.031,-1.2017 0.443,-0.2898 0.961,-0.4347 1.551,-0.4347 0.341,0 0.678,0.0568 1.01,0.1705 0.333,0.1136 0.635,0.2983 0.908,0.554 0.273,0.2528 0.49,0.588 0.652,1.0056 0.162,0.4176 0.243,0.9318 0.243,1.5426 v 0.4262 h -5.046 v -0.8693 h 4.023 c 0,-0.3694 -0.074,-0.6989 -0.221,-0.9887 -0.145,-0.2897 -0.353,-0.5184 -0.623,-0.6861 -0.267,-0.1676 -0.582,-0.2514 -0.946,-0.2514 -0.4,0 -0.747,0.0995 -1.039,0.2983 -0.29,0.196 -0.513,0.4517 -0.669,0.7671 -0.157,0.3153 -0.235,0.6534 -0.235,1.0142 v 0.5795 c 0,0.4943 0.085,0.9134 0.256,1.2571 0.173,0.3409 0.413,0.6009 0.72,0.7799 0.307,0.1761 0.663,0.2642 1.07,0.2642 0.264,0 0.503,-0.037 0.716,-0.1108 0.216,-0.0767 0.402,-0.1904 0.558,-0.341 0.156,-0.1534 0.277,-0.3437 0.362,-0.571 l 0.972,0.2728 c -0.103,0.3295 -0.274,0.6193 -0.516,0.8693 -0.241,0.2471 -0.54,0.4403 -0.895,0.5795 -0.355,0.1364 -0.754,0.2046 -1.197,0.2046 z m 5.245,-8.8637 V 34 h -1.005 v -8.7273 z"
     fill="#000000"
     id="path2" />
  <path
     d="M 69,79 H 9 v 30 h 60 z"
     fill="#f0f0f0"
     stroke="#808080"
     stroke-width="1.5"
     id="path3" />
  <text
     xml:space="preserve"
     style="font-size:10px;fill:#000000"
     x="10.849998"
     y="92.370003"
     id="text20-3"><tspan
       id="tspan20-6"
       x="10.849998"
       y="92.370003"
       style="font-size:9.33333px">parallel evm</tspan><tspan
       x="10.849998"
       y="104.87"
       id="tspan21-7"
       style="font-size:9.33333px">funnel</tspan></text>
  <path
     d="M 65.0913,100.636 V 105 h -0.5284 v -3.81 h -0.0256 l -1.0654,0.708 v -0.537 l 1.091,-0.725 z"
     fill="#000000"
     id="path4" />
  <path
     d="M 143,79 H 83 v 30 h 60 z"
     fill="#f0f0f0"
     stroke="#808080"
     stroke-width="1.5"
     id="path6" />
  <path
     d="m 136.635,105 v -0.384 l 1.441,-1.576 c 0.169,-0.185 0.308,-0.345 0.417,-0.482 0.11,-0.138 0.191,-0.267 0.243,-0.388 0.054,-0.122 0.081,-0.25 0.081,-0.383 0,-0.153 -0.037,-0.286 -0.111,-0.399 -0.072,-0.112 -0.172,-0.198 -0.298,-0.259 -0.126,-0.062 -0.268,-0.092 -0.426,-0.092 -0.168,0 -0.314,0.035 -0.439,0.104 -0.124,0.069 -0.219,0.164 -0.288,0.288 -0.066,0.124 -0.1,0.268 -0.1,0.435 h -0.503 c 0,-0.256 0.059,-0.48 0.177,-0.674 0.118,-0.193 0.279,-0.343 0.482,-0.451 0.204,-0.108 0.434,-0.162 0.688,-0.162 0.256,0 0.482,0.054 0.68,0.162 0.197,0.108 0.352,0.253 0.464,0.436 0.112,0.184 0.168,0.387 0.168,0.612 0,0.16 -0.029,0.317 -0.087,0.471 -0.057,0.152 -0.156,0.322 -0.298,0.509 -0.141,0.186 -0.336,0.413 -0.586,0.682 l -0.98,1.048 v 0.034 h 2.028 V 105 Z"
     fill="#000000"
     id="path8" />
  <path
     d="m 89,49 -11.5032,1.0048 6.6218,9.4597 z M 39.5735,84.8192 82.2004,54.9804 81.0535,53.3419 38.4265,83.1808 Z"
     fill="#ffffff"
     id="path9" />
  <path
     d="m 217,79 h -60 v 30 h 60 z"
     fill="#f0f0f0"
     stroke="#808080"
     stroke-width="1.5"
     id="path10" />
  <path
     d="m 212.016,105.06 c -0.281,0 -0.532,-0.049 -0.752,-0.145 -0.219,-0.097 -0.393,-0.231 -0.522,-0.403 -0.128,-0.173 -0.198,-0.374 -0.209,-0.603 h 0.537 c 0.011,0.141 0.06,0.262 0.145,0.364 0.085,0.101 0.197,0.179 0.334,0.235 0.138,0.055 0.291,0.083 0.458,0.083 0.188,0 0.354,-0.033 0.499,-0.098 0.145,-0.065 0.259,-0.156 0.341,-0.273 0.082,-0.116 0.124,-0.251 0.124,-0.405 0,-0.16 -0.04,-0.302 -0.12,-0.424 -0.079,-0.123 -0.196,-0.22 -0.349,-0.289 -0.154,-0.07 -0.341,-0.105 -0.563,-0.105 h -0.349 v -0.469 h 0.349 c 0.174,0 0.326,-0.031 0.456,-0.093 0.132,-0.063 0.235,-0.151 0.309,-0.265 0.075,-0.113 0.113,-0.247 0.113,-0.4 0,-0.148 -0.033,-0.276 -0.098,-0.386 -0.065,-0.109 -0.158,-0.194 -0.277,-0.255 -0.118,-0.062 -0.257,-0.092 -0.417,-0.092 -0.151,0 -0.293,0.028 -0.427,0.083 -0.132,0.054 -0.24,0.133 -0.323,0.237 -0.084,0.102 -0.13,0.225 -0.137,0.37 h -0.511 c 0.008,-0.228 0.077,-0.429 0.206,-0.601 0.13,-0.173 0.299,-0.308 0.508,-0.404 0.21,-0.097 0.441,-0.145 0.692,-0.145 0.27,0 0.501,0.054 0.695,0.164 0.193,0.108 0.341,0.25 0.445,0.428 0.104,0.178 0.155,0.369 0.155,0.575 0,0.246 -0.064,0.456 -0.193,0.629 -0.128,0.173 -0.302,0.293 -0.522,0.36 v 0.034 c 0.275,0.045 0.49,0.163 0.645,0.352 0.155,0.187 0.232,0.419 0.232,0.696 0,0.238 -0.064,0.451 -0.193,0.64 -0.128,0.187 -0.303,0.335 -0.525,0.443 -0.221,0.108 -0.473,0.162 -0.756,0.162 z"
     fill="#000000"
     id="path11" />
  <path
     d="m 137,49 4.881,10.4645 6.622,-9.4597 z m 50.573,34.1808 -42.626,-29.8389 -1.147,1.6385 42.627,29.8388 z"
     fill="#ffffff"
     id="path13" />
  <path
     d="m 113,49 -5.774,10 h 11.548 z m 1,35 V 58 h -2 v 26 z"
     fill="#ffffff"
     id="path14" />
  <text
     xml:space="preserve"
     style="font-size:10px;fill:#000000"
     x="171.29532"
     y="90.895737"
     id="text16"><tspan
       x="171.29532"
       y="90.895737"
       id="tspan17">carp</tspan><tspan
       x="171.29532"
       y="103.39574"
       id="tspan18">funnel</tspan></text>
  <text
     xml:space="preserve"
     style="font-size:10px;fill:#000000"
     x="98.808022"
     y="91.767227"
     id="text20"><tspan
       id="tspan20"
       x="98.808022"
       y="91.767227">mina</tspan><tspan
       x="98.808022"
       y="104.26723"
       id="tspan21">funnel</tspan></text>
</svg>
